<?xml version="1.0" encoding="UTF-8" standalone="no"?>
<!-- Created with Inkscape (http://www.inkscape.org/) -->

<svg
   xmlns:dc="http://purl.org/dc/elements/1.1/"
   xmlns:cc="http://creativecommons.org/ns#"
   xmlns:rdf="http://www.w3.org/1999/02/22-rdf-syntax-ns#"
   xmlns:svg="http://www.w3.org/2000/svg"
   xmlns="http://www.w3.org/2000/svg"
   xmlns:sodipodi="http://sodipodi.sourceforge.net/DTD/sodipodi-0.dtd"
   xmlns:inkscape="http://www.inkscape.org/namespaces/inkscape"
   width="566.92914"
   height="177.16534"
   id="svg3090"
   version="1.1"
   inkscape:version="0.48.0 r9654"
   sodipodi:docname="New document 3"
   inkscape:dataloss="true">
  <defs
     id="defs3092" />
  <sodipodi:namedview
     id="base"
     pagecolor="#ffffff"
     bordercolor="#666666"
     borderopacity="1.0"
     inkscape:pageopacity="0.0"
     inkscape:pageshadow="2"
     inkscape:zoom="4"
     inkscape:cx="319.0955"
     inkscape:cy="126.80515"
     inkscape:document-units="px"
     inkscape:current-layer="layer1"
     showgrid="false"
     units="cm"
     inkscape:window-width="991"
     inkscape:window-height="745"
     inkscape:window-x="208"
     inkscape:window-y="100"
     inkscape:window-maximized="0" />
  <metadata
     id="metadata3095">
    <rdf:RDF>
      <cc:Work
         rdf:about="">
        <dc:format>image/svg+xml</dc:format>
        <dc:type
           rdf:resource="http://purl.org/dc/dcmitype/StillImage" />
        <dc:title></dc:title>
      </cc:Work>
    </rdf:RDF>
  </metadata>
  <g
     inkscape:label="Layer 1"
     inkscape:groupmode="layer"
     id="layer1"
     transform="translate(0,-875.19551)">
    <rect
       style="fill:#000000;fill-opacity:1;stroke:none"
       id="rect3870"
       width="65.521027"
       height="6.0844316"
       x="309.91623"
       y="909.57275" />
    <path
       sodipodi:type="arc"
       style="fill:none;stroke:#000000;stroke-width:1;stroke-miterlimit:4;stroke-opacity:1;stroke-dasharray:none;stroke-dashoffset:0"
       id="path3874"
       sodipodi:cx="282.70975"
       sodipodi:cy="34.628574"
       sodipodi:rx="92.187965"
       sodipodi:ry="52.239845"
       d="m 374.89771,34.628574 a 92.187965,52.239845 0 1 1 -184.37593,0 92.187965,52.239845 0 1 1 184.37593,0 z"
       transform="matrix(1.7407916,0,0,2.5893011,-201.72386,925.80375)" />
    <path
       sodipodi:type="arc"
       style="fill:none;stroke:#000000;stroke-width:1;stroke-miterlimit:4;stroke-opacity:1;stroke-dasharray:none;stroke-dashoffset:0"
       id="path3892"
       sodipodi:cx="211.79593"
       sodipodi:cy="22.573223"
       sodipodi:rx="4.2548289"
       sodipodi:ry="4.2548289"
       d="m 216.05076,22.573223 a 4.2548289,4.2548289 0 1 1 -8.50966,0 4.2548289,4.2548289 0 1 1 8.50966,0 z"
       transform="translate(100.28728,918.98762)" />
    <path
       sodipodi:type="arc"
       style="fill:none;stroke:#000000;stroke-width:1;stroke-miterlimit:4;stroke-opacity:1;stroke-dasharray:none;stroke-dashoffset:0"
       id="path3894"
       sodipodi:cx="211.79593"
       sodipodi:cy="22.573223"
       sodipodi:rx="4.2548289"
       sodipodi:ry="4.2548289"
       d="m 216.05076,22.573223 a 4.2548289,4.2548289 0 1 1 -8.50966,0 4.2548289,4.2548289 0 1 1 8.50966,0 z"
       transform="translate(96.27579,933.02784)" />
    <path
       sodipodi:type="arc"
       style="fill:none;stroke:#000000;stroke-width:1;stroke-miterlimit:4;stroke-opacity:1;stroke-dasharray:none;stroke-dashoffset:0"
       id="path3896"
       sodipodi:cx="211.79593"
       sodipodi:cy="22.573223"
       sodipodi:rx="4.2548289"
       sodipodi:ry="4.2548289"
       d="m 216.05076,22.573223 a 4.2548289,4.2548289 0 1 1 -8.50966,0 4.2548289,4.2548289 0 1 1 8.50966,0 z"
       transform="translate(86.00568,949.39948)" />
    <path
       sodipodi:type="arc"
       style="fill:none;stroke:#000000;stroke-width:1;stroke-miterlimit:4;stroke-opacity:1;stroke-dasharray:none;stroke-dashoffset:0"
       id="path3898"
       sodipodi:cx="211.79593"
       sodipodi:cy="22.573223"
       sodipodi:rx="4.2548289"
       sodipodi:ry="4.2548289"
       d="m 216.05076,22.573223 a 4.2548289,4.2548289 0 1 1 -8.50966,0 4.2548289,4.2548289 0 1 1 8.50966,0 z"
       transform="translate(75.884043,967.12551)" />
    <path
       style="fill:none;stroke:#000000;stroke-width:1px;stroke-linecap:butt;stroke-linejoin:miter;stroke-opacity:1"
       d="M 310.55628,37.097441 201.24314,27.737295 311.89345,66.515044"
       id="path3900"
       inkscape:connector-curvature="0"
       transform="translate(0,875.19551)" />
    <path
       style="fill:none;stroke:#000000;stroke-width:1px;stroke-linecap:butt;stroke-linejoin:miter;stroke-opacity:1"
       d="M 309.21912,38.434605 188.54009,35.760277 310.89057,65.846462"
       id="path3902"
       inkscape:connector-curvature="0"
       transform="translate(0,875.19551)" />
    <text
       xml:space="preserve"
       style="font-size:12px;font-style:normal;font-variant:normal;font-weight:normal;font-stretch:normal;line-height:125%;letter-spacing:0px;word-spacing:0px;fill:#000000;fill-opacity:1;stroke:none;font-family:Times New Roman;-inkscape-font-specification:'Times New Roman,'"
       x="123.29587"
       y="933.78986"
       id="text3904"
       sodipodi:linespacing="125%"><tspan
         sodipodi:role="line"
         id="tspan3906"
         x="123.29587"
         y="933.78986">$G_i$</tspan></text>
    <text
       xml:space="preserve"
       style="font-size:12px;font-style:normal;font-variant:normal;font-weight:normal;font-stretch:normal;line-height:125%;letter-spacing:0px;word-spacing:0px;fill:#000000;fill-opacity:1;stroke:none;font-family:Times New Roman;-inkscape-font-specification:'Times New Roman,'"
       x="167.14548"
       y="895.91272"
       id="text3908"
       sodipodi:linespacing="125%"><tspan
         sodipodi:role="line"
         id="tspan3910"
         x="167.14548"
         y="895.91272">$G_1$</tspan></text>
    <text
       sodipodi:linespacing="125%"
       id="text3912"
       y="910.03436"
       x="146.6618"
       style="font-size:12px;font-style:normal;font-variant:normal;font-weight:normal;font-stretch:normal;line-height:125%;letter-spacing:0px;word-spacing:0px;fill:#000000;fill-opacity:1;stroke:none;font-family:Times New Roman;-inkscape-font-specification:'Times New Roman,'"
       xml:space="preserve"><tspan
         y="910.03436"
         x="146.6618"
         id="tspan3914"
         sodipodi:role="line">$G_2$</tspan></text>
    <text
       sodipodi:linespacing="125%"
       id="text3916"
       y="964.42896"
       x="99.20488"
       style="font-size:12px;font-style:normal;font-variant:normal;font-weight:normal;font-stretch:normal;line-height:125%;letter-spacing:0px;word-spacing:0px;fill:#000000;fill-opacity:1;stroke:none;font-family:Times New Roman;-inkscape-font-specification:'Times New Roman,'"
       xml:space="preserve"><tspan
         y="964.42896"
         x="99.20488"
         id="tspan3918"
         sodipodi:role="line">$G_N$</tspan></text>
    <g
       id="g3924"
       transform="translate(2,4.5)">
      <text
         sodipodi:linespacing="125%"
         id="text3920"
         y="973.61084"
         x="305.5"
         style="font-size:12px;font-style:normal;font-variant:normal;font-weight:normal;font-stretch:normal;line-height:125%;letter-spacing:0px;word-spacing:0px;fill:#000000;fill-opacity:1;stroke:none;font-family:Times New Roman;-inkscape-font-specification:'Times New Roman,'"
         xml:space="preserve"><tspan
           y="973.61084"
           x="305.5"
           id="tspan3922"
           sodipodi:role="line">$O_{\lambda}$</tspan></text>
    </g>
    <g
       transform="translate(16.25,-27.5)"
       id="g3928">
      <text
         xml:space="preserve"
         style="font-size:12px;font-style:normal;font-variant:normal;font-weight:normal;font-stretch:normal;line-height:125%;letter-spacing:0px;word-spacing:0px;fill:#000000;fill-opacity:1;stroke:none;font-family:Times New Roman;-inkscape-font-specification:'Times New Roman,'"
         x="305.5"
         y="973.61084"
         id="text3930"
         sodipodi:linespacing="125%"><tspan
           sodipodi:role="line"
           id="tspan3932"
           x="305.5"
           y="973.61084">$O_{\text{1500 nm}}$</tspan></text>
    </g>
    <g
       id="g3953"
       transform="translate(9.25,-13)">
      <text
         sodipodi:linespacing="125%"
         id="text3955"
         y="973.61084"
         x="305.5"
         style="font-size:12px;font-style:normal;font-variant:normal;font-weight:normal;font-stretch:normal;line-height:125%;letter-spacing:0px;word-spacing:0px;fill:#000000;fill-opacity:1;stroke:none;font-family:Times New Roman;-inkscape-font-specification:'Times New Roman,'"
         xml:space="preserve"><tspan
           y="973.61084"
           x="305.5"
           id="tspan3957"
           sodipodi:role="line">$O_{\text{1501 nm}}$</tspan></text>
    </g>
    <text
       xml:space="preserve"
       style="font-size:12px;font-style:normal;font-variant:normal;font-weight:normal;font-stretch:normal;line-height:125%;letter-spacing:0px;word-spacing:0px;fill:#000000;fill-opacity:1;stroke:none;font-family:Times New Roman;-inkscape-font-specification:'Times New Roman,'"
       x="306.25"
       y="902.36084"
       id="text3959"
       sodipodi:linespacing="125%"><tspan
         sodipodi:role="line"
         id="tspan3961"
         x="306.25"
         y="902.36084">$I$</tspan></text>
    <path
       sodipodi:type="arc"
       style="fill:none;stroke:#000000;stroke-width:1;stroke-miterlimit:4;stroke-opacity:1;stroke-dasharray:none;stroke-dashoffset:0"
       id="path3965"
       sodipodi:cx="311.5"
       sodipodi:cy="66.165344"
       sodipodi:rx="118"
       sodipodi:ry="111.5"
       d="m 429.5,66.165344 a 118,111.5 0 1 1 -236,0 118,111.5 0 1 1 236,0 z"
       transform="translate(0,875.19551)" />
    <path
       transform="matrix(1.0801688,0,0,1.0801688,-24.972574,869.89112)"
       d="m 429.5,66.165344 a 118,111.5 0 1 1 -236,0 118,111.5 0 1 1 236,0 z"
       sodipodi:ry="111.5"
       sodipodi:rx="118"
       sodipodi:cy="66.165344"
       sodipodi:cx="311.5"
       id="path3967"
       style="fill:none;stroke:#000000;stroke-width:1;stroke-miterlimit:4;stroke-opacity:1;stroke-dasharray:none;stroke-dashoffset:0"
       sodipodi:type="arc" />
    <path
       transform="matrix(1.1694545,0,0,1.1694545,-52.785074,863.9835)"
       d="m 429.5,66.165344 a 118,111.5 0 1 1 -236,0 118,111.5 0 1 1 236,0 z"
       sodipodi:ry="111.5"
       sodipodi:rx="118"
       sodipodi:cy="66.165344"
       sodipodi:cx="311.5"
       id="path3971"
       style="fill:none;stroke:#000000;stroke-width:1;stroke-miterlimit:4;stroke-opacity:1;stroke-dasharray:none;stroke-dashoffset:0"
       sodipodi:type="arc" />
    <path
       transform="matrix(1.3301688,0,0,1.3301688,-102.84757,853.34978)"
       d="m 429.5,66.165344 a 118,111.5 0 1 1 -236,0 118,111.5 0 1 1 236,0 z"
       sodipodi:ry="111.5"
       sodipodi:rx="118"
       sodipodi:cy="66.165344"
       sodipodi:cx="311.5"
       id="path3973"
       style="fill:none;stroke:#000000;stroke-width:1;stroke-miterlimit:4;stroke-opacity:1;stroke-dasharray:none;stroke-dashoffset:0"
       sodipodi:type="arc" />
    <path
       transform="matrix(1.4936709,0,0,1.4936709,-153.77848,842.53161)"
       d="m 429.5,66.165344 a 118,111.5 0 1 1 -236,0 118,111.5 0 1 1 236,0 z"
       sodipodi:ry="111.5"
       sodipodi:rx="118"
       sodipodi:cy="66.165344"
       sodipodi:cx="311.5"
       id="path3975"
       style="fill:none;stroke:#000000;stroke-width:1;stroke-miterlimit:4;stroke-opacity:1;stroke-dasharray:none;stroke-dashoffset:0"
       sodipodi:type="arc" />
    <path
       style="fill:#ffffff;stroke:#000000;stroke-width:1px;stroke-linecap:butt;stroke-linejoin:miter;stroke-opacity:1"
       d="m 207.33579,20.183111 -10.17158,11.153806 -6.07842,0.126524 -6.90381,9.678932 -6.69975,0.162058 -6.17287,11.252156 -7.47617,0.871767 -0.27644,1.393844 -2.3364,-1.577317 -1.94455,-1.414213 -0.83969,-1.988739 -0.30936,-2.961009 6.62913,-6.717515 12.19759,-11.136932 13.08148,-8.838835 13.78858,-7.601398 z"
       id="path3977"
       inkscape:connector-curvature="0"
       transform="translate(0,875.19551)"
       sodipodi:nodetypes="ccccccccccccccccc" />
    <path
       style="fill:#ffffff;stroke:#000000;stroke-width:1px;stroke-linecap:butt;stroke-linejoin:miter;stroke-opacity:1"
       d="m 164.25,61.665344 -4.25,5.5 -2.5,-9 -5.75,20.25 -3.25,-10.25 -3,6.75 -6.02319,-4.699901 5.48008,-7.954951 6.89429,-10.076272 3.35876,-3.005203 0.35355,3.358757 4.77297,3.71231 3.53554,2.474874 z"
       id="path3979"
       inkscape:connector-curvature="0"
       transform="translate(0,875.19551)" />
    <path
       style="fill:none;stroke:#000000;stroke-width:1px;stroke-linecap:butt;stroke-linejoin:miter;stroke-opacity:1"
       d="m 145.25,89.165344 -2.5,6.25 -3.5,-10.75 -1.75,25.249996 -5.75,-9.999996 3.25,-24 z"
       id="path3981"
       inkscape:connector-curvature="0"
       transform="translate(0,875.19551)" />
    <path
       style="fill:none;stroke:#000000;stroke-width:0.811427;stroke-miterlimit:4;stroke-opacity:1;stroke-dashoffset:0"
       d="m 244.53642,937.78316 c 0,0 -2.12132,3.31131 -2.12132,5.06155 0,1.75024 2.12132,5.06156 2.12132,5.06156 0,0 2.2981,3.30059 2.2981,5.06155 0,1.76096 -2.2981,5.06156 -2.2981,5.06156 m -3.5,0 c 0,0 2.2981,-3.3006 2.2981,-5.06156 0,-1.76096 -2.2981,-5.06155 -2.2981,-5.06155 0,0 -2.12132,-3.31132 -2.12132,-5.06156 0,-1.75024 2.12132,-5.06155 2.12132,-5.06155"
       id="rect3983"
       inkscape:connector-curvature="0"
       sodipodi:nodetypes="cscsccscsc" />
    <path
       sodipodi:nodetypes="cscsccscsc"
       inkscape:connector-curvature="0"
       id="path3986"
       d="m 158.16525,920.45096 c 0,0 -0.41295,3.91079 0.37121,5.47554 0.78416,1.56475 4.16422,3.57473 4.16422,3.57473 0,0 3.53331,1.92117 4.32227,3.49551 0.78895,1.57433 0.21317,5.55474 0.21317,5.55474 m -3.12907,1.5681 c 0,0 0.57578,-3.98041 -0.21317,-5.55475 -0.78896,-1.57433 -4.32227,-3.49551 -4.32227,-3.49551 0,0 -3.38006,-2.00998 -4.16421,-3.57472 -0.78416,-1.56475 -0.37122,-5.47554 -0.37122,-5.47554"
       style="fill:none;stroke:#000000;stroke-width:0.811427;stroke-miterlimit:4;stroke-opacity:1;stroke-dashoffset:0" />
    <path
       style="fill:none;stroke:#000000;stroke-width:0.811427;stroke-miterlimit:4;stroke-opacity:1;stroke-dashoffset:0"
       d="m 135.36102,941.50864 c 0,0 0.31791,3.91966 1.3781,5.31227 1.06018,1.39261 4.75383,2.74236 4.75383,2.74236 0,0 3.82781,1.23412 4.89448,2.63526 1.06667,1.40114 1.23745,5.41935 1.23745,5.41935 m -2.78484,2.12007 c 0,0 -0.17077,-4.01821 -1.23744,-5.41935 -1.06668,-1.40114 -4.89449,-2.63526 -4.89449,-2.63526 0,0 -3.69364,-1.34976 -4.75382,-2.74235 -1.06018,-1.39261 -1.3781,-5.31227 -1.3781,-5.31227"
       id="path3988"
       inkscape:connector-curvature="0"
       sodipodi:nodetypes="cscsccscsc" />
    <path
       style="fill:none;stroke:#000000;stroke-width:1px;stroke-linecap:butt;stroke-linejoin:miter;stroke-opacity:1"
       d="M 310.2431,38.218861 163.51845,53.421658"
       id="path3990"
       inkscape:connector-curvature="0"
       transform="translate(0,875.19551)"
       sodipodi:nodetypes="cc" />
  </g>
</svg>
