<?xml version="1.0" encoding="UTF-8" standalone="no"?>
<!-- Created with Inkscape (http://www.inkscape.org/) -->

<svg
   xmlns:dc="http://purl.org/dc/elements/1.1/"
   xmlns:cc="http://creativecommons.org/ns#"
   xmlns:rdf="http://www.w3.org/1999/02/22-rdf-syntax-ns#"
   xmlns:svg="http://www.w3.org/2000/svg"
   xmlns="http://www.w3.org/2000/svg"
   xmlns:sodipodi="http://sodipodi.sourceforge.net/DTD/sodipodi-0.dtd"
   xmlns:inkscape="http://www.inkscape.org/namespaces/inkscape"
   id="svg2985"
   version="1.1"
   inkscape:version="0.48.0 r9654"
   width="566.92913"
   height="177.16534"
   xml:space="preserve"
   sodipodi:docname="aberration-free.pdf"><metadata
     id="metadata2991"><rdf:RDF><cc:Work
         rdf:about=""><dc:format>image/svg+xml</dc:format><dc:type
           rdf:resource="http://purl.org/dc/dcmitype/StillImage" /><dc:title></dc:title></cc:Work></rdf:RDF></metadata><defs
     id="defs2989"><marker
       inkscape:stockid="EmptyTriangleOutM"
       orient="auto"
       refY="0.0"
       refX="0.0"
       id="EmptyTriangleOutM"
       style="overflow:visible"><path
         id="path4328"
         d="M 5.77,0.0 L -2.88,5.0 L -2.88,-5.0 L 5.77,0.0 z "
         style="fill-rule:evenodd;fill:#FFFFFF;stroke:#000000;stroke-width:1.0pt;marker-start:none"
         transform="scale(0.4) translate(-4.5,0)" /></marker></defs><sodipodi:namedview
     pagecolor="#ffffff"
     bordercolor="#666666"
     borderopacity="1"
     objecttolerance="10"
     gridtolerance="10"
     guidetolerance="10"
     inkscape:pageopacity="0"
     inkscape:pageshadow="2"
     inkscape:window-width="1268"
     inkscape:window-height="763"
     id="namedview2987"
     showgrid="false"
     inkscape:zoom="14.390581"
     inkscape:cx="397.97487"
     inkscape:cy="82.012154"
     inkscape:window-x="0"
     inkscape:window-y="0"
     inkscape:window-maximized="0"
     inkscape:current-layer="g2993" /><g
     id="g2993"
     inkscape:groupmode="layer"
     inkscape:label="aberration-free"
     transform="matrix(1.25,0,0,-1.25,0,177.16534)"><rect
   style="fill:#808080;fill-opacity:1;stroke:none"
   id="rect3206"
   width="247.66429"
   height="138.38899"
   x="101.05589"
   y="-139.69852"
   transform="scale(1,-1)" /><path
   style="fill:none;stroke:#00ff00;stroke-width:0.80000001px;stroke-linecap:butt;stroke-linejoin:miter;stroke-opacity:1"
   d="M 158.76219,63.52402 311.9117,38.994942"
   id="path4042"
   inkscape:connector-curvature="0" /><path
   style="fill:none;stroke:#00ff00;stroke-width:0.80000001px;stroke-linecap:butt;stroke-linejoin:miter;stroke-opacity:1"
   d="m 224.32077,109.39055 87.9054,-70.710088"
   id="path4044"
   inkscape:connector-curvature="0"
   sodipodi:nodetypes="cc" /><path
   style="fill:none;stroke:#00ff00;stroke-width:0.80000001px;stroke-linecap:butt;stroke-linejoin:miter;stroke-opacity:1"
   d="M 200.27294,97.330124 312.85512,38.36599"
   id="path4048"
   inkscape:connector-curvature="0"
   sodipodi:nodetypes="cc" /><path
   style="fill:none;stroke:#0000ff;stroke-width:0.80000001px;stroke-linecap:butt;stroke-linejoin:miter;stroke-opacity:1"
   d="M 200.43769,97.273854 320.5831,61.846048"
   id="path3168"
   inkscape:connector-curvature="0"
   sodipodi:nodetypes="cc" /><path
   style="fill:none;stroke:#ffffff;stroke-width:0.80000001px;stroke-linecap:butt;stroke-linejoin:miter;stroke-opacity:1"
   d="M 200.46949,97.280987 320.40253,83.96492"
   id="path3166"
   inkscape:connector-curvature="0"
   sodipodi:nodetypes="cc" /><path
   style="fill:#ffffff;stroke:none"
   d="m 230.46258,116.67036 -11.95007,-14.78034 -13.52244,2.20132 -8.49084,-13.522437 -12.26453,0.628951 -4.40266,-11.792826 -2.83028,1.415139 -1.88686,2.515802 -4.40265,-12.26454 -10.06321,-1.572376 -4.40265,-14.151391 -14.46587,-1.886856 5.34608,-6.603976 -1.2579,-5.97504 -6.60398,-1.886848 0.31447,-18.554048 -18.84346,-4.126328 0.59407,21.829056 9.75856,19.090888 11.16388,15.409297 10.84939,12.89349 13.05073,11.635589 9.27703,7.232934 22.95669,12.89349 24.52909,8.80531 z"
   id="path3156"
   inkscape:connector-curvature="0"
   sodipodi:nodetypes="cccccccccccccccccccccccccc" /><path
   style="fill:#808080;fill-opacity:1;stroke:none"
   d="m 179.03251,76.157203 c 0,0 -4.20448,2.450952 -5.73431,4.23926 -1.52984,1.788307 -3.44472,6.490587 -3.44472,6.490587 0,0 -2.04231,4.446931 -3.57216,6.235245 -1.52983,1.788307 -5.60686,4.494603 -5.60686,4.494603 l 4.39331,3.758342 c 0,0 4.07704,-2.706295 5.60689,-4.494602 1.52983,-1.788314 3.57214,-6.235245 3.57214,-6.235245 0,0 1.91487,-4.70228 3.44471,-6.490587 1.52985,-1.788308 5.73432,-4.23926 5.73432,-4.23926 z"
   id="path3140"
   inkscape:connector-curvature="0"
   sodipodi:nodetypes="cscsccscscc" /><path
   sodipodi:nodetypes="cscsccscsc"
   inkscape:connector-curvature="0"
   id="path3142"
   d="m 165.06777,101.37524 c 0,0 4.07704,-2.706295 5.60688,-4.494602 1.52984,-1.788314 3.57215,-6.235245 3.57215,-6.235245 0,0 1.91487,-4.70228 3.44471,-6.490587 1.52984,-1.788308 5.73432,-4.23926 5.73432,-4.23926 m -4.39332,-3.758343 c 0,0 -4.20448,2.450952 -5.73432,4.23926 -1.52984,1.788307 -3.44471,6.490587 -3.44471,6.490587 0,0 -2.04231,4.446931 -3.57216,6.235245 -1.52983,1.788307 -5.60687,4.494603 -5.60687,4.494603"
   style="fill:none;stroke:#000000;stroke-width:0.80000001;stroke-miterlimit:4;stroke-opacity:1;stroke-dashoffset:0" /><path
   sodipodi:nodetypes="cscsccscscc"
   inkscape:connector-curvature="0"
   id="path3160"
   d="m 150.35552,44.967638 c 0,0 -4.52687,1.786696 -6.30964,3.32299 -1.78276,1.536295 -4.38695,5.894778 -4.38695,5.894778 0,0 -2.69153,4.086793 -4.4743,5.623094 -1.78276,1.536293 -6.22228,3.594674 -6.22228,3.594674 l 3.7742,4.379704 c 0,0 4.43952,-2.05838 6.22228,-3.594674 1.78277,-1.5363 4.47431,-5.623094 4.47431,-5.623094 0,0 2.60418,-4.358483 4.38695,-5.894777 1.78276,-1.536295 6.30964,-3.32299 6.30964,-3.32299 z"
   style="fill:#808080;stroke:none" /><path
   style="fill:none;stroke:#000000;stroke-width:0.80000001;stroke-miterlimit:4;stroke-opacity:1;stroke-dashoffset:0"
   d="m 132.73655,67.782878 c 0,0 4.43952,-2.05838 6.22228,-3.594674 1.78277,-1.5363 4.47431,-5.623094 4.47431,-5.623094 0,0 2.60418,-4.358483 4.38695,-5.894777 1.78276,-1.536295 6.30964,-3.32299 6.30964,-3.32299 m -3.77421,-4.379705 c 0,0 -4.52687,1.786696 -6.30964,3.32299 -1.78276,1.536295 -4.38695,5.894778 -4.38695,5.894778 0,0 -2.69153,4.086793 -4.4743,5.623094 -1.78276,1.536293 -6.22228,3.594674 -6.22228,3.594674"
   id="path3162"
   inkscape:connector-curvature="0"
   sodipodi:nodetypes="cscsccscsc" /><path
   style="fill:none;stroke:#ffffff;stroke-width:0.80000001px;stroke-linecap:butt;stroke-linejoin:miter;stroke-opacity:1"
   d="M 319.77359,84.279396 224.48755,109.47394"
   id="path3164"
   inkscape:connector-curvature="0"
   sodipodi:nodetypes="cc" /><text
   xml:space="preserve"
   style="font-size:9.60000038px;font-style:normal;font-variant:normal;font-weight:normal;font-stretch:normal;line-height:125%;letter-spacing:0px;word-spacing:0px;fill:#000000;fill-opacity:1;stroke:none;font-family:Times New Roman;-inkscape-font-specification:'Times New Roman,'"
   x="204.72957"
   y="-108.47165"
   id="text3170"
   sodipodi:linespacing="125%"
   transform="scale(1,-1)"><tspan
     sodipodi:role="line"
     id="tspan3172"
     x="204.72957"
     y="-108.47165">$G_1$</tspan></text>


<text
   xml:space="preserve"
   style="font-size:9.60000038px;font-style:normal;font-variant:normal;font-weight:normal;font-stretch:normal;line-height:125%;letter-spacing:0px;word-spacing:0px;fill:#000000;fill-opacity:1;stroke:none;font-family:Times New Roman;-inkscape-font-specification:'Times New Roman,'"
   x="143.9595"
   y="-62.828022"
   id="text3178"
   sodipodi:linespacing="125%"
   transform="scale(1,-1)"><tspan
     sodipodi:role="line"
     id="tspan3180"
     x="143.9595"
     y="-62.828022">$G_i$</tspan></text>


<text
   xml:space="preserve"
   style="font-size:9.60000038px;font-style:normal;font-variant:normal;font-weight:normal;font-stretch:normal;line-height:125%;letter-spacing:0px;word-spacing:0px;fill:#000000;fill-opacity:1;stroke:none;font-family:Times New Roman;-inkscape-font-specification:'Times New Roman,'"
   x="123.01392"
   y="-23.36001"
   id="text3182"
   sodipodi:linespacing="125%"
   transform="scale(1,-1)"><tspan
     sodipodi:role="line"
     id="tspan3184"
     x="123.01392"
     y="-23.36001">$G_N$</tspan></text>


<text
   transform="scale(1,-1)"
   sodipodi:linespacing="125%"
   id="text3174"
   y="-104.01505"
   x="184.86365"
   style="font-size:9.60000038px;font-style:normal;font-variant:normal;font-weight:normal;font-stretch:normal;line-height:125%;letter-spacing:0px;word-spacing:0px;fill:#000000;fill-opacity:1;stroke:none;font-family:Times New Roman;-inkscape-font-specification:'Times New Roman,'"
   xml:space="preserve"><tspan
     y="-104.01505"
     x="184.86365"
     id="tspan3176"
     sodipodi:role="line">$G_2$</tspan></text>


<path
   inkscape:connector-curvature="0"
   id="path3208"
   d="M 223.88207,109.32463 321.56833,60.91611"
   style="fill:none;stroke:#0000ff;stroke-width:0.80000001px;stroke-linecap:butt;stroke-linejoin:miter;stroke-opacity:1"
   sodipodi:nodetypes="cc" /><path
   inkscape:connector-curvature="0"
   id="path3210"
   d="M 158.62942,63.809015 320.40253,83.96492"
   style="fill:none;stroke:#ffffff;stroke-width:0.80000001px;stroke-linecap:butt;stroke-linejoin:miter;stroke-opacity:1"
   sodipodi:nodetypes="cc" /><text
   xml:space="preserve"
   style="font-size:9.60000038px;font-style:normal;font-variant:normal;font-weight:normal;font-stretch:normal;line-height:125%;letter-spacing:0px;word-spacing:0px;fill:#ffffff;fill-opacity:1;stroke:none;font-family:Times New Roman;-inkscape-font-specification:'Times New Roman,'"
   x="312.48709"
   y="-90.151009"
   id="text3214"
   sodipodi:linespacing="125%"
   transform="scale(1,-1)"><tspan
     sodipodi:role="line"
     id="tspan3216"
     x="312.48709"
     y="-90.151009">$I$</tspan></text>


<text
   xml:space="preserve"
   style="font-size:9.60000038px;font-style:normal;font-variant:normal;font-weight:normal;font-stretch:normal;line-height:125%;letter-spacing:0px;word-spacing:0px;fill:#ffffff;fill-opacity:1;stroke:none;font-family:Times New Roman;-inkscape-font-specification:'Times New Roman,'"
   x="256.13168"
   y="-118.8511"
   id="text3218"
   sodipodi:linespacing="125%"
   transform="scale(1,-1)"><tspan
     sodipodi:role="line"
     id="tspan3220"
     x="256.13168"
     y="-118.8511">input waveguide</tspan></text>


<text
   xml:space="preserve"
   style="font-size:9.60000038px;font-style:normal;font-variant:normal;font-weight:normal;font-stretch:normal;line-height:125%;letter-spacing:0px;word-spacing:0px;fill:#ffffff;fill-opacity:1;stroke:none;font-family:Times New Roman;-inkscape-font-specification:'Times New Roman,'"
   x="109.4049"
   y="-125.8601"
   id="text3222"
   sodipodi:linespacing="125%"
   transform="scale(1,-1)"><tspan
     sodipodi:role="line"
     id="tspan3224"
     x="109.4049"
     y="-125.8601">diffraction grating</tspan></text>


<text
   xml:space="preserve"
   style="font-size:9.60000038px;font-style:normal;font-variant:normal;font-weight:normal;font-stretch:normal;line-height:125%;letter-spacing:0px;word-spacing:0px;fill:#ffffff;fill-opacity:1;stroke:none;font-family:Times New Roman;-inkscape-font-specification:'Times New Roman,'"
   x="178.74791"
   y="-9.2091846"
   id="text3226"
   sodipodi:linespacing="125%"
   transform="scale(1,-1)"><tspan
     sodipodi:role="line"
     id="tspan3228"
     x="178.74791"
     y="-9.2091846">output waveguides</tspan></text>


<path
   inkscape:connector-curvature="0"
   id="path2997"
   style="fill:#cccccc;fill-opacity:1;fill-rule:nonzero;stroke:none"
   d="m 319.53639,86.213673 29.18059,0 0,-4.871 -29.18059,0 z"
   sodipodi:nodetypes="ccccc" /><path
   d="m 320.26417,63.619698 28.44233,-3.841465 -0.003,-4.934872 -29.11615,3.952651 z"
   style="fill:#cccccc;fill-opacity:1;fill-rule:nonzero;stroke:none"
   id="path4002"
   inkscape:connector-curvature="0"
   inkscape:transform-center-x="-32.443037"
   inkscape:transform-center-y="4.5551037"
   sodipodi:nodetypes="ccccc" /><path
   d="m 319.38609,57.695148 29.26713,-7.08093 -0.005,-4.413032 -30.29556,6.733888 z"
   style="fill:#cccccc;fill-opacity:1;fill-rule:nonzero;stroke:none"
   id="path4006"
   inkscape:connector-curvature="0"
   inkscape:transform-center-x="-32.015193"
   inkscape:transform-center-y="6.9517851"
   sodipodi:nodetypes="ccccc" /><path
   d="m 313.14068,40.964159 35.58824,-10.867047 0.005,-5.300694 -37.03363,11.514495 z"
   style="fill:#cccccc;fill-opacity:1;fill-rule:nonzero;stroke:none"
   id="path4008"
   inkscape:connector-curvature="0"
   inkscape:transform-center-x="-31.296686"
   inkscape:transform-center-y="9.685911"
   sodipodi:nodetypes="ccccc" /><path
   d="M 302.74428,24.935985 348.71753,9.515179 348.71699,4.5042423 301.1944,20.318142 z"
   style="fill:#cccccc;fill-opacity:1;fill-rule:nonzero;stroke:none"
   id="path4010"
   inkscape:connector-curvature="0"
   inkscape:transform-center-x="-31.058589"
   inkscape:transform-center-y="10.424192"
   sodipodi:nodetypes="ccccc" /><g
   style="fill:#000000;stroke:none"
   id="g4034"
   transform="matrix(0.43984602,0,0,-0.43984602,210.00512,107.13368)"><path
     d="m 253.07,53.094 c 0,1.879 -1.523,3.402 -3.402,3.402 -1.883,0 -3.406,-1.523 -3.406,-3.402 0,-1.883 1.523,-3.406 3.406,-3.406 1.879,0 3.402,1.523 3.402,3.406 z"
     style="fill:#000000;stroke:none"
     id="path4036"
     inkscape:connector-curvature="0" /></g><g
   transform="matrix(0.43984602,0,0,-0.43984602,192.30607,45.986731)"
   id="g3118"
   style="fill:#000000;stroke:none"><path
     inkscape:connector-curvature="0"
     id="path3120"
     style="fill:#000000;stroke:none"
     d="m 253.07,53.094 c 0,1.879 -1.523,3.402 -3.402,3.402 -1.883,0 -3.406,-1.523 -3.406,-3.402 0,-1.883 1.523,-3.406 3.406,-3.406 1.879,0 3.402,1.523 3.402,3.406 z" /></g><g
   transform="matrix(0.43984602,0,0,-0.43984602,209.05189,78.534933)"
   id="g3134"
   style="fill:#000000;stroke:none"><path
     inkscape:connector-curvature="0"
     id="path3136"
     style="fill:#000000;stroke:none"
     d="m 253.07,53.094 c 0,1.879 -1.523,3.402 -3.402,3.402 -1.883,0 -3.406,-1.523 -3.406,-3.402 0,-1.883 1.523,-3.406 3.406,-3.406 1.879,0 3.402,1.523 3.402,3.406 z" /></g><g
   style="fill:#000000;stroke:none"
   id="g4026"
   transform="matrix(0.43984602,0,0,-0.43984602,202.13343,61.867738)"><path
     d="m 253.07,53.094 c 0,1.879 -1.523,3.402 -3.402,3.402 -1.883,0 -3.406,-1.523 -3.406,-3.402 0,-1.883 1.523,-3.406 3.406,-3.406 1.879,0 3.402,1.523 3.402,3.406 z"
     style="fill:#000000;stroke:none"
     id="path4028"
     inkscape:connector-curvature="0" /></g><text
   xml:space="preserve"
   style="font-size:9.60000038px;font-style:normal;font-variant:normal;font-weight:normal;font-stretch:normal;line-height:125%;letter-spacing:0px;word-spacing:0px;fill:#ffffff;fill-opacity:1;stroke:none;font-family:Times New Roman;-inkscape-font-specification:'Times New Roman,'"
   x="319.3269"
   y="-67.194305"
   id="text4149"
   sodipodi:linespacing="125%"
   transform="scale(1,-1)"><tspan
     sodipodi:role="line"
     id="tspan4151"
     x="319.3269"
     y="-67.194305">$O_1$</tspan></text>


<text
   transform="scale(1,-1)"
   sodipodi:linespacing="125%"
   id="text3043"
   y="-8.8522453"
   x="295.03448"
   style="font-size:9.60000038px;font-style:normal;font-variant:normal;font-weight:normal;font-stretch:normal;line-height:125%;letter-spacing:0px;word-spacing:0px;fill:#ffffff;fill-opacity:1;stroke:none;font-family:Times New Roman;-inkscape-font-specification:'Times New Roman,'"
   xml:space="preserve"><tspan
     y="-8.8522453"
     x="295.03448"
     id="tspan3045"
     sodipodi:role="line">$O_M$</tspan></text>

<text
   transform="scale(1,-1)"
   sodipodi:linespacing="125%"
   id="text3130"
   y="-41.434299"
   x="320.50153"
   style="font-size:9.60000038px;font-style:normal;font-variant:normal;font-weight:normal;font-stretch:normal;line-height:125%;letter-spacing:0px;word-spacing:0px;fill:#ffffff;fill-opacity:1;stroke:none;font-family:Times New Roman;-inkscape-font-specification:'Times New Roman,'"
   xml:space="preserve"><tspan
     y="-41.434299"
     x="320.50153"
     id="tspan3132"
     sodipodi:role="line">$O_2$</tspan></text>

<text
   xml:space="preserve"
   style="font-size:9.60000038px;font-style:normal;font-variant:normal;font-weight:normal;font-stretch:normal;line-height:125%;letter-spacing:0px;word-spacing:0px;fill:#ffffff;fill-opacity:1;stroke:none;font-family:Times New Roman;-inkscape-font-specification:'Times New Roman,'"
   x="311.06729"
   y="-24.452631"
   id="text4153"
   sodipodi:linespacing="125%"
   transform="scale(1,-1)"><tspan
     sodipodi:role="line"
     id="tspan4155"
     x="311.06729"
     y="-24.452631">$O_j$</tspan></text>


<path
   style="fill:none;stroke:#ffffff;stroke-width:0.80000001px;stroke-linecap:butt;stroke-linejoin:miter;stroke-opacity:1;marker-end:url(#EmptyTriangleOutM)"
   d="m 253.2274,19.011866 41.19084,12.446043"
   id="path4157"
   inkscape:connector-curvature="0"
   sodipodi:nodetypes="cc" /><path
   style="fill:none;stroke:#ffffff;stroke-width:0.80000001px;stroke-linecap:butt;stroke-linejoin:miter;stroke-opacity:1;marker-end:url(#EmptyTriangleOutM)"
   d="M 288.17773,115.71113 335.77368,94.012329"
   id="path4159"
   inkscape:connector-curvature="0"
   sodipodi:nodetypes="cc" /><g
   transform="matrix(0.43984602,0,0,-0.43984602,90.934911,120.29704)"
   id="g3122"
   style="fill:#000000;stroke:none"><path
     inkscape:connector-curvature="0"
     id="path3124"
     style="fill:#000000;stroke:none"
     d="m 253.07,53.094 c 0,1.879 -1.523,3.402 -3.402,3.402 -1.883,0 -3.406,-1.523 -3.406,-3.402 0,-1.883 1.523,-3.406 3.406,-3.406 1.879,0 3.402,1.523 3.402,3.406 z" /></g><g
   transform="matrix(0.43984602,0,0,-0.43984602,29.612211,52.999308)"
   id="g3126"
   style="fill:#000000;stroke:none"><path
     inkscape:connector-curvature="0"
     id="path3128"
     style="fill:#000000;stroke:none"
     d="m 253.07,53.094 c 0,1.879 -1.523,3.402 -3.402,3.402 -1.883,0 -3.406,-1.523 -3.406,-3.402 0,-1.883 1.523,-3.406 3.406,-3.406 1.879,0 3.402,1.523 3.402,3.406 z" /></g><g
   style="fill:#000000;stroke:none"
   id="g4038"
   transform="matrix(0.43984602,0,0,-0.43984602,114.63849,132.60089)"><path
     d="m 253.07,53.094 c 0,1.879 -1.523,3.402 -3.402,3.402 -1.883,0 -3.406,-1.523 -3.406,-3.402 0,-1.883 1.523,-3.406 3.406,-3.406 1.879,0 3.402,1.523 3.402,3.406 z"
     style="fill:#000000;stroke:none"
     id="path4040"
     inkscape:connector-curvature="0" /></g><g
   transform="matrix(0.30126991,0,0,-0.30126991,234.3463,49.223634)"
   id="g3075"
   style="fill:#ffffff;stroke:none"><path
     inkscape:connector-curvature="0"
     id="path3077"
     style="fill:#ffffff;stroke:none"
     d="m 253.07,53.094 c 0,1.879 -1.523,3.402 -3.402,3.402 -1.883,0 -3.406,-1.523 -3.406,-3.402 0,-1.883 1.523,-3.406 3.406,-3.406 1.879,0 3.402,1.523 3.402,3.406 z" /></g><g
   transform="matrix(0.30126991,0,0,-0.30126991,232.38082,46.629213)"
   id="g3079"
   style="fill:#ffffff;stroke:none"><path
     inkscape:connector-curvature="0"
     id="path3081"
     style="fill:#ffffff;stroke:none"
     d="m 253.07,53.094 c 0,1.879 -1.523,3.402 -3.402,3.402 -1.883,0 -3.406,-1.523 -3.406,-3.402 0,-1.883 1.523,-3.406 3.406,-3.406 1.879,0 3.402,1.523 3.402,3.406 z" /></g><g
   transform="matrix(0.30126991,0,0,-0.30126991,230.1795,44.192028)"
   id="g3083"
   style="fill:#ffffff;stroke:none"><path
     inkscape:connector-curvature="0"
     id="path3085"
     style="fill:#ffffff;stroke:none"
     d="m 253.07,53.094 c 0,1.879 -1.523,3.402 -3.402,3.402 -1.883,0 -3.406,-1.523 -3.406,-3.402 0,-1.883 1.523,-3.406 3.406,-3.406 1.879,0 3.402,1.523 3.402,3.406 z" /></g><g
   transform="matrix(0.30126991,0,0,-0.30126991,240.39995,59.915797)"
   id="g3087"
   style="fill:#ffffff;stroke:none"><path
     inkscape:connector-curvature="0"
     id="path3089"
     style="fill:#ffffff;stroke:none"
     d="m 253.07,53.094 c 0,1.879 -1.523,3.402 -3.402,3.402 -1.883,0 -3.406,-1.523 -3.406,-3.402 0,-1.883 1.523,-3.406 3.406,-3.406 1.879,0 3.402,1.523 3.402,3.406 z" /></g><g
   transform="matrix(0.30126991,0,0,-0.30126991,241.97232,62.903314)"
   id="g3091"
   style="fill:#ffffff;stroke:none"><path
     inkscape:connector-curvature="0"
     id="path3093"
     style="fill:#ffffff;stroke:none"
     d="m 253.07,53.094 c 0,1.879 -1.523,3.402 -3.402,3.402 -1.883,0 -3.406,-1.523 -3.406,-3.402 0,-1.883 1.523,-3.406 3.406,-3.406 1.879,0 3.402,1.523 3.402,3.406 z" /></g><g
   transform="matrix(0.30126991,0,0,-0.30126991,243.23023,65.89083)"
   id="g3095"
   style="fill:#ffffff;stroke:none"><path
     inkscape:connector-curvature="0"
     id="path3097"
     style="fill:#ffffff;stroke:none"
     d="m 253.07,53.094 c 0,1.879 -1.523,3.402 -3.402,3.402 -1.883,0 -3.406,-1.523 -3.406,-3.402 0,-1.883 1.523,-3.406 3.406,-3.406 1.879,0 3.402,1.523 3.402,3.406 z" /></g><path
   sodipodi:nodetypes="cc"
   inkscape:connector-curvature="0"
   id="path6714"
   d="M 158.61246,63.939463 320.5831,61.846048"
   style="fill:none;stroke:#0000ff;stroke-width:0.80000001px;stroke-linecap:butt;stroke-linejoin:miter;stroke-opacity:1" /><g
   transform="matrix(0.43984602,0,0,-0.43984602,48.680659,87.087393)"
   id="g3003"
   style="fill:#000000;stroke:none"><path
     inkscape:connector-curvature="0"
     id="path3005"
     style="fill:#000000;stroke:none"
     d="m 253.07,53.094 c 0,1.879 -1.523,3.402 -3.402,3.402 -1.883,0 -3.406,-1.523 -3.406,-3.402 0,-1.883 1.523,-3.406 3.406,-3.406 1.879,0 3.402,1.523 3.402,3.406 z" /></g><g
   style="fill:#000000;stroke:none"
   id="g4022"
   transform="matrix(0.43984602,0,0,-0.43984602,210.56432,84.9749)"><path
     d="m 253.07,53.094 c 0,1.879 -1.523,3.402 -3.402,3.402 -1.883,0 -3.406,-1.523 -3.406,-3.402 0,-1.883 1.523,-3.406 3.406,-3.406 1.879,0 3.402,1.523 3.402,3.406 z"
     style="fill:#000000;stroke:none"
     id="path4024"
     inkscape:connector-curvature="0" /></g></g></svg>