<?xml version="1.0" encoding="UTF-8" standalone="no"?>
<!-- Created with Inkscape (http://www.inkscape.org/) -->

<svg
   xmlns:dc="http://purl.org/dc/elements/1.1/"
   xmlns:cc="http://creativecommons.org/ns#"
   xmlns:rdf="http://www.w3.org/1999/02/22-rdf-syntax-ns#"
   xmlns:svg="http://www.w3.org/2000/svg"
   xmlns="http://www.w3.org/2000/svg"
   xmlns:sodipodi="http://sodipodi.sourceforge.net/DTD/sodipodi-0.dtd"
   xmlns:inkscape="http://www.inkscape.org/namespaces/inkscape"
   width="566.92914"
   height="141.73228"
   id="svg2"
   version="1.1"
   inkscape:version="0.48.0 r9654"
   sodipodi:docname="drawing.svg">
  <defs
     id="defs4">
    <clipPath
       id="clipPath4475"
       clipPathUnits="userSpaceOnUse">
      <path
         id="path4477"
         d="m 72,43.2 446.4,0 0,345.6 -446.4,0 0,-345.6 z"
         inkscape:connector-curvature="0" />
    </clipPath>
    <clipPath
       id="clipPath5454"
       clipPathUnits="userSpaceOnUse">
      <path
         id="path5456"
         d="m 72,43.2 446.4,0 0,345.6 -446.4,0 0,-345.6 z"
         inkscape:connector-curvature="0" />
    </clipPath>
  </defs>
  <sodipodi:namedview
     id="base"
     pagecolor="#ffffff"
     bordercolor="#666666"
     borderopacity="1.0"
     inkscape:pageopacity="0.0"
     inkscape:pageshadow="2"
     inkscape:zoom="1.8101934"
     inkscape:cx="54.45801"
     inkscape:cy="76.453285"
     inkscape:document-units="px"
     inkscape:current-layer="layer1"
     showgrid="false"
     units="cm"
     showguides="true"
     inkscape:guide-bbox="true"
     inkscape:window-width="1180"
     inkscape:window-height="627"
     inkscape:window-x="0"
     inkscape:window-y="0"
     inkscape:window-maximized="0">
    <sodipodi:guide
       orientation="0,1"
       position="217.10388,188.93009"
       id="guide5718" />
    <sodipodi:guide
       orientation="1,0"
       position="191.1398,173.46213"
       id="guide5720" />
    <sodipodi:guide
       orientation="1,0"
       position="371.23106,113.8"
       id="guide5722" />
  </sodipodi:namedview>
  <metadata
     id="metadata7">
    <rdf:RDF>
      <cc:Work
         rdf:about="">
        <dc:format>image/svg+xml</dc:format>
        <dc:type
           rdf:resource="http://purl.org/dc/dcmitype/StillImage" />
        <dc:title></dc:title>
      </cc:Work>
    </rdf:RDF>
  </metadata>
  <g
     inkscape:label="Layer 1"
     inkscape:groupmode="layer"
     id="layer1"
     transform="translate(0,-910.6286)">
    <path
       inkscape:connector-curvature="0"
       d="m 14.506025,953.34189 155.672325,0 0,-81.94599 -155.672325,0 0,81.94599"
       style="fill:#ffffff;fill-opacity:1;fill-rule:nonzero;stroke:none"
       id="path5448" />
    <g
       id="g5450"
       transform="matrix(0.34872835,0,0,-0.23711223,-10.602417,963.58514)">
      <g
         id="g5452"
         clip-path="url(#clipPath5454)">
        <path
           inkscape:connector-curvature="0"
           d="m 72,72.009989 5.952,0.194494 5.952,0.449677 5.952,0.677858 10.416,1.487449 7.44,0.971357 4.464,0.40493 4.464,0.201626 4.464,-0.04073 4.464,-0.297621 4.464,-0.538257 5.952,-0.999483 10.416,-1.865544 4.464,-0.508644 2.976,-0.141511 2.976,0.05674 2.976,0.280978 2.976,0.520842 2.976,0.763736 2.976,0.9953 2.976,1.200081 4.464,2.08699 8.928,4.38073 2.976,1.219885 2.976,0.954278 2.976,0.609406 2.976,0.199667 1.488,-0.06848 1.488,-0.185296 1.488,-0.303202 2.976,-0.95386 2.976,-1.383375 2.976,-1.737269 4.464,-3.000856 4.464,-2.951763 2.976,-1.572531 1.488,-0.572017 1.488,-0.383484 1.488,-0.159636 1.488,0.09989 1.488,0.395072 1.488,0.725413 1.488,1.08999 1.488,1.487405 1.488,1.915794 1.488,2.372818 1.488,2.855674 1.488,3.361107 1.488,3.885426 1.488,4.424537 1.488,4.973961 1.488,5.528889 1.488,6.08422 1.488,6.63458 2.976,14.87263 2.976,16.87406 2.976,18.63168 2.976,20.05728 4.464,31.83684 7.44,53.45765 2.976,19.87031 2.976,18.14339 1.488,8.25373 1.488,7.6237 1.488,6.93515 1.488,6.19286 1.488,5.40219 1.488,4.56901 1.488,3.69968 1.488,2.80093 1.488,1.87983 1.488,0.9437 1.488,0 1.488,-0.9437 1.488,-1.87983 1.488,-2.80093 1.488,-3.69968 1.488,-4.56901 1.488,-5.40219 1.488,-6.19286 1.488,-6.93515 1.488,-7.6237 2.976,-17.07483 2.976,-19.07683 2.976,-20.52039 13.392,-94.94715 2.976,-18.63168 2.976,-16.87406 2.976,-14.87263 1.488,-6.63458 1.488,-6.08422 1.488,-5.528889 1.488,-4.973961 1.488,-4.424537 1.488,-3.885426 1.488,-3.361107 1.488,-2.855674 1.488,-2.372818 1.488,-1.915794 1.488,-1.487405 1.488,-1.08999 1.488,-0.725413 1.488,-0.395072 1.488,-0.09989 1.488,0.159636 1.488,0.383484 1.488,0.572017 2.976,1.572531 2.976,1.928429 5.952,4.02419 2.976,1.737269 2.976,1.383375 2.976,0.95386 1.488,0.303202 1.488,0.185296 1.488,0.06848 2.976,-0.199667 2.976,-0.609406 2.976,-0.954278 2.976,-1.219885 4.464,-2.136899 7.44,-3.666666 2.976,-1.287502 2.976,-1.102025 2.976,-0.881884 2.976,-0.642773 2.976,-0.399696 2.976,-0.166204 2.976,0.04618 2.976,0.228357 4.464,0.602796 7.44,1.357379 5.952,1.053566 4.464,0.608949 4.464,0.381296 4.464,0.126155 4.464,-0.124122 4.464,-0.3427 5.952,-0.706912 19.344,-2.584131 5.952,-0.449677 5.952,-0.194494 0,0"
           style="fill:none;stroke:#0000ff;stroke-width:1;stroke-linecap:square;stroke-linejoin:round;stroke-miterlimit:10;stroke-opacity:1;stroke-dasharray:none"
           id="path5458" />
      </g>
    </g>
    <path
       inkscape:connector-curvature="0"
       d="m 14.506025,953.34189 155.672325,0"
       style="fill:none;stroke:#000000;stroke-width:0.28755477;stroke-linecap:square;stroke-linejoin:round;stroke-miterlimit:10;stroke-opacity:1;stroke-dasharray:none"
       id="path5568" />
    <path
       style="fill:none;stroke:#000000;stroke-width:1px;stroke-linecap:butt;stroke-linejoin:miter;stroke-opacity:1"
       d="m 189.07929,898.78613 0,68.50097"
       id="path5724"
       inkscape:connector-curvature="0" />
    <path
       style="fill:none;stroke:#000000;stroke-width:1px;stroke-linecap:butt;stroke-linejoin:miter;stroke-opacity:1"
       d="m 377.65857,899.89098 0,92.80777"
       id="path5726"
       inkscape:connector-curvature="0" />
    <path
       style="fill:none;stroke:#000000;stroke-width:1px;stroke-linecap:butt;stroke-linejoin:miter;stroke-opacity:1"
       d="m 0.5,900.99584 0,71.2631"
       id="path5728"
       inkscape:connector-curvature="0" />
    <path
       style="fill:none;stroke:#000000;stroke-width:1px;stroke-linecap:butt;stroke-linejoin:miter;stroke-opacity:1"
       d="m 566.23785,905.96768 0,72.36796"
       id="path5730"
       inkscape:connector-curvature="0" />
  </g>
</svg>
