<?xml version="1.0" encoding="UTF-8" standalone="no"?>
<!-- Created with Inkscape (http://www.inkscape.org/) -->

<svg
  xmlns:dc="http://purl.org/dc/elements/1.1/"
  xmlns:cc="http://creativecommons.org/ns#"
  xmlns:rdf="http://www.w3.org/1999/02/22-rdf-syntax-ns#"
  xmlns:svg="http://www.w3.org/2000/svg"
  xmlns="http://www.w3.org/2000/svg"
  xmlns:sodipodi="http://sodipodi.sourceforge.net/DTD/sodipodi-0.dtd"
  xmlns:inkscape="http://www.inkscape.org/namespaces/inkscape"
  width="283.46457"
  height="212.59842"
  id="svg2"
  version="1.1"
  inkscape:version="0.48.0 r9654"
  sodipodi:docname="fdl.svg">
 <defs
   id="defs4">
  <clipPath
    id="clipPath3083"
    clipPathUnits="userSpaceOnUse">
   <path
     id="path3085"
     d="m 1608,6338.02 0,1042.47 2700.7,0 0,-1042.47 -2700.7,0"
     inkscape:connector-curvature="0" />
  </clipPath>
 </defs>
 <sodipodi:namedview
   id="base"
   pagecolor="#ffffff"
   bordercolor="#666666"
   borderopacity="1.0"
   inkscape:pageopacity="0.0"
   inkscape:pageshadow="2"
   inkscape:zoom="2.8"
   inkscape:cx="265.04018"
   inkscape:cy="58.076509"
   inkscape:document-units="px"
   inkscape:current-layer="layer1"
   showgrid="false"
   inkscape:window-width="938"
   inkscape:window-height="620"
   inkscape:window-x="210"
   inkscape:window-y="0"
   inkscape:window-maximized="0"
   units="cm" />
 <metadata
   id="metadata7">
  <rdf:RDF>
   <cc:Work
     rdf:about="">
    <dc:format>image/svg+xml</dc:format>
    <dc:type
      rdf:resource="http://purl.org/dc/dcmitype/StillImage" />
    <dc:title />
   </cc:Work>
  </rdf:RDF>
 </metadata>
 <g
   inkscape:label="Layer 1"
   inkscape:groupmode="layer"
   id="layer1"
   transform="translate(0,-839.76244)">
  <g
    id="g5976"
    transform="matrix(0.86866778,0,0,0.86866778,1.1730961,143.75718)">
   <path
     id="path3105"
     style="fill:none;stroke:#000000;stroke-width:1;stroke-linecap:butt;stroke-linejoin:miter;stroke-miterlimit:2.61310005;stroke-opacity:1;stroke-dasharray:none"
     d="m 151.15228,872.13828 -0.14125,0 -0.2125,0.0712 -0.2125,0.14125 -0.1425,0.1425 -0.2125,0.2825 -0.2125,0.285 -0.14125,0.2825 -0.21375,0.42625 -0.2125,0.425 -0.14125,0.425 -0.355,1.06375 -0.35375,1.27625 -0.355,1.4175 -0.28375,1.63125 -0.35375,1.7725 -0.28375,1.91375 -0.355,2.12625 -0.28375,2.19875 -0.28375,2.41 -0.2825,2.5525 -0.2125,2.6225 -0.28375,2.765 -0.21375,2.9075 -0.2125,3.0475 -0.2125,3.19125 -0.2125,3.19 -0.2125,3.4025 -0.1425,3.47375 -0.14125,3.545 -0.14125,3.61625 -0.1425,3.7575 -0.0712,3.8275 -0.07,3.82875 -0.0712,3.97 -0.0713,4.04125 0,16.37625 0.0713,4.0425 0.0712,3.89875 0.07,3.89875 0.0712,3.82875 0.1425,3.7575 0.14125,3.61625 0.14125,3.54373 0.1425,3.4738 0.2125,3.3325 0.2125,3.2612 0.2125,3.18999 0.2125,2.9775 0.21375,2.9075 0.28375,2.835 0.2125,2.6238 0.2825,2.5525 0.28375,2.3387 0.28375,2.2688 0.355,2.0562 0.28375,1.985 0.35375,1.7725 0.28375,1.56 0.355,1.4175 0.35375,1.2763 0.355,1.135 0.14125,0.425 0.2125,0.425 0.21375,0.355 0.14125,0.3537 0.2125,0.2838 0.2125,0.2125 0.1425,0.2125 0.2125,0.1425 0.2125,0.07 0.355,0 0.2125,-0.07 0.2125,-0.1425 0.14125,-0.2125 0.2125,-0.2125 0.1425,-0.2838 0.2125,-0.3537 0.2125,-0.355 0.1425,-0.425 0.2125,-0.425 0.35375,-1.135 0.355,-1.2763 0.355,-1.4175 0.2825,-1.56 0.355,-1.7725 0.28375,-1.985 0.28375,-2.0562 0.35375,-2.2688 0.28375,-2.3387 0.2125,-2.5525 0.28375,-2.6238 0.28375,-2.835 0.2125,-2.9075 0.2125,-2.9775 0.2125,-3.18999 0.21375,-3.2612 0.14125,-3.3325 0.2125,-3.4738 0.1425,-3.54373 0.14125,-3.61625 0.0713,-3.7575 0.14125,-3.82875 0.0712,-3.89875 0.0713,-3.89875 0,-4.0425 0.07,-4.04 0,-8.295 -0.07,-4.04125 0,-4.04125 -0.0713,-3.97 -0.0712,-3.82875 -0.14125,-3.8275 -0.0713,-3.7575 -0.14125,-3.61625 -0.1425,-3.545 -0.2125,-3.47375 -0.14125,-3.4025 -0.21375,-3.19 -0.2125,-3.19125 -0.2125,-3.0475 -0.2125,-2.9075 -0.28375,-2.765 -0.28375,-2.6225 -0.2125,-2.5525 -0.28375,-2.41 -0.35375,-2.19875 -0.28375,-2.12625 -0.28375,-1.91375 -0.355,-1.7725 -0.2825,-1.63125 -0.355,-1.4175 -0.355,-1.27625 -0.35375,-1.06375 -0.2125,-0.425 -0.1425,-0.425 -0.2125,-0.42625 -0.2125,-0.2825 -0.1425,-0.285 -0.2125,-0.2825 -0.14125,-0.1425 -0.2125,-0.14125 -0.2125,-0.0712 -0.21375,0"
     inkscape:connector-curvature="0" />
   <path
     id="path3107"
     style="fill:#000000;fill-opacity:1;fill-rule:evenodd;stroke:none"
     d="m 10.212279,900.78078 0,1.4175 -0.0712,0.0712 -0.0712,0 -0.069999,0.07 -0.0713,-0.07 -0.0712,0 -0.07,-0.0712 0,-1.48875 0.07,-0.0712 0.0712,-0.0713 0.14125,0 0.0712,0.0713 0.0712,0.0712 0,0.0713 z m 0,3.11875 0,1.3475 -0.0712,0.0713 -0.0712,0.07 -0.1412495,0 -0.0712,-0.07 -0.07,-0.0713 0,-1.48875 0.07,-0.0713 0.0712,0 0.0713,-0.0713 0.069999,0.0713 0.0712,0 0.0712,0.0713 0,0.14125 z m 0,3.04875 0,1.4175 -0.0712,0.0713 -0.0712,0.0713 -0.1412495,0 -0.0712,-0.0713 -0.07,-0.0713 0,-1.48875 0.07,-0.0713 0.0712,-0.07 0.1412495,0 0.0712,0.07 0.0712,0.0713 0,0.0713 z m 0,3.11875 0,1.41875 -0.0712,0.0713 -0.0712,0.07 -0.1412495,0 -0.0712,-0.07 -0.07,-0.0713 0,-1.48875 0.07,-0.0713 0.0712,-0.0712 0.1412495,0 0.0712,0.0712 0.0712,0.0713 0,0.07 z m 0,3.12 0,1.4175 -0.0712,0.0712 -0.0712,0 -0.069999,0.0713 -0.0713,-0.0713 -0.0712,0 -0.07,-0.0712 0,-1.48875 0.07,-0.0712 0.0712,-0.07 0.14125,0 0.0712,0.07 0.0712,0.0712 0,0.0713 z m 0,3.11875 0,1.3475 -0.0712,0.0713 -0.0712,0.07 -0.1412495,0 -0.0712,-0.07 -0.07,-0.0713 0,-1.48875 0.07,-0.0713 0.0712,0 0.0713,-0.07 0.069999,0.07 0.0712,0 0.0712,0.0713 0,0.14125 z m 0,3.04875 0,1.41875 -0.0712,0.07 -0.0712,0.0713 -0.1412495,0 -0.0712,-0.0713 -0.07,-0.07 0,-1.48875 0.07,-0.0713 0.0712,-0.0713 0.1412495,0 0.0712,0.0713 0.0712,0.0713 0,0.07 z m 0,3.12 0,1.4175 -0.0712,0.0713 -0.0712,0.0713 -0.1412495,0 -0.0712,-0.0713 -0.07,-0.0713 0,-1.48875 0.07,-0.0713 0.0712,-0.07 0.1412495,0 0.0712,0.07 0.0712,0.0713 0,0.0713 z m 0,3.11875 0,1.41875 -0.0712,0.07 -0.0712,0 -0.069999,0.0713 -0.0713,-0.0713 -0.0712,0 -0.07,-0.07 0,-1.48875 0.07,-0.0713 0.0712,-0.0712 0.14125,0 0.0712,0.0712 0.0712,0.0713 0,0.07 z m 0,3.12 0,1.34625 -0.0712,0.0713 -0.0712,0.0712 -0.1412495,0 -0.0712,-0.0712 -0.07,-0.0713 0,-1.4875 0.07,-0.0712 0.0712,0 0.0713,-0.0713 0.069999,0.0713 0.0712,0 0.0712,0.0712 0,0.14125 z m 0,3.04875 0,1.4175 -0.0712,0.0713 -0.0712,0.07 -0.1412495,0 -0.0712,-0.07 -0.07,-0.0713 0,-1.48875 0.07,-0.0713 0.0712,-0.07 0.1412495,0 0.0712,0.07 0.0712,0.0713 0,0.0712 z m 0,3.11875 0,1.41875 -0.0712,0.07 -0.0712,0.0713 -0.1412495,0 -0.0712,-0.0713 -0.07,-0.07 0,-1.48875 0.07,-0.0713 0.0712,-0.0713 0.1412495,0 0.0712,0.0713 0.0712,0.0713 0,0.07 z m 0,3.12 0,1.4175 -0.0712,0.0713 -0.0712,0 -0.069999,0.07 -0.0713,-0.07 -0.0712,0 -0.07,-0.0713 0,-1.48875 0.07,-0.0713 0.0712,-0.07 0.14125,0 0.0712,0.07 0.0712,0.0713 0,0.0713 z m 0,3.11875 0,1.3475 -0.0712,0.0712 -0.0712,0.07 -0.1412495,0 -0.0712,-0.07 -0.07,-0.0712 0,-1.48875 0.07,-0.0712 0.0712,0 0.0713,-0.0713 0.069999,0.0713 0.0712,0 0.0712,0.0712 0,0.14125 z m 0,3.04875 0,1.4175 -0.0712,0.0713 -0.0712,0.0712 -0.1412495,0 -0.0712,-0.0712 -0.07,-0.0713 0,-1.48875 0.07,-0.07 0.0712,-0.0713 0.1412495,0 0.0712,0.0713 0.0712,0.07 0,0.0712 z m 0,3.11875 0,1.41875 -0.0712,0.0713 -0.0712,0.07 -0.1412495,0 -0.0712,-0.07 -0.07,-0.0713 0,-1.48875 0.07,-0.0713 0.0712,-0.0713 0.1412495,0 0.0712,0.0713 0.0712,0.0713 0,0.07 z m 0,3.12 0,1.4175 -0.0712,0.0713 -0.0712,0 -0.069999,0.0713 -0.0713,-0.0713 -0.0712,0 -0.07,-0.0713 0,-1.48875 0.07,-0.07 0.0712,-0.0713 0.14125,0 0.0712,0.0713 0.0712,0.07 0,0.0713 z m 0,3.12 0,1.34625 -0.0712,0.0712 -0.0712,0.0713 -0.1412495,0 -0.0712,-0.0713 -0.07,-0.0712 0,-1.48875 0.07,-0.07 0.0712,0 0.0713,-0.0713 0.069999,0.0713 0.0712,0 0.0712,0.07 0,0.1425 z m 0,3.0475 0,1.41875 -0.0712,0.0713 -0.0712,0.07 -0.1412495,0 -0.0712,-0.07 -0.07,-0.0713 0,-1.48875 0.07,-0.0712 0.0712,-0.0713 0.1412495,0 0.0712,0.0713 0.0712,0.0712 0,0.07 z m 0,3.12 0,1.4175 -0.0712,0.0713 -0.0712,0.0712 -0.1412495,0 -0.0712,-0.0712 -0.07,-0.0713 0,-1.48875 0.07,-0.07 0.0712,-0.0712 0.1412495,0 0.0712,0.0712 0.0712,0.07 0,0.0712 z m 0,3.12 0,1.4175 -0.0712,0.0712 -0.0712,0 -0.069999,0.07 -0.0713,-0.07 -0.0712,0 -0.07,-0.0712 0,-1.48875 0.07,-0.0712 0.0712,-0.07 0.14125,0 0.0712,0.07 0.0712,0.0712 0,0.0713 z m 0,3.11875 0,1.3475 -0.0712,0.07 -0.0712,0.0713 -0.1412495,0 -0.0712,-0.0713 -0.07,-0.07 0,-1.48875 0.07,-0.0713 0.0712,0 0.0713,-0.0713 0.069999,0.0713 0.0712,0 0.0712,0.0713 0,0.14125 z m 0,3.04875 0,1.4175 -0.0712,0.0713 -0.0712,0.0713 -0.1412495,0 -0.0712,-0.0713 -0.07,-0.0713 0,-1.48875 0.07,-0.0712 0.0712,-0.07 0.1412495,0 0.0712,0.07 0.0712,0.0712 0,0.0713 z m 0,3.11875 0,1.41875 -0.0712,0.07 -0.0712,0.0712 -0.1412495,0 -0.0712,-0.0712 -0.07,-0.07 0,-1.48875 0.07,-0.0713 0.0712,-0.0712 0.1412495,0 0.0712,0.0712 0.0712,0.0713 0,0.07 z m 0,3.12 0,1.4175 -0.0712,0.0712 -0.0712,0 -0.069999,0.0713 -0.0713,-0.0713 -0.0712,0 -0.07,-0.0712 0,-1.48875 0.07,-0.0712 0.0712,-0.07 0.14125,0 0.0712,0.07 0.0712,0.0712 0,0.0713 z m 0,3.11875 0,1.3475 -0.0712,0.0713 -0.0712,0.0712 -0.1412495,0 -0.0712,-0.0712 -0.07,-0.0713 0,-1.48875 0.07,-0.0713 0.0712,0 0.0713,-0.07 0.069999,0.07 0.0712,0 0.0712,0.0713 0,0.14125 z m 0,3.04875 0,1.41875 -0.0712,0.07 -0.0712,0.0712 -0.1412495,0 -0.0712,-0.0712 -0.07,-0.07 0,-1.49 0.07,-0.07 0.0712,-0.0713 0.1412495,0 0.0712,0.0713 0.0712,0.07 0,0.0712 z m 0,3.12003 0,1.4175 -0.0712,0.071 -0.0712,0.071 -0.1412495,0 -0.0712,-0.071 -0.07,-0.071 0,-1.4888 0.07,-0.071 0.0712,-0.07 0.1412495,0 0.0712,0.07 0.0712,0.071 0,0.071 z m 0,3.1187 0,1.4188 -0.0712,0.07 -0.0712,0 -0.069999,0.071 -0.0713,-0.071 -0.0712,0 -0.07,-0.07 0,-1.4888 0.07,-0.071 0.0712,-0.071 0.14125,0 0.0712,0.071 0.0712,0.071 0,0.07 z m 0,3.12 0,1.3463 -0.0712,0.071 -0.0712,0.071 -0.1412495,0 -0.0712,-0.071 -0.07,-0.071 0,-1.4888 0.07,-0.07 0.0712,0 0.0713,-0.071 0.069999,0.071 0.0712,0 0.0712,0.07 0,0.1425 z m 0,3.0488 0,1.4175 -0.0712,0.071 -0.0712,0.07 -0.1412495,0 -0.0712,-0.07 -0.07,-0.071 0,-1.4888 0.07,-0.071 0.0712,-0.07 0.1412495,0 0.0712,0.07 0.0712,0.071 0,0.071 z m 0,3.1187 0,1.4175 -0.0712,0.071 -0.0712,0.071 -0.1412495,0 -0.0712,-0.071 -0.07,-0.071 0,-1.4875 0.07,-0.071 0.0712,-0.071 0.1412495,0 0.0712,0.071 0.0712,0.071 0,0.07 z m 0,3.11999 0,1.4175 -0.0712,0.071 -0.0712,0 -0.069999,0.07 -0.0713,-0.07 -0.0712,0 -0.07,-0.071 0,-1.48869 0.07,-0.071 0.0712,-0.07 0.14125,0 0.0712,0.07 0.0712,0.071 0,0.071 z m 0,3.1188 0,1.3475 -0.0712,0.07 -0.0712,0.071 -0.1412495,0 -0.0712,-0.071 -0.07,-0.07 0,-1.4888 0.07,-0.071 0.0712,0 0.0713,-0.071 0.069999,0.071 0.0712,0 0.0712,0.071 0,0.1413 z m 0,3.0487 0,1.4175 -0.0712,0.071 -0.0712,0.071 -0.1412495,0 -0.0712,-0.071 -0.07,-0.071 0,-1.4887 0.07,-0.07 0.0712,-0.071 0.1412495,0 0.0712,0.071 0.0712,0.07 0,0.071 z m 0,3.12 0,0.425 -0.0712,0.071 -0.0712,0.07 -0.1412495,0 -0.0712,-0.07 -0.07,-0.071 0,-0.4962 0.07,-0.071 0.0712,-0.071 0.1412495,0 0.0712,0.071 0.0712,0.071 0,0.071"
     inkscape:connector-curvature="0" />
   <path
     id="path3109"
     style="fill:none;stroke:#000000;stroke-width:1;stroke-linecap:butt;stroke-linejoin:miter;stroke-miterlimit:2.61310005;stroke-opacity:1;stroke-dasharray:none"
     d="m 10.212279,900.78078 0,1.4175 -0.0712,0.0712 -0.0712,0 -0.069999,0.07 -0.0713,-0.07 -0.0712,0 -0.07,-0.0712 0,-1.48875 0.07,-0.0712 0.0712,-0.0713 0.14125,0 0.0712,0.0713 0.0712,0.0712 0,0.0713 z m 0,3.11875 0,1.3475 -0.0712,0.0713 -0.0712,0.07 -0.1412495,0 -0.0712,-0.07 -0.07,-0.0713 0,-1.48875 0.07,-0.0713 0.0712,0 0.0713,-0.0713 0.069999,0.0713 0.0712,0 0.0712,0.0713 0,0.14125 z m 0,3.04875 0,1.4175 -0.0712,0.0713 -0.0712,0.0713 -0.1412495,0 -0.0712,-0.0713 -0.07,-0.0713 0,-1.48875 0.07,-0.0713 0.0712,-0.07 0.1412495,0 0.0712,0.07 0.0712,0.0713 0,0.0713 z m 0,3.11875 0,1.41875 -0.0712,0.0713 -0.0712,0.07 -0.1412495,0 -0.0712,-0.07 -0.07,-0.0713 0,-1.48875 0.07,-0.0713 0.0712,-0.0712 0.1412495,0 0.0712,0.0712 0.0712,0.0713 0,0.07 z m 0,3.12 0,1.4175 -0.0712,0.0712 -0.0712,0 -0.069999,0.0713 -0.0713,-0.0713 -0.0712,0 -0.07,-0.0712 0,-1.48875 0.07,-0.0712 0.0712,-0.07 0.14125,0 0.0712,0.07 0.0712,0.0712 0,0.0713 z m 0,3.11875 0,1.3475 -0.0712,0.0713 -0.0712,0.07 -0.1412495,0 -0.0712,-0.07 -0.07,-0.0713 0,-1.48875 0.07,-0.0713 0.0712,0 0.0713,-0.07 0.069999,0.07 0.0712,0 0.0712,0.0713 0,0.14125 z m 0,3.04875 0,1.41875 -0.0712,0.07 -0.0712,0.0713 -0.1412495,0 -0.0712,-0.0713 -0.07,-0.07 0,-1.48875 0.07,-0.0713 0.0712,-0.0713 0.1412495,0 0.0712,0.0713 0.0712,0.0713 0,0.07 z m 0,3.12 0,1.4175 -0.0712,0.0713 -0.0712,0.0713 -0.1412495,0 -0.0712,-0.0713 -0.07,-0.0713 0,-1.48875 0.07,-0.0713 0.0712,-0.07 0.1412495,0 0.0712,0.07 0.0712,0.0713 0,0.0713 z m 0,3.11875 0,1.41875 -0.0712,0.07 -0.0712,0 -0.069999,0.0713 -0.0713,-0.0713 -0.0712,0 -0.07,-0.07 0,-1.48875 0.07,-0.0713 0.0712,-0.0712 0.14125,0 0.0712,0.0712 0.0712,0.0713 0,0.07 z m 0,3.12 0,1.34625 -0.0712,0.0713 -0.0712,0.0712 -0.1412495,0 -0.0712,-0.0712 -0.07,-0.0713 0,-1.4875 0.07,-0.0712 0.0712,0 0.0713,-0.0713 0.069999,0.0713 0.0712,0 0.0712,0.0712 0,0.14125 z m 0,3.04875 0,1.4175 -0.0712,0.0713 -0.0712,0.07 -0.1412495,0 -0.0712,-0.07 -0.07,-0.0713 0,-1.48875 0.07,-0.0713 0.0712,-0.07 0.1412495,0 0.0712,0.07 0.0712,0.0713 0,0.0712 z m 0,3.11875 0,1.41875 -0.0712,0.07 -0.0712,0.0713 -0.1412495,0 -0.0712,-0.0713 -0.07,-0.07 0,-1.48875 0.07,-0.0713 0.0712,-0.0713 0.1412495,0 0.0712,0.0713 0.0712,0.0713 0,0.07 z m 0,3.12 0,1.4175 -0.0712,0.0713 -0.0712,0 -0.069999,0.07 -0.0713,-0.07 -0.0712,0 -0.07,-0.0713 0,-1.48875 0.07,-0.0713 0.0712,-0.07 0.14125,0 0.0712,0.07 0.0712,0.0713 0,0.0713 z m 0,3.11875 0,1.3475 -0.0712,0.0712 -0.0712,0.07 -0.1412495,0 -0.0712,-0.07 -0.07,-0.0712 0,-1.48875 0.07,-0.0712 0.0712,0 0.0713,-0.0713 0.069999,0.0713 0.0712,0 0.0712,0.0712 0,0.14125 z m 0,3.04875 0,1.4175 -0.0712,0.0713 -0.0712,0.0712 -0.1412495,0 -0.0712,-0.0712 -0.07,-0.0713 0,-1.48875 0.07,-0.07 0.0712,-0.0713 0.1412495,0 0.0712,0.0713 0.0712,0.07 0,0.0712 z m 0,3.11875 0,1.41875 -0.0712,0.0713 -0.0712,0.07 -0.1412495,0 -0.0712,-0.07 -0.07,-0.0713 0,-1.48875 0.07,-0.0713 0.0712,-0.0713 0.1412495,0 0.0712,0.0713 0.0712,0.0713 0,0.07 z m 0,3.12 0,1.4175 -0.0712,0.0713 -0.0712,0 -0.069999,0.0713 -0.0713,-0.0713 -0.0712,0 -0.07,-0.0713 0,-1.48875 0.07,-0.07 0.0712,-0.0713 0.14125,0 0.0712,0.0713 0.0712,0.07 0,0.0713 z m 0,3.12 0,1.34625 -0.0712,0.0712 -0.0712,0.0713 -0.1412495,0 -0.0712,-0.0713 -0.07,-0.0712 0,-1.48875 0.07,-0.07 0.0712,0 0.0713,-0.0713 0.069999,0.0713 0.0712,0 0.0712,0.07 0,0.1425 z m 0,3.0475 0,1.41875 -0.0712,0.0713 -0.0712,0.07 -0.1412495,0 -0.0712,-0.07 -0.07,-0.0713 0,-1.48875 0.07,-0.0712 0.0712,-0.0713 0.1412495,0 0.0712,0.0713 0.0712,0.0712 0,0.07 z m 0,3.12 0,1.4175 -0.0712,0.0713 -0.0712,0.0712 -0.1412495,0 -0.0712,-0.0712 -0.07,-0.0713 0,-1.48875 0.07,-0.07 0.0712,-0.0712 0.1412495,0 0.0712,0.0712 0.0712,0.07 0,0.0712 z m 0,3.12 0,1.4175 -0.0712,0.0712 -0.0712,0 -0.069999,0.07 -0.0713,-0.07 -0.0712,0 -0.07,-0.0712 0,-1.48875 0.07,-0.0712 0.0712,-0.07 0.14125,0 0.0712,0.07 0.0712,0.0712 0,0.0713 z m 0,3.11875 0,1.3475 -0.0712,0.07 -0.0712,0.0713 -0.1412495,0 -0.0712,-0.0713 -0.07,-0.07 0,-1.48875 0.07,-0.0713 0.0712,0 0.0713,-0.0713 0.069999,0.0713 0.0712,0 0.0712,0.0713 0,0.14125 z m 0,3.04875 0,1.4175 -0.0712,0.0713 -0.0712,0.0713 -0.1412495,0 -0.0712,-0.0713 -0.07,-0.0713 0,-1.48875 0.07,-0.0712 0.0712,-0.07 0.1412495,0 0.0712,0.07 0.0712,0.0712 0,0.0713 z m 0,3.11875 0,1.41875 -0.0712,0.07 -0.0712,0.0712 -0.1412495,0 -0.0712,-0.0712 -0.07,-0.07 0,-1.48875 0.07,-0.0713 0.0712,-0.0712 0.1412495,0 0.0712,0.0712 0.0712,0.0713 0,0.07 z m 0,3.12 0,1.4175 -0.0712,0.0712 -0.0712,0 -0.069999,0.0713 -0.0713,-0.0713 -0.0712,0 -0.07,-0.0712 0,-1.48875 0.07,-0.0712 0.0712,-0.07 0.14125,0 0.0712,0.07 0.0712,0.0712 0,0.0713 z m 0,3.11875 0,1.3475 -0.0712,0.0713 -0.0712,0.0712 -0.1412495,0 -0.0712,-0.0712 -0.07,-0.0713 0,-1.48875 0.07,-0.0713 0.0712,0 0.0713,-0.07 0.069999,0.07 0.0712,0 0.0712,0.0713 0,0.14125 z m 0,3.04875 0,1.41875 -0.0712,0.07 -0.0712,0.0712 -0.1412495,0 -0.0712,-0.0712 -0.07,-0.07 0,-1.49 0.07,-0.07 0.0712,-0.0713 0.1412495,0 0.0712,0.0713 0.0712,0.07 0,0.0712 z m 0,3.12003 0,1.4175 -0.0712,0.071 -0.0712,0.071 -0.1412495,0 -0.0712,-0.071 -0.07,-0.071 0,-1.4888 0.07,-0.071 0.0712,-0.07 0.1412495,0 0.0712,0.07 0.0712,0.071 0,0.071 z m 0,3.1187 0,1.4188 -0.0712,0.07 -0.0712,0 -0.069999,0.071 -0.0713,-0.071 -0.0712,0 -0.07,-0.07 0,-1.4888 0.07,-0.071 0.0712,-0.071 0.14125,0 0.0712,0.071 0.0712,0.071 0,0.07 z m 0,3.12 0,1.3463 -0.0712,0.071 -0.0712,0.071 -0.1412495,0 -0.0712,-0.071 -0.07,-0.071 0,-1.4888 0.07,-0.07 0.0712,0 0.0713,-0.071 0.069999,0.071 0.0712,0 0.0712,0.07 0,0.1425 z m 0,3.0488 0,1.4175 -0.0712,0.071 -0.0712,0.07 -0.1412495,0 -0.0712,-0.07 -0.07,-0.071 0,-1.4888 0.07,-0.071 0.0712,-0.07 0.1412495,0 0.0712,0.07 0.0712,0.071 0,0.071 z m 0,3.1187 0,1.4175 -0.0712,0.071 -0.0712,0.071 -0.1412495,0 -0.0712,-0.071 -0.07,-0.071 0,-1.4875 0.07,-0.071 0.0712,-0.071 0.1412495,0 0.0712,0.071 0.0712,0.071 0,0.07 z m 0,3.11999 0,1.4175 -0.0712,0.071 -0.0712,0 -0.069999,0.07 -0.0713,-0.07 -0.0712,0 -0.07,-0.071 0,-1.48869 0.07,-0.071 0.0712,-0.07 0.14125,0 0.0712,0.07 0.0712,0.071 0,0.071 z m 0,3.1188 0,1.3475 -0.0712,0.07 -0.0712,0.071 -0.1412495,0 -0.0712,-0.071 -0.07,-0.07 0,-1.4888 0.07,-0.071 0.0712,0 0.0713,-0.071 0.069999,0.071 0.0712,0 0.0712,0.071 0,0.1413 z m 0,3.0487 0,1.4175 -0.0712,0.071 -0.0712,0.071 -0.1412495,0 -0.0712,-0.071 -0.07,-0.071 0,-1.4887 0.07,-0.07 0.0712,-0.071 0.1412495,0 0.0712,0.071 0.0712,0.07 0,0.071 z m 0,3.12 0,0.425 -0.0712,0.071 -0.0712,0.07 -0.1412495,0 -0.0712,-0.07 -0.07,-0.071 0,-0.4962 0.07,-0.071 0.0712,-0.071 0.1412495,0 0.0712,0.071 0.0712,0.071 0,0.071 z"
     inkscape:connector-curvature="0" />
   <path
     id="path3111"
     style="fill:none;stroke:#000000;stroke-width:1;stroke-linecap:butt;stroke-linejoin:miter;stroke-miterlimit:2.61310005;stroke-opacity:1;stroke-dasharray:none"
     d="M 9.9997795,952.39203 173.34353,809.04078"
     inkscape:connector-curvature="0" />
   <path
     id="path3113"
     style="fill:none;stroke:#33ff00;stroke-width:1;stroke-linecap:butt;stroke-linejoin:miter;stroke-miterlimit:2.61310005;stroke-opacity:1;stroke-dasharray:none"
     d="m 9.9997795,952.39203 282.2350005,0"
     inkscape:connector-curvature="0" />
   <path
     id="path3115"
     style="fill:#000000;fill-opacity:1;fill-rule:evenodd;stroke:none"
     d="m 11.204779,1020.9483 138.885001,0 0.07,0.071 0.0713,0.07 0,0.2137 -0.0713,0.1413 -0.07,0.071 -139.026251,0 -0.0713,-0.071 -0.0712,-0.1413 0,-0.2137 0.0712,-0.07 0.0713,-0.071 0.14125,0 0,0 z m 3.402501,2.6225 -3.970001,-2.3388 3.970001,-2.34 0.0712,-0.07 0.1425,0 0.07,0.07 0.1425,0.071 0,0.2838 -0.0713,0.071 -0.0712,0.07 -3.545001,2.0562 0,-0.4962 3.545001,2.0562 0.0712,0.071 0.0713,0.1413 0,0.2125 -0.1425,0.071 -0.07,0.07 -0.21375,0 0,0 z m 131.9375,-4.6788 3.97,2.34 -3.97,2.3388 -0.2125,0 -0.0713,-0.07 -0.0713,-0.071 -0.07,-0.1413 0,-0.071 0.07,-0.1412 0.0713,-0.071 3.545,-2.0563 0,0.4963 -3.545,-2.0563 -0.0713,-0.07 -0.07,-0.071 0,-0.1425 0.07,-0.1412 0.0713,-0.071 0.0713,-0.07 0.14125,0 0.0713,0.07 0,0"
     inkscape:connector-curvature="0" />
   <path
     id="path3117"
     style="fill:none;stroke:#000000;stroke-width:0.0708625;stroke-linecap:butt;stroke-linejoin:miter;stroke-miterlimit:2.61310005;stroke-opacity:1;stroke-dasharray:none"
     d="m 11.204779,1020.9483 138.885001,0 0.07,0.071 0.0713,0.07 0,0.2137 -0.0713,0.1413 -0.07,0.071 -139.026251,0 -0.0713,-0.071 -0.0712,-0.1413 0,-0.2137 0.0712,-0.07 0.0713,-0.071 0.14125,0 0,0 z m 3.402501,2.6225 -3.970001,-2.3388 3.970001,-2.34 0.0712,-0.07 0.1425,0 0.07,0.07 0.1425,0.071 0,0.2838 -0.0713,0.071 -0.0712,0.07 -3.545001,2.0562 0,-0.4962 3.545001,2.0562 0.0712,0.071 0.0713,0.1413 0,0.2125 -0.1425,0.071 -0.07,0.07 -0.21375,0 0,0 z m 131.9375,-4.6788 3.97,2.34 -3.97,2.3388 -0.2125,0 -0.0713,-0.07 -0.0713,-0.071 -0.07,-0.1413 0,-0.071 0.07,-0.1412 0.0713,-0.071 3.545,-2.0563 0,0.4963 -3.545,-2.0563 -0.0713,-0.07 -0.07,-0.071 0,-0.1425 0.07,-0.1412 0.0713,-0.071 0.0713,-0.07 0.14125,0 0.0713,0.07 0,0 z"
     inkscape:connector-curvature="0" />
   <path
     id="path3119"
     style="fill:#000000;fill-opacity:1;fill-rule:evenodd;stroke:none"
     d="m 152.28728,1020.9483 123.42125,0 0.12625,0.071 0.0625,0.07 0,0.2137 -0.0625,0.1413 -0.12625,0.071 -123.5475,0 -0.0625,-0.071 -0.0637,-0.1413 -0.0625,-0.071 0.0625,-0.1425 0.0637,-0.07 0.0625,-0.071 0.12625,0 0,0 z m 3.0275,2.6225 -3.595,-2.3388 3.595,-2.34 0.0625,-0.07 0.12625,0.07 0.0637,0 0.0625,0.1425 0.0638,0.07 0,0.1425 -0.0638,0.071 -0.0625,0.07 -3.15375,2.0563 0,-0.4963 3.15375,2.0563 0.0625,0.071 0.0638,0.1412 0,0.071 -0.0638,0.1413 -0.0625,0.071 -0.0637,0.07 -0.18875,0 0,0 z m 117.3025,-4.6788 3.5325,2.34 -3.5325,2.3388 -0.18875,0 -0.12625,-0.07 -0.0625,-0.071 0,-0.2125 0.0625,-0.1413 0.0638,-0.071 3.1525,-2.0562 0,0.4962 -3.1525,-2.0562 -0.0638,-0.07 -0.0625,-0.071 0,-0.2125 0.0625,-0.1425 0.12625,0 0.0637,-0.07 0.125,0.07 0,0"
     inkscape:connector-curvature="0" />
   <path
     inkscape:connector-curvature="0"
     d="m 152.28687,1020.9456 123.42125,0 0.12594,0.071 0.0635,0.072 0,0.213 -0.0635,0.1416 -0.12594,0.07 -123.54718,0 -0.0624,-0.07 -0.0636,-0.1416 -0.0624,-0.071 0.0624,-0.1416 0.0636,-0.072 0.0624,-0.071 0.12593,0 0,0 z m 3.0271,2.6236 -3.59438,-2.3391 3.59438,-2.3405 0.0636,-0.07 0.12594,0.07 0.0635,0 0.0624,0.1428 0.0636,0.07 0,0.1416 -0.0636,0.072 -0.0624,0.071 -3.15303,2.0561 0,-0.4975 3.15303,2.0573 0.0624,0.07 0.0636,0.1416 0,0.071 -0.0636,0.1416 -0.0624,0.07 -0.0635,0.071 -0.18949,0 0,0 z m 117.3035,-4.6796 3.53201,2.3405 -3.53201,2.3391 -0.18948,0 -0.12594,-0.071 -0.0624,-0.07 0,-0.213 0.0624,-0.1416 0.0636,-0.07 3.15303,-2.0573 0,0.4975 -3.15303,-2.0561 -0.0636,-0.072 -0.0624,-0.071 0,-0.2117 0.0624,-0.1429 0.12594,0 0.0635,-0.07 0.12593,0.07 0,0 z"
     style="fill:none;stroke:#000000;stroke-width:0.06683531;stroke-linecap:butt;stroke-linejoin:miter;stroke-miterlimit:2.61310005;stroke-opacity:1;stroke-dasharray:none"
     id="path3123" />
   <path
     id="path3125"
     style="fill:none;stroke:#ff020c;stroke-width:1;stroke-linecap:butt;stroke-linejoin:miter;stroke-miterlimit:2.61310005;stroke-opacity:1;stroke-dasharray:none"
     d="M 9.9997795,952.39203 151.15228,940.90703"
     inkscape:connector-curvature="0" />
   <path
     id="path3127"
     style="fill:none;stroke:#0735ff;stroke-width:1;stroke-linecap:butt;stroke-linejoin:miter;stroke-miterlimit:2.61310005;stroke-opacity:1;stroke-dasharray:none"
     d="m 9.9997795,952.39203 141.1525005,11.415"
     inkscape:connector-curvature="0" />
   <path
     id="path3129"
     style="fill:none;stroke:#ff020c;stroke-width:1;stroke-linecap:butt;stroke-linejoin:miter;stroke-miterlimit:2.61310005;stroke-opacity:1;stroke-dasharray:none"
     d="m 151.15228,940.97828 133.63875,0"
     inkscape:connector-curvature="0" />
   <path
     id="path3131"
     style="fill:none;stroke:#0735ff;stroke-width:1;stroke-linecap:butt;stroke-linejoin:miter;stroke-miterlimit:2.61310005;stroke-opacity:1;stroke-dasharray:none"
     d="m 151.15228,963.80703 148.385,0"
     inkscape:connector-curvature="0" />
   <path
     id="path3133"
     style="fill:none;stroke:#ff020c;stroke-width:1;stroke-linecap:butt;stroke-linejoin:miter;stroke-miterlimit:2.61310005;stroke-opacity:1;stroke-dasharray:none"
     d="M 284.79103,940.97828 151.15228,975.36203"
     inkscape:connector-curvature="0" />
   <path
     id="path3135"
     style="fill:none;stroke:#33ff00;stroke-width:1;stroke-linecap:butt;stroke-linejoin:miter;stroke-miterlimit:2.61310005;stroke-opacity:1;stroke-dasharray:none"
     d="m 292.23478,952.39203 -141.0825,34.31378"
     inkscape:connector-curvature="0" />
   <path
     id="path3137"
     style="fill:none;stroke:#0735ff;stroke-width:1;stroke-linecap:butt;stroke-linejoin:miter;stroke-miterlimit:2.61310005;stroke-opacity:1;stroke-dasharray:none"
     d="m 299.53728,963.80703 -148.385,34.45498"
     inkscape:connector-curvature="0" />
   <path
     id="path3139"
     style="fill:none;stroke:#33ff00;stroke-width:1;stroke-linecap:butt;stroke-linejoin:miter;stroke-miterlimit:2.61310005;stroke-opacity:1;stroke-dasharray:none"
     d="m 151.15228,986.70581 -141.1525005,0"
     inkscape:connector-curvature="0" />
   <path
     id="path3141"
     style="fill:none;stroke:#ff020c;stroke-width:1;stroke-linecap:butt;stroke-linejoin:miter;stroke-miterlimit:2.61310005;stroke-opacity:1;stroke-dasharray:none"
     d="M 151.15228,975.36203 9.9997795,986.70581"
     inkscape:connector-curvature="0" />
   <path
     id="path3143"
     style="fill:none;stroke:#0735ff;stroke-width:1;stroke-linecap:butt;stroke-linejoin:miter;stroke-miterlimit:2.61310005;stroke-opacity:1;stroke-dasharray:none"
     d="M 151.15228,998.26201 9.9997795,986.70581"
     inkscape:connector-curvature="0" />
   <path
     id="path3145"
     style="fill:none;stroke:#000000;stroke-width:1;stroke-linecap:butt;stroke-linejoin:miter;stroke-miterlimit:2.61310005;stroke-opacity:1;stroke-dasharray:none"
     d="M 9.9997795,986.70581 173.34353,843.42578"
     inkscape:connector-curvature="0" />
   <path
     id="path3147"
     style="fill:none;stroke:#000000;stroke-width:0.42532876;stroke-linecap:butt;stroke-linejoin:miter;stroke-miterlimit:2.61310005;stroke-opacity:1;stroke-dasharray:none"
     d="m 157.60478,827.97078 38.2125,36.865"
     inkscape:connector-curvature="0" />
   <path
     id="path3151"
     style="fill:none;stroke:#000000;stroke-width:0.42532876;stroke-linecap:butt;stroke-linejoin:miter;stroke-miterlimit:2.61310005;stroke-opacity:1;stroke-dasharray:none"
     d="m 165.61603,835.34328 7.3725,1.48875"
     inkscape:connector-curvature="0" />
   <path
     id="path3153"
     style="fill:none;stroke:#000000;stroke-width:0.42532876;stroke-linecap:butt;stroke-linejoin:miter;stroke-miterlimit:2.61310005;stroke-opacity:1;stroke-dasharray:none"
     d="m 173.27228,842.78703 7.44375,1.48875"
     inkscape:connector-curvature="0" />
   <path
     id="path3155"
     style="fill:none;stroke:#000000;stroke-width:0.42532876;stroke-linecap:butt;stroke-linejoin:miter;stroke-miterlimit:2.61310005;stroke-opacity:1;stroke-dasharray:none"
     d="m 180.36103,849.94828 7.445,1.48875"
     inkscape:connector-curvature="0" />
   <path
     id="path3157"
     style="fill:none;stroke:#000000;stroke-width:0.42532876;stroke-linecap:butt;stroke-linejoin:miter;stroke-miterlimit:2.61310005;stroke-opacity:1;stroke-dasharray:none"
     d="m 188.16103,857.03703 7.3725,1.49"
     inkscape:connector-curvature="0" />
   <path
     id="path3159"
     style="fill:none;stroke:#000000;stroke-width:1;stroke-linecap:butt;stroke-linejoin:miter;stroke-miterlimit:2.61310005;stroke-opacity:1;stroke-dasharray:none"
     d="m 157.60478,827.97078 38.2125,36.865"
     inkscape:connector-curvature="0" />
   <path
     id="path3163"
     style="fill:none;stroke:#000000;stroke-width:1;stroke-linecap:butt;stroke-linejoin:miter;stroke-miterlimit:2.61310005;stroke-opacity:1;stroke-dasharray:none"
     d="m 165.61603,835.34328 7.3725,1.48875"
     inkscape:connector-curvature="0" />
   <path
     id="path3165"
     style="fill:none;stroke:#000000;stroke-width:1;stroke-linecap:butt;stroke-linejoin:miter;stroke-miterlimit:2.61310005;stroke-opacity:1;stroke-dasharray:none"
     d="m 173.27228,842.78703 7.44375,1.48875"
     inkscape:connector-curvature="0" />
   <path
     id="path3167"
     style="fill:none;stroke:#000000;stroke-width:1;stroke-linecap:butt;stroke-linejoin:miter;stroke-miterlimit:2.61310005;stroke-opacity:1;stroke-dasharray:none"
     d="m 180.36103,849.94828 7.445,1.48875"
     inkscape:connector-curvature="0" />
   <path
     id="path3169"
     style="fill:none;stroke:#000000;stroke-width:1;stroke-linecap:butt;stroke-linejoin:miter;stroke-miterlimit:2.61310005;stroke-opacity:1;stroke-dasharray:none"
     d="m 188.16103,857.03703 7.3725,1.49"
     inkscape:connector-curvature="0" />
   <path
     id="path3171"
     style="fill:#000000;fill-opacity:1;fill-rule:evenodd;stroke:none"
     d="m 119.39228,857.03703 -54.873751,47.78375 -0.1425,0.0712 -0.07,0 -0.1425,-0.0712 -0.07,-0.07 -0.0712,-0.0713 0,-0.2125 0.0712,-0.0713 54.943751,-47.78375 0.0713,-0.0713 0.2125,0 0.14125,0.1425 0.0712,0.0712 0,0.14125 -0.0712,0.0713 -0.07,0.07 0,0 z m -1.7725,-1.13375 3.8275,-0.9925 -1.48875,3.68625 -2.33875,-2.69375 z m -51.683751,49.6275 -3.8275,0.9925 1.4875,-3.6875 2.34,2.695"
     inkscape:connector-curvature="0" />
   <path
     id="path3173"
     style="fill:none;stroke:#000000;stroke-width:1;stroke-linecap:butt;stroke-linejoin:miter;stroke-miterlimit:2.61310005;stroke-opacity:1;stroke-dasharray:none"
     d="m 119.39228,857.03703 -54.873751,47.78375 -0.1425,0.0712 -0.07,0 -0.1425,-0.0712 -0.07,-0.07 -0.0712,-0.0713 0,-0.2125 0.0712,-0.0713 54.943751,-47.78375 0.0713,-0.0713 0.2125,0 0.14125,0.1425 0.0712,0.0712 0,0.14125 -0.0712,0.0713 -0.07,0.07 0,0 z m -1.7725,-1.13375 3.8275,-0.9925 -1.48875,3.68625 -2.33875,-2.69375 z m -51.683751,49.6275 -3.8275,0.9925 1.4875,-3.6875 2.34,2.695 z"
     inkscape:connector-curvature="0" />
   <path
     inkscape:connector-curvature="0"
     d="m 152.85441,986.99071 122.35927,-0.2835"
     style="fill:none;stroke:#879e9e;stroke-width:1;stroke-linecap:butt;stroke-linejoin:miter;stroke-miterlimit:2.61310005;stroke-opacity:1;stroke-dasharray:1, 1;stroke-dashoffset:0"
     id="path3177" />
   <path
     id="path3179"
     style="fill:none;stroke:#000000;stroke-width:1;stroke-linecap:butt;stroke-linejoin:miter;stroke-miterlimit:2.61310005;stroke-opacity:1;stroke-dasharray:none"
     d="m 237.99978,978.55328 0.355,0.92125 0.28375,0.92125 0.2825,0.9925 0.21375,0.9225 0.2125,0.9925 0.14125,0.92125 0.0712,0.99248 0.0713,0.9925"
     inkscape:connector-curvature="0" />
   <path
     id="path3181"
     style="fill:none;stroke:#000000;stroke-width:0.42532876;stroke-linecap:butt;stroke-linejoin:miter;stroke-miterlimit:2.61310005;stroke-opacity:1;stroke-dasharray:none"
     d="m 83.802282,946.72078 0.14125,1.4175 0.1425,1.41875 0.07,1.4175 0,1.4175"
     inkscape:connector-curvature="0" />
   <path
     id="path3191"
     style="fill:#000000;fill-opacity:1;fill-rule:evenodd;stroke:none"
     d="m 15.17478,919.99328 0,-5.6725 0.0713,-0.14125 0.141249,0 0.0712,-0.0713 0.14125,0.0713 0.0712,0 0.0712,0.14125 0,5.7425 -0.0712,0.1425 -0.0712,0 -0.14125,0.0713 -0.0712,-0.0713 -0.141249,0 -0.0713,-0.1425 0,-0.07 z m -1.985001,-2.19875 2.26875,-3.97 2.34,3.97 0.07,0.1425 -0.07,0.14125 0,0.0712 -0.0712,0.0713 -0.1425,0.0713 -0.14125,-0.0713 -0.0712,0 -0.07,-0.0713 -2.056249,-3.545 0.496249,0 -2.056249,3.545 -0.0713,0.0713 -0.14125,0 -0.0712,0.0713 -0.141251,-0.0713 -0.0712,-0.0713 -0.0713,-0.0712 0,-0.14125 0.0713,-0.1425 0,0"
     inkscape:connector-curvature="0" />
   <path
     id="path3193"
     style="fill:none;stroke:#000000;stroke-width:0.0708625;stroke-linecap:butt;stroke-linejoin:miter;stroke-miterlimit:2.61310005;stroke-opacity:1;stroke-dasharray:none"
     d="m 15.17478,919.99328 0,-5.6725 0.0713,-0.14125 0.141249,0 0.0712,-0.0713 0.14125,0.0713 0.0712,0 0.0712,0.14125 0,5.7425 -0.0712,0.1425 -0.0712,0 -0.14125,0.0713 -0.0712,-0.0713 -0.141249,0 -0.0713,-0.1425 0,-0.07 z m -1.985001,-2.19875 2.26875,-3.97 2.34,3.97 0.07,0.1425 -0.07,0.14125 0,0.0712 -0.0712,0.0713 -0.1425,0.0713 -0.14125,-0.0713 -0.0712,0 -0.07,-0.0713 -2.056249,-3.545 0.496249,0 -2.056249,3.545 -0.0713,0.0713 -0.14125,0 -0.0712,0.0713 -0.141251,-0.0713 -0.0712,-0.0713 -0.0713,-0.0712 0,-0.14125 0.0713,-0.1425 0,0 z"
     inkscape:connector-curvature="0" />
   <path
     id="path3195"
     style="fill:#000000;fill-opacity:1;fill-rule:evenodd;stroke:none"
     d="m 15.742279,903.19078 0,5.6 -0.0712,0.0713 -0.0712,0.0713 -0.2125,0 -0.141249,-0.0713 -0.0713,-0.0713 0,-5.7425 0.0713,-0.07 0.141249,-0.0712 0.2125,0 0.0712,0.0712 0.0712,0.07 0,0.1425 z m 2.05625,2.05625 -2.34,3.97 -2.26875,-3.97 -0.0713,-0.0713 0,-0.1425 0.0713,-0.07 0.0712,-0.0713 0.141251,-0.0712 0.0712,0 0.14125,0.0712 0.0713,0.0713 2.056249,3.545 -0.496249,0 2.056249,-3.545 0.07,-0.0713 0.0712,-0.0712 0.14125,0 0.1425,0.0712 0.0712,0.0713 0,0.07 0.07,0.1425 -0.07,0.0713 0,0"
     inkscape:connector-curvature="0" />
   <path
     id="path3197"
     style="fill:none;stroke:#000000;stroke-width:0.0708625;stroke-linecap:butt;stroke-linejoin:miter;stroke-miterlimit:2.61310005;stroke-opacity:1;stroke-dasharray:none"
     d="m 15.742279,903.19078 0,5.6 -0.0712,0.0713 -0.0712,0.0713 -0.2125,0 -0.141249,-0.0713 -0.0713,-0.0713 0,-5.7425 0.0713,-0.07 0.141249,-0.0712 0.2125,0 0.0712,0.0712 0.0712,0.07 0,0.1425 z m 2.05625,2.05625 -2.34,3.97 -2.26875,-3.97 -0.0713,-0.0713 0,-0.1425 0.0713,-0.07 0.0712,-0.0713 0.141251,-0.0712 0.0712,0 0.14125,0.0712 0.0713,0.0713 2.056249,3.545 -0.496249,0 2.056249,-3.545 0.07,-0.0713 0.0712,-0.0712 0.14125,0 0.1425,0.0712 0.0712,0.0713 0,0.07 0.07,0.1425 -0.07,0.0713 0,0 z"
     inkscape:connector-curvature="0" />
   <path
     id="path3205"
     style="fill:#879e9e;fill-opacity:1;fill-rule:evenodd;stroke:none"
     d="m 11.063529,946.93328 138.813751,-11.2725 0.14125,0 0.0713,0.0713 0.07,0.0712 0,0.2125 -0.07,0.14125 -0.0713,0.0712 -0.0713,0 -138.813751,11.2725 -0.07,0 -0.1425,-0.0713 -0.0712,-0.0713 0,-0.28375 0.0712,-0.07 0.0712,-0.0712 0.0713,0 0,0 z m 3.615001,2.26875 -4.111251,-1.985 3.756251,-2.62375 0.0712,-0.07 0.1425,0 0.07,0.07 0.1425,0.0713 0,0.355 -0.0713,0.07 -3.402501,2.34 0,-0.49625 3.686251,1.7725 0.0713,0.0713 0.07,0.07 0,0.28375 -0.07,0.0712 -0.1425,0.0713 -0.07,0 -0.1425,-0.0713 0,0 z m 131.65375,-15.31375 4.11125,1.985 -3.7575,2.62375 -0.07,0.07 -0.28375,0 -0.0713,-0.14125 0,-0.28375 0.0713,-0.07 3.4025,-2.34 0,0.49625 -3.68625,-1.7725 -0.0713,-0.0713 -0.07,-0.14125 0,-0.21375 0.07,-0.07 0.1425,-0.0712 0.2125,0 0,0"
     inkscape:connector-curvature="0" />
   <path
     id="path3207"
     style="fill:none;stroke:#879e9e;stroke-width:1;stroke-linecap:butt;stroke-linejoin:miter;stroke-miterlimit:2.61310005;stroke-opacity:1;stroke-dasharray:none"
     d="m 11.063529,946.93328 138.813751,-11.2725 0.14125,0 0.0713,0.0713 0.07,0.0712 0,0.2125 -0.07,0.14125 -0.0713,0.0712 -0.0713,0 -138.813751,11.2725 -0.07,0 -0.1425,-0.0713 -0.0712,-0.0713 0,-0.28375 0.0712,-0.07 0.0712,-0.0712 0.0713,0 0,0 z m 3.615001,2.26875 -4.111251,-1.985 3.756251,-2.62375 0.0712,-0.07 0.1425,0 0.07,0.07 0.1425,0.0713 0,0.355 -0.0713,0.07 -3.402501,2.34 0,-0.49625 3.686251,1.7725 0.0713,0.0713 0.07,0.07 0,0.28375 -0.07,0.0712 -0.1425,0.0713 -0.07,0 -0.1425,-0.0713 0,0 z m 131.65375,-15.31375 4.11125,1.985 -3.7575,2.62375 -0.07,0.07 -0.28375,0 -0.0713,-0.14125 0,-0.28375 0.0713,-0.07 3.4025,-2.34 0,0.49625 -3.68625,-1.7725 -0.0713,-0.0713 -0.07,-0.14125 0,-0.21375 0.07,-0.07 0.1425,-0.0712 0.2125,0 0,0 z"
     inkscape:connector-curvature="0" />
   <path
     id="path3219"
     style="fill:#879e9e;fill-opacity:1;fill-rule:evenodd;stroke:none"
     d="m 150.72728,935.87328 131.72375,0 0.0713,0.0712 0.0712,0.0713 0,0.2125 -0.0712,0.14125 -0.0713,0.0713 -131.865,0 -0.0712,-0.0713 -0.0713,-0.14125 0,-0.2125 0.0713,-0.0713 0.0712,-0.0712 0.14125,0 0,0 z m 3.40375,2.62375 -4.04125,-2.34 4.04125,-2.34 0.07,-0.07 0.1425,0.07 0.07,0 0.0713,0.1425 0.0713,0.07 0,0.1425 -0.0713,0.0712 -0.0713,0.0713 -3.54375,2.055 0,-0.49625 3.54375,2.05625 0.0713,0.0713 0.0713,0.14125 0,0.0713 -0.0713,0.14125 -0.0713,0.0712 -0.07,0.0713 -0.2125,0 0,0 z m 124.77625,-4.68 3.97,2.34 -3.97,2.34 -0.21375,0 -0.14125,-0.0713 -0.0712,-0.0712 0,-0.2125 0.0712,-0.14125 0.0713,-0.0713 3.545,-2.05625 0,0.49625 -3.545,-2.055 -0.0713,-0.0713 -0.0712,-0.0712 0,-0.2125 0.0712,-0.1425 0.14125,0 0.0713,-0.07 0.1425,0.07 0,0"
     inkscape:connector-curvature="0" />
   <path
     id="path3221"
     style="fill:none;stroke:#879e9e;stroke-width:1;stroke-linecap:butt;stroke-linejoin:miter;stroke-miterlimit:2.61310005;stroke-opacity:1;stroke-dasharray:none"
     d="m 150.72728,935.87328 131.72375,0 0.0713,0.0712 0.0712,0.0713 0,0.2125 -0.0712,0.14125 -0.0713,0.0713 -131.865,0 -0.0712,-0.0713 -0.0713,-0.14125 0,-0.2125 0.0713,-0.0713 0.0712,-0.0712 0.14125,0 0,0 z m 3.40375,2.62375 -4.04125,-2.34 4.04125,-2.34 0.07,-0.07 0.1425,0.07 0.07,0 0.0713,0.1425 0.0713,0.07 0,0.1425 -0.0713,0.0712 -0.0713,0.0713 -3.54375,2.055 0,-0.49625 3.54375,2.05625 0.0713,0.0713 0.0713,0.14125 0,0.0713 -0.0713,0.14125 -0.0713,0.0712 -0.07,0.0713 -0.2125,0 0,0 z m 124.77625,-4.68 3.97,2.34 -3.97,2.34 -0.21375,0 -0.14125,-0.0713 -0.0712,-0.0712 0,-0.2125 0.0712,-0.14125 0.0713,-0.0713 3.545,-2.05625 0,0.49625 -3.545,-2.055 -0.0713,-0.0713 -0.0712,-0.0712 0,-0.2125 0.0712,-0.1425 0.14125,0 0.0713,-0.07 0.1425,0.07 0,0 z"
     inkscape:connector-curvature="0" />
   <path
     id="path3245"
     style="fill:#879e9e;fill-opacity:1;fill-rule:evenodd;stroke:none"
     d="m 282.09728,936.01578 -131.37,33.81625 -0.0713,0 -0.14125,-0.07 -0.0713,-0.0712 -0.07,-0.0713 0,-0.2125 0.14125,-0.14125 0.0712,0 131.36875,-33.8175 0.1425,-0.0713 0.0713,0.0713 0.14125,0.0712 0,0.35375 -0.0712,0.0712 -0.14125,0.0713 0,0 z m -3.9,-1.70125 4.39625,1.275 -3.26125,3.19125 -0.0713,0.07 -0.28375,0 -0.07,-0.07 -0.0713,-0.0713 0,-0.2125 0.0713,-0.1425 2.90625,-2.835 0.14125,0.49625 -3.89875,-1.135 -0.14125,-0.07 -0.0713,-0.0713 -0.0712,-0.1425 0.0712,-0.07 0,-0.1425 0.14125,-0.07 0.2125,0 0,0 z m -123.64125,36.58125 -4.46625,-1.205 3.26125,-3.26125 0.14125,-0.0713 0.2125,0 0.0712,0.0713 0.0713,0.0713 0,0.2125 -0.0713,0.14125 -2.90625,2.9075 -0.1425,-0.49625 3.97,1.06375 0.1425,0.07 0.07,0.0713 0,0.28375 -0.07,0.07 -0.0713,0.0713 -0.2125,0 0,0"
     inkscape:connector-curvature="0" />
   <path
     id="path3247"
     style="fill:none;stroke:#879e9e;stroke-width:1;stroke-linecap:butt;stroke-linejoin:miter;stroke-miterlimit:2.61310005;stroke-opacity:1;stroke-dasharray:none"
     d="m 282.09728,936.01578 -131.37,33.81625 -0.0713,0 -0.14125,-0.07 -0.0713,-0.0712 -0.07,-0.0713 0,-0.2125 0.14125,-0.14125 0.0712,0 131.36875,-33.8175 0.1425,-0.0713 0.0713,0.0713 0.14125,0.0712 0,0.35375 -0.0712,0.0712 -0.14125,0.0713 0,0 z m -3.9,-1.70125 4.39625,1.275 -3.26125,3.19125 -0.0713,0.07 -0.28375,0 -0.07,-0.07 -0.0713,-0.0713 0,-0.2125 0.0713,-0.1425 2.90625,-2.835 0.14125,0.49625 -3.89875,-1.135 -0.14125,-0.07 -0.0713,-0.0713 -0.0712,-0.1425 0.0712,-0.07 0,-0.1425 0.14125,-0.07 0.2125,0 0,0 z m -123.64125,36.58125 -4.46625,-1.205 3.26125,-3.26125 0.14125,-0.0713 0.2125,0 0.0712,0.0713 0.0713,0.0713 0,0.2125 -0.0713,0.14125 -2.90625,2.9075 -0.1425,-0.49625 3.97,1.06375 0.1425,0.07 0.07,0.0713 0,0.28375 -0.07,0.07 -0.0713,0.0713 -0.2125,0 0,0 z"
     inkscape:connector-curvature="0" />
   <path
     id="path3259"
     style="fill:#879e9e;fill-opacity:1;fill-rule:evenodd;stroke:none"
     d="m 148.81353,969.97453 -138.743751,11.20125 -0.1412495,0 -0.14125,-0.0712 -0.0712,-0.07 0,-0.28375 0.0712,-0.0713 0.07,-0.0713 0.1425,0 138.7425005,-11.20125 0.1425,0 0.07,0.0712 0.0712,0.0713 0.0713,0.14125 0,0.0712 -0.0713,0.14125 -0.14125,0.0713 -0.0712,0 0,0 z m -3.61625,-2.34 4.1825,1.985 -3.8275,2.62375 -0.0712,0.0713 -0.2125,0 -0.0713,-0.1425 -0.0712,-0.0713 0,-0.14125 0.0712,-0.0712 0.0713,-0.0713 3.3325,-2.33875 0.07,0.49625 -3.68625,-1.7725 -0.14125,-0.0712 -0.0712,-0.14125 0,-0.0713 0.0712,-0.14125 0.07,-0.0713 0.0713,-0.0713 0.2125,0 0,0 z m -131.5825,15.31375 -4.1825005,-2.05625 3.7574995,-2.6225 0.142501,0 0.07,-0.0712 0.1425,0.0712 0.07,0.07 0.0713,0.1425 0,0.0712 -0.0713,0.14125 -0.07,0.0713 -3.332501,2.33875 -0.0712,-0.49625 3.686251,1.7725 0.0712,0.0712 0.0713,0.0712 0.0712,0.14125 -0.0712,0.1425 -0.0713,0.07 -0.0712,0.0712 -0.2125,0 0,0"
     inkscape:connector-curvature="0" />
   <path
     id="path3261"
     style="fill:none;stroke:#879e9e;stroke-width:1;stroke-linecap:butt;stroke-linejoin:miter;stroke-miterlimit:2.61310005;stroke-opacity:1;stroke-dasharray:none"
     d="m 148.81353,969.97453 -138.743751,11.20125 -0.1412495,0 -0.14125,-0.0712 -0.0712,-0.07 0,-0.28375 0.0712,-0.0713 0.07,-0.0713 0.1425,0 138.7425005,-11.20125 0.1425,0 0.07,0.0712 0.0712,0.0713 0.0713,0.14125 0,0.0712 -0.0713,0.14125 -0.14125,0.0713 -0.0712,0 0,0 z m -3.61625,-2.34 4.1825,1.985 -3.8275,2.62375 -0.0712,0.0713 -0.2125,0 -0.0713,-0.1425 -0.0712,-0.0713 0,-0.14125 0.0712,-0.0712 0.0713,-0.0713 3.3325,-2.33875 0.07,0.49625 -3.68625,-1.7725 -0.14125,-0.0712 -0.0712,-0.14125 0,-0.0713 0.0712,-0.14125 0.07,-0.0713 0.0713,-0.0713 0.2125,0 0,0 z m -131.5825,15.31375 -4.1825005,-2.05625 3.7574995,-2.6225 0.142501,0 0.07,-0.0712 0.1425,0.0712 0.07,0.07 0.0713,0.1425 0,0.0712 -0.0713,0.14125 -0.07,0.0713 -3.332501,2.33875 -0.0712,-0.49625 3.686251,1.7725 0.0712,0.0712 0.0713,0.0712 0.0712,0.14125 -0.0712,0.1425 -0.0713,0.07 -0.0712,0.0712 -0.2125,0 0,0 z"
     inkscape:connector-curvature="0" />
   <path
     id="path3273"
     style="fill:none;stroke:#000000;stroke-width:0.42532876;stroke-linecap:butt;stroke-linejoin:miter;stroke-miterlimit:2.61310005;stroke-opacity:1;stroke-dasharray:none"
     d="m 82.597282,980.89203 0.14125,1.41875 0.14125,1.4175 0.0713,1.41753 0,1.4187"
     inkscape:connector-curvature="0" />
   <path
     id="path3283"
     style="fill:none;stroke:#000000;stroke-width:1;stroke-linecap:butt;stroke-linejoin:miter;stroke-miterlimit:2.61310005;stroke-opacity:1;stroke-dasharray:1, 2;stroke-dashoffset:0"
     d="m 275.47478,1020.2845 0,-154.19747"
     inkscape:connector-curvature="0" />
   <path
     id="path3285"
     style="fill:none;stroke:#000000;stroke-width:1;stroke-linecap:butt;stroke-linejoin:miter;stroke-miterlimit:2.61310005;stroke-opacity:1;stroke-dasharray:none"
     d="m 289.33478,884.65453 -8.67375,16.1525"
     inkscape:connector-curvature="0" />
   <path
     id="path3287"
     style="fill:#000000;fill-opacity:1;fill-rule:evenodd;stroke:none"
     d="m 279.28603,903.36578 4.91875,-3.92 c -1.84625,-0.0538 -3.30125,-0.83625 -4.36625,-2.345 l -0.5525,6.265"
     inkscape:connector-curvature="0" />
   <path
     id="path3297"
     style="fill:none;stroke:#000000;stroke-width:1;stroke-linecap:butt;stroke-linejoin:miter;stroke-miterlimit:2.61310005;stroke-opacity:1;stroke-dasharray:none"
     d="M 310.42853,988.44451 265.15228,898.44578"
     inkscape:connector-curvature="0" />
   <path
     id="path3299"
     style="fill:none;stroke:#000000;stroke-width:1;stroke-linecap:butt;stroke-linejoin:miter;stroke-miterlimit:2.61310005;stroke-opacity:1;stroke-dasharray:none"
     d="m 271.18978,910.44578 3.0675,-16.58"
     inkscape:connector-curvature="0" />
   <path
     id="path3301"
     style="fill:none;stroke:#000000;stroke-width:1;stroke-linecap:butt;stroke-linejoin:miter;stroke-miterlimit:2.61310005;stroke-opacity:1;stroke-dasharray:none"
     d="m 286.10853,939.84578 3.0675,-16.58"
     inkscape:connector-curvature="0" />
   <path
     id="path3303"
     style="fill:none;stroke:#000000;stroke-width:1;stroke-linecap:butt;stroke-linejoin:miter;stroke-miterlimit:2.61310005;stroke-opacity:1;stroke-dasharray:none"
     d="m 278.65353,925.02703 3.0675,-16.58"
     inkscape:connector-curvature="0" />
   <path
     id="path3305"
     style="fill:none;stroke:#000000;stroke-width:1;stroke-linecap:butt;stroke-linejoin:miter;stroke-miterlimit:2.61310005;stroke-opacity:1;stroke-dasharray:none"
     d="m 293.57228,954.42703 3.0675,-16.58"
     inkscape:connector-curvature="0" />
   <path
     id="path3307"
     style="fill:none;stroke:#000000;stroke-width:1;stroke-linecap:butt;stroke-linejoin:miter;stroke-miterlimit:2.61310005;stroke-opacity:1;stroke-dasharray:none"
     d="m 304.56228,976.94203 3.0675,-16.58"
     inkscape:connector-curvature="0" />
   <path
     id="path3309"
     style="fill:none;stroke:#000000;stroke-width:1;stroke-linecap:butt;stroke-linejoin:miter;stroke-miterlimit:2.61310005;stroke-opacity:1;stroke-dasharray:none"
     d="m 274.90978,918.04828 3.0675,-16.58"
     inkscape:connector-curvature="0" />
   <path
     id="path3311"
     style="fill:none;stroke:#000000;stroke-width:1;stroke-linecap:butt;stroke-linejoin:miter;stroke-miterlimit:2.61310005;stroke-opacity:1;stroke-dasharray:none"
     d="m 289.82853,947.44828 3.0675,-16.58"
     inkscape:connector-curvature="0" />
   <path
     id="path3313"
     style="fill:none;stroke:#000000;stroke-width:1;stroke-linecap:butt;stroke-linejoin:miter;stroke-miterlimit:2.61310005;stroke-opacity:1;stroke-dasharray:none"
     d="m 300.81853,969.96203 3.0675,-16.58"
     inkscape:connector-curvature="0" />
   <path
     id="path3315"
     style="fill:none;stroke:#000000;stroke-width:1;stroke-linecap:butt;stroke-linejoin:miter;stroke-miterlimit:2.61310005;stroke-opacity:1;stroke-dasharray:none"
     d="m 282.37353,932.62953 3.0675,-16.58"
     inkscape:connector-curvature="0" />
   <path
     id="path3317"
     style="fill:none;stroke:#000000;stroke-width:1;stroke-linecap:butt;stroke-linejoin:miter;stroke-miterlimit:2.61310005;stroke-opacity:1;stroke-dasharray:none"
     d="m 297.29228,962.02953 3.0675,-16.58"
     inkscape:connector-curvature="0" />
   <path
     id="path3319"
     style="fill:none;stroke:#000000;stroke-width:1;stroke-linecap:butt;stroke-linejoin:miter;stroke-miterlimit:2.61310005;stroke-opacity:1;stroke-dasharray:none"
     d="m 308.28228,984.54331 3.0675,-16.58003"
     inkscape:connector-curvature="0" />
   <path
     id="path3321"
     style="fill:#ffffff;fill-opacity:1;fill-rule:evenodd;stroke:none"
     d="m 275.99353,916.37078 c 1.97625,0 3.5875,1.54 3.5875,3.43 0,1.89 -1.61125,3.43125 -3.5875,3.43125 -1.975,0 -3.58625,-1.54125 -3.58625,-3.43125 0,-1.89 1.61125,-3.43 3.58625,-3.43"
     inkscape:connector-curvature="0" />
   <path
     id="path3323"
     style="fill:none;stroke:#000000;stroke-width:1.63872504;stroke-linecap:butt;stroke-linejoin:miter;stroke-miterlimit:2.61310005;stroke-opacity:1;stroke-dasharray:none"
     d="m 275.99353,916.37078 c 1.97625,0 3.5875,1.54 3.5875,3.43 0,1.89 -1.61125,3.43125 -3.5875,3.43125 -1.975,0 -3.58625,-1.54125 -3.58625,-3.43125 0,-1.89 1.61125,-3.43 3.58625,-3.43 z"
     inkscape:connector-curvature="0" />
   <path
     id="path3325"
     style="fill:none;stroke:#000000;stroke-width:1;stroke-linecap:butt;stroke-linejoin:miter;stroke-miterlimit:2.61310005;stroke-opacity:1;stroke-dasharray:none"
     d="m 312.64228,923.40703 0,26.15125"
     inkscape:connector-curvature="0" />
   <path
     id="path3327"
     style="fill:#000000;fill-opacity:1;fill-rule:evenodd;stroke:none"
     d="m 314.63478,923.50578 -1.9875,-3.0675 -1.99,3.0675 3.9775,0"
     inkscape:connector-curvature="0" />
   <path
     id="path3329"
     style="fill:none;stroke:#000000;stroke-width:0.82586378;stroke-linecap:butt;stroke-linejoin:miter;stroke-miterlimit:2.61310005;stroke-opacity:1;stroke-dasharray:none"
     d="m 314.63478,920.43828 -3.98625,0"
     inkscape:connector-curvature="0" />
   <path
     id="path3331"
     style="fill:#000000;fill-opacity:1;fill-rule:evenodd;stroke:none"
     d="m 314.63478,949.45953 -1.9875,3.06625 -1.99,-3.06625 3.9775,0"
     inkscape:connector-curvature="0" />
   <path
     id="path3333"
     style="fill:none;stroke:#000000;stroke-width:0.82586378;stroke-linecap:butt;stroke-linejoin:miter;stroke-miterlimit:2.61310005;stroke-opacity:1;stroke-dasharray:none"
     d="m 314.63478,952.52578 -3.98625,0"
     inkscape:connector-curvature="0" />
   <path
     id="path3351"
     style="fill:none;stroke:#000000;stroke-width:1;stroke-linecap:butt;stroke-linejoin:miter;stroke-miterlimit:2.61310005;stroke-opacity:1;stroke-dasharray:none"
     d="m 303.73853,975.27203 c -8.64875,3.0725 -18.415,4.7275 -27.90125,4.7275"
     inkscape:connector-curvature="0" />
   <path
     id="path3353"
     style="fill:none;stroke:#000000;stroke-width:1;stroke-linecap:butt;stroke-linejoin:miter;stroke-miterlimit:2.61310005;stroke-opacity:1;stroke-dasharray:none"
     d="m 314.05353,996.25451 c -11.91625,4.23379 -25.37,6.51379 -38.44,6.51379 -10.7625,0 -22.295,-1.6288 -32.29,-4.55999"
     inkscape:connector-curvature="0" />
   <path
     id="path3355"
     style="fill:none;stroke:#000000;stroke-width:0.82586378;stroke-linecap:butt;stroke-linejoin:miter;stroke-miterlimit:2.61310005;stroke-opacity:1;stroke-dasharray:none"
     d="m 312.29478,999.12201 2.3625,-3.0812 -3.77875,-0.9013"
     inkscape:connector-curvature="0" />
   <path
     id="path3357"
     style="fill:none;stroke:#000000;stroke-width:0.82586378;stroke-linecap:butt;stroke-linejoin:miter;stroke-miterlimit:2.61310005;stroke-opacity:1;stroke-dasharray:none"
     d="m 245.24228,1000.9733 -2.53375,-2.94499 3.7225,-1.1113"
     inkscape:connector-curvature="0" />
   <path
     id="path3367"
     style="fill:none;stroke:#000000;stroke-width:0.17697126;stroke-linecap:butt;stroke-linejoin:miter;stroke-miterlimit:2.61310005;stroke-opacity:1;stroke-dasharray:none"
     d="m 96.884782,935.09953 -7.25,11.08875"
     inkscape:connector-curvature="0" />
   <path
     id="path3369"
     style="fill:#000000;fill-opacity:1;fill-rule:evenodd;stroke:none"
     d="m 88.044782,948.61953 5.2375,-3.4825 c -1.83375,-0.21375 -3.21625,-1.1175 -4.1475,-2.7125 l -1.09,6.195"
     inkscape:connector-curvature="0" />
   <path
     id="path3371"
     style="fill:none;stroke:#000000;stroke-width:0.17697126;stroke-linecap:butt;stroke-linejoin:miter;stroke-miterlimit:2.61310005;stroke-opacity:1;stroke-dasharray:none"
     d="m 96.032282,970.79203 -7.25,11.0875"
     inkscape:connector-curvature="0" />
   <path
     id="path3373"
     style="fill:#000000;fill-opacity:1;fill-rule:evenodd;stroke:none"
     d="m 87.192282,984.31201 5.2375,-3.48373 c -1.83375,-0.2125 -3.21625,-1.11625 -4.1475,-2.71125 l -1.09,6.19498"
     inkscape:connector-curvature="0" />
   <path
     id="path3375"
     style="fill:none;stroke:#000000;stroke-width:1;stroke-linecap:butt;stroke-linejoin:miter;stroke-miterlimit:2.61310005;stroke-opacity:1;stroke-dasharray:1, 1;stroke-dashoffset:0"
     d="m 286.62353,940.76953 37.315,0"
     inkscape:connector-curvature="0" />
   <path
     id="path3377"
     style="fill:none;stroke:#000000;stroke-width:1;stroke-linecap:butt;stroke-linejoin:miter;stroke-miterlimit:2.61310005;stroke-opacity:1;stroke-dasharray:1, 1;stroke-dashoffset:0"
     d="m 276.59603,920.71328 37.31375,0"
     inkscape:connector-curvature="0" />
   <path
     id="path3379"
     style="fill:none;stroke:#000000;stroke-width:1;stroke-linecap:butt;stroke-linejoin:miter;stroke-miterlimit:2.61310005;stroke-opacity:1;stroke-dasharray:1, 1;stroke-dashoffset:0"
     d="m 287.44978,952.68578 37.31375,0"
     inkscape:connector-curvature="0" />
   <path
     id="path3381"
     style="fill:none;stroke:#000000;stroke-width:1;stroke-linecap:butt;stroke-linejoin:miter;stroke-miterlimit:2.61310005;stroke-opacity:1;stroke-dasharray:none"
     d="m 321.93228,944.00203 0,5.96125"
     inkscape:connector-curvature="0" />
   <path
     id="path3383"
     style="fill:#000000;fill-opacity:1;fill-rule:evenodd;stroke:none"
     d="m 323.92353,944.10078 -1.9875,-3.06625 -1.99,3.06625 3.9775,0"
     inkscape:connector-curvature="0" />
   <path
     id="path3385"
     style="fill:none;stroke:#000000;stroke-width:0.82586378;stroke-linecap:butt;stroke-linejoin:miter;stroke-miterlimit:2.61310005;stroke-opacity:1;stroke-dasharray:none"
     d="m 323.92353,941.03453 -3.985,0"
     inkscape:connector-curvature="0" />
   <path
     id="path3387"
     style="fill:#000000;fill-opacity:1;fill-rule:evenodd;stroke:none"
     d="m 323.92353,949.86453 -1.9875,3.0675 -1.99,-3.0675 3.9775,0"
     inkscape:connector-curvature="0" />
   <path
     id="path3389"
     style="fill:none;stroke:#000000;stroke-width:0.82586378;stroke-linecap:butt;stroke-linejoin:miter;stroke-miterlimit:2.61310005;stroke-opacity:1;stroke-dasharray:none"
     d="m 323.92353,952.93203 -3.985,0"
     inkscape:connector-curvature="0" />
   <path
     id="path3391"
     style="fill:none;stroke:#000000;stroke-width:0.17697126;stroke-linecap:butt;stroke-linejoin:miter;stroke-miterlimit:2.61310005;stroke-opacity:1;stroke-dasharray:none"
     d="m 25.519779,938.98828 c 3.17875,3.75 5.05375,8.64 5.05375,13.6125"
     inkscape:connector-curvature="0" />
  </g>
  <text
    id="text3395"
    x="47.865166"
    y="248.44888"
    style="font-size:15px">
   <tspan
     id="tspan3397"
     y="248.44888"
     x="47.865166"
     style="font-size:9.83147526px;font-variant:normal;font-weight:normal;writing-mode:lr-tb;fill:#000000;fill-opacity:1;fill-rule:nonzero;stroke:none;font-family:Symbol;-inkscape-font-specification:Symbol" />
  </text>
  <text
    xml:space="preserve"
    style="font-size:12px;font-style:normal;font-variant:normal;font-weight:normal;font-stretch:normal;line-height:125%;letter-spacing:0px;word-spacing:0px;fill:#000000;fill-opacity:1;stroke:none;font-family:Times New Roman;-inkscape-font-specification:'Times New Roman,'"
    x="7.2146463"
    y="894.72144"
    id="text5124"
    sodipodi:linespacing="125%"><tspan
     sodipodi:role="line"
     id="tspan5126"
     x="7.2146463"
     y="894.72144">Diffraction</tspan></text>
  <text
    xml:space="preserve"
    style="font-size:12px;font-style:normal;font-variant:normal;font-weight:normal;font-stretch:normal;line-height:125%;letter-spacing:0px;word-spacing:0px;fill:#000000;fill-opacity:1;stroke:none;font-family:Times New Roman;-inkscape-font-specification:'Times New Roman,'"
    x="16.306021"
    y="905.83313"
    id="text5128"
    sodipodi:linespacing="125%"><tspan
     sodipodi:role="line"
     id="tspan5130"
     x="16.306021"
     y="905.83313">grating</tspan></text>
  <text
    xml:space="preserve"
    style="font-size:12px;font-style:normal;font-variant:normal;font-weight:normal;font-stretch:normal;line-height:125%;letter-spacing:0px;word-spacing:0px;fill:#000000;fill-opacity:1;stroke:none;font-family:Times New Roman;-inkscape-font-specification:'Times New Roman,'"
    x="-534.54272"
    y="715.6875"
    id="text5132"
    sodipodi:linespacing="125%"
    transform="matrix(0.741929,-0.67047845,0.67047845,0.741929,0,0)"><tspan
     sodipodi:role="line"
     id="tspan5134"
     x="-534.54272"
     y="715.6875">Beamsplitter</tspan></text>
  <text
    xml:space="preserve"
    style="font-size:12px;font-style:normal;font-variant:normal;font-weight:normal;font-stretch:normal;line-height:125%;letter-spacing:0px;word-spacing:0px;fill:#000000;fill-opacity:1;stroke:none;font-family:Times New Roman;-inkscape-font-specification:'Times New Roman,'"
    x="174.3949"
    y="867.44733"
    id="text5136"
    sodipodi:linespacing="125%"><tspan
     sodipodi:role="line"
     id="tspan5138"
     x="174.3949"
     y="867.44733">Mirror</tspan></text>
  <text
    xml:space="preserve"
    style="font-size:12px;font-style:normal;font-variant:normal;font-weight:normal;font-stretch:normal;line-height:125%;letter-spacing:0px;word-spacing:0px;fill:#000000;fill-opacity:1;stroke:none;font-family:Times New Roman;-inkscape-font-specification:'Times New Roman,'"
    x="227.20021"
    y="888.80835"
    id="text5140"
    sodipodi:linespacing="125%"><tspan
     sodipodi:role="line"
     id="tspan5142"
     x="227.20021"
     y="888.80835">Rotational</tspan></text>
  <text
    xml:space="preserve"
    style="font-size:12px;font-style:normal;font-variant:normal;font-weight:normal;font-stretch:normal;line-height:125%;letter-spacing:0px;word-spacing:0px;fill:#000000;fill-opacity:1;stroke:none;font-family:Times New Roman;-inkscape-font-specification:'Times New Roman,'"
    x="247.40326"
    y="904.97076"
    id="text5144"
    sodipodi:linespacing="125%"><tspan
     sodipodi:role="line"
     id="tspan5146"
     x="247.40326"
     y="904.97076">axis</tspan></text>
  <text
    xml:space="preserve"
    style="font-size:12px;font-style:normal;font-variant:normal;font-weight:normal;font-stretch:normal;line-height:125%;letter-spacing:0px;word-spacing:0px;fill:#000000;fill-opacity:1;stroke:none;font-family:Times New Roman;-inkscape-font-specification:'Times New Roman,'"
    x="263.95566"
    y="936.20624"
    id="text5148"
    sodipodi:linespacing="125%"><tspan
     sodipodi:role="line"
     id="tspan5150"
     x="263.95566"
     y="936.20624">$z_0$</tspan></text>
  <text
    xml:space="preserve"
    style="font-size:12px;font-style:normal;font-variant:normal;font-weight:normal;font-stretch:normal;line-height:125%;letter-spacing:0px;word-spacing:0px;fill:#000000;fill-opacity:1;stroke:none;font-family:Times New Roman;-inkscape-font-specification:'Times New Roman,'"
    x="271.93021"
    y="985.8299"
    id="text5152"
    sodipodi:linespacing="125%"><tspan
     sodipodi:role="line"
     id="tspan5154"
     x="271.93021"
     y="985.8299">$z$</tspan></text>
  <text
    xml:space="preserve"
    style="font-size:12px;font-style:normal;font-variant:normal;font-weight:normal;font-stretch:normal;line-height:125%;letter-spacing:0px;word-spacing:0px;fill:#000000;fill-opacity:1;stroke:none;font-family:Times New Roman;-inkscape-font-specification:'Times New Roman,'"
    x="175.11565"
    y="1047.5099"
    id="text5156"
    sodipodi:linespacing="125%"><tspan
     sodipodi:role="line"
     id="tspan5158"
     x="175.11565"
     y="1047.5099">$f$</tspan></text>
  <text
    sodipodi:linespacing="125%"
    id="text5160"
    y="1048.8518"
    x="60.120003"
    style="font-size:12px;font-style:normal;font-variant:normal;font-weight:normal;font-stretch:normal;line-height:125%;letter-spacing:0px;word-spacing:0px;fill:#000000;fill-opacity:1;stroke:none;font-family:Times New Roman;-inkscape-font-specification:'Times New Roman,'"
    xml:space="preserve"><tspan
     y="1048.8518"
     x="60.120003"
     id="tspan5162"
     sodipodi:role="line">$f$</tspan></text>
  <text
    xml:space="preserve"
    style="font-size:12px;font-style:normal;font-variant:normal;font-weight:normal;font-stretch:normal;line-height:125%;letter-spacing:0px;word-spacing:0px;fill:#000000;fill-opacity:1;stroke:none;font-family:Times New Roman;-inkscape-font-specification:'Times New Roman,'"
    x="18.832146"
    y="928.88446"
    id="text5164"
    sodipodi:linespacing="125%"><tspan
     sodipodi:role="line"
     id="tspan5166"
     x="18.832146"
     y="928.88446">$a$</tspan></text>
  <text
    xml:space="preserve"
    style="font-size:12px;font-style:normal;font-variant:normal;font-weight:normal;font-stretch:normal;line-height:125%;letter-spacing:0px;word-spacing:0px;fill:#000000;fill-opacity:1;stroke:none;font-family:Times New Roman;-inkscape-font-specification:'Times New Roman,'"
    x="55.39814"
    y="984.3938"
    id="text5176"
    sodipodi:linespacing="125%"><tspan
     sodipodi:role="line"
     id="tspan5178"
     x="55.39814"
     y="984.3938">$x_4$</tspan></text>
  <text
    xml:space="preserve"
    style="font-size:12px;font-style:normal;font-variant:normal;font-weight:normal;font-stretch:normal;line-height:125%;letter-spacing:0px;word-spacing:0px;fill:#000000;fill-opacity:1;stroke:none;font-family:Times New Roman;-inkscape-font-specification:'Times New Roman,'"
    x="86.689293"
    y="949.24158"
    id="text5196"
    sodipodi:linespacing="125%"><tspan
     sodipodi:role="line"
     id="tspan5198"
     x="86.689293"
     y="949.24158">$z$</tspan></text>
  <text
    sodipodi:linespacing="125%"
    id="text5192"
    y="985.6701"
    x="84.546425"
    style="font-size:12px;font-style:normal;font-variant:normal;font-weight:normal;font-stretch:normal;line-height:125%;letter-spacing:0px;word-spacing:0px;fill:#000000;fill-opacity:1;stroke:none;font-family:Times New Roman;-inkscape-font-specification:'Times New Roman,'"
    xml:space="preserve"><tspan
     y="985.6701"
     x="84.546425"
     id="tspan5194"
     sodipodi:role="line">$z$</tspan></text>
  <text
    xml:space="preserve"
    style="font-size:12px;font-style:normal;font-variant:normal;font-weight:normal;font-stretch:normal;line-height:125%;letter-spacing:0px;word-spacing:0px;fill:#000000;fill-opacity:1;stroke:none;font-family:Times New Roman;-inkscape-font-specification:'Times New Roman,'"
    x="105.71503"
    y="950.95551"
    id="text5180"
    sodipodi:linespacing="125%"><tspan
     sodipodi:role="line"
     id="tspan5182"
     x="105.71503"
     y="950.95551">$x_1$</tspan></text>
  <text
    xml:space="preserve"
    style="font-size:12px;font-style:normal;font-variant:normal;font-weight:normal;font-stretch:normal;line-height:125%;letter-spacing:0px;word-spacing:0px;fill:#000000;fill-opacity:1;stroke:none;font-family:Times New Roman;-inkscape-font-specification:'Times New Roman,'"
    x="168.11786"
    y="947.45587"
    id="text5184"
    sodipodi:linespacing="125%"><tspan
     sodipodi:role="line"
     id="tspan5186"
     x="168.11786"
     y="947.45587">$x_2$</tspan></text>
  <text
    xml:space="preserve"
    style="font-size:12px;font-style:normal;font-variant:normal;font-weight:normal;font-stretch:normal;line-height:125%;letter-spacing:0px;word-spacing:0px;fill:#000000;fill-opacity:1;stroke:none;font-family:Times New Roman;-inkscape-font-specification:'Times New Roman,'"
    x="151.33214"
    y="973.52728"
    id="text5188"
    sodipodi:linespacing="125%"><tspan
     sodipodi:role="line"
     id="tspan5190"
     x="151.33214"
     y="973.52728">$x_3$</tspan></text>
  <text
    xml:space="preserve"
    style="font-size:12px;font-style:normal;font-variant:normal;font-weight:normal;font-stretch:normal;line-height:125%;letter-spacing:0px;word-spacing:0px;fill:#000000;fill-opacity:1;stroke:none;font-family:Times New Roman;-inkscape-font-specification:'Times New Roman,'"
    x="19.189295"
    y="954.59869"
    id="text5168"
    sodipodi:linespacing="125%"><tspan
     sodipodi:role="line"
     id="tspan5170"
     x="19.189295"
     y="954.59869">$x$</tspan></text>
  <text
    sodipodi:linespacing="125%"
    id="text5204"
    y="997.10181"
    x="230.02716"
    style="font-size:12px;font-style:normal;font-variant:normal;font-weight:normal;font-stretch:normal;line-height:125%;letter-spacing:0px;word-spacing:0px;fill:#000000;fill-opacity:1;stroke:none;font-family:Times New Roman;-inkscape-font-specification:'Times New Roman,'"
    xml:space="preserve"><tspan
     y="997.10181"
     x="230.02716"
     id="tspan5206"
     sodipodi:role="line">$\theta$</tspan></text>
  <text
    xml:space="preserve"
    style="font-size:12px;font-style:normal;font-variant:normal;font-weight:normal;font-stretch:normal;line-height:125%;letter-spacing:0px;word-spacing:0px;fill:#000000;fill-opacity:1;stroke:none;font-family:Times New Roman;-inkscape-font-specification:'Times New Roman,'"
    x="250.28972"
    y="1007.157"
    id="text5200"
    sodipodi:linespacing="125%"><tspan
     sodipodi:role="line"
     id="tspan5202"
     x="250.28972"
     y="1007.157">$\theta$</tspan></text>
 </g>
</svg>
