<?xml version="1.0" encoding="UTF-8" standalone="no"?>
<!-- Created with Inkscape (http://www.inkscape.org/) -->

<svg
  xmlns:dc="http://purl.org/dc/elements/1.1/"
  xmlns:cc="http://creativecommons.org/ns#"
  xmlns:rdf="http://www.w3.org/1999/02/22-rdf-syntax-ns#"
  xmlns:svg="http://www.w3.org/2000/svg"
  xmlns="http://www.w3.org/2000/svg"
  xmlns:sodipodi="http://sodipodi.sourceforge.net/DTD/sodipodi-0.dtd"
  xmlns:inkscape="http://www.inkscape.org/namespaces/inkscape"
  width="313.79501"
  height="280.41751"
  id="svg6428"
  version="1.1"
  inkscape:version="0.48.0 r9654"
  sodipodi:docname="drawing-1.svg">
 <defs
   id="defs6430" />
 <sodipodi:namedview
   id="base"
   pagecolor="#ffffff"
   bordercolor="#666666"
   borderopacity="1.0"
   inkscape:pageopacity="0.0"
   inkscape:pageshadow="2"
   inkscape:zoom="1.4"
   inkscape:cx="90.774234"
   inkscape:cy="141.50951"
   inkscape:document-units="px"
   inkscape:current-layer="layer1"
   showgrid="false"
   fit-margin-top="0"
   fit-margin-left="0"
   fit-margin-right="0"
   fit-margin-bottom="0"
   inkscape:window-width="1026"
   inkscape:window-height="606"
   inkscape:window-x="184"
   inkscape:window-y="50"
   inkscape:window-maximized="0" />
 <metadata
   id="metadata6433">
  <rdf:RDF>
   <cc:Work
     rdf:about="">
    <dc:format>image/svg+xml</dc:format>
    <dc:type
      rdf:resource="http://purl.org/dc/dcmitype/StillImage" />
    <dc:title></dc:title>
   </cc:Work>
  </rdf:RDF>
 </metadata>
 <g
   inkscape:label="Layer 1"
   inkscape:groupmode="layer"
   id="layer1"
   transform="translate(-163.1025,-617.86772)">
  <path
    inkscape:connector-curvature="0"
    d="m 163.1025,898.28522 313.795,0 0,-280.4175 -313.795,0 0,280.4175 z"
    style="fill:#ffffff;fill-opacity:1;fill-rule:nonzero;stroke:none"
    id="path4711" />
  <path
    inkscape:connector-curvature="0"
    d="m 204.4225,807.38272 141.7325,0 -35.45375,35.43375 -141.73125,0 35.4525,-35.43375"
    style="fill:#e5e5e5;fill-opacity:1;fill-rule:evenodd;stroke:none"
    id="path4713" />
  <path
    id="path4729"
    style="fill:none;stroke:#000000;stroke-width:0.39999998;stroke-linecap:butt;stroke-linejoin:miter;stroke-miterlimit:2.61299992;stroke-opacity:1;stroke-dasharray:none"
    d="m 204.4225,807.38272 141.7325,0 -35.45375,35.43375 -141.73125,0 35.4525,-35.43375 z"
    inkscape:connector-curvature="0" />
  <path
    inkscape:connector-curvature="0"
    d="m 310.70125,842.81647 35.49125,-35.39875 0,35.43375 -35.49125,35.3975 0,-35.4325"
    style="fill:#e6e6e6;fill-opacity:1;fill-rule:evenodd;stroke:none"
    id="path4739" />
  <path
    id="path4755"
    style="fill:none;stroke:#000000;stroke-width:0.39999998;stroke-linecap:butt;stroke-linejoin:miter;stroke-miterlimit:2.61299992;stroke-opacity:1;stroke-dasharray:none"
    d="m 310.70125,842.81647 35.49125,-35.39875 0,35.43375 -35.49125,35.3975 0,-35.4325 z"
    inkscape:connector-curvature="0" />
  <path
    inkscape:connector-curvature="0"
    d="m 168.97,878.24772 141.73125,0 0,-35.4325 -141.73125,0 0,35.4325 z"
    style="fill:#e6e6e6;fill-opacity:1;fill-rule:nonzero;stroke:none"
    id="path4765" />
  <path
    id="path4781"
    style="fill:none;stroke:#000000;stroke-width:0.39999998;stroke-linecap:butt;stroke-linejoin:miter;stroke-miterlimit:2.61299992;stroke-opacity:1;stroke-dasharray:none"
    d="m 168.97,878.24897 141.73125,0 0,-35.4325 -141.73125,0 0,35.4325 z"
    inkscape:connector-curvature="0" />
  <path
    inkscape:connector-curvature="0"
    d="m 329.2475,683.15272 141.7325,0 -35.45375,35.4325 -141.73125,0 35.4525,-35.4325"
    style="fill:#e6e6e6;fill-opacity:1;fill-rule:evenodd;stroke:none"
    id="path4791" />
  <path
    id="path4807"
    style="fill:none;stroke:#000000;stroke-width:0.39999998;stroke-linecap:butt;stroke-linejoin:miter;stroke-miterlimit:2.61299992;stroke-opacity:1;stroke-dasharray:none"
    d="m 329.2475,683.15272 141.7325,0 -35.45375,35.4325 -141.73125,0 35.4525,-35.4325 z"
    inkscape:connector-curvature="0" />
  <path
    inkscape:connector-curvature="0"
    d="m 435.52625,718.58522 35.49125,-35.3975 0,35.4325 -35.49125,35.39875 0,-35.43375"
    style="fill:#e6e6e6;fill-opacity:1;fill-rule:evenodd;stroke:none"
    id="path4817" />
  <path
    id="path4833"
    style="fill:none;stroke:#000000;stroke-width:0.39999998;stroke-linecap:butt;stroke-linejoin:miter;stroke-miterlimit:2.61299992;stroke-opacity:1;stroke-dasharray:none"
    d="m 435.52625,718.58522 35.49125,-35.3975 0,35.4325 -35.49125,35.39875 0,-35.43375 z"
    inkscape:connector-curvature="0" />
  <path
    inkscape:connector-curvature="0"
    d="m 293.795,754.01772 141.7325,0 0,-35.4325 -141.7325,0 0,35.4325 z"
    style="fill:#e6e6e6;fill-opacity:1;fill-rule:evenodd;stroke:#000000;stroke-width:0.39999998;stroke-linecap:butt;stroke-linejoin:miter;stroke-miterlimit:2.61299992;stroke-opacity:1;stroke-dasharray:none"
    id="path4843" />
  <path
    inkscape:connector-curvature="0"
    d="m 213.9725,825.78772 87.585,0 0,-41.05625 -87.585,0 0,41.05625 z"
    style="fill:#ffffff;fill-opacity:1;fill-rule:evenodd;stroke:#000000;stroke-width:0.39999998;stroke-linecap:butt;stroke-linejoin:miter;stroke-miterlimit:2.61299992;stroke-opacity:1;stroke-dasharray:none"
    id="path4845" />
  <path
    inkscape:connector-curvature="0"
    d="m 301.5575,784.73147 125.6925,-125.695 0,40.62625 -125.6925,125.695 0,-40.62625 z"
    style="fill:#ffffff;fill-opacity:1;fill-rule:evenodd;stroke:#000000;stroke-width:0.39999998;stroke-linecap:butt;stroke-linejoin:miter;stroke-miterlimit:2.61299992;stroke-opacity:1;stroke-dasharray:none"
    id="path4847" />
  <path
    inkscape:connector-curvature="0"
    d="m 339.46125,658.78897 87.585,0 -125.48875,125.9425 -87.58625,0 125.49,-125.9425 z"
    style="fill:#ffffff;fill-opacity:1;fill-rule:evenodd;stroke:#000000;stroke-width:0.39999998;stroke-linecap:butt;stroke-linejoin:miter;stroke-miterlimit:2.61299992;stroke-opacity:1;stroke-dasharray:none"
    id="path4849" />
  <path
    inkscape:connector-curvature="0"
    d="m 310.64625,826.59022 120.2175,-121.4725"
    style="fill:none;stroke:#000000;stroke-width:0.625;stroke-linecap:butt;stroke-linejoin:miter;stroke-miterlimit:2.61299992;stroke-opacity:1;stroke-dasharray:none"
    id="path4851" />
  <path
    inkscape:connector-curvature="0"
    d="m 308.5925,824.34397 -1.13625,5.46 5.45,-1.19125 -4.31375,-4.26875"
    style="fill:#000000;fill-opacity:1;fill-rule:evenodd;stroke:none"
    id="path4853" />
  <path
    inkscape:connector-curvature="0"
    d="m 305.30125,827.67022 4.3225,4.2775"
    style="fill:none;stroke:#000000;stroke-width:1.25999999;stroke-linecap:butt;stroke-linejoin:miter;stroke-miterlimit:2.61299992;stroke-opacity:1;stroke-dasharray:none"
    id="path4855" />
  <path
    inkscape:connector-curvature="0"
    d="m 428.59875,703.08772 5.445,-1.19375 -1.1325,5.46125 -4.3125,-4.2675"
    style="fill:#000000;fill-opacity:1;fill-rule:evenodd;stroke:none"
    id="path4857" />
  <path
    inkscape:connector-curvature="0"
    d="m 431.88875,699.76147 4.3225,4.27625"
    style="fill:none;stroke:#000000;stroke-width:1.25999999;stroke-linecap:butt;stroke-linejoin:miter;stroke-miterlimit:2.61299992;stroke-opacity:1;stroke-dasharray:none"
    id="path4859" />
  <text
    id="text4861"
    x="380.65887"
    y="777.84937"
    style="font-size:15px">
   <tspan
     style="font-size:11.25px;font-variant:normal;font-weight:normal;writing-mode:lr-tb;fill:#000000;fill-opacity:1;fill-rule:nonzero;stroke:none;font-family:Arial;-inkscape-font-specification:ArialMT"
     x="380.65887 386.91388 393.16888 402.5401"
     y="777.84937"
     sodipodi:role="line"
     id="tspan4863">25mm</tspan>
  </text>
  <text
    id="text4865"
    x="173.147"
    y="810.48334"
    style="font-size:15px">
   <tspan
     style="font-size:11.25px;font-variant:normal;font-weight:normal;writing-mode:lr-tb;fill:#000000;fill-opacity:1;fill-rule:nonzero;stroke:none;font-family:Arial;-inkscape-font-specification:ArialMT"
     x="173.147 179.40201 188.77325"
     y="810.48334"
     sodipodi:role="line"
     id="tspan4867">2mm</tspan>
  </text>
  <text
    id="text4869"
    x="199.95236"
    y="722.61523"
    style="font-size:15px">
   <tspan
     style="font-size:11.25px;font-variant:normal;font-weight:normal;writing-mode:lr-tb;fill:#000000;fill-opacity:1;fill-rule:nonzero;stroke:none;font-family:Arial;-inkscape-font-specification:ArialMT"
     x="199.95236 207.45612 213.71112 223.08237 229.33737 231.83487"
     y="722.61523"
     sodipodi:role="line"
     id="tspan4871">Sample</tspan>
  </text>
  <text
    id="text4873"
    x="369.44373"
    y="806.51208"
    style="font-size:15px">
   <tspan
     style="font-size:11.25px;font-variant:normal;font-weight:normal;writing-mode:lr-tb;fill:#000000;fill-opacity:1;fill-rule:nonzero;stroke:none;font-family:Arial;-inkscape-font-specification:ArialMT"
     x="369.44373 376.94751 382.57251 388.82751 395.08252 401.33752 407.59253"
     y="806.51208"
     sodipodi:role="line"
     id="tspan4875">Scanned</tspan>
  </text>
  <text
    id="text4877"
    x="376.01373"
    y="820.26184"
    style="font-size:15px">
   <tspan
     style="font-size:11.25px;font-variant:normal;font-weight:normal;writing-mode:lr-tb;fill:#000000;fill-opacity:1;fill-rule:nonzero;stroke:none;font-family:Arial;-inkscape-font-specification:ArialMT"
     x="376.01373 379.76001 386.01501 392.27002 394.76752 401.02252"
     y="820.26184"
     sodipodi:role="line"
     id="tspan4879">region</tspan>
  </text>
  <text
    id="text4881"
    x="242.12076"
    y="815.63586"
    style="font-size:15px">
   <tspan
     style="font-size:11.25px;font-variant:normal;font-weight:normal;writing-mode:lr-tb;fill:#000000;fill-opacity:1;fill-rule:nonzero;stroke:none;font-family:Arial;-inkscape-font-specification:ArialMT"
     x="242.12076 248.37576 257.74701"
     y="815.63586"
     sodipodi:role="line"
     id="tspan4883">3mm</tspan>
  </text>
  <path
    inkscape:connector-curvature="0"
    d="m 204.88375,790.88272 0,31.52125"
    style="fill:none;stroke:#000000;stroke-width:0.39999998;stroke-linecap:butt;stroke-linejoin:miter;stroke-miterlimit:2.61299992;stroke-opacity:1;stroke-dasharray:none"
    id="path4885" />
  <path
    inkscape:connector-curvature="0"
    d="m 207.9225,791.03397 -3.03125,-4.67875 -3.03625,4.67875 6.0675,0"
    style="fill:#000000;fill-opacity:1;fill-rule:evenodd;stroke:none"
    id="path4887" />
  <path
    inkscape:connector-curvature="0"
    d="m 207.9225,786.35522 -6.08,0"
    style="fill:none;stroke:#000000;stroke-width:1.25999999;stroke-linecap:butt;stroke-linejoin:miter;stroke-miterlimit:2.61299992;stroke-opacity:1;stroke-dasharray:none"
    id="path4889" />
  <path
    inkscape:connector-curvature="0"
    d="m 207.9225,822.25272 -3.03125,4.68 -3.03625,-4.68 6.0675,0"
    style="fill:#000000;fill-opacity:1;fill-rule:evenodd;stroke:none"
    id="path4891" />
  <path
    inkscape:connector-curvature="0"
    d="m 207.9225,826.93272 -6.08,0"
    style="fill:none;stroke:#000000;stroke-width:1.25999999;stroke-linecap:butt;stroke-linejoin:miter;stroke-miterlimit:2.61299992;stroke-opacity:1;stroke-dasharray:none"
    id="path4893" />
  <path
    inkscape:connector-curvature="0"
    d="m 218.70875,819.26397 78.1325,0"
    style="fill:none;stroke:#000000;stroke-width:0.39999998;stroke-linecap:butt;stroke-linejoin:miter;stroke-miterlimit:2.61299992;stroke-opacity:1;stroke-dasharray:none"
    id="path4895" />
  <path
    inkscape:connector-curvature="0"
    d="m 218.86,816.22397 -4.68,3.0325 4.68,3.0375 0,-6.07"
    style="fill:#000000;fill-opacity:1;fill-rule:evenodd;stroke:none"
    id="path4897" />
  <path
    inkscape:connector-curvature="0"
    d="m 214.18,816.22397 0,6.0825"
    style="fill:none;stroke:#000000;stroke-width:1.25999999;stroke-linecap:butt;stroke-linejoin:miter;stroke-miterlimit:2.61299992;stroke-opacity:1;stroke-dasharray:none"
    id="path4899" />
  <path
    inkscape:connector-curvature="0"
    d="m 296.69,816.22397 4.68,3.0325 -4.68,3.0375 0,-6.07"
    style="fill:#000000;fill-opacity:1;fill-rule:evenodd;stroke:none"
    id="path4901" />
  <path
    inkscape:connector-curvature="0"
    d="m 301.37,816.22397 0,6.0825"
    style="fill:none;stroke:#000000;stroke-width:1.25999999;stroke-linecap:butt;stroke-linejoin:miter;stroke-miterlimit:2.61299992;stroke-opacity:1;stroke-dasharray:none"
    id="path4903" />
  <path
    inkscape:connector-curvature="0"
    d="m 242.24625,721.58772 25.5475,26.63875"
    style="fill:none;stroke:#000000;stroke-width:0.625;stroke-linecap:butt;stroke-linejoin:miter;stroke-miterlimit:2.61299992;stroke-opacity:1;stroke-dasharray:none"
    id="path4905" />
  <path
    inkscape:connector-curvature="0"
    d="m 269.8125,745.57147 1.76625,6.60125 -6.52125,-2.04125 4.755,-4.56"
    style="fill:#000000;fill-opacity:1;fill-rule:evenodd;stroke:none"
    id="path4907" />
  <path
    inkscape:connector-curvature="0"
    d="m 297.64,724.91897 48.76125,-48.9525 0,52.74125 -48.76125,48.9525 0,-52.74125 z"
    style="fill:#999999;fill-opacity:1;fill-rule:evenodd;stroke:#000000;stroke-width:0.39999998;stroke-linecap:butt;stroke-linejoin:miter;stroke-miterlimit:2.61299992;stroke-opacity:1;stroke-dasharray:none"
    id="path4909" />
  <path
    inkscape:connector-curvature="0"
    d="m 297.63125,741.70647 48.3925,-48.3925"
    style="fill:none;stroke:#000000;stroke-width:0.625;stroke-linecap:butt;stroke-linejoin:miter;stroke-miterlimit:2.61299992;stroke-opacity:1;stroke-dasharray:0.625, 0.625;stroke-dashoffset:0"
    id="path4911" />
  <path
    inkscape:connector-curvature="0"
    d="M 371.47,788.84897 324.50125,741.52272"
    style="fill:none;stroke:#000000;stroke-width:0.625;stroke-linecap:butt;stroke-linejoin:miter;stroke-miterlimit:2.61299992;stroke-opacity:1;stroke-dasharray:none"
    id="path4913" />
  <path
    inkscape:connector-curvature="0"
    d="m 322.5275,744.21022 -1.87875,-6.57 6.555,1.93 -4.67625,4.64"
    style="fill:#000000;fill-opacity:1;fill-rule:evenodd;stroke:none"
    id="path4915" />
  <path
    inkscape:connector-curvature="0"
    d="m 288.08125,672.45272 70.77,0 0,-41.51875 -70.77,0 0,41.51875 z"
    style="fill:#e6e6e6;fill-opacity:1;fill-rule:evenodd;stroke:#e6e6e6;stroke-width:0.39999998;stroke-linecap:butt;stroke-linejoin:miter;stroke-miterlimit:2.61299992;stroke-opacity:1;stroke-dasharray:none"
    id="path4917" />
  <path
    inkscape:connector-curvature="0"
    d="m 323.275,661.28272 c 19.515,0 35.43375,5.57125 35.43375,12.40125 0,6.83 -15.91875,12.40125 -35.43375,12.40125 -19.51625,0 -35.4325,-5.57125 -35.4325,-12.40125 0,-6.83 15.91625,-12.40125 35.4325,-12.40125 z"
    style="fill:#e6e6e6;fill-opacity:1;fill-rule:evenodd;stroke:#e6e6e6;stroke-width:0.39999998;stroke-linecap:butt;stroke-linejoin:miter;stroke-miterlimit:2.61299992;stroke-opacity:1;stroke-dasharray:none"
    id="path4919" />
  <path
    inkscape:connector-curvature="0"
    d="m 289.8275,677.54647 67.04125,0 -33.59125,37.79 -33.45,-37.79 z"
    style="fill:#e6e6e6;fill-opacity:1;fill-rule:evenodd;stroke:#e6e6e6;stroke-width:0.39999998;stroke-linecap:butt;stroke-linejoin:miter;stroke-miterlimit:2.61299992;stroke-opacity:1;stroke-dasharray:none"
    id="path4921" />
  <path
    inkscape:connector-curvature="0"
    d="m 323.365,715.46272 32.6925,-36.8425 -32.6925,36.8425 z"
    style="fill:#ffffff;fill-opacity:1;fill-rule:evenodd;stroke:#000000;stroke-width:0.39999998;stroke-linecap:butt;stroke-linejoin:miter;stroke-miterlimit:2.61299992;stroke-opacity:1;stroke-dasharray:none"
    id="path4923" />
  <path
    inkscape:connector-curvature="0"
    d="m 323.365,715.60397 -33.71,-37.99125 33.71,37.99125 z"
    style="fill:#ffffff;fill-opacity:1;fill-rule:evenodd;stroke:#000000;stroke-width:0.39999998;stroke-linecap:butt;stroke-linejoin:miter;stroke-miterlimit:2.61299992;stroke-opacity:1;stroke-dasharray:none"
    id="path4925" />
  <path
    inkscape:connector-curvature="0"
    d="m 358.85875,673.80022 c 0,6.78125 -16.05625,12.3525 -35.4325,12.3525 -19.3775,0 -35.295,-5.5225 -35.43375,-12.305"
    style="fill:none;stroke:#000000;stroke-width:0.39999998;stroke-linecap:butt;stroke-linejoin:miter;stroke-miterlimit:2.61299992;stroke-opacity:1;stroke-dasharray:none"
    id="path4927" />
  <path
    inkscape:connector-curvature="0"
    d="m 323.435,618.08147 c 19.515,0 35.43375,5.57125 35.43375,12.40125 0,6.83 -15.91875,12.40125 -35.43375,12.40125 -19.515,0 -35.4325,-5.57125 -35.4325,-12.40125 0,-6.83 15.9175,-12.40125 35.4325,-12.40125"
    style="fill:#e6e6e6;fill-opacity:1;fill-rule:evenodd;stroke:none"
    id="path4929" />
  <path
    id="path4945"
    style="fill:none;stroke:#000000;stroke-width:0.39999998;stroke-linecap:butt;stroke-linejoin:miter;stroke-miterlimit:2.61299992;stroke-opacity:1;stroke-dasharray:none"
    d="m 323.435,618.08147 c 19.515,0 35.43375,5.57125 35.43375,12.40125 0,6.83 -15.91875,12.40125 -35.43375,12.40125 -19.515,0 -35.4325,-5.57125 -35.4325,-12.40125 0,-6.83 15.9175,-12.40125 35.4325,-12.40125 z m -35.42625,12.5425 0,43.25 m 70.86375,-43.29 0,43.25"
    inkscape:connector-curvature="0" />
  <text
    id="text4955"
    x="308.04639"
    y="664.2226"
    style="font-size:15px">
   <tspan
     style="font-size:11.25px;font-variant:normal;font-weight:normal;writing-mode:lr-tb;fill:#000000;fill-opacity:1;fill-rule:nonzero;stroke:none;font-family:Arial;-inkscape-font-specification:ArialMT"
     x="308.04639 314.9201 321.17511 324.92139 330.54639"
     y="664.2226"
     sodipodi:role="line"
     id="tspan4957">Force</tspan>
  </text>
  <path
    inkscape:connector-curvature="0"
    d="m 319.1825,669.14897 -10e-4,6.27875 -2.97625,0 7.275,6.2825 7.275,-6.28125 -2.97625,0 10e-4,-6.2825 -8.5975,0.003 z"
    style="fill:#000000;fill-opacity:1;fill-rule:evenodd;stroke:#000000;stroke-width:0.39999998;stroke-linecap:butt;stroke-linejoin:miter;stroke-miterlimit:2.61299992;stroke-opacity:1;stroke-dasharray:none"
    id="path4959" />
  <text
    xml:space="preserve"
    style="font-size:12px;font-style:normal;font-variant:normal;font-weight:normal;font-stretch:normal;line-height:125%;letter-spacing:0px;word-spacing:0px;fill:#000000;fill-opacity:1;stroke:none;font-family:Times New Roman;-inkscape-font-specification:'Times New Roman,'"
    x="170.24536"
    y="634.71381"
    id="text3041"
    sodipodi:linespacing="125%"><tspan
     sodipodi:role="line"
     id="tspan3043"
     x="170.24536"
     y="634.71381">(c)</tspan></text>
 </g>
</svg>
