<?xml version="1.0" encoding="UTF-8" standalone="no"?>
<!-- Created with Inkscape (http://www.inkscape.org/) -->

<svg
   xmlns:dc="http://purl.org/dc/elements/1.1/"
   xmlns:cc="http://creativecommons.org/ns#"
   xmlns:rdf="http://www.w3.org/1999/02/22-rdf-syntax-ns#"
   xmlns:svg="http://www.w3.org/2000/svg"
   xmlns="http://www.w3.org/2000/svg"
   xmlns:xlink="http://www.w3.org/1999/xlink"
   xmlns:sodipodi="http://sodipodi.sourceforge.net/DTD/sodipodi-0.dtd"
   xmlns:inkscape="http://www.inkscape.org/namespaces/inkscape"
   id="svg2"
   version="1.1"
   inkscape:version="0.48.0 r9654"
   width="283.46457"
   height="212.59842"
   xml:space="preserve"
   sodipodi:docname="freqInterferometerGraph.pdf"><metadata
     id="metadata8"><rdf:RDF><cc:Work
         rdf:about=""><dc:format>image/svg+xml</dc:format><dc:type
           rdf:resource="http://purl.org/dc/dcmitype/StillImage" /><dc:title></dc:title></cc:Work></rdf:RDF></metadata><defs
     id="defs6"><marker
       inkscape:stockid="Arrow1Lend"
       orient="auto"
       refY="0.0"
       refX="0.0"
       id="Arrow1Lend"
       style="overflow:visible;"><path
         id="path4094"
         d="M 0.0,0.0 L 5.0,-5.0 L -12.5,0.0 L 5.0,5.0 L 0.0,0.0 z "
         style="fill-rule:evenodd;stroke:#000000;stroke-width:1.0pt;marker-start:none;"
         transform="scale(0.8) rotate(180) translate(12.5,0)" /></marker><marker
       inkscape:stockid="Arrow1Lstart"
       orient="auto"
       refY="0.0"
       refX="0.0"
       id="Arrow1Lstart"
       style="overflow:visible"><path
         id="path4091"
         d="M 0.0,0.0 L 5.0,-5.0 L -12.5,0.0 L 5.0,5.0 L 0.0,0.0 z "
         style="fill-rule:evenodd;stroke:#000000;stroke-width:1.0pt;marker-start:none"
         transform="scale(0.8) translate(12.5,0)" /></marker><marker
       inkscape:stockid="Arrow1Mend"
       orient="auto"
       refY="0.0"
       refX="0.0"
       id="Arrow1Mend"
       style="overflow:visible;"><path
         id="path4100"
         d="M 0.0,0.0 L 5.0,-5.0 L -12.5,0.0 L 5.0,5.0 L 0.0,0.0 z "
         style="fill-rule:evenodd;stroke:#000000;stroke-width:1.0pt;marker-start:none;"
         transform="scale(0.4) rotate(180) translate(10,0)" /></marker><marker
       inkscape:stockid="Arrow1Mstart"
       orient="auto"
       refY="0.0"
       refX="0.0"
       id="Arrow1Mstart"
       style="overflow:visible"><path
         id="path4097"
         d="M 0.0,0.0 L 5.0,-5.0 L -12.5,0.0 L 5.0,5.0 L 0.0,0.0 z "
         style="fill-rule:evenodd;stroke:#000000;stroke-width:1.0pt;marker-start:none"
         transform="scale(0.4) translate(10,0)" /></marker><clipPath
       clipPathUnits="userSpaceOnUse"
       id="clipPath18"><path
         d="m 0,0 2915.1,0 0,2344.8 L 0,2344.8 0,0 z"
         id="path20"
         inkscape:connector-curvature="0" /></clipPath><clipPath
       clipPathUnits="userSpaceOnUse"
       id="clipPath146"><path
         d="m 516.418,1973.24 2230.762,0 0,-1641.025 -2230.762,0 0,1641.025 z"
         clip-rule="evenodd"
         id="path148"
         inkscape:connector-curvature="0" /></clipPath><clipPath
       clipPathUnits="userSpaceOnUse"
       id="clipPath158"><path
         d="m 0,0 2915.1,0 0,2344.8 L 0,2344.8 0,0 z"
         id="path160"
         inkscape:connector-curvature="0" /></clipPath></defs><sodipodi:namedview
     pagecolor="#ffffff"
     bordercolor="#666666"
     borderopacity="1"
     objecttolerance="10"
     gridtolerance="10"
     guidetolerance="10"
     inkscape:pageopacity="0"
     inkscape:pageshadow="2"
     inkscape:window-width="1232"
     inkscape:window-height="781"
     id="namedview4"
     showgrid="false"
     units="cm"
     inkscape:zoom="1.4142136"
     inkscape:cx="56.032465"
     inkscape:cy="77.694017"
     inkscape:window-x="0"
     inkscape:window-y="0"
     inkscape:window-maximized="0"
     inkscape:current-layer="g10" /><g
     id="g10"
     inkscape:groupmode="layer"
     inkscape:label="ink_ext_XXXXXX"
     transform="matrix(1.25,0,0,-1.25,0,212.59914)"><g
   transform="matrix(0.07910499,0,0,-0.07913346,-13.04095,3.3282841)"
   id="g38"
   style="stroke-width:10.11132266;stroke-miterlimit:4;stroke-dasharray:none"><path
     inkscape:connector-curvature="0"
     id="path40"
     style="fill:none;stroke:#000000;stroke-width:10.11132266;stroke-linecap:round;stroke-linejoin:round;stroke-miterlimit:4;stroke-opacity:1;stroke-dasharray:none"
     d="m 516.511,-316.795 0,-16.321" /></g><g
   transform="matrix(0.08367,0,0,-0.08370012,-15.324322,-6.041321)"
   id="g42"
   style="stroke-width:9.55965137;stroke-miterlimit:4;stroke-dasharray:none"><path
     inkscape:connector-curvature="0"
     id="path44"
     style="fill:none;stroke:#000000;stroke-width:9.55965137;stroke-linecap:round;stroke-linejoin:round;stroke-miterlimit:4;stroke-opacity:1;stroke-dasharray:none"
     d="m 702.759,-300.473 0,-32.643" /></g><g
   transform="matrix(0.08367,0,0,-0.08370012,-15.324322,-6.041321)"
   id="g46"
   style="stroke-width:9.55965137;stroke-miterlimit:4;stroke-dasharray:none"><path
     inkscape:connector-curvature="0"
     id="path48"
     style="fill:none;stroke:#000000;stroke-width:9.55965137;stroke-linecap:round;stroke-linejoin:round;stroke-miterlimit:4;stroke-opacity:1;stroke-dasharray:none"
     d="m 888.05,-316.795 0,-16.321" /></g><g
   transform="matrix(0.08367,0,0,-0.08370012,-15.324322,-6.041321)"
   id="g50"
   style="stroke-width:9.55965137;stroke-miterlimit:4;stroke-dasharray:none"><path
     inkscape:connector-curvature="0"
     id="path52"
     style="fill:none;stroke:#000000;stroke-width:9.55965137;stroke-linecap:round;stroke-linejoin:round;stroke-miterlimit:4;stroke-opacity:1;stroke-dasharray:none"
     d="m 1074.3,-300.473 0,-32.643" /></g><g
   transform="matrix(0.08367,0,0,-0.08370012,-15.324322,-6.041321)"
   id="g54"
   style="stroke-width:9.55965137;stroke-miterlimit:4;stroke-dasharray:none"><path
     inkscape:connector-curvature="0"
     id="path56"
     style="fill:none;stroke:#000000;stroke-width:9.55965137;stroke-linecap:round;stroke-linejoin:round;stroke-miterlimit:4;stroke-opacity:1;stroke-dasharray:none"
     d="m 1259.59,-316.795 0,-16.321" /></g><g
   transform="matrix(0.08367,0,0,-0.08370012,-15.324322,-6.041321)"
   id="g58"
   style="stroke-width:9.55965137;stroke-miterlimit:4;stroke-dasharray:none"><path
     inkscape:connector-curvature="0"
     id="path60"
     style="fill:none;stroke:#000000;stroke-width:9.55965137;stroke-linecap:round;stroke-linejoin:round;stroke-miterlimit:4;stroke-opacity:1;stroke-dasharray:none"
     d="m 1445.84,-300.473 0,-32.643" /></g><g
   transform="matrix(0.08367,0,0,-0.08370012,-15.324322,-6.041321)"
   id="g62"
   style="stroke-width:9.55965137;stroke-miterlimit:4;stroke-dasharray:none"><path
     inkscape:connector-curvature="0"
     id="path64"
     style="fill:none;stroke:#000000;stroke-width:9.55965137;stroke-linecap:round;stroke-linejoin:round;stroke-miterlimit:4;stroke-opacity:1;stroke-dasharray:none"
     d="m 1632.09,-316.795 0,-16.321" /></g><g
   transform="matrix(0.08367,0,0,-0.08370012,-15.324322,-6.041321)"
   id="g66"
   style="stroke-width:9.55965137;stroke-miterlimit:4;stroke-dasharray:none"><path
     inkscape:connector-curvature="0"
     id="path68"
     style="fill:none;stroke:#000000;stroke-width:9.55965137;stroke-linecap:round;stroke-linejoin:round;stroke-miterlimit:4;stroke-opacity:1;stroke-dasharray:none"
     d="m 1817.38,-300.473 0,-32.643" /></g><g
   transform="matrix(0.08367,0,0,-0.08370012,-15.324322,-6.041321)"
   id="g70"
   style="stroke-width:9.55965137;stroke-miterlimit:4;stroke-dasharray:none"><path
     inkscape:connector-curvature="0"
     id="path72"
     style="fill:none;stroke:#000000;stroke-width:9.55965137;stroke-linecap:round;stroke-linejoin:round;stroke-miterlimit:4;stroke-opacity:1;stroke-dasharray:none"
     d="m 2003.63,-316.795 0,-16.321" /></g><g
   transform="matrix(0.08367,0,0,-0.08370012,-15.324322,-6.041321)"
   id="g74"
   style="stroke-width:9.55965137;stroke-miterlimit:4;stroke-dasharray:none"><path
     inkscape:connector-curvature="0"
     id="path76"
     style="fill:none;stroke:#000000;stroke-width:9.55965137;stroke-linecap:round;stroke-linejoin:round;stroke-miterlimit:4;stroke-opacity:1;stroke-dasharray:none"
     d="m 2188.93,-300.473 0,-32.643" /></g><g
   transform="matrix(0.08367,0,0,-0.08370012,-15.324322,-6.041321)"
   id="g78"
   style="stroke-width:9.55965137;stroke-miterlimit:4;stroke-dasharray:none"><path
     inkscape:connector-curvature="0"
     id="path80"
     style="fill:none;stroke:#000000;stroke-width:9.55965137;stroke-linecap:round;stroke-linejoin:round;stroke-miterlimit:4;stroke-opacity:1;stroke-dasharray:none"
     d="m 2375.18,-316.795 0,-16.321" /></g><path
   d="m 27.892153,21.840528 186.601587,0"
   style="fill:none;stroke:#000000;stroke-width:0.80000001;stroke-linecap:round;stroke-linejoin:round;stroke-miterlimit:4;stroke-opacity:1;stroke-dasharray:none;marker-end:url(#Arrow1Lend)"
   id="path92"
   inkscape:connector-curvature="0" /><g
   transform="matrix(0.07910499,0,0,-0.07913346,-13.04095,-4.235238)"
   id="g98"
   style="stroke-width:10.11132266;stroke-miterlimit:4;stroke-dasharray:none"><path
     inkscape:connector-curvature="0"
     id="path100"
     style="fill:none;stroke:#000000;stroke-width:10.11132266;stroke-linecap:round;stroke-linejoin:round;stroke-miterlimit:4;stroke-opacity:1;stroke-dasharray:none"
     d="m 500.188,-497.286 16.323,0" /></g><g
   transform="matrix(0.07910499,0,0,-0.07913346,-13.04095,-4.235238)"
   id="g102"
   style="stroke-width:10.11132266;stroke-miterlimit:4;stroke-dasharray:none"><path
     inkscape:connector-curvature="0"
     id="path104"
     style="fill:none;stroke:#000000;stroke-width:10.11132266;stroke-linecap:round;stroke-linejoin:round;stroke-miterlimit:4;stroke-opacity:1;stroke-dasharray:none"
     d="m 483.868,-661.451 32.643,0" /></g><g
   transform="matrix(0.07910499,0,0,-0.07913346,-13.04095,-4.235238)"
   id="g106"
   style="stroke-width:10.11132266;stroke-miterlimit:4;stroke-dasharray:none"><path
     inkscape:connector-curvature="0"
     id="path108"
     style="fill:none;stroke:#000000;stroke-width:10.11132266;stroke-linecap:round;stroke-linejoin:round;stroke-miterlimit:4;stroke-opacity:1;stroke-dasharray:none"
     d="m 500.188,-824.664 16.323,0" /></g><g
   transform="matrix(0.07910499,0,0,-0.07913346,-13.04095,-4.235238)"
   id="g110"
   style="stroke-width:10.11132266;stroke-miterlimit:4;stroke-dasharray:none"><path
     inkscape:connector-curvature="0"
     id="path112"
     style="fill:none;stroke:#000000;stroke-width:10.11132266;stroke-linecap:round;stroke-linejoin:round;stroke-miterlimit:4;stroke-opacity:1;stroke-dasharray:none"
     d="m 483.868,-988.834 32.643,0" /></g><g
   transform="matrix(0.07910499,0,0,-0.07913346,-13.04095,-4.235238)"
   id="g114"
   style="stroke-width:10.11132266;stroke-miterlimit:4;stroke-dasharray:none"><path
     inkscape:connector-curvature="0"
     id="path116"
     style="fill:none;stroke:#000000;stroke-width:10.11132266;stroke-linecap:round;stroke-linejoin:round;stroke-miterlimit:4;stroke-opacity:1;stroke-dasharray:none"
     d="m 500.188,-1153 16.323,0" /></g><g
   transform="matrix(0.07910499,0,0,-0.07913346,-13.04095,-4.235238)"
   id="g118"
   style="stroke-width:10.11132266;stroke-miterlimit:4;stroke-dasharray:none"><path
     inkscape:connector-curvature="0"
     id="path120"
     style="fill:none;stroke:#000000;stroke-width:10.11132266;stroke-linecap:round;stroke-linejoin:round;stroke-miterlimit:4;stroke-opacity:1;stroke-dasharray:none"
     d="m 483.868,-1317.17 32.643,0" /></g><g
   transform="matrix(0.07910499,0,0,-0.07913346,-13.04095,-4.235238)"
   id="g122"
   style="stroke-width:10.11132266;stroke-miterlimit:4;stroke-dasharray:none"><path
     inkscape:connector-curvature="0"
     id="path124"
     style="fill:none;stroke:#000000;stroke-width:10.11132266;stroke-linecap:round;stroke-linejoin:round;stroke-miterlimit:4;stroke-opacity:1;stroke-dasharray:none"
     d="m 500.188,-1481.34 16.323,0" /></g><g
   transform="matrix(0.07910499,0,0,-0.07913346,-13.04095,-4.235238)"
   id="g126"
   style="stroke-width:10.11132266;stroke-miterlimit:4;stroke-dasharray:none"><path
     inkscape:connector-curvature="0"
     id="path128"
     style="fill:none;stroke:#000000;stroke-width:10.11132266;stroke-linecap:round;stroke-linejoin:round;stroke-miterlimit:4;stroke-opacity:1;stroke-dasharray:none"
     d="m 483.868,-1644.55 32.643,0" /></g><g
   transform="matrix(0.07910499,0,0,-0.07913346,-13.04095,-4.235238)"
   id="g130"
   style="stroke-width:10.11132266;stroke-miterlimit:4;stroke-dasharray:none"><path
     inkscape:connector-curvature="0"
     id="path132"
     style="fill:none;stroke:#000000;stroke-width:10.11132266;stroke-linecap:round;stroke-linejoin:round;stroke-miterlimit:4;stroke-opacity:1;stroke-dasharray:none"
     d="m 500.188,-1808.72 16.323,0" /></g><path
   d="m 27.817645,22.125385 0,143.564425"
   style="fill:none;stroke:#000000;stroke-width:0.8;stroke-linecap:round;stroke-linejoin:round;stroke-miterlimit:4;stroke-opacity:1;stroke-dasharray:none;marker-start:none;marker-end:url(#Arrow1Lend)"
   id="path140"
   inkscape:connector-curvature="0"
   sodipodi:nodetypes="cc" /><path
   d="m 28.048554,150.32825 0.321293,-0.37528 0.321376,-0.60046 0.321293,-0.90067 0.321377,-1.12585 0.321292,-1.35179 0.321377,-1.57619 0.321293,-1.87641 0.240969,-2.02652 0.321293,-2.25169 0.321377,-2.47686 0.321292,-2.62775 0.321377,-2.85215 0.321293,-3.07731 0.321041,-3.15236 0.321377,-3.30248 0.241221,-3.52843 0.321041,-3.52765 0.321293,-3.75282 0.321377,-3.7536 0.321292,-3.90293 0.321377,-3.902932 0.321293,-3.977988 0.321376,-3.977987 0.240886,-4.053825 0.321377,-4.053044 0.321292,-3.977987 0.321377,-3.978456 0.321293,-3.903244 0.321376,-3.903321 0.321293,-3.753053 0.240969,-3.75274 0.321293,-3.52804 0.321377,-3.527727 0.321293,-3.302636 0.321376,-3.152758 0.321042,-3.077311 0.321293,-2.852298 0.321376,-2.627207 0.241221,-2.477017 0.321041,-2.251925 0.321293,-2.0266 0.321377,-1.876409 0.321293,-1.576184 0.321376,-1.351171 0.321293,-1.125845 0.321376,-0.900755 0.240886,-0.600685 0.321377,-0.375282 0.321293,-0.149878 0.321376,0.149878 0.321293,0.375282 0.321376,0.600685 0.321377,0.900755 0.321293,1.125845 0.240885,1.351171 0.321377,1.576184 0.321376,1.876409 0.321293,2.0266 0.321042,2.251925 0.321293,2.477017 0.321376,2.627207 0.240886,2.852298 0.321377,3.077311 0.321292,3.152758 0.321377,3.302636 0.321293,3.527727 0.321376,3.52804 0.321293,3.75274 0.321376,3.753053 0.240886,3.903321 0.321377,3.903244 0.321293,3.978456 0.321376,3.977987 0.321377,4.053044 0.321292,4.053825 0.321377,3.977987 0.321293,3.977988 0.240969,3.902932 0.321293,3.90293 0.32146,3.7536 0.321293,3.75282 0.321293,3.52765 0.321293,3.52843 0.321292,3.30248 0.321293,3.15236 0.24097,3.07731 0.321293,2.85215 0.321292,2.62775 0.321293,2.47686 0.321293,2.25169 0.321293,2.02652 0.321293,1.87641 0.321292,1.57619 0.24097,1.35179 0.321293,1.12585 0.321293,0.90067 0.321292,0.60046 0.321293,0.37528 0.321293,0.15011 0.321293,-0.15011 0.240969,-0.37528 0.321293,-0.60046 0.321293,-0.90067 0.321293,-1.12585 0.321293,-1.35179 0.321292,-1.57619 0.321293,-1.87641 0.321293,-2.02652 0.24097,-2.25169 0.321292,-2.47686 0.321293,-2.62775 0.321293,-2.85215 0.321293,-3.07731 0.321293,-3.15236 0.322129,-3.30248 0.321293,-3.52843 0.240969,-3.52765 0.321293,-3.75282 0.321293,-3.7536 0.321293,-3.90293 0.321293,-3.902932 0.321292,-3.977988 0.320457,-3.977987 0.321292,-4.053825 0.241807,-4.053044 0.320456,-3.977987 0.322129,-3.978456 0.321293,-3.903244 0.321293,-3.903321 0.321293,-3.753053 0.321292,-3.75274 0.321293,-3.52804 0.24097,-3.527727 0.321293,-3.302636 0.321292,-3.152758 0.321293,-3.077311 0.321293,-2.852298 0.321293,-2.627207 0.321293,-2.477017 0.240969,-2.251925 0.321293,-2.0266 0.321293,-1.876409 0.321293,-1.576184 0.321292,-1.351171 0.321293,-1.125845 0.321293,-0.900755 0.321293,-0.600685 0.240969,-0.375282 0.321293,-0.149878 0.321293,0.149878 0.321293,0.375282 0.321293,0.600685 0.321292,0.900755 0.321293,1.125845 0.321293,1.351171 0.24097,1.576184 0.321292,1.876409 0.321293,2.0266 0.321293,2.251925 0.321293,2.477017 0.322129,2.627207 0.321293,2.852298 0.321293,3.077311 0.24097,3.152758 0.321292,3.302636 0.321293,3.527727 0.321293,3.52804 0.320456,3.75274 0.321293,3.753053 0.321293,3.903321 0.322129,3.903244 0.240133,3.978456 0.32213,3.977987 0.321292,4.053044 0.321293,4.053825 0.321293,3.977987 0.321293,3.977988 0.321293,3.902932 0.240969,3.90293 0.321293,3.7536 0.321293,3.75282 0.321293,3.52765 0.321292,3.52843 0.321293,3.30248 0.321293,3.15236 0.321293,3.07731 0.240969,2.85215 0.321293,2.62775 0.321293,2.47686 0.321293,2.25169 0.321293,2.02652 0.321292,1.87641 0.321293,1.57619 0.321293,1.35179 0.24097,1.12585 0.321292,0.90067 0.321293,0.60046 0.321293,0.37528 0.321293,0.15011 0.321293,-0.15011 0.321292,-0.37528 0.321293,-0.60046 0.24097,-0.90067 0.321293,-1.12585 0.321292,-1.35179 0.321293,-1.57619 0.32213,-1.87641 0.321292,-2.02652 0.320457,-2.25169 0.321292,-2.47686 0.241807,-2.62775 0.321292,-2.85215 0.320457,-3.07731 0.321292,-3.15236 0.321293,-3.30248 0.32213,-3.52843 0.321292,-3.52765 0.24097,-3.75282 0.321293,-3.7536 0.321293,-3.90293 0.321292,-3.902932 0.321293,-3.977988 0.321293,-3.977987 0.321293,-4.053825 0.321293,-4.053044 0.240969,-3.977987 0.321293,-3.978456 0.321293,-3.903244 0.321293,-3.903321 0.321292,-3.753053 0.321293,-3.75274 0.321295,-3.52804 0.32129,-3.527727 0.24097,-3.302636 0.32129,-3.152758 0.3213,-3.077311 0.32129,-2.852298 0.32129,-2.627207 0.32129,-2.477017 0.3213,-2.251925 0.32129,-2.0266 0.24097,-1.876409 0.32129,-1.576184 0.3213,-1.351171 0.32129,-1.125845 0.32129,-0.900755 0.32129,-0.600685 0.3213,-0.375282 0.32129,-0.149878 0.24097,0.149878 0.32129,0.375282 0.32129,0.600685 0.32213,0.900755 0.32046,1.125845 0.32129,1.351171 0.3213,1.576184 0.2418,1.876409 0.32046,2.0266 0.32129,2.251925 0.32129,2.477017 0.3213,2.627207 0.32213,2.852298 0.32129,3.077311 0.32129,3.152758 0.24097,3.302636 0.32129,3.527727 0.3213,3.52804 0.32129,3.75274 0.32129,3.753053 0.3213,3.903321 0.32129,3.903244 0.32129,3.978456 0.24097,3.977987 0.32129,4.053044 0.3213,4.053825 0.32129,3.977987 0.32129,3.977988 0.32129,3.902932 0.3213,3.90293 0.32129,3.7536 0.24097,3.75282 0.32129,3.52765 0.3213,3.52843 0.32129,3.30248 0.32129,3.15236 0.32129,3.07731 0.3213,2.85215 0.24097,2.62775 0.32129,2.47686 0.32129,2.25169 0.32129,2.02652 0.3213,1.87641 0.32129,1.57619 0.32129,1.35179 0.3213,1.12585 0.24097,0.90067 0.32129,0.60046 0.32129,0.37528 0.32129,0.15011 0.3213,-0.15011 0.32129,-0.37528 0.32129,-0.60046 0.32129,-0.90067 0.24097,-1.12585 0.3213,-1.35179 0.32129,-1.57619 0.32129,-1.87641 0.32213,-2.02652 0.3213,-2.25169 0.32129,-2.47686 0.32129,-2.62775 0.24097,-2.85215 0.32129,-3.07731 0.3213,-3.15236 0.32129,-3.30248 0.32129,-3.52843 0.32129,-3.52765 0.3213,-3.75282 0.32129,-3.7536 0.24097,-3.90293 0.32129,-3.902932 0.3213,-3.977988 0.32129,-3.977987 0.32129,-4.053825 0.32129,-4.053044 0.3213,-3.977987 0.24097,-3.978456 0.32129,-3.903244 0.32129,-3.903321 0.32129,-3.753053 0.3213,-3.75274 0.32129,-3.52804 0.32129,-3.527727 0.3213,-3.302636 0.24097,-3.152758 0.32129,-3.077311 0.32129,-2.852298 0.32129,-2.627207 0.3213,-2.477017 0.32129,-2.251925 0.32129,-2.0266 0.32129,-1.876409 0.24097,-1.576184 0.3213,-1.351171 0.32129,-1.125845 0.32129,-0.900755 0.3213,-0.600685 0.32129,-0.375282 0.32129,-0.149878 0.32129,0.149878 0.24097,0.375282 0.3213,0.600685 0.32129,0.900755 0.32213,1.125845 0.32129,1.351171 0.32129,1.576184 0.3213,1.876409 0.32129,2.0266 0.24097,2.251925 0.32129,2.477017 0.32129,2.627207 0.3213,2.852298 0.32129,3.077311 0.32129,3.152758 0.3213,3.302636 0.24097,3.527727 0.32129,3.52804 0.32129,3.75274 0.32129,3.753053 0.3213,3.903321 0.32129,3.903244 0.32129,3.978456 0.3213,3.977987 0.24096,4.053044 0.3213,4.053825 0.32129,3.977987 0.32129,3.977988 0.3213,3.902932 0.32129,3.90293 0.32129,3.7536 0.32129,3.75282 0.24097,3.52765 0.3213,3.52843 0.32129,3.30248 0.32129,3.15236 0.3213,3.07731 0.32129,2.85215 0.32129,2.62775 0.32129,2.47686 0.24097,2.25169 0.3213,2.02652 0.32129,1.87641 0.32129,1.57619 0.32129,1.35179 0.3213,1.12585 0.32129,0.90067 0.32213,0.60046 0.24013,0.37528 0.32213,0.15011 0.32129,-0.15011 0.3213,-0.37528 0.32129,-0.60046 0.32129,-0.90067 0.3213,-1.12585 0.24097,-1.35179 0.32129,-1.57619 0.32129,-1.87641 0.32046,-2.02652 0.32213,-2.25169 0.32129,-2.47686 0.32129,-2.62775 0.3213,-2.85215 0.24096,-3.07731 0.3213,-3.15236 0.32129,-3.30248 0.32129,-3.52843 0.3213,-3.52765 0.32129,-3.75282 0.32129,-3.7536 0.32129,-3.90293 0.24097,-3.902932 0.3213,-3.977988 0.32129,-3.977987 0.32129,-4.053825 0.3213,-4.053044 0.32129,-3.977987 0.32129,-3.978456 0.32129,-3.903244 0.24097,-3.903321 0.3213,-3.753053 0.32129,-3.75274 0.32129,-3.52804 0.32129,-3.527727 0.3213,-3.302636 0.32129,-3.152758 0.32129,-3.077311 0.24097,-2.852298 0.3213,-2.627207 0.32129,-2.477017 0.32129,-2.251925 0.32129,-2.0266 0.3213,-1.876409 0.32213,-1.576184 0.24013,-1.351171 0.32213,-1.125845 0.32129,-0.900755 0.32129,-0.600685 0.3213,-0.375282 0.32129,-0.149878 0.32046,0.149878 0.32129,0.375282 0.2418,0.600685 0.32046,0.900755 0.32129,1.125845 0.32213,1.351171 0.3213,1.576184 0.32129,1.876409 0.32129,2.0266 0.32129,2.251925 0.24097,2.477017 0.3213,2.627207 0.32129,2.852298 0.32129,3.077311 0.3213,3.152758 0.32129,3.302636 0.32129,3.527727 0.32129,3.52804 0.24097,3.75274 0.3213,3.753053 0.32129,3.903321 0.32129,3.903244 0.32129,3.978456 0.3213,3.977987 0.32129,4.053044 0.24097,4.053825 0.32129,3.977987 0.3213,3.977988 0.32129,3.902932 0.32129,3.90293 0.32129,3.7536 0.3213,3.75282 0.32129,3.52765 0.24097,3.52843 0.32129,3.30248 0.32129,3.15236 0.3213,3.07731 0.32129,2.85215 0.32129,2.62775 0.32213,2.47686 0.3213,2.25169 0.24096,2.02652 0.3213,1.87641 0.32129,1.57619 0.32129,1.35179 0.32046,1.12585 0.32129,0.90067 0.32129,0.60046 0.32213,0.37528 0.24014,0.15011"
   style="fill:none;stroke:#ff0000;stroke-width:0.80000000999999998;stroke-linecap:round;stroke-linejoin:round;stroke-miterlimit:4;stroke-opacity:1;stroke-dasharray:none"
   id="path152"
   inkscape:connector-curvature="0" /><text
   xml:space="preserve"
   style="font-size:9.60000038px;font-style:normal;font-variant:normal;font-weight:normal;font-stretch:normal;line-height:125%;letter-spacing:0px;word-spacing:0px;fill:#000000;fill-opacity:1;stroke:none;font-family:Times New Roman;-inkscape-font-specification:'Times New Roman,'"
   x="118.64885"
   y="-161.72577"
   id="text3314"
   sodipodi:linespacing="125%"
   transform="scale(1,-1)"><tspan
     sodipodi:role="line"
     id="tspan3316"
     x="118.64885"
     y="-161.72577">$\Delta\nu$</tspan></text>

<g
   id="g5977"
   transform="translate(-15.951472,-0.1372583)"><path
     sodipodi:nodetypes="cc"
     inkscape:connector-curvature="0"
     id="path3318"
     d="m 107.31298,155.1958 27.96183,0"
     style="fill:none;stroke:#000000;stroke-width:0.80000001px;stroke-linecap:butt;stroke-linejoin:miter;stroke-opacity:1;marker-start:url(#Arrow1Mstart);marker-end:url(#Arrow1Mend)" /><path
     transform="matrix(0.8,0,0,-0.8,0,170.07931)"
     inkscape:connector-curvature="0"
     id="path4718"
     d="m 132.25191,23.785203 0,-10.036975"
     style="fill:none;stroke:#000000;stroke-width:1px;stroke-linecap:butt;stroke-linejoin:miter;stroke-opacity:1" /><use
     height="212.59842"
     width="283.46457"
     transform="translate(30.984733,0)"
     id="use4720"
     xlink:href="#path4718"
     y="0"
     x="0" /></g><text
   xml:space="preserve"
   style="font-size:9.60000038px;font-style:normal;font-variant:normal;font-weight:normal;font-stretch:normal;line-height:125%;letter-spacing:0px;word-spacing:0px;fill:#000000;fill-opacity:1;stroke:none;font-family:Times New Roman;-inkscape-font-specification:'Times New Roman,'"
   x="82.593269"
   y="-7.06775"
   id="text4722"
   sodipodi:linespacing="125%"
   transform="scale(1,-1)"><tspan
     sodipodi:role="line"
     id="tspan4724"
     x="82.593269"
     y="-7.06775">Optical frequency ($\nu$)</tspan></text>

<text
   xml:space="preserve"
   style="font-size:9.60000038px;font-style:normal;font-variant:normal;font-weight:normal;font-stretch:normal;line-height:125%;letter-spacing:0px;word-spacing:0px;fill:#000000;fill-opacity:1;stroke:none;font-family:Times New Roman;-inkscape-font-specification:'Times New Roman,'"
   x="43.422527"
   y="13.919691"
   id="text4726"
   sodipodi:linespacing="125%"
   transform="matrix(0,1,1,0,0,0)"><tspan
     sodipodi:role="line"
     id="tspan4728"
     x="43.422527"
     y="13.919691">Output Intensity ($I$)</tspan></text>

</g></svg>