<?xml version="1.0" encoding="UTF-8" standalone="no"?>
<!-- Created with Inkscape (http://www.inkscape.org/) -->

<svg
   xmlns:dc="http://purl.org/dc/elements/1.1/"
   xmlns:cc="http://creativecommons.org/ns#"
   xmlns:rdf="http://www.w3.org/1999/02/22-rdf-syntax-ns#"
   xmlns:svg="http://www.w3.org/2000/svg"
   xmlns="http://www.w3.org/2000/svg"
   xmlns:sodipodi="http://sodipodi.sourceforge.net/DTD/sodipodi-0.dtd"
   xmlns:inkscape="http://www.inkscape.org/namespaces/inkscape"
   id="svg2"
   version="1.1"
   inkscape:version="0.48.0 r9654"
   width="283.46457"
   height="212.59842"
   xml:space="preserve"
   sodipodi:docname="graphInterferenceBiLayer.pdf"><metadata
     id="metadata8"><rdf:RDF><cc:Work
         rdf:about=""><dc:format>image/svg+xml</dc:format><dc:type
           rdf:resource="http://purl.org/dc/dcmitype/StillImage" /><dc:title></dc:title></cc:Work></rdf:RDF></metadata><defs
     id="defs6"><marker
       inkscape:stockid="Arrow1Lend"
       orient="auto"
       refY="0.0"
       refX="0.0"
       id="Arrow1Lend"
       style="overflow:visible;"><path
         id="path4169"
         d="M 0.0,0.0 L 5.0,-5.0 L -12.5,0.0 L 5.0,5.0 L 0.0,0.0 z "
         style="fill-rule:evenodd;stroke:#000000;stroke-width:1.0pt;marker-start:none;"
         transform="scale(0.8) rotate(180) translate(12.5,0)" /></marker><clipPath
       clipPathUnits="userSpaceOnUse"
       id="clipPath18"><path
         d="m 0,0 3392.5,0 0,2482 L 0,2482 0,0 z"
         id="path20"
         inkscape:connector-curvature="0" /></clipPath><clipPath
       clipPathUnits="userSpaceOnUse"
       id="clipPath134"><path
         d="m 437.723,2313.12 2786.767,0 0,-1885.065 -2786.767,0 0,1885.065 z"
         clip-rule="evenodd"
         id="path136"
         inkscape:connector-curvature="0" /></clipPath><clipPath
       clipPathUnits="userSpaceOnUse"
       id="clipPath146"><path
         d="m 0,0 3392.5,0 0,2482 L 0,2482 0,0 z"
         id="path148"
         inkscape:connector-curvature="0" /></clipPath></defs><sodipodi:namedview
     pagecolor="#ffffff"
     bordercolor="#666666"
     borderopacity="1"
     objecttolerance="10"
     gridtolerance="10"
     guidetolerance="10"
     inkscape:pageopacity="0"
     inkscape:pageshadow="2"
     inkscape:window-width="1466"
     inkscape:window-height="790"
     id="namedview4"
     showgrid="false"
     units="cm"
     inkscape:zoom="1.4142136"
     inkscape:cx="-1.8103815"
     inkscape:cy="62.781791"
     inkscape:window-x="0"
     inkscape:window-y="0"
     inkscape:window-maximized="0"
     inkscape:current-layer="g10" /><g
     id="g10"
     inkscape:groupmode="layer"
     inkscape:label="ink_ext_XXXXXX"
     transform="matrix(1.25,0,0,-1.25,0,212.59914)"><path
       d="m 22.549793,21.762266 0,-1.209711"
       style="fill:none;stroke:#000000;stroke-width:0.80000001;stroke-linecap:round;stroke-linejoin:round;stroke-miterlimit:10;stroke-opacity:1;stroke-dasharray:none"
       id="path24"
       inkscape:connector-curvature="0" /><path
       d="m 37.287278,22.972051 0,-2.419496"
       style="fill:none;stroke:#000000;stroke-width:0.80000001;stroke-linecap:round;stroke-linejoin:round;stroke-miterlimit:10;stroke-opacity:1;stroke-dasharray:none"
       id="path28"
       inkscape:connector-curvature="0" /><path
       d="m 52.468278,21.762266 0,-1.209711"
       style="fill:none;stroke:#000000;stroke-width:0.80000001;stroke-linecap:round;stroke-linejoin:round;stroke-miterlimit:10;stroke-opacity:1;stroke-dasharray:none"
       id="path32"
       inkscape:connector-curvature="0" /><path
       d="m 67.716935,22.972051 0,-2.419496"
       style="fill:none;stroke:#000000;stroke-width:0.80000001;stroke-linecap:round;stroke-linejoin:round;stroke-miterlimit:10;stroke-opacity:1;stroke-dasharray:none"
       id="path36"
       inkscape:connector-curvature="0" /><path
       d="m 82.898148,21.762266 0,-1.209711"
       style="fill:none;stroke:#000000;stroke-width:0.80000001;stroke-linecap:round;stroke-linejoin:round;stroke-miterlimit:10;stroke-opacity:1;stroke-dasharray:none"
       id="path40"
       inkscape:connector-curvature="0" /><path
       d="m 98.078651,22.972051 0,-2.419496"
       style="fill:none;stroke:#000000;stroke-width:0.80000001;stroke-linecap:round;stroke-linejoin:round;stroke-miterlimit:10;stroke-opacity:1;stroke-dasharray:none"
       id="path44"
       inkscape:connector-curvature="0" /><path
       d="m 113.25986,21.762266 0,-1.209711"
       style="fill:none;stroke:#000000;stroke-width:0.80000001;stroke-linecap:round;stroke-linejoin:round;stroke-miterlimit:10;stroke-opacity:1;stroke-dasharray:none"
       id="path48"
       inkscape:connector-curvature="0" /><path
       d="m 128.50845,22.972051 0,-2.419496"
       style="fill:none;stroke:#000000;stroke-width:0.80000001;stroke-linecap:round;stroke-linejoin:round;stroke-miterlimit:10;stroke-opacity:1;stroke-dasharray:none"
       id="path52"
       inkscape:connector-curvature="0" /><path
       d="m 143.68966,21.762266 0,-1.209711"
       style="fill:none;stroke:#000000;stroke-width:0.80000001;stroke-linecap:round;stroke-linejoin:round;stroke-miterlimit:10;stroke-opacity:1;stroke-dasharray:none"
       id="path56"
       inkscape:connector-curvature="0" /><path
       d="m 158.87016,22.972051 0,-2.419496"
       style="fill:none;stroke:#000000;stroke-width:0.80000001;stroke-linecap:round;stroke-linejoin:round;stroke-miterlimit:10;stroke-opacity:1;stroke-dasharray:none"
       id="path60"
       inkscape:connector-curvature="0" /><path
       d="m 174.05138,21.762266 0,-1.209711"
       style="fill:none;stroke:#000000;stroke-width:0.80000001;stroke-linecap:round;stroke-linejoin:round;stroke-miterlimit:10;stroke-opacity:1;stroke-dasharray:none"
       id="path64"
       inkscape:connector-curvature="0" /><path
       d="m 189.29996,22.972051 0,-2.419496"
       style="fill:none;stroke:#000000;stroke-width:0.80000001;stroke-linecap:round;stroke-linejoin:round;stroke-miterlimit:10;stroke-opacity:1;stroke-dasharray:none"
       id="path68"
       inkscape:connector-curvature="0" /><path
       d="m 204.48047,21.762266 0,-1.209711"
       style="fill:none;stroke:#000000;stroke-width:0.80000001;stroke-linecap:round;stroke-linejoin:round;stroke-miterlimit:10;stroke-opacity:1;stroke-dasharray:none"
       id="path72"
       inkscape:connector-curvature="0" /><path
       d="m 22.106492,20.285045 197.555188,0"
       style="fill:none;stroke:#000000;stroke-width:0.80000000000000004;stroke-linecap:round;stroke-linejoin:round;stroke-miterlimit:10;stroke-opacity:1;stroke-dasharray:none;marker-end:url(#Arrow1Lend)"
       id="path80"
       inkscape:connector-curvature="0" /><path
       d="m 24.864208,20.552555 -2.314415,0"
       style="fill:none;stroke:#000000;stroke-width:0.80000001;stroke-linecap:round;stroke-linejoin:round;stroke-miterlimit:10;stroke-opacity:1;stroke-dasharray:none"
       id="path84"
       inkscape:connector-curvature="0" /><path
       d="m 23.707143,34.233085 -1.15735,0"
       style="fill:none;stroke:#000000;stroke-width:0.80000001;stroke-linecap:round;stroke-linejoin:round;stroke-miterlimit:10;stroke-opacity:1;stroke-dasharray:none"
       id="path88"
       inkscape:connector-curvature="0" /><path
       d="m 24.864208,48.252668 -2.314415,0"
       style="fill:none;stroke:#000000;stroke-width:0.80000001;stroke-linecap:round;stroke-linejoin:round;stroke-miterlimit:10;stroke-opacity:1;stroke-dasharray:none"
       id="path92"
       inkscape:connector-curvature="0" /><path
       d="m 23.707143,62.200708 -1.15735,0"
       style="fill:none;stroke:#000000;stroke-width:0.80000001;stroke-linecap:round;stroke-linejoin:round;stroke-miterlimit:10;stroke-opacity:1;stroke-dasharray:none"
       id="path96"
       inkscape:connector-curvature="0" /><path
       d="m 24.864208,76.148896 -2.314415,0"
       style="fill:none;stroke:#000000;stroke-width:0.80000001;stroke-linecap:round;stroke-linejoin:round;stroke-miterlimit:10;stroke-opacity:1;stroke-dasharray:none"
       id="path100"
       inkscape:connector-curvature="0" /><path
       d="m 23.707143,90.097233 -1.15735,0"
       style="fill:none;stroke:#000000;stroke-width:0.80000001;stroke-linecap:round;stroke-linejoin:round;stroke-miterlimit:10;stroke-opacity:1;stroke-dasharray:none"
       id="path104"
       inkscape:connector-curvature="0" /><path
       d="m 24.864208,104.116 -2.314415,0"
       style="fill:none;stroke:#000000;stroke-width:0.80000001;stroke-linecap:round;stroke-linejoin:round;stroke-miterlimit:10;stroke-opacity:1;stroke-dasharray:none"
       id="path108"
       inkscape:connector-curvature="0" /><path
       d="m 23.707143,118.06434 -1.15735,0"
       style="fill:none;stroke:#000000;stroke-width:0.80000001;stroke-linecap:round;stroke-linejoin:round;stroke-miterlimit:10;stroke-opacity:1;stroke-dasharray:none"
       id="path112"
       inkscape:connector-curvature="0" /><path
       d="m 24.864208,132.01267 -2.314415,0"
       style="fill:none;stroke:#000000;stroke-width:0.80000001;stroke-linecap:round;stroke-linejoin:round;stroke-miterlimit:10;stroke-opacity:1;stroke-dasharray:none"
       id="path116"
       inkscape:connector-curvature="0" /><path
       d="m 23.707143,146.03218 -1.15735,0"
       style="fill:none;stroke:#000000;stroke-width:0.80000001;stroke-linecap:round;stroke-linejoin:round;stroke-miterlimit:10;stroke-opacity:1;stroke-dasharray:none"
       id="path120"
       inkscape:connector-curvature="0" /><path
       d="m 22.106492,20.285045 0,139.695475"
       style="fill:none;stroke:#000000;stroke-width:0.80000000000000004;stroke-linecap:round;stroke-linejoin:round;stroke-miterlimit:10;stroke-opacity:1;stroke-dasharray:none;marker-end:url(#Arrow1Lend)"
       id="path128"
       inkscape:connector-curvature="0" /><path
       d="m 22.515135,37.789335 0.388029,0.925095 0.323526,1.494401 0.388098,2.13488 0.388299,2.632939 0.388029,3.131444 0.388366,3.558034 0.323526,3.985589 0.38803,4.198439 0.388367,4.554301 0.388028,4.625475 0.388299,4.76856 0.323324,4.76782 0.3883,4.696646 0.388029,4.483129 0.388366,4.34153 0.38803,3.98492 0.323526,3.6298 0.388367,3.202023 0.388029,2.70456 0.388299,2.2056 0.388097,1.70815 0.323526,1.06758 0.38803,0.42704 0.388366,-0.14235 0.38803,-0.71172 0.388299,-1.35228 0.388096,-1.85049 0.323527,-2.41912 0.388298,-2.91808 0.388098,-3.344363 0.388298,-3.77215 0.388029,-4.05609 0.323594,-4.340787 0.388029,-4.48387 0.3883,-4.696647 0.388097,-4.696647 0.388298,-4.696647 0.323527,-4.555043 0.388096,-4.483129 0.3883,-4.269611 0.388029,-3.985366 0.388366,-3.629281 0.323257,-3.344887 0.388299,-2.91763 0.388097,-2.490817 0.388299,-2.134805 0.38803,-1.636673 0.323593,-1.210081 0.388299,-0.782527 0.388029,-0.355937 0.388367,0.07125 0.38803,0.355641 0.323593,0.711577 0.38803,0.996341 0.388298,1.209785 0.388029,1.352205 0.388368,1.494475 0.323525,1.565722 0.388098,1.565425 0.388298,1.565722 0.388029,1.423229 0.3883,1.352204 0.323324,1.067292 0.388299,0.925317 0.388096,0.640404 0.388299,0.355937 0.38803,0.07095 0.323594,-0.213443 0.388299,-0.56938 0.388029,-0.782602 0.388299,-1.067514 0.388097,-1.352278 0.323526,-1.565426 0.388097,-1.779165 0.388299,-1.850412 0.38803,-1.992313 0.388298,-1.921658 0.388097,-1.992609 0.323526,-1.850116 0.388367,-1.707919 0.388029,-1.494475 0.388299,-1.209785 0.388097,-0.85407 0.323526,-0.498208 0.38803,0 0.388366,0.427258 0.388029,0.92502 0.388299,1.494475 0.323594,1.992609 0.38803,2.633014 0.388299,3.131073 0.388096,3.771774 0.388299,4.198736 0.323257,4.768041 0.388367,5.26625 0.388029,5.62189 0.388299,5.977752 0.388097,6.262443 0.323526,6.547133 0.388097,6.618306 0.388231,6.760648 0.388232,6.68948 0.388232,6.618303 0.323526,6.40405 0.388232,6.12084 0.388231,5.76423 0.388231,5.3372 0.388233,4.83899 0.323525,4.27036 0.387558,3.62906 0.388906,2.91733 0.387558,2.27752 0.388231,1.42345 0.323526,0.71173 0.388232,-0.0712 0.388231,-0.85407 0.388232,-1.70814 0.388232,-2.34869 0.323526,-3.13085 0.388232,-3.77215 0.388231,-4.41195 0.388231,-4.98134 0.388233,-5.40837 0.388231,-5.90658 0.323527,-6.19127 0.388231,-6.40479 0.388231,-6.689483 0.387558,-6.68948 0.388232,-6.689472 0.323526,-6.618305 0.388232,-6.475961 0.388231,-6.262443 0.388232,-5.90658 0.388231,-5.550717 0.323526,-5.123904 0.388232,-4.625623 0.388232,-4.127414 0.388231,-3.629578 0.388232,-2.988654 0.323526,-2.490742 0.387558,-1.921659 0.388906,-1.351982 0.387557,-0.782824 0.388232,-0.355714 0.323526,0.142197 0.388232,0.640404 0.388231,0.925317 0.388231,1.280736 0.388233,1.494475 0.323525,1.779165 0.388233,1.850412 0.388231,1.992609 0.388231,1.992609 0.388233,1.921362 0.323525,1.850116 0.388232,1.707919 0.387558,1.494475 0.388905,1.281032 0.387558,1.067514 0.323526,0.782898 0.388232,0.426887 0.388231,0.142196 0.388232,-0.142196 0.388232,-0.426887 0.323526,-0.711948 0.388231,-0.925021 0.388232,-1.138538 0.388232,-1.352205 0.388231,-1.494475 0.322852,-1.565425 0.388906,-1.565722 0.387558,-1.565722 0.388231,-1.494475 0.388232,-1.280735 0.388232,-1.209711 0.323525,-0.925392 0.388233,-0.64033 0.388231,-0.28469 0.388231,0.07125 0.388233,0.426887 0.323525,0.925095 0.388233,1.280958 0.388231,1.707919 0.388231,2.206052 0.387558,2.63331 0.3242,2.988654 0.388232,3.41606 0.387557,3.771552 0.388906,4.056687 0.387558,4.269611 0.323526,4.483129 0.388232,4.626216 0.388231,4.696646 0.388232,4.696647 0.388232,4.625474 0.323526,4.483871 0.388233,4.340783 0.388231,3.98492 0.38823,3.6298 0.38823,3.273203 0.322854,2.77573 0.388905,2.34795 0.387556,1.70814 0.38823,1.20994 0.38824,0.56938 0.323519,0 0.388232,-0.56938 0.38824,-1.20994 0.38823,-1.77857 0.38823,-2.34869 0.32353,-2.84691 0.38823,-3.273193 0.38823,-3.77215 0.38823,-4.05609 0.38823,-4.340786 0.32353,-4.555043 0.38755,-4.767819 0.38891,-4.76782 0.38755,-4.696646 0.38823,-4.626216 0.32353,-4.483129 0.38823,-4.198439 0.38823,-3.843021 0.38824,-3.487084 0.38823,-2.988876 0.38823,-2.562064 0.32353,-1.921362 0.38823,-1.423228 0.38823,-0.782824 0.38823,-0.142197 0.38823,0.426887 0.32286,1.067588 0.38823,1.636672 0.38823,2.277299 0.38823,2.70426 0.38824,3.273567 0.32352,3.629207 0.38823,4.056094 0.38824,4.341525 0.38823,4.554302 0.38823,4.696646 0.32353,4.696647 0.38823,4.768561 0.38823,4.625474 0.38823,4.483129 0.38823,4.270356 0.32353,3.91375 0.38755,3.558623 0.38891,3.13086 0.38755,2.56147 0.38823,2.064 0.32353,1.5658 0.38823,0.92524 0.38823,0.35586 0.38824,-0.28469 0.38823,-0.92524 0.32352,-1.42345 0.38824,-1.99283 0.38823,-2.56147 0.38823,-3.06042 0.38823,-3.415543 0.32353,-3.84332 0.38756,-4.12727 0.38823,-4.340785 0.38823,-4.554301 0.38823,-4.697388 0.32353,-4.696647 0.38823,-4.696647 0.38823,-4.554301 0.38824,-4.412698 0.38823,-4.198439 0.32352,-3.913897 0.38824,-3.629578 0.38823,-3.202394 0.38823,-2.846457 0.38755,-2.419496 0.38891,-1.992609 0.32353,-1.494475 0.38755,-1.138835 0.38823,-0.64033 0.38823,-0.28469 0.38823,0.07125 0.32353,0.498134 0.38823,0.782824 0.38823,0.996341 0.38824,1.280736 0.38823,1.423525 0.32352,1.494401 0.38824,1.565425 0.38823,1.636969 0.38823,1.494178 0.38756,1.423525 0.3242,1.209785 0.38823,1.067218 0.38756,0.854145 0.3889,0.56938 0.38756,0.35564 0.32353,0 0.38823,-0.28469 0.38823,-0.64033 0.38823,-0.854145 0.38824,-1.138538 0.32352,-1.423155 0.38824,-1.636968 0.38823,-1.778869 0.38823,-1.850412 0.38823,-1.992609 0.32285,-1.992609 0.38891,-1.921436 0.38755,-1.850116 0.38823,-1.636969 0.38823,-1.423154 0.32353,-1.138538 0.38823,-0.782824 0.38823,-0.356011 0.38823,0 0.38824,0.569454 0.32352,1.067514 0.38823,1.636672 0.38824,2.134806 0.38823,2.70426 0.38823,3.344888 0.32353,3.842724 0.38756,4.341155 0.3889,4.910313 0.38756,5.265656 0.38823,5.764976 0.38823,6.048925 0.32353,6.333616 0.38823,6.546391 0.38823,6.689478 0.38823,6.761386 0.38824,6.689483 0.32352,6.54639 0.38824,6.33436 0.38823,6.04818 0.38823,5.69381 0.38823,5.26603 0.32285,4.69664 0.38823,4.12727 0.38823,3.48745 0.38823,2.77499 0.38823,1.99283 0.32353,1.35228 0.38823,0.49821 0.38823,-0.28469 0.38823,-1.06759 0.38824,-1.77931 0.32352,-2.56147 0.38823,-3.27394 0.38824,-3.98492 0.38756,-4.48313 0.3889,-5.12442 0.32353,-5.55072 0.38756,-5.90658 0.3889,-6.26244 0.38756,-6.54714 0.38823,-6.618303 0.32353,-6.760652 0.38823,-6.689478 0.38823,-6.618305 0.38823,-6.404788 0.38823,-6.119357 0.32353,-5.836148 0.38823,-5.479545 0.38823,-4.981263 0.38824,-4.554598 0.38823,-3.985292 0.32353,-3.48701 0.38755,-2.917704 0.38823,-2.348249 0.38823,-1.779165 0.38823,-1.209785 0.38823,-0.711652 0.32353,-0.213443 0.38823,0.284467 0.38823,0.640628 0.38823,1.067291 0.38824,1.352204 0.32352,1.565722 0.38823,1.778869 0.38824,1.921659 0.38756,1.921362 0.3889,1.992609 0.32353,1.921362 0.38756,1.850412 0.38823,1.636672 0.38823,1.494476 0.38823,1.209785 0.32353,0.996267 0.38823,0.640405 0.38823,0.427183 0.38823,0.07095 0.38823,-0.213443 0.32353,-0.498134 0.38823,-0.782898 0.38823,-0.996267 0.38824,-1.209785 0.38755,-1.351982 0.3242,-1.494475 0.38756,-1.565648 0.38823,-1.565722 0.38823,-1.565425 0.38823,-1.423229 0.32353,-1.281032 0.38823,-1.13876 0.38823,-0.853848 0.38823,-0.569381 0.38823,-0.213443 0.32353,0.142197 0.38823,0.56938 0.38823,0.925095 0.38824,1.423451 0.38756,1.850189 0.32352,2.277299 0.38891,2.704187 0.38756,3.131147 0.38823,3.487084 0.38823,3.842798 0.32353,4.056094 0.38823,4.412698 0.38823,4.483129 0.38823,4.696647 0.38823,4.697388 0.38823,4.696647 0.32353,4.554302 0.38823,4.483129 0.38823,4.199182 0.38824,3.91374 0.38755,3.55789 0.32353,3.202773 0.38823,2.63264 0.38823,2.20635 0.38823,1.63697 0.38823,1.06758 0.32353,0.42704 0.38823,-0.14235 0.38823,-0.71172 0.38823,-1.35228 0.38823,-1.92092 0.32353,-2.41986 0.38823,-2.98925 0.38823,-3.415543 0.38823,-3.84332 0.38824,-4.12727 0.32285,-4.41195 0.38824,-4.626216 0.38823,-4.696646 0.38823,-4.76782 0.38823,-4.696646 0.32353,-4.626216 0.38823,-4.411957 0.38823,-4.127266 0.38823,-3.771848 0.38823,-3.344591 0.32353,-2.917704 0.38823,-2.419792 0.38823,-1.850116 0.38756,-1.209785 0.38891,-0.640627 0.32352,0 0.38756,0.56938 0.38891,1.209785 0.38755,1.779166 0.38823,2.348249 0.32353,2.846754 0.38823,3.34459 0.38823,3.771849 0.38823,4.127266 0.38823,4.341526 0.32353,4.625474 0.38823,4.696647 0.38823,4.767819 0.38823,4.697388 0.38823,4.625474 0.38824,4.483123 0.32285,4.12727 0.38824,3.84332 0.38823,3.486713 0.38823,2.98925 0.38823,2.4903 0.32353,1.92166 0.38823,1.42345 0.38823,0.78289 0.38823,0.14235 0.38823,-0.35586 0.32353,-1.06759 0.38823,-1.5658 0.38823,-2.13443 0.38755,-2.63339 0.38892,-3.13085 0.32352,-3.558633 0.38756,-3.91374 0.38823,-4.199182 0.38823,-4.411957 0.38823,-4.554301 0.32353,-4.696647 0.38823,-4.697388 0.38823,-4.696647"
       style="fill:none;stroke:#ff0000;stroke-width:0.77989966;stroke-linecap:round;stroke-linejoin:round;stroke-miterlimit:10;stroke-opacity:1;stroke-dasharray:none"
       id="path140"
       inkscape:connector-curvature="0" /><text
       xml:space="preserve"
       style="font-size:9.60000038px;font-style:normal;font-variant:normal;font-weight:normal;font-stretch:normal;line-height:125%;letter-spacing:0px;word-spacing:0px;fill:#000000;fill-opacity:1;stroke:none;font-family:Times New Roman;-inkscape-font-specification:'Times New Roman,'"
       x="88.256409"
       y="-7.5533919"
       id="text3387"
       sodipodi:linespacing="125%"
       transform="scale(1,-1)"><tspan
         sodipodi:role="line"
         id="tspan3389"
         x="88.256409"
         y="-7.5533919">Optical frequency ($\nu$)</tspan></text>
<text
       transform="matrix(0,1,1,0,0,0)"
       sodipodi:linespacing="125%"
       id="text3391"
       y="11.678997"
       x="23.00699"
       style="font-size:9.60000038px;font-style:normal;font-variant:normal;font-weight:normal;font-stretch:normal;line-height:125%;letter-spacing:0px;word-spacing:0px;fill:#000000;fill-opacity:1;stroke:none;font-family:Times New Roman;-inkscape-font-specification:'Times New Roman,'"
       xml:space="preserve"><tspan
         y="11.678997"
         x="23.00699"
         id="tspan3393"
         sodipodi:role="line">Output mean intensity($\left&lt;I\right&gt;$)</tspan></text>
</g></svg>