<?xml version="1.0" encoding="UTF-8" standalone="no"?>
<!-- Created with Inkscape (http://www.inkscape.org/) -->

<svg
   xmlns:dc="http://purl.org/dc/elements/1.1/"
   xmlns:cc="http://creativecommons.org/ns#"
   xmlns:rdf="http://www.w3.org/1999/02/22-rdf-syntax-ns#"
   xmlns:svg="http://www.w3.org/2000/svg"
   xmlns="http://www.w3.org/2000/svg"
   xmlns:sodipodi="http://sodipodi.sourceforge.net/DTD/sodipodi-0.dtd"
   xmlns:inkscape="http://www.inkscape.org/namespaces/inkscape"
   id="svg2"
   version="1.1"
   inkscape:version="0.48.0 r9654"
   width="283.46457"
   height="212.59842"
   xml:space="preserve"
   sodipodi:docname="graphInterferenceBiLayerFT.pdf"><metadata
     id="metadata8"><rdf:RDF><cc:Work
         rdf:about=""><dc:format>image/svg+xml</dc:format><dc:type
           rdf:resource="http://purl.org/dc/dcmitype/StillImage" /><dc:title></dc:title></cc:Work></rdf:RDF></metadata><defs
     id="defs6"><marker
       inkscape:stockid="Arrow1Lend"
       orient="auto"
       refY="0.0"
       refX="0.0"
       id="Arrow1Lend"
       style="overflow:visible;"><path
         id="path4294"
         d="M 0.0,0.0 L 5.0,-5.0 L -12.5,0.0 L 5.0,5.0 L 0.0,0.0 z "
         style="fill-rule:evenodd;stroke:#000000;stroke-width:1.0pt;marker-start:none;"
         transform="scale(0.8) rotate(180) translate(12.5,0)" /></marker><clipPath
       clipPathUnits="userSpaceOnUse"
       id="clipPath18"><path
         d="m 0,0 3437.9,0 0,2470.7 L 0,2470.7 0,0 z"
         id="path20"
         inkscape:connector-curvature="0" /></clipPath><clipPath
       clipPathUnits="userSpaceOnUse"
       id="clipPath130"><path
         d="m 489.613,2301.75 2780.257,0 0,-1814.156 -2780.257,0 0,1814.156 z"
         clip-rule="evenodd"
         id="path132"
         inkscape:connector-curvature="0" /></clipPath><clipPath
       clipPathUnits="userSpaceOnUse"
       id="clipPath146"><path
         d="m 0,0 3437.9,0 0,2470.7 L 0,2470.7 0,0 z"
         id="path148"
         inkscape:connector-curvature="0" /></clipPath></defs><sodipodi:namedview
     pagecolor="#ffffff"
     bordercolor="#666666"
     borderopacity="1"
     objecttolerance="10"
     gridtolerance="10"
     guidetolerance="10"
     inkscape:pageopacity="0"
     inkscape:pageshadow="2"
     inkscape:window-width="1405"
     inkscape:window-height="809"
     id="namedview4"
     showgrid="false"
     inkscape:zoom="2.1171717"
     inkscape:cx="80.205104"
     inkscape:cy="130.71001"
     inkscape:window-x="26"
     inkscape:window-y="0"
     inkscape:window-maximized="0"
     inkscape:current-layer="g10"
     units="cm" /><g
     id="g10"
     inkscape:groupmode="layer"
     inkscape:label="ink_ext_XXXXXX"
     transform="matrix(1.25,0,0,-1.25,0,212.59914)"><g
       id="g5112"
       transform="matrix(1.0613989,0,0,1.0613989,-1.5588306,-1.4878559)"
       style="stroke-width:0.75372228;stroke-miterlimit:10;stroke-dasharray:none"><path
         inkscape:connector-curvature="0"
         id="path84"
         style="fill:none;stroke:#000000;stroke-width:0.75372228;stroke-linecap:round;stroke-linejoin:round;stroke-miterlimit:10;stroke-opacity:1;stroke-dasharray:none"
         d="m 25.388556,37.12348 -1.15966,0" /><path
         inkscape:connector-curvature="0"
         id="path88"
         style="fill:none;stroke:#000000;stroke-width:0.75372228;stroke-linecap:round;stroke-linejoin:round;stroke-miterlimit:10;stroke-opacity:1;stroke-dasharray:none"
         d="m 26.548216,50.01415 -2.31932,0" /><path
         inkscape:connector-curvature="0"
         id="path92"
         style="fill:none;stroke:#000000;stroke-width:0.75372228;stroke-linecap:round;stroke-linejoin:round;stroke-miterlimit:10;stroke-opacity:1;stroke-dasharray:none"
         d="m 25.388556,62.905247 -1.15966,0" /><path
         inkscape:connector-curvature="0"
         id="path96"
         style="fill:none;stroke:#000000;stroke-width:0.75372228;stroke-linecap:round;stroke-linejoin:round;stroke-miterlimit:10;stroke-opacity:1;stroke-dasharray:none"
         d="m 26.548216,75.795917 -2.31932,0" /><path
         inkscape:connector-curvature="0"
         id="path100"
         style="fill:none;stroke:#000000;stroke-width:0.75372228;stroke-linecap:round;stroke-linejoin:round;stroke-miterlimit:10;stroke-opacity:1;stroke-dasharray:none"
         d="m 25.388556,88.61838 -1.15966,0" /><path
         inkscape:connector-curvature="0"
         id="path104"
         style="fill:none;stroke:#000000;stroke-width:0.75372228;stroke-linecap:round;stroke-linejoin:round;stroke-miterlimit:10;stroke-opacity:1;stroke-dasharray:none"
         d="m 26.548216,101.50905 -2.31932,0" /><path
         inkscape:connector-curvature="0"
         id="path108"
         style="fill:none;stroke:#000000;stroke-width:0.75372228;stroke-linecap:round;stroke-linejoin:round;stroke-miterlimit:10;stroke-opacity:1;stroke-dasharray:none"
         d="m 25.388556,114.39972 -1.15966,0" /><path
         inkscape:connector-curvature="0"
         id="path112"
         style="fill:none;stroke:#000000;stroke-width:0.75372228;stroke-linecap:round;stroke-linejoin:round;stroke-miterlimit:10;stroke-opacity:1;stroke-dasharray:none"
         d="m 26.548216,127.29039 -2.31932,0" /><path
         inkscape:connector-curvature="0"
         id="path116"
         style="fill:none;stroke:#000000;stroke-width:0.75372228;stroke-linecap:round;stroke-linejoin:round;stroke-miterlimit:10;stroke-opacity:1;stroke-dasharray:none"
         d="m 25.388556,140.18106 -1.15966,0" /><path
         inkscape:connector-curvature="0"
         id="path124"
         style="fill:none;stroke:#000000;stroke-width:0.75372228;stroke-linecap:round;stroke-linejoin:round;stroke-miterlimit:10;stroke-opacity:1;stroke-dasharray:none;marker-end:url(#Arrow1Lend)"
         d="m 24.228896,24.232596 0,128.839844" /></g><path
       d="m 40.873739,24.232596 27.968353,0 0.136439,0.06828 0.204658,0 0.136439,0.06828 0.136439,0.136346 0.204659,0.136559 0.136439,0.272833 0.204658,0.340829 0.136439,0.545667 0.204658,0.818571 0.136439,1.091121 0.136439,1.568721 0.204659,2.11453 0.136439,2.796472 0.204658,3.614688 0.136439,4.569819 0.136439,5.660868 0.204659,6.752273 0.136439,7.843962 0.204658,9.002793 0.136439,9.889503 0.136439,10.640504 0.204658,10.980835 0.136439,10.98084 0.204659,10.43588 0.136439,9.48025 0.204658,7.91146 0.136439,6.07054 0.136439,3.75146 0.204659,1.29596 0.136439,-1.29596 0.204658,-3.75146 0.136439,-6.07054 0.136439,-7.91146 0.204658,-9.48025 0.136439,-10.43588 0.204659,-10.98084 0.136439,-10.980835 0.136439,-10.640504 0.204658,-9.889503 0.136439,-9.002793 0.204659,-7.843962 0.136439,-6.752273 0.204658,-5.660868 0.136439,-4.569819 0.136439,-3.614688 0.204658,-2.796472 0.136439,-2.11453 0.204659,-1.568721 0.136439,-1.091121 0.136439,-0.818571 0.204658,-0.545667 0.136439,-0.340829 0.204659,-0.272833 0.136438,-0.136559 0.136439,-0.136346 0.203948,-0.06828 0.13715,0 0.203948,-0.06828 6.890167,0 0.136439,0.06828 0.204659,0 0.136439,0.06828 0.204658,0.136346 0.136439,0.136559 0.204659,0.272833 0.136438,0.340829 0.136439,0.545667 0.204659,0.818571 0.136439,1.091121 0.204658,1.568721 0.136439,2.11453 0.136439,2.796472 0.204659,3.614688 0.136439,4.569819 0.204658,5.660868 0.136439,6.752273 0.136439,7.843962 0.204658,9.002793 0.136439,9.889503 0.204659,10.640504 0.136439,10.980835 0.204658,10.98084 0.136439,10.43588 0.136439,9.48025 0.204659,7.91146 0.136439,6.07054 0.204658,3.75146 0.136439,1.29596 0.136439,-1.29596 0.204658,-3.75146 0.136439,-6.07054 0.204659,-7.91146 0.136439,-9.48025 0.136439,-10.43588 0.204658,-10.98084 0.136439,-10.980835 0.204659,-10.640504 0.136439,-9.889503 0.204658,-9.002793 0.136439,-7.843962 0.135728,-6.752273 0.205369,-5.660868 0.135729,-4.569819 0.205369,-3.614688 0.136439,-2.796472 0.136439,-2.11453 0.204658,-1.568721 0.135729,-1.091121 0.205369,-0.818571 0.135728,-0.545667 0.13715,-0.340829 0.203947,-0.272833 0.13715,-0.136559 0.203948,-0.136346 0.137149,-0.06828 0.204659,0 0.135728,-0.06828 23.398567,0 0.13644,0.06828 0.13644,0 0.20466,0.06828 0.13644,0.136346 0.20466,0.136559 0.13644,0.272833 0.13644,0.340829 0.20465,0.545667 0.13644,0.818571 0.20466,1.091121 0.13644,1.568721 0.13644,2.11453 0.20466,2.796472 0.13644,3.614688 0.20466,4.569819 0.13643,5.660868 0.20395,6.752273 0.13715,7.843962 0.13644,9.002793 0.20466,9.889503 0.13573,10.640504 0.20537,10.980835 0.13573,10.98084 0.13715,10.43588 0.20465,9.48025 0.13644,7.91146 0.20466,6.07054 0.13573,3.75146 0.20537,1.29596 0.13573,-1.29596 0.13715,-3.75146 0.20394,-6.07054 0.13715,-7.91146 0.20395,-9.48025 0.13715,-10.43588 0.13573,-10.98084 0.20466,-10.980835 0.13644,-10.640504 0.20466,-9.889503 0.13643,-9.002793 0.13644,-7.843962 0.20537,-6.752273 0.13573,-5.660868 0.20466,-4.569819 0.13644,-3.614688 0.20466,-2.796472 0.13644,-2.11453 0.13643,-1.568721 0.20466,-1.091121 0.13644,-0.818571 0.20466,-0.545667 0.13644,-0.340829 0.13644,-0.272833 0.20466,-0.136559 0.13644,-0.136346 0.20465,-0.06828 0.13644,0 0.13644,-0.06828 28.17323,0"
       style="fill:none;stroke:#ff0000;stroke-width:0.8;stroke-linecap:round;stroke-linejoin:round;stroke-miterlimit:10;stroke-opacity:1;stroke-dasharray:none"
       id="path136"
       inkscape:connector-curvature="0" /><path
       d="m 40.668938,26.570502 0,-2.318729"
       style="fill:none;stroke:#000000;stroke-width:0.88;stroke-linecap:round;stroke-linejoin:round;stroke-miterlimit:10;stroke-opacity:1;stroke-dasharray:none"
       id="path28"
       inkscape:connector-curvature="0" /><path
       d="m 57.1772,25.411102 0,-1.159329"
       style="fill:none;stroke:#000000;stroke-width:0.88;stroke-linecap:round;stroke-linejoin:round;stroke-miterlimit:10;stroke-opacity:1;stroke-dasharray:none"
       id="path32"
       inkscape:connector-curvature="0" /><path
       d="m 73.617456,26.570502 0,-2.318729"
       style="fill:none;stroke:#000000;stroke-width:0.88;stroke-linecap:round;stroke-linejoin:round;stroke-miterlimit:10;stroke-opacity:1;stroke-dasharray:none"
       id="path36"
       inkscape:connector-curvature="0" /><path
       d="m 90.05764,25.411102 0,-1.159329"
       style="fill:none;stroke:#000000;stroke-width:0.88;stroke-linecap:round;stroke-linejoin:round;stroke-miterlimit:10;stroke-opacity:1;stroke-dasharray:none"
       id="path40"
       inkscape:connector-curvature="0" /><path
       d="m 106.49782,26.570502 0,-2.318729"
       style="fill:none;stroke:#000000;stroke-width:0.88;stroke-linecap:round;stroke-linejoin:round;stroke-miterlimit:10;stroke-opacity:1;stroke-dasharray:none"
       id="path44"
       inkscape:connector-curvature="0" /><path
       d="m 123.00623,25.411102 0,-1.159329"
       style="fill:none;stroke:#000000;stroke-width:0.88;stroke-linecap:round;stroke-linejoin:round;stroke-miterlimit:10;stroke-opacity:1;stroke-dasharray:none"
       id="path48"
       inkscape:connector-curvature="0" /><path
       d="m 139.4457,26.570502 0,-2.318729"
       style="fill:none;stroke:#000000;stroke-width:0.88;stroke-linecap:round;stroke-linejoin:round;stroke-miterlimit:10;stroke-opacity:1;stroke-dasharray:none"
       id="path52"
       inkscape:connector-curvature="0" /><path
       d="m 155.88589,25.411102 0,-1.159329"
       style="fill:none;stroke:#000000;stroke-width:0.88;stroke-linecap:round;stroke-linejoin:round;stroke-miterlimit:10;stroke-opacity:1;stroke-dasharray:none"
       id="path56"
       inkscape:connector-curvature="0" /><path
       d="m 172.32607,26.570502 0,-2.318729"
       style="fill:none;stroke:#000000;stroke-width:0.88;stroke-linecap:round;stroke-linejoin:round;stroke-miterlimit:10;stroke-opacity:1;stroke-dasharray:none"
       id="path60"
       inkscape:connector-curvature="0" /><path
       d="m 188.83448,25.411102 0,-1.159329"
       style="fill:none;stroke:#000000;stroke-width:0.88;stroke-linecap:round;stroke-linejoin:round;stroke-miterlimit:10;stroke-opacity:1;stroke-dasharray:none"
       id="path64"
       inkscape:connector-curvature="0" /><path
       d="m 205.27466,26.570502 0,-2.318729"
       style="fill:none;stroke:#000000;stroke-width:0.88;stroke-linecap:round;stroke-linejoin:round;stroke-miterlimit:10;stroke-opacity:1;stroke-dasharray:none"
       id="path68"
       inkscape:connector-curvature="0" /><path
       d="m 24.228896,24.251773 197.485944,0"
       style="fill:none;stroke:#000000;stroke-width:0.88000000000000000;stroke-linecap:round;stroke-linejoin:round;stroke-miterlimit:10;stroke-opacity:1;stroke-dasharray:none;marker-end:url(#Arrow1Lend)"
       id="path76"
       inkscape:connector-curvature="0" /><path
       d="m 155.88589,24.251773 49.38877,0"
       style="fill:none;stroke:#000000;stroke-width:0.88;stroke-linecap:round;stroke-linejoin:round;stroke-miterlimit:10;stroke-opacity:1;stroke-dasharray:none"
       id="path140"
       inkscape:connector-curvature="0" /><text
       xml:space="preserve"
       style="font-size:9.60000038px;font-style:normal;font-variant:normal;font-weight:normal;font-stretch:normal;line-height:125%;letter-spacing:0px;word-spacing:0px;fill:#000000;fill-opacity:1;stroke:none;font-family:Times New Roman;-inkscape-font-specification:'Times New Roman,'"
       x="68.015274"
       y="-16.83357"
       id="text5096"
       sodipodi:linespacing="125%"
       transform="scale(1,-1)"><tspan
         sodipodi:role="line"
         id="tspan5098"
         x="68.015274"
         y="-16.83357">$\tau_{1,2}$</tspan></text>
<text
       xml:space="preserve"
       style="font-size:9.60000038px;font-style:normal;font-variant:normal;font-weight:normal;font-stretch:normal;line-height:125%;letter-spacing:0px;word-spacing:0px;fill:#000000;fill-opacity:1;stroke:none;font-family:Times New Roman;-inkscape-font-specification:'Times New Roman,'"
       x="82.751907"
       y="-16.83357"
       id="text5100"
       sodipodi:linespacing="125%"
       transform="scale(1,-1)"><tspan
         sodipodi:role="line"
         id="tspan5102"
         x="82.751907"
         y="-16.83357">$\tau_{1,r}$</tspan></text>
<text
       xml:space="preserve"
       style="font-size:9.60000038px;font-style:normal;font-variant:normal;font-weight:normal;font-stretch:normal;line-height:125%;letter-spacing:0px;word-spacing:0px;fill:#000000;fill-opacity:1;stroke:none;font-family:Times New Roman;-inkscape-font-specification:'Times New Roman,'"
       x="113.73663"
       y="-16.83357"
       id="text5104"
       sodipodi:linespacing="125%"
       transform="scale(1,-1)"><tspan
         sodipodi:role="line"
         id="tspan5106"
         x="113.73663"
         y="-16.83357">$\tau_{2,r}$</tspan></text>
<text
       xml:space="preserve"
       style="font-size:9.60000038px;font-style:normal;font-variant:normal;font-weight:normal;font-stretch:normal;line-height:125%;letter-spacing:0px;word-spacing:0px;fill:#000000;fill-opacity:1;stroke:none;font-family:Times New Roman;-inkscape-font-specification:'Times New Roman,'"
       x="29.922546"
       y="16.236649"
       id="text5108"
       sodipodi:linespacing="125%"
       transform="matrix(0,1,1,0,0,0)"><tspan
         sodipodi:role="line"
         id="tspan5110"
         x="29.922546"
         y="16.236649">Intensity Fourier transform</tspan></text>
<text
       xml:space="preserve"
       style="font-size:12px;font-style:normal;font-variant:normal;font-weight:normal;font-stretch:normal;line-height:125%;letter-spacing:0px;word-spacing:0px;fill:#000000;fill-opacity:1;stroke:none;font-family:Times New Roman;-inkscape-font-specification:'Times New Roman,'"
       x="125.16698"
       y="208.34746"
       id="text5124"
       sodipodi:linespacing="125%"
       transform="matrix(0.8,0,0,-0.8,0,170.07931)"><tspan
         sodipodi:role="line"
         id="tspan5126"
         x="125.16698"
         y="208.34746">Delay ($\tau$)</tspan></text>
<text
       xml:space="preserve"
       style="font-size:9.60000038px;font-style:normal;font-variant:normal;font-weight:normal;font-stretch:normal;line-height:125%;letter-spacing:0px;word-spacing:0px;fill:#000000;fill-opacity:1;stroke:none;font-family:Times New Roman;-inkscape-font-specification:'Times New Roman,'"
       x="23.805344"
       y="-15.492946"
       id="text5128"
       sodipodi:linespacing="125%"
       transform="scale(1,-1)"><tspan
         sodipodi:role="line"
         id="tspan5130"
         x="23.805344"
         y="-15.492946">$0$</tspan></text>
</g></svg>