<?xml version="1.0" encoding="UTF-8" standalone="no"?>
<!-- Created with Inkscape (http://www.inkscape.org/) -->

<svg
   xmlns:dc="http://purl.org/dc/elements/1.1/"
   xmlns:cc="http://creativecommons.org/ns#"
   xmlns:rdf="http://www.w3.org/1999/02/22-rdf-syntax-ns#"
   xmlns:svg="http://www.w3.org/2000/svg"
   xmlns="http://www.w3.org/2000/svg"
   xmlns:sodipodi="http://sodipodi.sourceforge.net/DTD/sodipodi-0.dtd"
   xmlns:inkscape="http://www.inkscape.org/namespaces/inkscape"
   width="283.46457"
   height="212.59842"
   id="svg8204"
   version="1.1"
   inkscape:version="0.48.0 r9654"
   sodipodi:docname="interferogram-TD.pdf">
  <defs
     id="defs8206">
    <marker
       inkscape:stockid="Arrow1Mend"
       orient="auto"
       refY="0.0"
       refX="0.0"
       id="Arrow1Mend"
       style="overflow:visible;">
      <path
         id="path4055"
         d="M 0.0,0.0 L 5.0,-5.0 L -12.5,0.0 L 5.0,5.0 L 0.0,0.0 z "
         style="fill-rule:evenodd;stroke:#000000;stroke-width:1.0pt;marker-start:none;"
         transform="scale(0.4) rotate(180) translate(10,0)" />
    </marker>
    <marker
       inkscape:stockid="Arrow1Mstart"
       orient="auto"
       refY="0"
       refX="0"
       id="Arrow1Mstart"
       style="overflow:visible">
      <path
         id="path4052"
         d="M 0,0 5,-5 -12.5,0 5,5 0,0 z"
         style="fill-rule:evenodd;stroke:#000000;stroke-width:1pt;marker-start:none"
         transform="matrix(0.4,0,0,0.4,4,0)"
         inkscape:connector-curvature="0" />
    </marker>
    <marker
       inkscape:stockid="Arrow1Mstart"
       orient="auto"
       refY="0"
       refX="0"
       id="marker8170"
       style="overflow:visible">
      <path
         id="path8172"
         d="M 0,0 5,-5 -12.5,0 5,5 0,0 z"
         style="fill-rule:evenodd;stroke:#000000;stroke-width:1pt;marker-start:none"
         transform="matrix(0.4,0,0,0.4,4,0)"
         inkscape:connector-curvature="0" />
    </marker>
    <marker
       style="overflow:visible"
       id="DistanceStart"
       refX="0"
       refY="0"
       orient="auto"
       inkscape:stockid="DistanceStart">
      <g
         id="g2300">
        <path
           style="fill:none;stroke:#ffffff;stroke-width:1.14999998;stroke-linecap:square"
           d="M 0,0 2,0"
           id="path2306"
           inkscape:connector-curvature="0" />
        <path
           style="fill:#000000;fill-rule:evenodd;stroke:none"
           d="M 0,0 13,4 9,0 13,-4 0,0 z"
           id="path2302"
           inkscape:connector-curvature="0" />
        <path
           style="fill:none;stroke:#000000;stroke-width:1;stroke-linecap:square"
           d="M 0,-4 0,40"
           id="path2304"
           inkscape:connector-curvature="0" />
      </g>
    </marker>
    <marker
       style="overflow:visible"
       id="DistanceEnd"
       refX="0"
       refY="0"
       orient="auto"
       inkscape:stockid="DistanceEnd">
      <g
         id="g4102">
        <path
           style="fill:none;stroke:#ffffff;stroke-width:1.14999998;stroke-linecap:square"
           d="M 0,0 -2,0"
           id="path2316"
           inkscape:connector-curvature="0" />
        <path
           style="fill:#000000;fill-rule:evenodd;stroke:none"
           d="M 0,0 -13,4 -9,0 -13,-4 0,0 z"
           id="path2312"
           inkscape:connector-curvature="0" />
        <path
           style="fill:none;stroke:#000000;stroke-width:1;stroke-linecap:square"
           d="M 0,-4 0,40"
           id="path2314"
           inkscape:connector-curvature="0" />
      </g>
    </marker>
  </defs>
  <sodipodi:namedview
     id="base"
     pagecolor="#ffffff"
     bordercolor="#666666"
     borderopacity="1.0"
     inkscape:pageopacity="0.0"
     inkscape:pageshadow="2"
     inkscape:zoom="4"
     inkscape:cx="201.81476"
     inkscape:cy="101.3658"
     inkscape:document-units="px"
     inkscape:current-layer="layer1"
     showgrid="false"
     units="cm"
     inkscape:window-width="999"
     inkscape:window-height="659"
     inkscape:window-x="57"
     inkscape:window-y="179"
     inkscape:window-maximized="0" />
  <metadata
     id="metadata8209">
    <rdf:RDF>
      <cc:Work
         rdf:about="">
        <dc:format>image/svg+xml</dc:format>
        <dc:type
           rdf:resource="http://purl.org/dc/dcmitype/StillImage" />
        <dc:title></dc:title>
      </cc:Work>
    </rdf:RDF>
  </metadata>
  <g
     inkscape:label="Layer 1"
     inkscape:groupmode="layer"
     id="layer1"
     transform="translate(0,-839.76245)">
    <text
       xml:space="preserve"
       style="font-size:14.34572124px;font-style:normal;font-variant:normal;font-weight:normal;font-stretch:normal;line-height:125%;letter-spacing:0px;word-spacing:0px;fill:#000000;fill-opacity:1;stroke:none;font-family:Times New Roman;-inkscape-font-specification:'Times New Roman,'"
       x="110.18173"
       y="1047.573"
       id="text6251"
       sodipodi:linespacing="125%"
       transform="scale(1.0007759,0.9992247)"><tspan
         sodipodi:role="line"
         id="tspan6253"
         x="110.18173"
         y="1047.573">$\tau_r=\Delta l/c$</tspan></text>
    <path
       sodipodi:nodetypes="cc"
       inkscape:connector-curvature="0"
       id="path6566"
       style="fill:none;stroke:#231f20;stroke-width:1;stroke-linecap:butt;stroke-linejoin:miter;stroke-miterlimit:8.15327454;stroke-opacity:1;stroke-dasharray:none;marker-start:url(#DistanceStart);marker-end:url(#DistanceEnd)"
       d="m 74.640246,887.11901 51.389824,0" />
    <text
       xml:space="preserve"
       style="font-size:14.34572124px;font-style:normal;font-variant:normal;font-weight:normal;font-stretch:normal;line-height:125%;letter-spacing:0px;word-spacing:0px;fill:#000000;fill-opacity:1;stroke:none;font-family:Times New Roman;-inkscape-font-specification:'Times New Roman,'"
       x="-984.24469"
       y="13.084452"
       id="text6562"
       sodipodi:linespacing="125%"
       transform="matrix(0,-0.9992247,1.0007759,0,0,0)"><tspan
         sodipodi:role="line"
         id="tspan6564"
         x="-984.24469"
         y="13.084452">Intensity $I$</tspan></text>
    <text
       transform="scale(1.0007759,0.9992247)"
       sodipodi:linespacing="125%"
       id="text7154"
       y="865.80157"
       x="54.439152"
       style="font-size:14.34572124px;font-style:normal;font-variant:normal;font-weight:normal;font-stretch:normal;line-height:125%;letter-spacing:0px;word-spacing:0px;fill:#000000;fill-opacity:1;stroke:none;font-family:Times New Roman;-inkscape-font-specification:'Times New Roman,'"
       xml:space="preserve"><tspan
         y="865.80157"
         x="54.439152"
         id="tspan7156"
         sodipodi:role="line">$\tau_x=2\Delta l_x n_g/c$</tspan></text>
    <rect
       style="fill:#ffffff;fill-opacity:1;stroke:none;stroke-width:1;stroke-miterlimit:5.93720484;stroke-dasharray:none"
       id="rect7152"
       width="2.4103091"
       height="31.836634"
       x="125.33131"
       y="911.35095" />
    <rect
       style="fill:#ffffff;fill-opacity:1;stroke:none;stroke-width:1;stroke-miterlimit:5.93720484;stroke-dasharray:none"
       id="rect7150"
       width="3.2867858"
       height="41.890312"
       x="72.742821"
       y="898.4248" />
    <path
       inkscape:connector-curvature="0"
       d="m 22.195543,1031.4396 260.704077,0"
       style="fill:none;stroke:#000000;stroke-width:0.99999994;stroke-linecap:round;stroke-linejoin:round;stroke-miterlimit:8.15327454;stroke-opacity:1;stroke-dasharray:none;marker-start:none;marker-end:url(#Arrow1Mend)"
       id="path5408" />
    <path
       inkscape:connector-curvature="0"
       d="m 22.28866,1031.2753 0,-163.75822"
       style="fill:none;stroke:#000000;stroke-width:1;stroke-linecap:round;stroke-linejoin:round;stroke-miterlimit:5.93720484;stroke-opacity:1;stroke-dasharray:none;marker-start:none;marker-end:url(#Arrow1Mend)"
       id="path5496"
       sodipodi:nodetypes="cc" />
    <path
       inkscape:connector-curvature="0"
       d="m 22.795817,964.55227 0.506731,0 0.591755,0.0932 2.028177,0 0.507148,-0.0932 2.112338,0 0.507167,0.0932 2.112765,0 0.507069,-0.0932 2.112418,0 0.507157,0.0932 2.112774,0 0.507069,-0.0932 2.028177,0 0.591417,0.0932 2.028167,0 0.507078,-0.0932 2.112783,0 0.506793,0.0932 2.112783,0 0.507059,-0.0932 0.507167,0 0.591381,-0.0923 0.507069,0 0.507149,0.0923 0.50681,0.0932 0.507158,0.18362 0.507068,0.18554 0.591399,0 0.507167,-0.18554 0.507051,-0.46049 0.50714,-0.55374 0.506819,-0.46145 0.507167,0 0.591657,0.64603 0.507149,1.29206 0.50681,1.38339 0.50706,1.01519 0.507166,-0.0923 0.506784,-1.66026 0.591666,-2.95328 0.507158,-3.23016 0.507158,-2.21495 0.506721,0.46145 0.50714,3.6916 0.507166,6.27476 0.591319,6.5526 0.507167,4.06047 0.50714,-1.19958 0.50714,-7.29082 0.506721,-11.62759 0.507167,-11.81312 0.591737,-6.55164 0.506721,2.58412 0.507167,12.73507 0.50714,19.19538 0.507086,18.45712 0.506775,9.50565 0.591764,-4.89145 0.507069,-19.5643 0.506801,-27.87064 0.507158,-25.4711 0.507167,-12.08904 0.507059,7.84465 0.591408,26.48534 0.507158,35.80729 0.507051,31.10005 0.506792,13.2894 0.507158,-10.7976 0.507167,-31.65375 0.591301,-40.60639 0.507166,-33.4071 0.507158,-12.82735 0.507069,12.82735 0.506774,33.4071 0.591791,40.60639 0.506695,31.65375 0.507069,10.7976 0.507059,-13.2894 0.507078,-31.10005 0.50706,-35.80729 0.591586,-26.48534 0.507059,-7.84465 0.507069,12.08904 0.507069,25.4711 0.507051,27.87064 0.507086,19.5643 0.59155,4.89145 0.507087,-9.50565 0.507068,-18.45712 0.507051,-19.19538 0.507087,-12.73507 0.507068,-2.58412 0.591569,6.55164 0.507059,11.81312 0.507087,11.62759 0.507051,7.29082 0.507059,1.19958 0.506196,-4.06047 0.592459,-6.5526 0.507069,-6.27476 0.506169,-3.6916 0.507086,-0.46145 0.507951,2.21495 0.50705,3.23016 0.590696,2.95328 0.507086,1.66026 0.507069,0.0923 0.507047,-1.01519 0.507077,-1.38339 0.507069,-1.29206 0.591577,-0.64603 0.507068,0 0.50706,0.46145 0.507078,0.55374 0.507059,0.46049 0.50706,0.18554 0.591586,0 0.507087,-0.0923 0.507042,-0.18458 0.507059,-0.18554 0.507078,-0.18362 1.098642,0 0.50707,0.18362 0.50706,0.0932 0.50708,0.18361 0.50707,0.18555 0.59157,-0.0923 0.50707,-0.18459 0.50705,-0.36916 0.50707,-0.46145 0.50706,-0.27687 0.50708,0 0.59158,0.55278 0.50708,0.9229 0.50616,1.20074 0.50708,0.82965 0.50795,-0.18458 0.50704,-1.29111 0.59072,-2.30725 0.50707,-2.67641 0.50793,-1.66122 0.50619,0.27687 0.50707,2.95328 0.50706,4.98367 0.59158,5.35186 0.50707,3.23015 0.50707,-1.01519 0.50708,-5.81427 0.50706,-9.32034 0.50706,-9.41359 0.59158,-5.25957 0.50706,2.12171 0.50706,10.15191 0.50707,15.31919 0.50707,14.76577 0.50707,7.6598 0.59157,-3.9685 0.50707,-15.59608 0.50708,-22.33323 0.50706,-20.39514 0.50707,-9.6895 0.50707,6.36802 0.59157,21.1325 0.50705,28.70096 0.50707,24.82502 0.50621,10.6128 0.50793,-8.5827 0.50707,-25.37829 0.59069,-32.39276 0.50707,-26.76219 0.50796,-10.3365 0.50706,10.3365 0.50619,26.76219 0.59158,32.39276 0.50706,25.37829 0.50707,8.5827 0.50707,-10.6128 0.50705,-24.82502 0.50706,-28.70096 0.59158,-21.1325 0.50708,-6.36802 0.50707,9.6895 0.50706,20.39514 0.50707,22.33323 0.50707,15.59608 0.59157,3.9685 0.50708,-7.6598 0.50707,-14.76577 0.50704,-15.31919 0.50708,-10.15191 0.50706,-2.12171 0.59157,5.25957 0.50708,9.41359 0.50708,9.32034 0.50705,5.81427 0.50708,1.01519 0.50707,-3.23015 0.59156,-5.35186 0.50708,-4.98367 0.50705,-2.95328 0.50707,-0.27687 0.50707,1.66122 0.50707,2.67641 0.59068,2.30725 0.50709,1.29111 0.50795,0.18458 0.50705,-0.82965 0.5062,-1.20074 0.50707,-0.9229 0.59245,-0.55278 0.50618,0 0.50707,0.36916 0.50706,0.36916 0.50707,0.36916 0.50706,0.18459 0.59158,0 0.50708,-0.0932 0.50705,-0.18362 0.50707,-0.0933 0.50709,-0.0923 0.59156,0 0.50708,0.0923 0.50706,0 0.50704,0.0933 2.11279,0 0.50709,-0.0933 2.11278,0 0.50706,0.0933 2.02825,0 0.59069,-0.0933 2.02829,0 0.50706,0.0933 2.11279,0 0.50704,-0.0933 2.11278,0 0.50707,0.0933 2.11278,0 0.50708,-0.0933 2.11275,0 0.50709,0.0933 2.02826,0 0.59159,-0.0933 2.02825,0 0.5907,0.0933 2.02828,0 0.50705,-0.0933 2.1128,0 0.50704,0.0933 2.11279,0 0.50705,-0.0933 2.11279,0 0.50709,0.0933 2.11274,0 0.50708,-0.0933 2.02828,0 0.59068,0.0933 2.02829,0 0.50705,-0.0933 2.11277,0 0.50707,0.0933 2.11279,0 0.50706,-0.0933 2.11278,0 0.50705,0.0933 0.50708,0.0923 1.09864,0 0.50707,-0.0923 0.50708,-0.18554 0.50706,-0.18362 0.50705,-0.18458 0.50708,0 0.59156,0.27687 0.50707,0.46049 0.50708,0.64603 0.50705,0.36916 0.50708,-0.0923 0.50708,-0.64603 0.59157,-1.10652 0.50706,-1.38435 0.50708,-0.83062 0.50704,0.18458 0.50621,1.47665 0.50708,2.49183 0.59243,2.67545 0.50618,1.56893 0.50706,-0.46145 0.50708,-2.95328 0.50795,-4.61355 0.50618,-4.70679 0.59159,-2.67641 0.50707,1.10748 0.50706,5.07595 0.50707,7.65912 0.50707,7.38321 0.50704,3.78351 0.59159,-1.93771 0.50706,-7.84466 0.50707,-11.16614 0.50707,-10.1519 0.50708,-4.89042 0.50705,3.2292 0.59159,10.52107 0.50707,14.39628 0.50706,12.36646 0.50708,5.3526 0.50705,-4.3374 0.50706,-12.64334 0.59157,-16.24209 0.50707,-13.3811 0.50708,-5.07595 0.50707,5.07595 0.50706,13.3811 0.59158,16.24209 0.50707,12.64334 0.50707,4.3374 0.50619,-5.3526 0.50707,-12.36646 0.50793,-14.39628 0.59071,-10.52107 0.50704,-3.2292 0.50707,4.89042 0.50708,10.1519 0.50705,11.16614 0.50708,7.84466 0.59158,1.93771 0.50707,-3.78351 0.50706,-7.38321 0.50708,-7.65912 0.50706,-5.07595 0.50706,-1.10748 0.59157,2.67641 0.50707,4.70679 0.50708,4.61355 0.50706,2.95328 0.50706,0.46145 0.50707,-1.56893 0.59158,-2.67545 0.50708,-2.49183 0.50706,-1.47665 0.50707,-0.18458 0.50705,0.83062 0.50707,1.38435 0.59158,1.10652 0.50706,0.64603 0.50709,0.0923 0.50705,-0.36916 0.50707,-0.64603 0.50707,-0.46049 0.59156,-0.27687 0.50709,0 0.50616,0.18458 0.50709,0.18362 0.50795,0.18554 0.50706,0.0923 1.09777,0 0.50795,-0.0923 0.50617,-0.0933 2.11278,0 0.50706,0.0933 2.11278,0 0.50708,-0.0933 2.11276,0 0.50708,0.0933 2.02825,0 0.59159,-0.0933 2.0274,0 0.50795,0.0933 2.11276,0 0.50707,-0.0933 2.11189,0 0.50707,0.0933 2.11277,0 0.50707,-0.0933 2.11277,0 0.50707,0.0933 2.02828,0 0.59158,-0.0933 1.01412,0"
       style="fill:none;stroke:#ff0000;stroke-width:1;stroke-linecap:round;stroke-linejoin:round;stroke-miterlimit:5.93720483999999971;stroke-opacity:1;stroke-dasharray:none"
       id="path5512" />
    <path
       inkscape:connector-curvature="0"
       d="m 22.795817,964.55227 24.506825,0 0.507167,-0.0923 1.09845,0 0.507149,-0.0913 0.50681,0 0.507158,-0.0923 0.507068,-0.0932 0.591399,-0.0913 0.507167,-0.18458 0.507051,-0.0923 0.50714,-0.18458 0.506819,-0.27687 0.507167,-0.27687 0.591657,-0.27687 0.507149,-0.36916 0.50681,-0.46145 0.50706,-0.46146 0.507166,-0.64602 0.506784,-0.64604 0.591666,-0.73832 0.507158,-0.9229 0.507158,-1.01518 0.506721,-1.10749 0.50714,-1.19977 0.507166,-1.38435 0.591319,-1.56893 0.507167,-1.66122 0.50714,-1.84484 0.50714,-1.93809 0.506721,-2.12267 0.507167,-2.21497 0.591737,-2.39954 0.506721,-2.58412 0.507167,-2.58412 0.50714,-2.67641 0.507086,-2.7687 0.506775,-2.861 0.591764,-2.86003 0.507069,-2.861 0.506801,-2.86099 0.507158,-2.6764 0.507167,-2.67641 0.507059,-2.58415 0.591408,-2.30629 0.507158,-2.21496 0.507051,-1.93809 0.506792,-1.66122 0.507158,-1.47664 0.507167,-1.10747 0.591301,-0.83062 0.507166,-0.46143 0.507158,-0.1846 0.507069,0.1846 0.506774,0.46143 0.591791,0.83062 0.506695,1.10747 0.507069,1.47664 0.507059,1.66122 0.507078,1.93809 0.50706,2.21496 0.591586,2.30629 0.507059,2.58415 0.507069,2.67641 0.507069,2.6764 0.507051,2.86099 0.507086,2.861 0.59155,2.86003 0.507087,2.861 0.507068,2.7687 0.507051,2.67641 0.507087,2.58412 0.507068,2.58412 0.591569,2.39954 0.507059,2.21497 0.507087,2.12267 0.507051,1.93809 0.507059,1.84484 0.506196,1.66122 0.592459,1.56893 0.507069,1.38435 0.506169,1.19977 0.507086,1.10749 0.507951,1.01518 0.50705,0.9229 0.590696,0.73832 0.507086,0.64604 0.507069,0.64602 0.507047,0.46146 0.507077,0.46145 0.507069,0.36916 0.591577,0.27687 0.507068,0.27687 0.50706,0.27687 0.507078,0.18458 0.507059,0.0923 0.50706,0.18458 0.591586,0.0913 0.507087,0 0.507042,0.0932 0.507059,0.0923 2.61985,0 0.50708,-0.0923 0.50707,-0.0932 0.59157,0 0.50707,-0.0913 0.50705,-0.18458 0.50707,-0.0923 0.50706,-0.18458 0.50708,-0.18458 0.59158,-0.27687 0.50708,-0.27783 0.50616,-0.3682 0.50708,-0.46145 0.50795,-0.46145 0.50704,-0.46145 0.59072,-0.64604 0.50707,-0.73832 0.50793,-0.73832 0.50619,-0.9229 0.50707,-1.01519 0.50706,-1.10748 0.59158,-1.19977 0.50707,-1.38435 0.50707,-1.38435 0.50708,-1.66122 0.50706,-1.66122 0.50706,-1.75255 0.59158,-1.93809 0.50706,-2.03039 0.50706,-2.12267 0.50707,-2.12267 0.50707,-2.21496 0.50707,-2.30725 0.59157,-2.30726 0.50707,-2.21496 0.50708,-2.30725 0.50706,-2.21496 0.50707,-2.12171 0.50707,-2.03038 0.59157,-1.84581 0.50705,-1.75351 0.50707,-1.56893 0.50621,-1.29206 0.50793,-1.19976 0.50707,-0.92289 0.59069,-0.64606 0.50707,-0.36914 0.50796,-0.1846 0.50706,0.1846 0.50619,0.36914 0.59158,0.64606 0.50706,0.92289 0.50707,1.19976 0.50707,1.29206 0.50705,1.56893 0.50706,1.75351 0.59158,1.84581 0.50708,2.03038 0.50707,2.12171 0.50706,2.21496 0.50707,2.30725 0.50707,2.21496 0.59157,2.30726 0.50708,2.30725 0.50707,2.21496 0.50704,2.12267 0.50708,2.12267 0.50706,2.03039 0.59157,1.93809 0.50708,1.75255 0.50708,1.66122 0.50705,1.66122 0.50708,1.38435 0.50707,1.38435 0.59156,1.19977 0.50708,1.10748 0.50705,1.01519 0.50707,0.9229 0.50707,0.73832 0.50707,0.73832 0.59068,0.64604 0.50709,0.46145 0.50795,0.46145 0.50705,0.46145 0.5062,0.3682 0.50707,0.27783 0.59245,0.27687 0.50618,0.18458 0.50707,0.18458 0.50706,0.0923 0.50707,0.18458 0.50706,0.0913 0.59158,0.0932 0.50708,0.0923 0.50705,0 0.50707,0.0913 1.09865,0 0.50708,0.0923 52.64777,0 0.50705,-0.0923 1.01415,0 0.59157,-0.0913 0.50707,0 0.50708,-0.0923 0.50706,-0.0932 0.50705,-0.0913 0.50708,-0.0923 0.59156,-0.0923 0.50707,-0.18458 0.50708,-0.18554 0.50705,-0.18362 0.50708,-0.27687 0.50708,-0.18554 0.59157,-0.3682 0.50706,-0.36916 0.50708,-0.36916 0.50704,-0.46145 0.50621,-0.46145 0.50708,-0.55374 0.59243,-0.64604 0.50618,-0.64603 0.50706,-0.73832 0.50708,-0.8306 0.50795,-0.83062 0.50618,-0.8306 0.59159,-1.0152 0.50707,-1.01519 0.50706,-1.01519 0.50707,-1.10748 0.50707,-1.10748 0.50704,-1.10652 0.59159,-1.20073 0.50706,-1.10748 0.50707,-1.10748 0.50707,-1.10652 0.50708,-1.10748 0.50705,-1.0152 0.59159,-0.9229 0.50707,-0.83061 0.50706,-0.83061 0.50708,-0.64603 0.50705,-0.55374 0.50706,-0.46145 0.59157,-0.36916 0.50707,-0.18458 1.01415,0 0.50706,0.18458 0.59158,0.36916 0.50707,0.46145 0.50707,0.55374 0.50619,0.64603 0.50707,0.83061 0.50793,0.83061 0.59071,0.9229 0.50704,1.0152 0.50707,1.10748 0.50708,1.10652 0.50705,1.10748 0.50708,1.10748 0.59158,1.20073 0.50707,1.10652 0.50706,1.10748 0.50708,1.10748 0.50706,1.01519 0.50706,1.01519 0.59157,1.0152 0.50707,0.8306 0.50708,0.83062 0.50706,0.8306 0.50706,0.73832 0.50707,0.64603 0.59158,0.64604 0.50708,0.55374 0.50706,0.46145 0.50707,0.46145 0.50705,0.36916 0.50707,0.36916 0.59158,0.3682 0.50706,0.18554 0.50709,0.27687 0.50705,0.18362 0.50707,0.18554 0.50707,0.18458 0.59156,0.0923 0.50709,0.0923 0.50616,0.0913 0.50709,0.0932 0.50795,0.0923 0.50706,0 0.59069,0.0913 1.01503,0 0.50617,0.0923 27.12718,0"
       style="fill:none;stroke:#000080;stroke-width:1;stroke-linecap:round;stroke-linejoin:round;stroke-miterlimit:5.93720483999999971;stroke-opacity:1;stroke-dasharray:none"
       id="path5508" />
    <path
       d="m 240.67977,949.66248 11.94814,0"
       style="fill:none;stroke:#231f20;stroke-width:1;stroke-linecap:butt;stroke-linejoin:miter;stroke-miterlimit:5.93720484;stroke-opacity:1;stroke-dasharray:none;marker-start:url(#Arrow1Mstart)"
       id="path8150"
       inkscape:connector-curvature="0" />
    <path
       inkscape:connector-curvature="0"
       id="path8152"
       style="fill:none;stroke:#231f20;stroke-width:1;stroke-linecap:butt;stroke-linejoin:miter;stroke-miterlimit:5.93720484;stroke-opacity:1;stroke-dasharray:none;marker-start:url(#Arrow1Mstart)"
       d="m 221.03219,949.66248 -11.94814,0" />
    <text
       xml:space="preserve"
       style="font-size:12px;font-style:normal;font-variant:normal;font-weight:normal;font-stretch:normal;line-height:125%;letter-spacing:0px;word-spacing:0px;fill:#000000;fill-opacity:1;stroke:none;font-family:Times New Roman;-inkscape-font-specification:'Times New Roman,'"
       x="184.10312"
       y="952.18744"
       id="text8154"
       sodipodi:linespacing="125%"><tspan
         sodipodi:role="line"
         id="tspan8156"
         x="184.10312"
         y="952.18744">$\Delta \tau_c$</tspan></text>
  </g>
</svg>
