<?xml version="1.0" encoding="UTF-8" standalone="no"?>
<!-- Created with Inkscape (http://www.inkscape.org/) -->

<svg
   xmlns:dc="http://purl.org/dc/elements/1.1/"
   xmlns:cc="http://creativecommons.org/ns#"
   xmlns:rdf="http://www.w3.org/1999/02/22-rdf-syntax-ns#"
   xmlns:svg="http://www.w3.org/2000/svg"
   xmlns="http://www.w3.org/2000/svg"
   xmlns:sodipodi="http://sodipodi.sourceforge.net/DTD/sodipodi-0.dtd"
   xmlns:inkscape="http://www.inkscape.org/namespaces/inkscape"
   id="svg2"
   version="1.1"
   inkscape:version="0.48.0 r9654"
   width="602.36218"
   height="212.59842"
   xml:space="preserve"
   sodipodi:docname="InterferometerGraphics.pdf"><metadata
     id="metadata8"><rdf:RDF><cc:Work
         rdf:about=""><dc:format>image/svg+xml</dc:format><dc:type
           rdf:resource="http://purl.org/dc/dcmitype/StillImage" /><dc:title></dc:title></cc:Work></rdf:RDF></metadata><defs
     id="defs6"><marker
       inkscape:stockid="Arrow1Mstart"
       orient="auto"
       refY="0.0"
       refX="0.0"
       id="Arrow1Mstart"
       style="overflow:visible"><path
         id="path3930"
         d="M 0.0,0.0 L 5.0,-5.0 L -12.5,0.0 L 5.0,5.0 L 0.0,0.0 z "
         style="fill-rule:evenodd;stroke:#000000;stroke-width:1.0pt;marker-start:none"
         transform="scale(0.4) translate(10,0)" /></marker><marker
       inkscape:stockid="Arrow1Mend"
       orient="auto"
       refY="0.0"
       refX="0.0"
       id="Arrow1Mend"
       style="overflow:visible;"><path
         id="path3933"
         d="M 0.0,0.0 L 5.0,-5.0 L -12.5,0.0 L 5.0,5.0 L 0.0,0.0 z "
         style="fill-rule:evenodd;stroke:#000000;stroke-width:1.0pt;marker-start:none;"
         transform="scale(0.4) rotate(180) translate(10,0)" /></marker><marker
       inkscape:stockid="Arrow1Lend"
       orient="auto"
       refY="0.0"
       refX="0.0"
       id="Arrow1Lend"
       style="overflow:visible;"><path
         id="path3927"
         d="M 0.0,0.0 L 5.0,-5.0 L -12.5,0.0 L 5.0,5.0 L 0.0,0.0 z "
         style="fill-rule:evenodd;stroke:#000000;stroke-width:1.0pt;marker-start:none;"
         transform="scale(0.8) rotate(180) translate(12.5,0)" /></marker><clipPath
       clipPathUnits="userSpaceOnUse"
       id="clipPath62"><path
         d="m 3676.01,1817.49 0,1660.51 2251.2,0 0,-1660.51 -2251.2,0 z"
         clip-rule="evenodd"
         id="path64"
         inkscape:connector-curvature="0" /></clipPath><clipPath
       clipPathUnits="userSpaceOnUse"
       id="clipPath94"><path
         d="m 1424.8,1817.49 0,1660.51 2251.2,0 0,-1660.51 -2251.2,0 z"
         clip-rule="evenodd"
         id="path96"
         inkscape:connector-curvature="0" /></clipPath></defs><sodipodi:namedview
     pagecolor="#ffffff"
     bordercolor="#666666"
     borderopacity="1"
     objecttolerance="10"
     gridtolerance="10"
     guidetolerance="10"
     inkscape:pageopacity="0"
     inkscape:pageshadow="2"
     inkscape:window-width="889"
     inkscape:window-height="644"
     id="namedview4"
     showgrid="false"
     inkscape:zoom="2.994133"
     inkscape:cx="455.63563"
     inkscape:cy="194.21635"
     inkscape:window-x="1465"
     inkscape:window-y="612"
     inkscape:window-maximized="0"
     inkscape:current-layer="g10"
     units="cm" /><g
     id="g10"
     inkscape:groupmode="layer"
     inkscape:label="ink_ext_XXXXXX"
     transform="matrix(1.25,0,0,-1.25,0,212.59842)"><path
   inkscape:connector-curvature="0"
   id="path36"
   style="fill:none;stroke:#231f20;stroke-width:0.80000001;stroke-linecap:butt;stroke-linejoin:miter;stroke-miterlimit:2.61310005;stroke-opacity:1;stroke-dasharray:none;marker-start:none;marker-end:url(#Arrow1Mend)"
   d="m 313.00913,119.36396 17.865,0" /><path
   inkscape:connector-curvature="0"
   id="path40"
   style="fill:none;stroke:#231f20;stroke-width:0.80000001;stroke-linecap:butt;stroke-linejoin:miter;stroke-miterlimit:2.61310005;stroke-opacity:1;stroke-dasharray:none;marker-start:url(#Arrow1Mstart);marker-end:none"
   d="m 367.50613,119.36396 17.865,0" /><path
   inkscape:connector-curvature="0"
   id="path50"
   style="fill:none;stroke:#231f20;stroke-width:0.80000001;stroke-linecap:butt;stroke-linejoin:miter;stroke-miterlimit:2.61310005;stroke-opacity:1;stroke-dasharray:none;marker-end:url(#Arrow1Lend)"
   d="m 348.97713,2.0654804 0,163.7194796"
   sodipodi:nodetypes="cc" /><path
   inkscape:connector-curvature="0"
   id="path54"
   style="fill:none;stroke:#231f20;stroke-width:0.80000001;stroke-linecap:butt;stroke-linejoin:miter;stroke-miterlimit:2.61310005;stroke-opacity:1;stroke-dasharray:none;marker-end:url(#Arrow1Lend)"
   d="m 246.86913,21.155606 199.842,0" /><path
   inkscape:connector-curvature="0"
   id="path66"
   style="fill:none;stroke:#ff0000;stroke-width:0.80000000999999998;stroke-linecap:butt;stroke-linejoin:miter;stroke-miterlimit:2.61310004999999990;stroke-opacity:1;stroke-dasharray:none"
   d="m 262.23512,83.44895 28.898,0 0.384,0.096 4.513,0 0.288,-0.096 0.767,0 0.288,-0.096 0.384,0 0.385,-0.096 0.288,-0.096 0.384,0 0.288,-0.096 0.383,0 0.384,-0.096 0.673,0 0.384,-0.096 0.288,0 0.384,0.096 0.672,0 0.384,0.096 0.288,0.096 0.384,0.192 0.384,0.096 0.288,0.192 0.384,0.192 0.384,0.192 0.288,0.192 0.384,0.192 0.288,0.192 0.384,0.192 0.384,0.192 0.288,0.096 0.384,0.191 0.384,0.097 0.672,0 0.288,-0.097 0.384,-0.095 0.384,-0.192 0.288,-0.288 0.384,-0.384 0.385,-0.384 0.288,-0.48 0.384,-0.48 0.288,-0.576 0.383,-0.672 0.384,-0.576 0.289,-0.672 0.384,-0.576 0.384,-0.576 0.288,-0.48 0.384,-0.48 0.384,-0.288 0.288,-0.192 0.384,-0.096 0.288,0.096 0.384,0.288 0.384,0.384 0.288,0.672 0.384,0.768 0.384,1.056 0.288,1.152 0.384,1.248 0.288,1.44 0.384,1.439 0.384,1.632 0.288,1.536 0.384,1.536 0.384,1.536 0.288,1.344 0.384,1.152 0.288,0.96 0.384,0.672 0.384,0.384 0.288,0 0.384,-0.384 0.384,-0.768 0.289,-1.152 0.383,-1.536 0.385,-1.919 0.287,-2.305 0.384,-2.688 0.289,-2.879 0.384,-3.168 0.384,-3.167 0.288,-3.361 0.384,-3.263 0.384,-3.168 0.288,-2.976 0.384,-2.591 0.288,-2.208 0.384,-1.632 0.384,-1.152 0.288,-0.48 0.384,0.288 0.384,0.96 0.288,1.728 0.384,2.399 0.288,3.168 0.384,3.84 0.384,4.512 0.288,4.895 0.384,5.376 0.384,5.663 0.288,5.76 0.384,5.759 0.384,5.568 0.288,5.184 0.384,4.799 0.288,4.032 0.384,3.36 0.384,2.4 0.288,1.44 0.384,0.287 0.384,-0.768 0.288,-2.015 0.384,-3.072 0.289,-4.224 0.384,-5.279 0.383,-6.24 0.289,-7.007 0.383,-7.584 0.384,-8.063 0.288,-8.352 0.385,-8.351 0.288,-8.063 0.384,-7.776 0.384,-7.103 0.287,-6.336 0.384,-5.183 0.385,-4.128 0.288,-2.688 0.384,-1.344 0.384,0.096 0.288,1.728 0.384,3.168 0.288,4.607 0.384,5.856 0.384,7.2 0.288,8.159 0.384,8.927 0.384,9.599 0.288,9.984 0.384,10.079 0.288,9.887 0.384,9.407 0.384,8.832 0.288,7.872 0.384,6.815 0.384,5.375 0.288,4.032 0.384,2.496 0.384,0.768 0.288,-0.768 0.384,-2.496 0.288,-4.032 0.384,-5.375 0.384,-6.815 0.288,-7.872 0.385,-8.832 0.383,-9.407 0.289,-9.887 0.384,-10.079 0.287,-9.984 0.384,-9.599 0.385,-8.927 0.288,-8.159 0.384,-7.2 0.384,-5.856 0.288,-4.607 0.384,-3.168 0.288,-1.728 0.384,-0.096 0.384,1.344 0.288,2.688 0.384,4.128 0.384,5.183 0.288,6.336 0.384,7.103 0.384,7.776 0.288,8.063 0.384,8.351 0.288,8.352 0.384,8.063 0.384,7.584 0.288,7.007 0.384,6.24 0.384,5.279 0.288,4.224 0.384,3.072 0.288,2.015 0.384,0.768 0.384,-0.287 0.288,-1.44 0.384,-2.4 0.384,-3.36 0.288,-4.032 0.385,-4.799 0.287,-5.184 0.384,-5.568 0.385,-5.759 0.288,-5.76 0.384,-5.663 0.384,-5.376 0.288,-4.895 0.384,-4.512 0.384,-3.84 0.288,-3.168 0.384,-2.399 0.288,-1.728 0.384,-0.96 0.384,-0.288 0.288,0.48 0.384,1.152 0.384,1.632 0.288,2.208 0.384,2.591 0.288,2.976 0.384,3.168 0.384,3.263 0.288,3.361 0.384,3.167 0.384,3.168 0.288,2.879 0.384,2.688 0.288,2.305 0.384,1.919 0.384,1.536 0.288,1.152 0.384,0.768 0.384,0.384 0.288,0 0.385,-0.384 0.384,-0.672 0.287,-0.96 0.385,-1.152 0.288,-1.344 0.383,-1.536 0.385,-1.536 0.288,-1.536 0.384,-1.632 0.384,-1.439 0.288,-1.44 0.384,-1.248 0.288,-1.152 0.384,-1.056 0.384,-0.768 0.288,-0.672 0.384,-0.384 0.384,-0.288 0.288,-0.096 0.384,0.096 0.288,0.192 0.384,0.288 0.384,0.48 0.288,0.48 0.384,0.576 0.384,0.576 0.288,0.672 0.384,0.576 0.384,0.672 0.288,0.576 0.384,0.48 0.288,0.48 0.384,0.384 0.384,0.384 0.288,0.288 0.384,0.192 0.384,0.095 0.288,0.097 0.672,0 0.384,-0.097 0.385,-0.191 0.287,-0.096 0.384,-0.192 0.385,-0.192 0.288,-0.192 0.383,-0.192 0.289,-0.192 0.384,-0.192 0.384,-0.192 0.287,-0.192 0.385,-0.096 0.384,-0.192 0.288,-0.096 0.384,-0.096 0.672,0 0.384,-0.096 0.288,0 0.384,0.096 0.672,0 0.384,0.096 0.384,0 0.288,0.096 0.384,0 0.288,0.096 0.384,0.096 0.384,0 0.288,0.096 0.768,0 0.288,0.096 4.512,0 0.385,-0.096 29.282,0" /><path
   inkscape:connector-curvature="0"
   id="path68"
   style="fill:none;stroke:#000080;stroke-width:0.80000001;stroke-linecap:butt;stroke-linejoin:miter;stroke-miterlimit:2.61310005;stroke-opacity:1;stroke-dasharray:none"
   d="m 262.23512,83.44895 27.458,0 0.384,0.096 4.224,0 0.288,0.096 2.113,0 0.383,0.096 1.057,0 0.288,0.096 1.055,0 0.384,0.096 0.673,0 0.384,0.096 0.288,0 0.384,0.096 0.288,0 0.384,0.096 0.384,0 0.288,0.096 0.384,0 0.384,0.096 0.288,0.096 0.384,0 0.384,0.096 0.288,0.096 0.384,0.096 0.288,0.096 0.384,0.096 0.384,0.096 0.288,0.096 0.384,0.095 0.384,0.097 0.288,0.096 0.384,0.096 0.288,0.192 0.384,0.096 0.384,0.191 0.288,0.097 0.384,0.191 0.385,0.096 0.288,0.193 0.384,0.191 0.288,0.193 0.383,0.191 0.384,0.193 0.289,0.192 0.384,0.287 0.384,0.192 0.288,0.288 0.384,0.193 0.384,0.287 0.288,0.288 0.384,0.289 0.288,0.287 0.384,0.288 0.384,0.384 0.288,0.288 0.384,0.384 0.384,0.289 0.288,0.383 0.384,0.384 0.288,0.384 0.384,0.48 0.384,0.384 0.288,0.48 0.384,0.384 0.384,0.48 0.288,0.48 0.384,0.48 0.288,0.48 0.384,0.576 0.384,0.576 0.288,0.48 0.384,0.576 0.384,0.576 0.289,0.576 0.383,0.671 0.385,0.577 0.287,0.671 0.384,0.672 0.289,0.673 0.384,0.671 0.384,0.672 0.288,0.672 0.384,0.768 0.384,0.768 0.288,0.672 0.384,0.768 0.288,0.768 0.384,0.768 0.384,0.864 0.288,0.768 0.384,0.864 0.384,0.768 0.288,0.864 0.384,0.864 0.288,0.863 0.384,0.864 0.384,0.864 0.288,0.864 0.384,0.864 0.384,0.864 0.288,0.864 0.384,0.864 0.384,0.96 0.288,0.864 0.384,0.864 0.288,0.864 0.384,0.96 0.384,0.863 0.288,0.865 0.384,0.863 0.384,0.864 0.288,0.864 0.384,0.864 0.289,0.864 0.384,0.864 0.383,0.768 0.289,0.864 0.383,0.768 0.384,0.864 0.288,0.768 0.385,0.768 0.288,0.672 0.384,0.768 0.384,0.671 0.287,0.768 0.384,0.673 0.385,0.575 0.288,0.672 0.384,0.576 0.384,0.576 0.288,0.576 0.384,0.576 0.288,0.48 0.384,0.48 0.384,0.48 0.288,0.384 0.384,0.384 0.384,0.384 0.288,0.288 0.384,0.384 0.288,0.192 0.384,0.288 0.384,0.192 0.288,0.192 0.384,0.096 0.384,0.192 0.288,0.096 1.44,0 0.288,-0.096 0.384,-0.192 0.384,-0.096 0.288,-0.192 0.385,-0.192 0.383,-0.288 0.289,-0.192 0.384,-0.384 0.287,-0.288 0.384,-0.384 0.385,-0.384 0.288,-0.384 0.384,-0.48 0.384,-0.48 0.288,-0.48 0.384,-0.576 0.288,-0.576 0.384,-0.576 0.384,-0.576 0.288,-0.672 0.384,-0.575 0.384,-0.673 0.288,-0.768 0.384,-0.671 0.384,-0.768 0.288,-0.672 0.384,-0.768 0.288,-0.768 0.384,-0.864 0.384,-0.768 0.288,-0.864 0.384,-0.768 0.384,-0.864 0.288,-0.864 0.384,-0.864 0.288,-0.864 0.384,-0.864 0.384,-0.863 0.288,-0.865 0.384,-0.863 0.384,-0.96 0.288,-0.864 0.385,-0.864 0.287,-0.864 0.384,-0.96 0.385,-0.864 0.288,-0.864 0.384,-0.864 0.384,-0.864 0.288,-0.864 0.384,-0.864 0.384,-0.864 0.288,-0.863 0.384,-0.864 0.288,-0.864 0.384,-0.768 0.384,-0.864 0.288,-0.768 0.384,-0.864 0.384,-0.768 0.288,-0.768 0.384,-0.768 0.288,-0.672 0.384,-0.768 0.384,-0.768 0.288,-0.672 0.384,-0.672 0.384,-0.671 0.288,-0.673 0.384,-0.672 0.288,-0.671 0.384,-0.577 0.384,-0.671 0.288,-0.576 0.384,-0.576 0.384,-0.576 0.288,-0.48 0.385,-0.576 0.384,-0.576 0.287,-0.48 0.385,-0.48 0.288,-0.48 0.383,-0.48 0.385,-0.384 0.288,-0.48 0.384,-0.384 0.384,-0.48 0.288,-0.384 0.384,-0.384 0.288,-0.383 0.384,-0.289 0.384,-0.384 0.288,-0.288 0.384,-0.384 0.384,-0.288 0.288,-0.287 0.384,-0.289 0.288,-0.288 0.384,-0.287 0.384,-0.193 0.288,-0.288 0.384,-0.192 0.384,-0.287 0.288,-0.192 0.384,-0.193 0.384,-0.191 0.288,-0.193 0.384,-0.191 0.288,-0.193 0.384,-0.096 0.384,-0.191 0.288,-0.097 0.384,-0.191 0.384,-0.096 0.288,-0.192 0.384,-0.096 0.288,-0.096 0.384,-0.097 0.385,-0.095 0.287,-0.096 0.384,-0.096 0.385,-0.096 0.288,-0.096 0.383,-0.096 0.289,-0.096 0.384,-0.096 0.384,0 0.287,-0.096 0.385,-0.096 0.384,0 0.288,-0.096 0.384,0 0.384,-0.096 0.288,0 0.384,-0.096 0.288,0 0.384,-0.096 0.672,0 0.384,-0.096 1.056,0 0.288,-0.096 1.056,0 0.384,-0.096 2.113,0 0.287,-0.096 4.225,0 0.384,-0.096 27.842,0" /><path
   inkscape:connector-curvature="0"
   id="path70"
   style="fill:none;stroke:#231f20;stroke-width:0.80000001;stroke-linecap:butt;stroke-linejoin:miter;stroke-miterlimit:2.61310005;stroke-opacity:1;stroke-dasharray:none;marker-end:url(#Arrow1Lend)"
   d="m 117.54495,-0.90371262 0,167.31473262"
   sodipodi:nodetypes="cc" /><path
   inkscape:connector-curvature="0"
   id="path74"
   style="fill:none;stroke:#231f20;stroke-width:0.80000001;stroke-linecap:butt;stroke-linejoin:miter;stroke-miterlimit:2.61310005;stroke-opacity:1;stroke-dasharray:none;marker-end:url(#Arrow1Lend)"
   d="m 15.435944,21.155606 199.842996,0" /><g
   id="g90"
   transform="matrix(0.1,0,0,0.1,-137.44706,-177.54172)"
   style="stroke-width:8;stroke-miterlimit:2.61310004999999990;stroke-dasharray:none;stroke:#ff0000"><g
     clip-path="url(#clipPath94)"
     id="g92"
     style="stroke-width:8;stroke-miterlimit:2.61310004999999990;stroke-dasharray:none;stroke:#ff0000"><path
       inkscape:connector-curvature="0"
       id="path98"
       style="fill:none;stroke:#ff0000;stroke-width:8;stroke-linecap:butt;stroke-linejoin:miter;stroke-miterlimit:2.61310004999999990;stroke-opacity:1;stroke-dasharray:none"
       d="m 1682.5,2750.94 c 0,0 1.7297,66.5594 2.88,99.83 1.0955,31.6835 2.5013,63.3555 3.83,95.03 1.235,29.4421 2.6629,58.876 3.85,88.32 1.0447,25.9134 1.6602,51.8443 2.88,77.75 1.0553,22.4117 2.5998,44.7978 3.84,67.2 0.9918,17.9149 1.5286,35.8586 2.88,53.75 0.9929,13.1448 2.1579,26.2855 3.84,39.36 1.0338,8.0355 1.7673,16.1679 3.84,24 0.6995,2.6431 0.1497,7.5367 2.88,7.68 2.8582,0.15 2.9637,-4.9553 3.84,-7.68 2.4804,-7.7127 2.9035,-15.9526 3.84,-24 1.5206,-13.0669 1.9313,-26.2392 2.88,-39.36 1.2954,-17.9156 2.6876,-35.8247 3.84,-53.75 1.4395,-22.3903 2.7847,-44.7883 3.84,-67.2 1.2198,-25.9057 1.8367,-51.8366 2.88,-77.75 1.1854,-29.444 2.7537,-58.8722 3.84,-88.32 1.1683,-31.6697 1.7909,-63.3575 2.88,-95.03 1.1444,-33.2816 2.5779,-66.5526 3.84,-99.83 1.2984,-34.236 2.7198,-68.4677 3.84,-102.71 1.1198,-34.2318 1.7418,-68.4788 2.88,-102.71 1.1068,-33.2862 2.5277,-66.5613 3.84,-99.84 1.2492,-31.6779 2.6833,-63.3486 3.84,-95.03 1.0746,-29.4327 1.6735,-58.8824 2.88,-88.31 1.0629,-25.9265 2.6445,-51.8293 3.84,-77.75 1.033,-22.3968 1.6012,-44.8159 2.88,-67.2 1.0247,-17.9364 2.3276,-35.8581 3.84,-53.76 1.1097,-13.1355 2.4143,-26.255 3.84,-39.36 0.8711,-8.0068 0.5649,-16.2758 2.88,-23.99 0.8227,-2.7414 0.9778,-7.68 3.84,-7.68 2.8622,0 3.0173,4.9386 3.84,7.68 2.3151,7.7142 2.0089,15.9832 2.88,23.99 1.4257,13.105 2.8472,26.2151 3.84,39.36 1.3516,17.8947 1.8868,35.8418 2.88,53.76 1.2418,22.4023 2.6549,44.7951 3.85,67.2 1.3821,25.9114 2.7785,51.8235 3.84,77.75 1.2048,29.4276 1.7971,58.8773 2.87,88.31 1.1549,31.6815 2.5892,63.3522 3.84,95.03 1.314,33.2788 2.7416,66.5537 3.85,99.84 1.1399,34.2311 1.7618,68.4781 2.88,102.71 1.1185,34.2422 2.5315,68.4742 3.83,102.71 1.2621,33.2775 2.7039,66.5483 3.85,99.83 1.0907,31.6724 1.7117,63.3603 2.88,95.03 1.0863,29.4478 2.6546,58.876 3.84,88.32 1.0433,25.9134 1.6602,51.8443 2.88,77.75 1.0553,22.4117 2.4005,44.8097 3.84,67.2 1.1524,17.9253 2.5446,35.8344 3.84,53.75 0.9487,13.1208 1.3594,26.2931 2.88,39.36 0.9365,8.0474 1.3596,16.2873 3.84,24 0.8763,2.7247 0.9818,7.83 3.84,7.68 2.7303,-0.1433 2.1805,-5.0369 2.88,-7.68 2.0727,-7.8321 2.9035,-15.9526 3.84,-24 1.5206,-13.0669 1.9313,-26.2392 2.88,-39.36 1.2954,-17.9156 2.6876,-35.8247 3.84,-53.75 1.4395,-22.3903 2.7847,-44.7883 3.84,-67.2 1.2198,-25.9057 1.8367,-51.8366 2.88,-77.75 1.1854,-29.444 2.6051,-58.8781 3.84,-88.32 1.3285,-31.6747 2.7429,-63.3465 3.84,-95.03 1.1521,-33.2706 1.7781,-66.5577 2.88,-99.83 1.134,-34.2418 2.7198,-68.4677 3.84,-102.71 1.1198,-34.2318 1.7418,-68.4788 2.88,-102.71 1.1068,-33.2862 2.5277,-66.5613 3.84,-99.84 1.2492,-31.6779 2.6833,-63.3486 3.84,-95.03 1.0746,-29.4327 1.6735,-58.8824 2.88,-88.31 1.0629,-25.9265 2.4598,-51.8385 3.84,-77.75 1.1934,-22.4048 2.5999,-44.7978 3.84,-67.2 0.9919,-17.9183 1.5284,-35.8653 2.88,-53.76 0.9928,-13.1449 2.1574,-26.2855 3.84,-39.36 1.0337,-8.0322 1.7679,-16.1611 3.84,-23.99 0.6996,-2.6431 0.1498,-7.5353 2.88,-7.68 2.8596,-0.1516 3.026,4.9375 3.85,7.68 2.3175,7.7131 2.0006,15.9834 2.87,23.99 1.423,13.1053 2.7303,26.2245 3.84,39.36 1.5124,17.9019 2.8153,35.8236 3.84,53.76 1.2788,22.3841 1.847,44.8032 2.88,67.2 1.1955,25.9207 2.6349,51.8297 3.84,77.75 1.3684,29.4328 2.762,58.8655 3.85,88.31 1.1702,31.6696 1.791,63.3575 2.88,95.03 1.1444,33.2849 2.7332,66.5538 3.84,99.84 1.1382,34.2312 1.7602,68.4782 2.88,102.71 1.1202,34.2423 2.5433,68.474 3.84,102.71 1.2604,33.2773 2.6855,66.5485 3.83,99.83 1.0892,31.6726 1.72,63.3603 2.89,95.03 1.0879,29.4477 2.4732,58.8839 3.84,88.32 1.2036,25.9203 2.6445,51.8293 3.84,77.75 1.033,22.3968 1.601,44.8159 2.88,67.2 1.0247,17.9331 2.5446,35.8344 3.84,53.75 0.9487,13.1208 1.3594,26.2931 2.88,39.36 0.9365,8.0474 1.3596,16.2873 3.84,24 0.8763,2.7247 0.9818,7.83 3.84,7.68 2.7303,-0.1433 2.1805,-5.0369 2.88,-7.68 2.0727,-7.8321 2.8062,-15.9645 3.84,-24 1.6821,-13.0745 2.8471,-26.2152 3.84,-39.36 1.3514,-17.8914 1.8882,-35.8351 2.88,-53.75 1.2402,-22.4022 2.6466,-44.7952 3.84,-67.2 1.3802,-25.9115 2.7771,-51.8235 3.84,-77.75 1.2066,-29.4309 1.8054,-58.884 2.88,-88.32 1.1566,-31.6814 2.7429,-63.3465 3.84,-95.03 1.1521,-33.2706 1.7781,-66.5577 2.88,-99.83 1.134,-34.2418 2.56,-68.4733 3.84,-102.71 1.28,-34.2367 2.7061,-68.4682 3.84,-102.71 1.102,-33.2756 1.7279,-66.5661 2.88,-99.84 1.0971,-31.6835 2.5114,-63.3553 3.84,-95.03 1.2348,-29.4386 2.6547,-58.8694 3.84,-88.31 1.0433,-25.9134 1.6582,-51.8444 2.88,-77.75 1.057,-22.4118 2.6103,-44.7975 3.85,-67.2 0.9916,-17.9181 1.5201,-35.8653 2.87,-53.76 0.9916,-13.1449 2.1574,-26.2855 3.84,-39.36 1.0337,-8.0322 1.7679,-16.1611 3.84,-23.99 0.6996,-2.6431 0.1497,-7.5367 2.88,-7.68 2.8582,-0.15 2.9631,4.9555 3.84,7.68 2.4814,7.7095 2.912,15.9455 3.85,23.99 1.5237,13.0665 1.9326,26.2391 2.88,39.36 1.2939,17.9188 2.8056,35.8238 3.83,53.76 1.2784,22.3842 1.8553,44.8032 2.89,67.2 1.1975,25.9206 2.6378,51.8296 3.84,77.75 1.3651,29.4327 2.7438,58.8657 3.83,88.31 1.1683,31.6698 1.7993,63.3575 2.89,95.03 1.1462,33.2849 2.5779,66.5593 3.84,99.84 1.2984,34.236 2.7215,68.4677 3.84,102.71 1.1181,34.2318 1.7317,68.4789 2.87,102.71 1.1068,33.283 2.5361,66.5545 3.85,99.83 1.2509,31.6778 2.6834,63.3486 3.84,95.03 1.0746,29.436 1.6734,58.8891 2.88,88.32 1.0629,25.9265 2.6445,51.8293 3.84,77.75 1.033,22.3968 1.601,44.8159 2.88,67.2 1.0247,17.9331 2.3278,35.8514 3.84,53.75 1.1098,13.1355 2.4146,26.255 3.84,39.36 0.8712,8.0102 0.5641,16.2826 2.88,24 0.8227,2.7414 0.9778,7.68 3.84,7.68 2.8622,0 3.0173,-4.9386 3.84,-7.68 2.3159,-7.7174 2.0088,-15.9898 2.88,-24 1.4254,-13.105 2.8471,-26.2152 3.84,-39.36 1.3514,-17.8914 1.8882,-35.8351 2.88,-53.75 1.2402,-22.4022 2.6466,-44.7952 3.84,-67.2 1.3802,-25.9115 2.7771,-51.8235 3.84,-77.75 1.2066,-29.4309 1.8054,-58.884 2.88,-88.32 1.1566,-31.6814 2.5907,-63.3521 3.84,-95.03 1.3123,-33.2754 2.7333,-66.5471 3.84,-99.83 1.1383,-34.2312 1.7602,-68.4782 2.88,-102.71 1.1202,-34.2423 2.7061,-68.4682 3.84,-102.71 1.102,-33.2756 1.7279,-66.5661 2.88,-99.84 1.0971,-31.6835 2.5114,-63.3553 3.84,-95.03 1.2348,-29.4386 2.6547,-58.8694 3.84,-88.31 1.0433,-25.9134 1.6602,-51.8443 2.88,-77.75 1.0553,-22.4117 2.3986,-44.8098 3.84,-67.2 1.1542,-17.9288 2.5551,-35.8408 3.85,-53.76 0.9482,-13.1206 1.3507,-26.2932 2.87,-39.36 0.9353,-8.0443 1.3604,-16.2805 3.84,-23.99 0.8764,-2.7247 0.9818,-7.83 3.84,-7.68 2.7303,0.1433 2.1804,5.0369 2.88,7.68 2.0721,7.8289 2.9026,15.946 3.84,23.99 1.5227,13.0669 1.9397,26.239 2.89,39.36 1.2978,17.9187 2.6875,35.8313 3.84,53.76 1.4393,22.3903 2.7861,44.7882 3.84,67.2 1.2182,25.9057 1.8269,51.8367 2.87,77.75 1.1851,29.4408 2.6151,58.8713 3.85,88.31 1.3287,31.6745 2.7346,63.3465 3.83,95.03 1.1504,33.274 1.7764,66.5645 2.88,99.84 1.1356,34.2419 2.7282,68.4677 3.85,102.71 1.1215,34.2318 1.7417,68.4788 2.88,102.71 1.1067,33.2829 2.5277,66.5546 3.84,99.83 1.2493,31.6779 2.6834,63.3486 3.84,95.03 1.0746,29.436 1.6734,58.8891 2.88,88.32 1.0629,25.9265 2.4598,51.8385 3.84,77.75 1.1934,22.4048 2.5998,44.7978 3.84,67.2 0.9918,17.9149 1.5286,35.8586 2.88,53.75 0.9929,13.1448 2.4146,26.255 3.84,39.36 0.8712,8.0102 0.5641,16.2826 2.88,24 0.8227,2.7414 0.9778,7.68 3.84,7.68 2.8622,0 3.0173,-4.9386 3.84,-7.68 2.3159,-7.7174 2.0088,-15.9898 2.88,-24 1.4254,-13.105 2.7302,-26.2245 3.84,-39.36 1.5122,-17.8986 2.8153,-35.8169 3.84,-53.75 1.279,-22.3841 1.847,-44.8032 2.88,-67.2 1.1955,-25.9207 2.6364,-51.8297 3.84,-77.75 1.3668,-29.4361 2.7537,-58.8722 3.84,-88.32 1.1683,-31.6697 1.7909,-63.3575 2.88,-95.03 1.1444,-33.2816 2.7333,-66.5471 3.84,-99.83 1.1383,-34.2312 1.7602,-68.4782 2.88,-102.71 1.1202,-34.2423 2.5399,-68.4741 3.84,-102.71 1.2638,-33.2807 2.7056,-66.5549 3.85,-99.84 1.0889,-31.6724 1.7033,-63.3604 2.87,-95.03 1.0847,-29.4445 2.4733,-58.8772 3.84,-88.31 1.2036,-25.9203 2.6445,-51.8293 3.84,-77.75 1.033,-22.3968 1.6012,-44.8159 2.88,-67.2 1.0247,-17.9364 2.5445,-35.8411 3.84,-53.76 0.9486,-13.1208 1.3563,-26.2935 2.88,-39.36 0.938,-8.0445 1.3686,-16.2805 3.85,-23.99 0.8769,-2.7245 0.9819,-7.8317 3.84,-7.68 2.7291,0.1448 2.1722,5.0377 2.87,7.68 2.0677,7.8301 2.8063,15.9578 3.84,23.99 1.6826,13.0745 2.8472,26.2151 3.84,39.36 1.3516,17.8947 1.8868,35.8418 2.88,53.76 1.2418,22.4023 2.793,44.7882 3.85,67.2 1.2218,25.9056 1.8367,51.8366 2.88,77.75 1.1853,29.4406 2.6052,58.8714 3.84,88.31 1.3286,31.6747 2.7429,63.3465 3.84,95.03 1.1521,33.2739 1.7797,66.5643 2.88,99.84 1.1323,34.2417 2.55,68.4735 3.83,102.71 1.28,34.2368 2.7143,68.4681 3.85,102.71 1.1035,33.2722 1.7279,66.5594 2.88,99.83 1.0971,31.6835 2.5115,63.3553 3.84,95.03 1.2349,29.4419 2.6546,58.876 3.84,88.32 1.0433,25.9134 1.6602,51.8443 2.88,77.75 1.0553,22.4117 2.5998,44.7978 3.84,67.2 0.9918,17.9149 1.5286,35.8586 2.88,53.75 0.9929,13.1448 2.1579,26.2855 3.84,39.36 1.0338,8.0355 1.7673,16.1679 3.84,24 0.6995,2.6431 0.1497,7.5367 2.88,7.68 2.8582,0.15 2.9637,-4.9553 3.84,-7.68 2.4804,-7.7127 2.9035,-15.9526 3.84,-24 1.5206,-13.0669 1.9313,-26.2392 2.88,-39.36 1.2954,-17.9156 2.8153,-35.8169 3.84,-53.75 1.279,-22.3841 1.847,-44.8032 2.88,-67.2 1.1955,-25.9207 2.6364,-51.8297 3.84,-77.75 1.3668,-29.4361 2.7537,-58.8722 3.84,-88.32 1.1683,-31.6697 1.7909,-63.3575 2.88,-95.03 1.1444,-33.2816 2.5779,-66.5526 3.84,-99.83 1.2984,-34.236 2.7198,-68.4677 3.84,-102.71 1.1198,-34.2318 1.7418,-68.4788 2.88,-102.71 1.1068,-33.2862 2.6956,-66.5551 3.84,-99.84 1.089,-31.6725 1.7098,-63.3604 2.88,-95.03 1.088,-29.4445 2.4835,-58.8771 3.85,-88.31 1.2034,-25.9202 2.6361,-51.8294 3.83,-77.75 1.0316,-22.3968 1.6012,-44.8159 2.88,-67.2 1.0247,-17.9364 2.3276,-35.8581 3.84,-53.76 1.1097,-13.1355 2.4143,-26.255 3.84,-39.36 0.8711,-8.0068 0.5608,-16.277 2.88,-23.99 0.8246,-2.7424 0.9863,-7.6815 3.85,-7.68 2.8622,0 3.0173,4.9386 3.84,7.68 2.3151,7.7142 2.0089,15.9832 2.88,23.99 1.4257,13.105 2.8472,26.2151 3.84,39.36 1.3516,17.8947 1.8894,35.8417 2.88,53.76 1.2384,22.4021 2.6368,44.7954 3.83,67.2 1.3799,25.9117 2.7854,51.8234 3.85,77.75 1.2084,29.4275 1.8054,58.8773 2.88,88.31 1.1567,31.6814 2.5908,63.3521 3.84,95.03 1.3123,33.2787 2.7332,66.5538 3.84,99.84 1.1382,34.2312 1.7602,68.4782 2.88,102.71 1.1202,34.2423 2.706,68.4682 3.84,102.71 1.1019,33.2723 1.7279,66.5594 2.88,99.83 1.0971,31.6835 2.5115,63.3553 3.84,95.03 1.2349,29.4419 2.6546,58.876 3.84,88.32 1.0433,25.9134 1.6602,51.8443 2.88,77.75 1.0553,22.4117 2.4005,44.8097 3.84,67.2 1.1524,17.9253 2.5446,35.8344 3.84,53.75 0.9487,13.1208 1.3594,26.2931 2.88,39.36 0.9365,8.0474 1.3596,16.2873 3.84,24 0.8763,2.7247 0.9818,7.83 3.84,7.68 2.7303,-0.1433 2.1805,-5.0369 2.88,-7.68 2.0727,-7.8321 2.9035,-15.9526 3.84,-24 1.5206,-13.0669 1.9313,-26.2392 2.88,-39.36 1.2954,-17.9156 2.6876,-35.8247 3.84,-53.75 1.4395,-22.3903 2.7847,-44.7883 3.84,-67.2 1.2198,-25.9057 1.8367,-51.8366 2.88,-77.75 1.1854,-29.444 2.6051,-58.8781 3.84,-88.32 1.3285,-31.6747 2.7429,-63.3465 3.84,-95.03 1.1521,-33.2706 1.7781,-66.5577 2.88,-99.83 1.134,-34.2418 2.7198,-68.4677 3.84,-102.71 1.1198,-34.2318 1.7418,-68.4788 2.88,-102.71 1.1068,-33.2862 2.5277,-66.5613 3.84,-99.84 1.2492,-31.6779 2.6833,-63.3486 3.84,-95.03 1.0746,-29.4327 1.6716,-58.8825 2.88,-88.31 1.0646,-25.9266 2.4701,-51.8383 3.85,-77.75 1.1932,-22.4046 2.5916,-44.7979 3.83,-67.2 0.9906,-17.9183 1.5284,-35.8653 2.88,-53.76 0.9928,-13.1449 2.4143,-26.255 3.84,-39.36 0.8711,-8.0068 0.5649,-16.2758 2.88,-23.99 0.8227,-2.7414 0.9778,-7.6785 3.84,-7.68 2.8637,0 3.0254,4.9376 3.85,7.68 2.3192,7.713 2.0089,15.9832 2.88,23.99 1.4257,13.105 2.7303,26.2245 3.84,39.36 1.5124,17.9019 2.8153,35.8236 3.84,53.76 1.2788,22.3841 1.8484,44.8032 2.88,67.2 1.1939,25.9206 2.6266,51.8298 3.83,77.75 1.3665,29.4329 2.762,58.8655 3.85,88.31 1.1702,31.6696 1.791,63.3575 2.88,95.03 1.1444,33.2849 2.7332,66.5538 3.84,99.84 1.1382,34.2312 1.7602,68.4782 2.88,102.71 1.1202,34.2423 2.5416,68.474 3.84,102.71 1.2621,33.2774 2.6956,66.5484 3.84,99.83 1.0891,31.6725 1.7117,63.3603 2.88,95.03 1.0863,29.4478 2.4732,58.8839 3.84,88.32 1.2036,25.9203 2.6445,51.8293 3.84,77.75 1.033,22.3968 1.601,44.8159 2.88,67.2 1.0247,17.9331 2.5446,35.8344 3.84,53.75 0.9487,13.1208 1.3594,26.2931 2.88,39.36 0.9365,8.0474 1.3596,16.2873 3.84,24 0.8763,2.7247 0.9818,7.83 3.84,7.68 2.7303,-0.1433 2.1805,-5.0369 2.88,-7.68 2.0727,-7.8321 2.8062,-15.9645 3.84,-24 1.6821,-13.0745 2.8471,-26.2152 3.84,-39.36 1.3514,-17.8914 1.8882,-35.8351 2.88,-53.75 1.2402,-22.4022 2.7847,-44.7883 3.84,-67.2 1.2198,-25.9057 1.8367,-51.8366 2.88,-77.75 1.1854,-29.444 2.6051,-58.8781 3.84,-88.32 1.3285,-31.6747 2.7429,-63.3465 3.84,-95.03 1.1521,-33.2706 1.7765,-66.5578 2.88,-99.83 1.1357,-34.2419 2.57,-68.4732 3.85,-102.71 1.28,-34.2365 2.6977,-68.4683 3.83,-102.71 1.1003,-33.2757 1.7279,-66.5661 2.88,-99.84 1.0971,-31.6835 2.5114,-63.3553 3.84,-95.03 1.2348,-29.4386 2.6547,-58.8694 3.84,-88.31 1.0433,-25.9134 1.6582,-51.8444 2.88,-77.75 1.057,-22.4118 2.6082,-44.7977 3.85,-67.2 0.9932,-17.9182 1.5284,-35.8653 2.88,-53.76 0.9928,-13.1449 2.1574,-26.2855 3.84,-39.36 1.0337,-8.0322 1.7723,-16.1599 3.84,-23.99 0.6978,-2.6423 0.1409,-7.5352 2.87,-7.68 2.8581,-0.1517 2.9636,4.9553 3.84,7.68 2.4796,7.7095 2.9026,15.946 3.84,23.99 1.5227,13.0669 1.9397,26.239 2.89,39.36 1.2978,17.9187 2.8153,35.8236 3.84,53.76 1.2788,22.3841 1.847,44.8032 2.88,67.2 1.1955,25.9207 2.6364,51.8297 3.84,77.75 1.3667,29.4328 2.7553,58.8655 3.84,88.31 1.1667,31.6696 1.7811,63.3576 2.87,95.03 1.1444,33.2851 2.5862,66.5593 3.85,99.84 1.3001,34.2359 2.7198,68.4677 3.84,102.71 1.1198,34.2318 1.7417,68.4788 2.88,102.71 1.1067,33.2829 2.6956,66.5484 3.84,99.83 1.0891,31.6725 1.7117,63.3603 2.88,95.03 1.0863,29.4478 2.4732,58.8839 3.84,88.32 1.2036,25.9203 2.6445,51.8293 3.84,77.75 1.033,22.3968 1.601,44.8159 2.88,67.2 1.0247,17.9331 2.3278,35.8514 3.84,53.75 1.1098,13.1355 2.4146,26.255 3.84,39.36 0.8712,8.0102 0.5641,16.2826 2.88,24 0.8227,2.7414 0.9778,7.68 3.84,7.68 2.8622,0 3.0173,-4.9386 3.84,-7.68 2.3159,-7.7174 2.0088,-15.9898 2.88,-24 1.4254,-13.105 2.8471,-26.2152 3.84,-39.36 1.3514,-17.8914 1.8882,-35.8351 2.88,-53.75 1.2402,-22.4022 2.6466,-44.7952 3.84,-67.2 1.3802,-25.9115 2.7771,-51.8235 3.84,-77.75 1.2066,-29.4309 1.8054,-58.884 2.88,-88.32 1.1566,-31.6814 2.5907,-63.3521 3.84,-95.03 1.3123,-33.2754 2.7333,-66.5471 3.84,-99.83 1.1383,-34.2312 1.7602,-68.4782 2.88,-102.71 1.1202,-34.2423 2.7043,-68.4682 3.84,-102.71 1.1036,-33.2756 1.7379,-66.566 2.89,-99.84 1.097,-31.6834 2.5013,-63.3555 3.83,-95.03 1.2349,-29.4387 2.6649,-58.8692 3.85,-88.31 1.0431,-25.9133 1.6518,-51.8443 2.87,-77.75 1.0539,-22.4118 2.4007,-44.8097 3.84,-67.2 1.1525,-17.9287 2.5422,-35.8413 3.84,-53.76 0.9503,-13.121 1.3673,-26.2931 2.89,-39.36 0.9374,-8.044 1.7679,-16.1611 3.84,-23.99 0.6996,-2.6431 0.1497,-7.5367 2.88,-7.68 2.8582,-0.15 2.9642,4.9551 3.84,7.68 2.4779,7.7095 2.8953,15.9462 3.83,23.99 1.5184,13.0672 1.9302,26.2393 2.88,39.36 1.2972,17.919 2.6958,35.8312 3.85,53.76 1.4414,22.3902 2.7847,44.7883 3.84,67.2 1.2198,25.9057 1.8367,51.8366 2.88,77.75 1.1853,29.4406 2.6052,58.8714 3.84,88.31 1.3286,31.6747 2.7429,63.3465 3.84,95.03 1.1521,33.2739 1.778,66.5644 2.88,99.84 1.1339,34.2418 2.7198,68.4677 3.84,102.71 1.1198,34.2318 1.7417,68.4788 2.88,102.71 1.1067,33.2829 2.5277,66.5546 3.84,99.83 1.2493,31.6779 2.6834,63.3486 3.84,95.03 1.0746,29.436 1.6734,58.8891 2.88,88.32 1.0629,25.9265 2.4598,51.8385 3.84,77.75 1.1934,22.4048 2.5998,44.7978 3.84,67.2 0.9918,17.9149 1.5286,35.8586 2.88,53.75 0.9929,13.1448 2.4146,26.255 3.84,39.36 0.8712,8.0102 0.5641,16.2826 2.88,24 0.8227,2.7414 0.9778,7.68 3.84,7.68 2.8622,0 3.0173,-4.9386 3.84,-7.68 2.3159,-7.7174 2.0088,-15.9898 2.88,-24 1.4254,-13.105 2.7302,-26.2245 3.84,-39.36 1.5122,-17.8986 2.8153,-35.8169 3.84,-53.75 1.279,-22.3841 1.847,-44.8032 2.88,-67.2 1.1955,-25.9207 2.7771,-51.8235 3.84,-77.75 1.2066,-29.4309 1.8054,-58.884 2.88,-88.32 1.1566,-31.6814 2.5907,-63.3521 3.84,-95.03 1.3123,-33.2754 2.7333,-66.5471 3.84,-99.83 1.1383,-34.2312 1.7602,-68.4782 2.88,-102.71 1.1202,-34.2423 2.5416,-68.474 3.84,-102.71 1.2621,-33.2807 2.6938,-66.5551 3.84,-99.84 1.0907,-31.6725 1.7217,-63.3602 2.89,-95.03 1.0862,-29.4443 2.4649,-58.8773 3.83,-88.31 1.2022,-25.9204 2.6445,-51.8293 3.84,-77.75 1.033,-22.3968 1.6012,-44.8159 2.88,-67.2 1.0247,-17.9364 2.5445,-35.8411 3.84,-53.76 0.9486,-13.1208 1.3563,-26.2935 2.88,-39.36 0.938,-8.0445 1.3686,-16.2805 3.85,-23.99 0.8769,-2.7245 0.9818,-7.83 3.84,-7.68 2.7303,0.1433 2.1804,5.0369 2.88,7.68 2.0721,7.8289 2.8063,15.9578 3.84,23.99 1.6826,13.0745 2.8484,26.2151 3.84,39.36 1.3499,17.8947 1.8784,35.8419 2.87,53.76 1.2397,22.4025 2.793,44.7882 3.85,67.2 1.2218,25.9056 1.8367,51.8366 2.88,77.75 1.1853,29.4406 2.6052,58.8714 3.84,88.31 1.3286,31.6747 2.7429,63.3465 3.84,95.03 1.1521,33.2739 1.778,66.5644 2.88,99.84 1.1339,34.2418 2.56,68.4733 3.84,102.71 1.28,34.2367 2.706,68.4682 3.84,102.71 1.1019,33.2723 1.7279,66.5594 2.88,99.83 1.0971,31.6835 2.6834,63.3486 3.84,95.03 1.0746,29.436 1.6734,58.8891 2.88,88.32 1.0629,25.9265 2.4598,51.8385 3.84,77.75 1.1934,22.4048 2.5998,44.7978 3.84,67.2 0.9918,17.9149 1.5286,35.8586 2.88,53.75 0.9929,13.1448 2.1579,26.2855 3.84,39.36 1.0338,8.0355 1.7673,16.1679 3.84,24 0.6995,2.6431 0.1497,7.5367 2.88,7.68 2.8582,0.15 2.9637,-4.9553 3.84,-7.68 2.4804,-7.7127 2.9035,-15.9526 3.84,-24 1.5206,-13.0669 1.9313,-26.2392 2.88,-39.36 1.2954,-17.9156 2.8153,-35.8169 3.84,-53.75 1.279,-22.3841 1.847,-44.8032 2.88,-67.2 1.1955,-25.9207 2.6364,-51.8297 3.84,-77.75 1.3668,-29.4361 2.7521,-58.8723 3.84,-88.32 1.17,-31.6697 1.8008,-63.3574 2.89,-95.03 1.1445,-33.2815 2.5696,-66.5527 3.83,-99.83 1.2967,-34.236 2.7198,-68.4677 3.84,-102.71 1.1198,-34.2318 1.7418,-68.4788 2.88,-102.71 1.1068,-33.2862 2.6956,-66.5551 3.84,-99.84 1.089,-31.6725 1.7098,-63.3604 2.88,-95.03 1.088,-29.4445 2.4816,-58.8772 3.85,-88.31 1.2051,-25.9203 2.6445,-51.8293 3.84,-77.75 1.033,-22.3968 1.6012,-44.8159 2.88,-67.2 1.0247,-17.9364 2.3276,-35.8581 3.84,-53.76 1.1097,-13.1355 2.417,-26.2547 3.84,-39.36 0.8694,-8.0066 0.5525,-16.2769 2.87,-23.99 0.824,-2.7425 0.9904,-7.8316 3.85,-7.68 2.7302,0.1447 2.1804,5.0369 2.88,7.68 2.0721,7.8289 2.8063,15.9578 3.84,23.99 1.6826,13.0745 2.8472,26.2151 3.84,39.36 1.3516,17.8947 1.8881,35.8417 2.88,53.76 1.2401,22.4022 2.6466,44.7952 3.84,67.2 1.3802,25.9115 2.7771,51.8235 3.84,77.75 1.2065,29.4276 1.8054,58.8773 2.88,88.31 1.1567,31.6814 2.5908,63.3521 3.84,95.03 1.3123,33.2787 2.7332,66.5538 3.84,99.84 1.1382,34.2312 1.7602,68.4782 2.88,102.71 1.1202,34.2423 2.706,68.4682 3.84,102.71 1.1019,33.2723 1.7279,66.5594 2.88,99.83 1.0971,31.6835 2.5115,63.3553 3.84,95.03 1.2349,29.4419 2.6546,58.876 3.84,88.32 1.0433,25.9134 1.6602,51.8443 2.88,77.75 1.0553,22.4117 2.4005,44.8097 3.84,67.2 1.1524,17.9253 2.5446,35.8344 3.84,53.75 0.9487,13.1208 1.3594,26.2931 2.88,39.36 0.9365,8.0474 1.7673,16.1679 3.84,24 0.6995,2.6431 0.1497,7.5367 2.88,7.68 2.8582,0.15 2.9637,-4.9553 3.84,-7.68 2.4804,-7.7127 2.9035,-15.9526 3.84,-24 1.5206,-13.0669 1.9313,-26.2392 2.88,-39.36 1.2954,-17.9156 2.6876,-35.8247 3.84,-53.75 1.4395,-22.3903 2.7847,-44.7883 3.84,-67.2 1.2198,-25.9057 1.8367,-51.8366 2.88,-77.75 1.1854,-29.444 2.7537,-58.8722 3.84,-88.32 1.1683,-31.6697 1.7909,-63.3575 2.88,-95.03 1.1444,-33.2816 2.5779,-66.5526 3.84,-99.83 1.2984,-34.236 2.7198,-68.4677 3.84,-102.71 1.1198,-34.2318 1.7401,-68.4789 2.88,-102.71 1.1084,-33.2863 2.536,-66.5612 3.85,-99.84 1.2508,-31.6778 2.6851,-63.3485 3.84,-95.03 1.0729,-29.4327 1.6652,-58.8824 2.87,-88.31 1.0615,-25.9265 2.4579,-51.8386 3.84,-77.75 1.1951,-22.4049 2.6082,-44.7977 3.85,-67.2 0.9932,-17.9182 1.5284,-35.8653 2.88,-53.76 0.9928,-13.1449 2.4143,-26.255 3.84,-39.36 0.8711,-8.0068 0.5649,-16.2758 2.88,-23.99 0.8227,-2.7414 0.9778,-7.68 3.84,-7.68 2.8622,0 3.0173,4.9386 3.84,7.68 2.3151,7.7142 2.0089,15.9832 2.88,23.99 1.4257,13.105 2.7303,26.2245 3.84,39.36 1.5124,17.9019 2.8153,35.8236 3.84,53.76 1.2788,22.3841 1.847,44.8032 2.88,67.2 1.1955,25.9207 2.7771,51.8235 3.84,77.75 1.2065,29.4276 1.8054,58.8773 2.88,88.31 1.1567,31.6814 2.5908,63.3521 3.84,95.03 1.3123,33.2787 2.7332,66.5538 3.84,99.84 1.1382,34.2312 1.7602,68.4782 2.88,102.71 1.1202,34.2423 2.5416,68.474 3.84,102.71 1.2621,33.2774 2.6956,66.5484 3.84,99.83 1.0891,31.6725 1.7117,63.3603 2.88,95.03 1.0863,29.4478 2.6546,58.876 3.84,88.32 1.0433,25.9134 1.6602,51.8443 2.88,77.75 1.0553,22.4117 2.4005,44.8097 3.84,67.2 1.1524,17.9253 2.5446,35.8344 3.84,53.75 0.9487,13.1208 1.3594,26.2931 2.88,39.36 0.9365,8.0474 1.3596,16.2873 3.84,24 0.8763,2.7247 0.9818,7.83 3.84,7.68 2.7303,-0.1433 2.1805,-5.0369 2.88,-7.68 2.0727,-7.8321 2.8062,-15.9645 3.84,-24 1.6821,-13.0745 2.8471,-26.2152 3.84,-39.36 1.3514,-17.8914 1.8882,-35.8351 2.88,-53.75 1.2402,-22.4022 2.7847,-44.7883 3.84,-67.2 1.2198,-25.9057 1.8367,-51.8366 2.88,-77.75 1.1854,-29.444 2.6051,-58.8781 3.84,-88.32 1.3285,-31.6747 2.7429,-63.3465 3.84,-95.03 1.1521,-33.2706 1.7781,-66.5577 2.88,-99.83 1.134,-34.2418 3.84,-102.71 3.84,-102.71"
       sodipodi:nodetypes="caaaaaaaaaaaaaaaaaaaaaaaaaaaaaaaaaaaaaaaaaaaaaaaaaaaaaaaaaaaaaaaaaaaaaaaaaaaaaaaaaaaaaaaaaaaaaaaaaaaaaaaaaaaaaaaaaaaaaaaaaaaaaaaaaaaaaaaaaaaaaaaaaaaaaaaaaaaaaaaaaaaaaaaaaaaaaaaaaaaaaaaaaaaaaaaaaaaaaaaaaaaaaaaaaaaaaaaaaaaaaaaaaaaaaaaaaaaaaaaaaaaaaaaaaaaaaaaaaaaaaaaaaaaaaaaaaaaaaaaaaaaaaaaaaaaaaaaaaaaaaaaaaaaaaaaaaaaaaaaaaaaaaaaaaaaaaaaaaaaaaaaaaaaaaaaaaaaaaaaaaaaaaaaaaaaaaaaaaaaaaaaaaaaaaaaaaaaaaaaaaaaaaaaaaaaaaaaaaaaaaaaaaaaaaaaaaaaaaaaaaaaaaaaaaaaaaaaaaaaaaaaaaaaaaaaaaaaaaaaaaaaaaaaaaaaaaaaaaac" /></g></g><text
   xml:space="preserve"
   style="font-size:9.60000038px;font-style:normal;font-variant:normal;font-weight:normal;font-stretch:normal;line-height:125%;letter-spacing:0px;word-spacing:0px;fill:#000000;fill-opacity:1;stroke:none;font-family:Times New Roman;-inkscape-font-specification:'Times New Roman,'"
   x="126.08508"
   y="-159.45436"
   id="text4917"
   sodipodi:linespacing="125%"
   transform="scale(1,-1)"><tspan
     sodipodi:role="line"
     id="tspan4919"
     x="126.08508"
     y="-159.45436">Light intensity</tspan></text>

<text
   xml:space="preserve"
   style="font-size:9.60000038px;font-style:normal;font-variant:normal;font-weight:normal;font-stretch:normal;line-height:125%;letter-spacing:0px;word-spacing:0px;fill:#000000;fill-opacity:1;stroke:none;font-family:Times New Roman;-inkscape-font-specification:'Times New Roman,'"
   x="359.14056"
   y="-154.98849"
   id="text4921"
   sodipodi:linespacing="125%"
   transform="scale(1,-1)"><tspan
     sodipodi:role="line"
     id="tspan4923"
     x="359.14056"
     y="-154.98849">Light Intensity</tspan></text>

<text
   xml:space="preserve"
   style="font-size:9.60000038px;font-style:normal;font-variant:normal;font-weight:normal;font-stretch:normal;line-height:125%;letter-spacing:0px;word-spacing:0px;fill:#000000;fill-opacity:1;stroke:none;font-family:Times New Roman;-inkscape-font-specification:'Times New Roman,'"
   x="389.18085"
   y="-120.91605"
   id="text6407"
   sodipodi:linespacing="125%"
   transform="scale(1,-1)"><tspan
     sodipodi:role="line"
     id="tspan6409"
     x="389.18085"
     y="-120.91605">$\Delta l_c$</tspan></text>

<text
   xml:space="preserve"
   style="font-size:9.60000038px;font-style:normal;font-variant:normal;font-weight:normal;font-stretch:normal;line-height:125%;letter-spacing:0px;word-spacing:0px;fill:#000000;fill-opacity:1;stroke:none;font-family:Times New Roman;-inkscape-font-specification:'Times New Roman,'"
   x="419.78772"
   y="-3.77863"
   id="text6411"
   sodipodi:linespacing="125%"
   transform="scale(1,-1)"><tspan
     sodipodi:role="line"
     id="tspan6413"
     x="419.78772"
     y="-3.77863">$\Delta l$</tspan></text>

<text
   transform="scale(1,-1)"
   sodipodi:linespacing="125%"
   id="text6415"
   y="-6.0458055"
   x="170.7939"
   style="font-size:9.60000038px;font-style:normal;font-variant:normal;font-weight:normal;font-stretch:normal;line-height:125%;letter-spacing:0px;word-spacing:0px;fill:#000000;fill-opacity:1;stroke:none;font-family:Times New Roman;-inkscape-font-specification:'Times New Roman,'"
   xml:space="preserve"><tspan
     y="-6.0458055"
     x="170.7939"
     id="tspan6417"
     sodipodi:role="line">$\Delta l$</tspan></text>

<text
   xml:space="preserve"
   style="font-size:9.60000038px;font-style:normal;font-variant:normal;font-weight:normal;font-stretch:normal;line-height:125%;letter-spacing:0px;word-spacing:0px;fill:#000000;fill-opacity:1;stroke:none;font-family:Times New Roman;-inkscape-font-specification:'Times New Roman,'"
   x="245.92363"
   y="-159.44499"
   id="text6419"
   sodipodi:linespacing="125%"
   transform="scale(1,-1)"><tspan
     sodipodi:role="line"
     id="tspan6421"
     x="245.92363"
     y="-159.44499">(b)</tspan></text>

<text
   xml:space="preserve"
   style="font-size:9.60000038px;font-style:normal;font-variant:normal;font-weight:normal;font-stretch:normal;line-height:125%;letter-spacing:0px;word-spacing:0px;fill:#000000;fill-opacity:1;stroke:none;font-family:Times New Roman;-inkscape-font-specification:'Times New Roman,'"
   x="16.754576"
   y="-159.44499"
   id="text6423"
   sodipodi:linespacing="125%"
   transform="scale(1,-1)"><tspan
     sodipodi:role="line"
     id="tspan6425"
     x="16.754576"
     y="-159.44499">(a)</tspan></text>

</g></svg>