<?xml version="1.0" encoding="UTF-8" standalone="no"?>
<!-- Created with Inkscape (http://www.inkscape.org/) -->

<svg
  xmlns:dc="http://purl.org/dc/elements/1.1/"
  xmlns:cc="http://creativecommons.org/ns#"
  xmlns:rdf="http://www.w3.org/1999/02/22-rdf-syntax-ns#"
  xmlns:svg="http://www.w3.org/2000/svg"
  xmlns="http://www.w3.org/2000/svg"
  xmlns:xlink="http://www.w3.org/1999/xlink"
  xmlns:sodipodi="http://sodipodi.sourceforge.net/DTD/sodipodi-0.dtd"
  xmlns:inkscape="http://www.inkscape.org/namespaces/inkscape"
  width="283.46457"
  height="212.59842"
  id="svg3330"
  version="1.1"
  inkscape:version="0.48.0 r9654"
  sodipodi:docname="serial-time.pdf">
 <defs
   id="defs3332">
  <marker
    inkscape:stockid="Arrow1Mend"
    orient="auto"
    refY="0"
    refX="0"
    id="Arrow1Mend"
    style="overflow:visible">
   <path
     id="path4179"
     d="M 0,0 5,-5 -12.5,0 5,5 0,0 z"
     style="fill-rule:evenodd;stroke:#000000;stroke-width:1pt;marker-start:none"
     transform="matrix(-0.4,0,0,-0.4,-4,0)"
     inkscape:connector-curvature="0" />
  </marker>
  <marker
    inkscape:stockid="Arrow1Lend"
    orient="auto"
    refY="0"
    refX="0"
    id="Arrow1Lend"
    style="overflow:visible">
   <path
     id="path4173"
     d="M 0,0 5,-5 -12.5,0 5,5 0,0 z"
     style="fill-rule:evenodd;stroke:#000000;stroke-width:1pt;marker-start:none"
     transform="matrix(-0.8,0,0,-0.8,-10,0)"
     inkscape:connector-curvature="0" />
  </marker>
 </defs>
 <sodipodi:namedview
   id="base"
   pagecolor="#ffffff"
   bordercolor="#666666"
   borderopacity="1.0"
   inkscape:pageopacity="0.0"
   inkscape:pageshadow="2"
   inkscape:zoom="5.6568542"
   inkscape:cx="243.9306"
   inkscape:cy="133.51106"
   inkscape:document-units="px"
   inkscape:current-layer="layer1"
   showgrid="false"
   units="cm"
   inkscape:window-width="1233"
   inkscape:window-height="620"
   inkscape:window-x="55"
   inkscape:window-y="20"
   inkscape:window-maximized="0" />
 <metadata
   id="metadata3335">
  <rdf:RDF>
   <cc:Work
     rdf:about="">
    <dc:format>image/svg+xml</dc:format>
    <dc:type
      rdf:resource="http://purl.org/dc/dcmitype/StillImage" />
    <dc:title></dc:title>
   </cc:Work>
  </rdf:RDF>
 </metadata>
 <g
   inkscape:groupmode="layer"
   id="layer3"
   inkscape:label="output"
   style="display:inline"
   transform="translate(0,-2.9248047e-5)" />
 <g
   inkscape:label="Layer 1"
   inkscape:groupmode="layer"
   id="layer1"
   transform="translate(0,-839.76243)"
   style="display:inline">
  <path
    style="fill:none;stroke:#0000ff;stroke-width:2;stroke-linecap:butt;stroke-linejoin:miter;stroke-miterlimit:4;stroke-opacity:1;stroke-dasharray:none"
    d="m 12.443651,882.94664 60.75,0 0,13.7 -60.75,0 0,13.7 60.75,0 0,13.7 -60.75,0 0,13.7 60.75,0 0,13.7 -60.75,0 0,13.7 60.75,0 0,13.7 -60.75,0 0,13.7 60.75,0 0,13.69996 -60.75,0 0,13.7 60.75,0 0,11.5001 -66.2500002,-0.5 0,-149.50006"
    id="path4847"
    inkscape:connector-curvature="0"
    sodipodi:nodetypes="ccccccccccccccccccccccccc" />
  <path
    sodipodi:type="arc"
    style="color:#000000;fill:none;stroke:#000000;stroke-width:2.62757468;stroke-linecap:butt;stroke-linejoin:miter;stroke-miterlimit:4;stroke-opacity:1;stroke-dasharray:none;stroke-dashoffset:0;marker:none;visibility:visible;display:inline;overflow:visible;enable-background:accumulate"
    id="path3338"
    sodipodi:cx="93.944183"
    sodipodi:cy="119.66438"
    sodipodi:rx="33.335033"
    sodipodi:ry="33.335033"
    d="m 127.27922,119.66438 a 33.335033,33.335033 0 1 1 -66.67007,0 33.335033,33.335033 0 1 1 66.67007,0 z"
    transform="matrix(0.7611582,0,0,0.7611582,-26.908153,908.34536)" />
  <path
    style="fill:none;stroke:#000000;stroke-width:2;stroke-linecap:butt;stroke-linejoin:miter;stroke-miterlimit:4;stroke-opacity:1;stroke-dasharray:none"
    d="m 61.29732,914.65189 c 0,0 5.81609,-3.89426 9.05981,-5.12652 2.36338,-0.89783 7.06587,0.18167 7.18854,8.62957 0.18004,12.39847 0,38.24324 0,40.51764 0,1.64975 -0.90192,4.05079 -4.59563,4.05079 -19.88096,0 -50.140263,-0.0267 -50.140263,-0.0267 0,0 -5.204505,-0.0174 -5.204505,4.14385 0,5.43639 5.030796,4.52286 5.030796,4.52286 l 49.307583,0"
    id="path3340"
    inkscape:connector-curvature="0"
    sodipodi:nodetypes="csssscscc" />
  <path
    sodipodi:type="arc"
    style="color:#000000;fill:none;stroke:#000000;stroke-width:1;stroke-linecap:butt;stroke-linejoin:miter;stroke-miterlimit:4;stroke-opacity:1;stroke-dasharray:none;stroke-dashoffset:0;marker:none;visibility:visible;display:inline;overflow:visible;enable-background:accumulate"
    id="path3360"
    sodipodi:cx="95.35714"
    sodipodi:cy="75.098419"
    sodipodi:rx="32.5"
    sodipodi:ry="32.5"
    d="m 95.35714,107.59842 a 32.5,32.5 0 0 1 -32.5,-32.500002"
    transform="matrix(1.6987493,0,0,1.6987493,-92.609141,775.6717)"
    sodipodi:start="1.5707963"
    sodipodi:end="3.1415927"
    sodipodi:open="true" />
  <path
    style="fill:none;stroke:#000000;stroke-width:2;stroke-linecap:butt;stroke-linejoin:miter;stroke-miterlimit:4;stroke-opacity:1;stroke-dasharray:none"
    d="m 4.7227778,1028.2161 78.2533252,0"
    id="path4256"
    inkscape:connector-curvature="0"
    sodipodi:nodetypes="cc" />
  <path
    style="color:#000000;fill:#cccccc;fill-opacity:0.30666671;stroke:none;stroke-width:1.00014758;marker:none;visibility:visible;display:inline;overflow:visible;enable-background:accumulate"
    d="m 69.37873,958.45444 c -30.49128,0 -55.209348,-24.71807 -55.209348,-55.20935 l 0,-10e-6 47.172128,11.0532 z"
    id="path3055"
    inkscape:connector-curvature="0"
    sodipodi:nodetypes="csccc" />
  <path
    id="path3826"
    d="m 69.37873,958.45444 c -30.49128,0 -55.209348,-24.71807 -55.209348,-55.20935 l 0,-10e-6 28.610578,2.56792 16.48137,5.63785 z"
    style="color:#000000;fill:#c3c3c3;fill-opacity:0.27555554;stroke:none;stroke-width:1.00014758;marker:none;visibility:visible;display:inline;overflow:visible;enable-background:accumulate"
    inkscape:connector-curvature="0"
    sodipodi:nodetypes="cscccc" />
  <path
    style="fill:none;stroke:#000000;stroke-width:2;stroke-linecap:butt;stroke-linejoin:miter;stroke-miterlimit:4;stroke-opacity:1;stroke-dasharray:none;display:inline"
    d="m 28.153783,866.17402 c 0,0 0.256867,7.98902 0.267857,11.91758 4.254322,8.45373 26.72503,16.0121 26.14223,23.68119 -0.32384,2.97167 -7.65406,6.12066 -7.65406,6.12066"
    id="path3348"
    inkscape:connector-curvature="0"
    sodipodi:nodetypes="cccc" />
  <path
    inkscape:connector-curvature="0"
    id="path3350"
    d="m 15.524065,866.17402 c 0,0 0,6.99474 0,11.91758 4.184422,7.82802 34.665695,15.04405 34.823455,22.32636 -0.15949,2.21042 -7.71635,5.71045 -7.71635,5.71045"
    style="fill:none;stroke:#000000;stroke-width:2;stroke-linecap:butt;stroke-linejoin:miter;stroke-miterlimit:4;stroke-opacity:1;stroke-dasharray:none;display:inline"
    sodipodi:nodetypes="cccc" />
  <path
    style="fill:none;stroke:#000000;stroke-width:2;stroke-linecap:butt;stroke-linejoin:miter;stroke-miterlimit:4;stroke-opacity:1;stroke-dasharray:none;display:inline"
    d="m 41.14064,866.17402 c 0,0 -0.14561,8.00241 0.17857,11.91758 4.02655,9.64389 19.04175,17.73071 17.46103,25.03601 -0.53967,2.26409 -7.59179,5.99419 -7.59179,5.99419"
    id="path3352"
    inkscape:connector-curvature="0"
    sodipodi:nodetypes="cccc" />
  <path
    inkscape:connector-curvature="0"
    id="path3354"
    d="m 54.1275,866.17402 c 0,0 0.0893,8.17333 0.0893,11.91758 1.3236,5.80711 10.5092,22.75289 8.7798,26.39084 -1.52763,2.93327 -7.52951,5.8677 -7.52951,5.8677"
    style="fill:none;stroke:#000000;stroke-width:2;stroke-linecap:butt;stroke-linejoin:miter;stroke-miterlimit:4;stroke-opacity:1;stroke-dasharray:none;display:inline"
    sodipodi:nodetypes="cccc" />
  <path
    style="fill:none;stroke:#000000;stroke-width:2;stroke-linecap:butt;stroke-linejoin:miter;stroke-miterlimit:4;stroke-opacity:1;stroke-dasharray:none;display:inline"
    d="m 67.11437,866.17402 c 0,0 0,6.02142 0,11.91758 0.1765,5.36545 1.74178,25.79148 0.0986,27.74567 -2.07968,2.4733 -8.84221,5.74122 -8.84221,5.74122"
    id="path3356"
    inkscape:connector-curvature="0"
    sodipodi:nodetypes="ccsc" />
  <text
    xml:space="preserve"
    style="font-size:12px;font-style:normal;font-variant:normal;font-weight:normal;font-stretch:normal;line-height:125%;letter-spacing:0px;word-spacing:0px;fill:#000000;fill-opacity:1;stroke:none;font-family:Times New Roman;-inkscape-font-specification:'Times New Roman,'"
    x="21.213202"
    y="858.59393"
    id="text3969"
    sodipodi:linespacing="125%"><tspan
     sodipodi:role="line"
     id="tspan3971"
     x="21.213202"
     y="858.59393">outputs</tspan></text>
  <text
    xml:space="preserve"
    style="font-size:12px;font-style:normal;font-variant:normal;font-weight:normal;font-stretch:normal;line-height:125%;letter-spacing:0px;word-spacing:0px;fill:#000000;fill-opacity:1;stroke:none;font-family:Times New Roman;-inkscape-font-specification:'Times New Roman,'"
    x="3.9436507"
    y="1043.6967"
    id="text3981"
    sodipodi:linespacing="125%"><tspan
     sodipodi:role="line"
     id="tspan3983"
     x="3.9436507"
     y="1043.6967">input</tspan></text>
  <path
    style="fill:none;stroke:#000000;stroke-width:1px;stroke-linecap:butt;stroke-linejoin:miter;stroke-opacity:1;marker-end:url(#Arrow1Mend)"
    d="m 4.9436508,1032.4467 25.2500002,0"
    id="path3985"
    inkscape:connector-curvature="0"
    sodipodi:nodetypes="cc" />
  <path
    sodipodi:nodetypes="ccccccccccccccccccccccccc"
    inkscape:connector-curvature="0"
    id="use4849"
    d="m 153.865,882.94664 60.75,0 0,13.7 -60.75,0 0,13.7 60.75,0 0,13.7 -60.75,0 0,13.7 60.75,0 0,13.7 -60.75,0 0,13.7 60.75,0 0,13.7 -60.75,0 0,13.7 60.75,0 0,13.69996 -60.75,0 0,13.7 60.75,0 0,11.5001 -66.25,-0.5 0,-149.50006"
    style="fill:none;stroke:#ff0000;stroke-width:2;stroke-linecap:butt;stroke-linejoin:miter;stroke-miterlimit:4;stroke-opacity:1;stroke-dasharray:none" />
  <use
    x="0"
    y="0"
    xlink:href="#path3338"
    id="use4851"
    transform="translate(141.42135,3.8000053e-8)"
    width="283.46457"
    height="212.59842" />
  <use
    x="0"
    y="0"
    xlink:href="#path3340"
    id="use4853"
    transform="translate(141.42135,3.8000053e-8)"
    width="283.46457"
    height="212.59842" />
  <use
    x="0"
    y="0"
    xlink:href="#path3360"
    id="use4855"
    transform="translate(141.42135,3.8000053e-8)"
    width="283.46457"
    height="212.59842" />
  <use
    x="0"
    y="0"
    xlink:href="#path4256"
    id="use4857"
    transform="translate(141.42135,3.8000053e-8)"
    width="283.46457"
    height="212.59842" />
  <use
    x="0"
    y="0"
    xlink:href="#path3055"
    id="use4859"
    transform="translate(141.42135,3.8000053e-8)"
    width="283.46457"
    height="212.59842" />
  <use
    x="0"
    y="0"
    xlink:href="#path3826"
    id="use4861"
    transform="translate(141.42135,3.8000053e-8)"
    width="283.46457"
    height="212.59842" />
  <use
    x="0"
    y="0"
    xlink:href="#path3348"
    id="use4863"
    transform="translate(141.42135,3.8000053e-8)"
    width="283.46457"
    height="212.59842" />
  <use
    x="0"
    y="0"
    xlink:href="#path3350"
    id="use4865"
    transform="translate(141.42135,3.8000053e-8)"
    width="283.46457"
    height="212.59842" />
  <use
    x="0"
    y="0"
    xlink:href="#path3352"
    id="use4867"
    transform="translate(141.42135,3.8000053e-8)"
    width="283.46457"
    height="212.59842" />
  <use
    x="0"
    y="0"
    xlink:href="#path3354"
    id="use4869"
    transform="translate(141.42135,3.8000053e-8)"
    width="283.46457"
    height="212.59842" />
  <use
    x="0"
    y="0"
    xlink:href="#path3356"
    id="use4871"
    transform="translate(141.42135,3.8000053e-8)"
    width="283.46457"
    height="212.59842" />
  <use
    x="0"
    y="0"
    xlink:href="#text3981"
    id="use4873"
    transform="translate(141.42135,3.8000053e-8)"
    width="283.46457"
    height="212.59842" />
  <use
    x="0"
    y="0"
    xlink:href="#path3985"
    id="use4875"
    transform="translate(141.42135,3.8000053e-8)"
    width="283.46457"
    height="212.59842" />
  <g
    id="g4927"
    transform="translate(99.702055,3.5355339)">
   <path
     style="fill:none;stroke:#000000;stroke-width:1px;stroke-linecap:butt;stroke-linejoin:miter;stroke-opacity:1"
     d="m 127.63277,1003.2169 0,-37.12308 c 0,0 1.09237,-6.0988 6.01041,-6.01041 4.91804,0.0884 5.48008,5.48008 5.48008,5.48008 l 0,38.00701 c 0,0 4.0315,2.5698 3.94892,7.0771 -0.0899,4.909 -5.66022,7.2218 -9.69417,7.2444 -4.09564,0.023 -9.92428,-1.9997 -9.92428,-7.2444 0,-4.8099 4.17904,-7.4307 4.17904,-7.4307 z"
     id="path4905"
     inkscape:connector-curvature="0"
     sodipodi:nodetypes="cczccsasc" />
   <path
     sodipodi:nodetypes="cczccsasc"
     inkscape:connector-curvature="0"
     id="path4907"
     d="m 129.85338,1005.7369 0,-27.34426 c 0,0 0.66157,-3.69364 3.6401,-3.64011 2.97853,0.0535 3.31892,3.31892 3.31892,3.31892 l 0,27.87965 c 0,0 2.44161,1.5563 2.39159,4.2861 -0.0544,2.9731 -3.42801,4.3738 -5.87111,4.3875 -2.48045,0.014 -6.01047,-1.2111 -6.01047,-4.3875 0,-2.9131 2.53097,-4.5003 2.53097,-4.5003 z"
     style="fill:#ff0000;stroke:none" />
   <path
     style="fill:none;stroke:#000000;stroke-width:1px;stroke-linecap:butt;stroke-linejoin:miter;stroke-opacity:1"
     d="m 134.73175,968.03837 -4.59619,0 0,35.17853 5.3033,0"
     id="path4909"
     inkscape:connector-curvature="0"
     sodipodi:nodetypes="cccc" />
   <path
     style="fill:none;stroke:#000000;stroke-width:1px;stroke-linecap:butt;stroke-linejoin:miter;stroke-opacity:1"
     d="m 130.31233,999.30822 2.2981,0"
     id="path4911"
     inkscape:connector-curvature="0"
     sodipodi:nodetypes="cc" />
   <path
     style="fill:none;stroke:#000000;stroke-width:1px;stroke-linecap:butt;stroke-linejoin:miter;stroke-opacity:1"
     d="m 130.18733,991.49075 2.47488,0"
     id="path4913"
     inkscape:connector-curvature="0"
     sodipodi:nodetypes="cc" />
   <path
     style="fill:none;stroke:#000000;stroke-width:1px;stroke-linecap:butt;stroke-linejoin:miter;stroke-opacity:1"
     d="m 130.18733,987.58202 2.47488,0"
     id="path4915"
     inkscape:connector-curvature="0"
     sodipodi:nodetypes="cc" />
   <path
     style="fill:none;stroke:#000000;stroke-width:1px;stroke-linecap:butt;stroke-linejoin:miter;stroke-opacity:1"
     d="m 130.18733,983.67329 2.47488,0"
     id="path4917"
     inkscape:connector-curvature="0"
     sodipodi:nodetypes="cc" />
   <path
     style="fill:none;stroke:#000000;stroke-width:1px;stroke-linecap:butt;stroke-linejoin:miter;stroke-opacity:1"
     d="m 130.31233,979.76456 2.47488,0"
     id="path4919"
     inkscape:connector-curvature="0"
     sodipodi:nodetypes="cc" />
   <path
     style="fill:none;stroke:#000000;stroke-width:1px;stroke-linecap:butt;stroke-linejoin:miter;stroke-opacity:1"
     d="m 130.31233,975.85583 2.47488,0"
     id="path4921"
     inkscape:connector-curvature="0"
     sodipodi:nodetypes="cc" />
   <path
     style="fill:none;stroke:#000000;stroke-width:1px;stroke-linecap:butt;stroke-linejoin:miter;stroke-opacity:1"
     d="m 130.56233,971.9471 2.47488,0"
     id="path4923"
     inkscape:connector-curvature="0"
     sodipodi:nodetypes="cc" />
   <path
     inkscape:connector-curvature="0"
     id="path4925"
     d="m 130.31233,995.39948 2.2981,0"
     style="fill:none;stroke:#000000;stroke-width:1px;stroke-linecap:butt;stroke-linejoin:miter;stroke-opacity:1"
     sodipodi:nodetypes="cc" />
  </g>
  <g
    id="g4940"
    transform="translate(-15.556349,1.7677669)">
   <path
     sodipodi:nodetypes="cczccsasc"
     inkscape:connector-curvature="0"
     id="path4879"
     d="m 97.934288,1004.2776 0,-37.12312 c 0,0 1.09237,-6.0988 6.010412,-6.01041 4.91804,0.0884 5.48008,5.48008 5.48008,5.48008 l 0,38.00695 c 0,0 4.0315,2.5698 3.94892,7.0771 -0.0899,4.9091 -5.66022,7.2219 -9.69417,7.2445 -4.095642,0.023 -9.924282,-1.9997 -9.924282,-7.2445 0,-4.8099 4.17904,-7.4306 4.17904,-7.4306 z"
     style="fill:none;stroke:#000000;stroke-width:1px;stroke-linecap:butt;stroke-linejoin:miter;stroke-opacity:1" />
   <path
     style="fill:#0000ff;stroke:none"
     d="m 100.1549,1006.7976 0,-10.6389 c 0,0 0.66157,-3.69364 3.6401,-3.64011 2.97853,0.0535 3.31892,3.31892 3.31892,3.31892 l 0,11.17429 c 0,0 2.44161,1.5563 2.39159,4.2861 -0.0544,2.9731 -3.42801,4.3738 -5.87111,4.3875 -2.48045,0.014 -6.010472,-1.2111 -6.010472,-4.3875 0,-2.9131 2.530972,-4.5003 2.530972,-4.5003 z"
     id="path4881"
     inkscape:connector-curvature="0"
     sodipodi:nodetypes="cczccsasc" />
   <path
     sodipodi:nodetypes="cccc"
     inkscape:connector-curvature="0"
     id="path4883"
     d="m 105.03327,969.09903 -4.59619,0 0,35.17857 5.3033,0"
     style="fill:none;stroke:#000000;stroke-width:1px;stroke-linecap:butt;stroke-linejoin:miter;stroke-opacity:1" />
   <path
     sodipodi:nodetypes="cc"
     inkscape:connector-curvature="0"
     id="path4887"
     d="m 100.61385,1000.3689 2.2981,0"
     style="fill:none;stroke:#000000;stroke-width:1px;stroke-linecap:butt;stroke-linejoin:miter;stroke-opacity:1" />
   <path
     sodipodi:nodetypes="cc"
     inkscape:connector-curvature="0"
     id="path4893"
     d="m 100.48885,992.55141 2.47488,0"
     style="fill:none;stroke:#000000;stroke-width:1px;stroke-linecap:butt;stroke-linejoin:miter;stroke-opacity:1" />
   <path
     sodipodi:nodetypes="cc"
     inkscape:connector-curvature="0"
     id="path4895"
     d="m 100.48885,988.64268 2.47488,0"
     style="fill:none;stroke:#000000;stroke-width:1px;stroke-linecap:butt;stroke-linejoin:miter;stroke-opacity:1" />
   <path
     sodipodi:nodetypes="cc"
     inkscape:connector-curvature="0"
     id="path4897"
     d="m 100.48885,984.73395 2.47488,0"
     style="fill:none;stroke:#000000;stroke-width:1px;stroke-linecap:butt;stroke-linejoin:miter;stroke-opacity:1" />
   <path
     sodipodi:nodetypes="cc"
     inkscape:connector-curvature="0"
     id="path4899"
     d="m 100.61385,980.82522 2.47488,0"
     style="fill:none;stroke:#000000;stroke-width:1px;stroke-linecap:butt;stroke-linejoin:miter;stroke-opacity:1" />
   <path
     sodipodi:nodetypes="cc"
     inkscape:connector-curvature="0"
     id="path4901"
     d="m 100.61385,976.91649 2.47488,0"
     style="fill:none;stroke:#000000;stroke-width:1px;stroke-linecap:butt;stroke-linejoin:miter;stroke-opacity:1" />
   <path
     sodipodi:nodetypes="cc"
     inkscape:connector-curvature="0"
     id="path4903"
     d="m 100.86385,973.00776 2.47488,0"
     style="fill:none;stroke:#000000;stroke-width:1px;stroke-linecap:butt;stroke-linejoin:miter;stroke-opacity:1" />
   <path
     sodipodi:nodetypes="cc"
     style="fill:none;stroke:#000000;stroke-width:1px;stroke-linecap:butt;stroke-linejoin:miter;stroke-opacity:1"
     d="m 100.61385,996.46014 2.2981,0"
     id="path4891"
     inkscape:connector-curvature="0" />
  </g>
  <path
    style="fill:none;stroke:#0000ff;stroke-width:1px;stroke-linecap:butt;stroke-linejoin:miter;stroke-opacity:1"
    d="m 86.090249,905.0052 c 0,0 7.13261,-0.14482 11.13694,0 2.26732,0.082 3.731261,-0.38544 4.923881,-7.52081 0.88388,-5.28821 1.87252,-8.57932 2.534,-8.57932 0.71204,0 1.72549,3.85157 2.534,8.57932 0.78991,4.61896 1.56862,7.52081 3.4053,7.52081 5.25699,0 15.77097,0 15.77097,0"
    id="path4953"
    inkscape:connector-curvature="0"
    sodipodi:nodetypes="csssssc" />
  <rect
    style="fill:none;stroke:#000000;stroke-width:1px;stroke-linecap:butt;stroke-linejoin:miter;stroke-opacity:1"
    id="rect4961"
    width="40.658638"
    height="22.680717"
    x="85.913475"
    y="885.07678"
    ry="4.0459404"
    rx="4.0459404" />
  <text
    sodipodi:linespacing="125%"
    id="text4971"
    y="919.89636"
    x="100.08705"
    style="font-size:12px;font-style:normal;font-variant:normal;font-weight:normal;font-stretch:normal;line-height:125%;letter-spacing:0px;word-spacing:0px;fill:#000000;fill-opacity:1;stroke:none;font-family:Times New Roman;-inkscape-font-specification:'Times New Roman,'"
    xml:space="preserve"><tspan
     y="919.89636"
     x="100.08705"
     id="tspan4973"
     sodipodi:role="line">$\lambda$</tspan></text>
  <rect
    rx="4.0459404"
    ry="4.0459404"
    y="881.20178"
    x="82.913475"
    height="42.055717"
    width="47.533638"
    id="rect4975"
    style="fill:none;stroke:#000000;stroke-width:1px;stroke-linecap:butt;stroke-linejoin:miter;stroke-opacity:1" />
  <path
    sodipodi:nodetypes="csssssc"
    inkscape:connector-curvature="0"
    id="path4957"
    d="m 227.95483,905.6066 c 0,0 15.13261,-0.14483 19.13694,0 2.26732,0.082 3.73126,-0.38544 4.92388,-7.52081 0.88388,-5.28821 1.87252,-8.57932 2.534,-8.57932 0.71204,0 1.72549,3.85157 2.534,8.57932 0.78991,4.61896 1.56862,7.52081 3.4053,7.52081 5.25699,0 7.77097,0 7.77097,0"
    style="fill:none;stroke:#ff0000;stroke-width:1px;stroke-linecap:butt;stroke-linejoin:miter;stroke-opacity:1" />
  <path
    sodipodi:nodetypes="csssssc"
    inkscape:connector-curvature="0"
    id="path4959"
    d="m 227.95483,905.6066 c 0,0 7.13261,-0.14483 11.13694,0 2.26732,0.082 3.73126,-0.38544 4.92388,-7.52081 0.88388,-5.28821 1.87252,-8.57932 2.534,-8.57932 0.71204,0 1.72549,3.85157 2.534,8.57932 0.78991,4.61896 1.56862,7.52081 3.4053,7.52081 5.25699,0 15.77097,0 15.77097,0"
    style="fill:none;stroke:#0000ff;stroke-width:1;stroke-linecap:butt;stroke-linejoin:miter;stroke-miterlimit:4;stroke-opacity:1;stroke-dasharray:1, 1;stroke-dashoffset:0" />
  <rect
    rx="4.0459404"
    ry="4.0459404"
    y="885.59851"
    x="227.69595"
    height="22.680717"
    width="40.658638"
    id="rect4963"
    style="fill:none;stroke:#000000;stroke-width:1px;stroke-linecap:butt;stroke-linejoin:miter;stroke-opacity:1" />
  <text
    xml:space="preserve"
    style="font-size:12px;font-style:normal;font-variant:normal;font-weight:normal;font-stretch:normal;line-height:125%;letter-spacing:0px;word-spacing:0px;fill:#000000;fill-opacity:1;stroke:none;font-family:Times New Roman;-inkscape-font-specification:'Times New Roman,'"
    x="241.40938"
    y="920.7196"
    id="text4967"
    sodipodi:linespacing="125%"><tspan
     sodipodi:role="line"
     id="tspan4969"
     x="241.40938"
     y="920.7196">$\lambda$</tspan></text>
  <rect
    style="fill:none;stroke:#000000;stroke-width:1px;stroke-linecap:butt;stroke-linejoin:miter;stroke-opacity:1"
    id="rect4977"
    width="47.533638"
    height="42.055717"
    x="224.08168"
    y="881.99469"
    ry="4.0459404"
    rx="4.0459404" />
  <path
    style="fill:none;stroke:#000000;stroke-width:1px;stroke-linecap:butt;stroke-linejoin:miter;stroke-opacity:1;marker-mid:none;marker-end:url(#Arrow1Mend)"
    d="m 67.940309,864.35883 c 0,0 9.909755,-10.86253 16.705398,-9.63433 5.163697,0.93325 9.141173,4.02684 12.358055,10.24588 3.216878,6.21904 5.142838,12.20476 5.142838,12.20476"
    id="path4994"
    inkscape:connector-curvature="0"
    sodipodi:nodetypes="cssc" />
  <path
    sodipodi:nodetypes="cssc"
    inkscape:connector-curvature="0"
    id="path6654"
    d="m 208.65456,864.71238 c 0,0 9.90975,-10.86253 16.7054,-9.63433 5.16369,0.93325 9.14117,4.02684 12.35805,10.24588 3.21688,6.21904 5.14284,12.20476 5.14284,12.20476"
    style="fill:none;stroke:#000000;stroke-width:1px;stroke-linecap:butt;stroke-linejoin:miter;stroke-opacity:1;marker-mid:none;marker-end:url(#Arrow1Mend)" />
  <text
    sodipodi:linespacing="125%"
    id="text6662"
    y="859.09393"
    x="159.7132"
    style="font-size:12px;font-style:normal;font-variant:normal;font-weight:normal;font-stretch:normal;line-height:125%;letter-spacing:0px;word-spacing:0px;fill:#000000;fill-opacity:1;stroke:none;font-family:Times New Roman;-inkscape-font-specification:'Times New Roman,'"
    xml:space="preserve"><tspan
     y="859.09393"
     x="159.7132"
     id="tspan6664"
     sodipodi:role="line">outputs</tspan></text>
 </g>
 <g
   inkscape:groupmode="layer"
   id="layer4"
   inkscape:label="2"
   transform="translate(0,-2.9248047e-5)" />
</svg>
