<?xml version="1.0" encoding="UTF-8" standalone="no"?>
<!-- Created with Inkscape (http://www.inkscape.org/) -->

<svg
  xmlns:dc="http://purl.org/dc/elements/1.1/"
  xmlns:cc="http://creativecommons.org/ns#"
  xmlns:rdf="http://www.w3.org/1999/02/22-rdf-syntax-ns#"
  xmlns:svg="http://www.w3.org/2000/svg"
  xmlns="http://www.w3.org/2000/svg"
  xmlns:xlink="http://www.w3.org/1999/xlink"
  xmlns:sodipodi="http://sodipodi.sourceforge.net/DTD/sodipodi-0.dtd"
  xmlns:inkscape="http://www.inkscape.org/namespaces/inkscape"
  id="svg2"
  version="1.1"
  inkscape:version="0.48.0 r9654"
  width="275.24765"
  height="212.59842"
  xml:space="preserve"
  sodipodi:docname="silicon_electrorefraction.pdf"
  inkscape:dataloss="true"><metadata
   id="metadata8"><rdf:RDF><cc:Work
     rdf:about=""><dc:format>image/svg+xml</dc:format><dc:type
      rdf:resource="http://purl.org/dc/dcmitype/StillImage" /><dc:title></dc:title></cc:Work></rdf:RDF></metadata><defs
   id="defs6"><clipPath
    clipPathUnits="userSpaceOnUse"
    id="clipPath18"><path
     d="M 0,0 608,0 608,788 0,788 0,0 z"
     id="path20"
     inkscape:connector-curvature="0" /></clipPath></defs><sodipodi:namedview
   pagecolor="#ffffff"
   bordercolor="#666666"
   borderopacity="1"
   objecttolerance="10"
   gridtolerance="10"
   guidetolerance="10"
   inkscape:pageopacity="0"
   inkscape:pageshadow="2"
   inkscape:window-width="1157"
   inkscape:window-height="639"
   id="namedview4"
   showgrid="false"
   inkscape:zoom="2"
   inkscape:cx="180.73515"
   inkscape:cy="99.946252"
   inkscape:window-x="56"
   inkscape:window-y="17"
   inkscape:window-maximized="0"
   inkscape:current-layer="g10"
   units="cm" /><g
   id="g10"
   inkscape:groupmode="layer"
   inkscape:label="pasted1"
   transform="matrix(1.25,0,0,-1.25,-101.95021,615.13069)"><g
    id="g12" /><path
    style="fill:none;stroke:#000000;stroke-width:0.80000001px;stroke-linecap:butt;stroke-linejoin:miter;stroke-opacity:1"
    d="m 117.07864,407.64046 183.32861,0"
    id="path3003"
    inkscape:connector-curvature="0"
    sodipodi:nodetypes="cc" /><path
    style="fill:none;stroke:#000000;stroke-width:0.80000001px;stroke-linecap:butt;stroke-linejoin:miter;stroke-opacity:1"
    d="m 116.99538,388.17397 1.92102,-3.55388 1.53681,-3.64994 1.34472,-3.84204 0.7684,-2.49732 0.28816,-1.72892 1.05656,-3.64993 1.44076,-4.1302 0.76841,-3.55388 0.1921,-2.59337 0.67235,-2.49733 0.0961,-5.18674 0.3842,-3.84204 0.57631,-1.92102 0.86445,-1.05656 0.57631,-0.76841 0.3842,3.26573 0,6.05121 0.38421,1.63287 -0.28816,4.89859 0.28816,3.74599 0.48025,3.64993 0.38421,11.71822 1.92101,16.23261 0.28816,5.95516 0,8.45248 0.1226,8.24445 0.74717,14.18078 0.77371,7.68407 c 0,0 0.27753,6.294 0.27753,7.0624 0,0.76841 0.86446,3.55389 0.86446,3.55389 l 0.48026,2.20917 0.5763,3.93809 1.05656,-4.22624 -0.096,-2.49733 0.28816,-2.59337 1.44076,-3.26573 0.86446,-3.55389 0.5763,-2.49732 0.48026,-2.59338 1.15261,-1.44076 0.96051,1.34471 0.48025,1.34471 1.44077,-2.30522 0.5763,-0.3842 0.76841,-0.1921 c 0,0 0.76841,-0.57631 0.76841,-0.96051 0,-0.38421 0.096,-0.76841 0.096,-0.76841 l 0.3842,-2.11312 0.67236,-0.28815 1.24866,3.16968 1.53682,-0.28816 1.44076,-0.3842 0.3842,-1.53681 0.67236,-1.15262 0.1921,-1.34471 1.53682,0.3842 c 0,0 0.96051,-1.05656 1.05656,-1.44076 0.096,-0.3842 0.1921,-0.76841 0.1921,-0.76841 l 2.20917,-0.5763 0.28815,-0.96051 0.57631,-2.11312 c 0,0 0.67235,-1.63287 0.76841,-2.01707 0.0961,-0.3842 1.24866,-4.03414 1.24866,-4.03414 l 0.1921,-1.34471 0.28815,-1.15262 c 0,0 1.63287,2.01708 1.53682,2.40128 -0.0961,0.3842 0.96051,3.93809 0.96051,3.93809 l 0.86445,2.11312 0.86447,3.36178 1.72891,3.16968 0.28815,1.63287 3.74599,-2.30523 2.49732,-1.92101 3.84204,-2.78548 3.07363,-1.53682 4.32229,-1.92101 2.88153,-0.57631 7.58802,-1.44076 7.10777,-0.96051 5.0907,-0.57631 9.98929,-1.05656 16.52076,-1.05656 24.20484,-0.67235 14.40764,-0.28816 7.20382,-0.3842 9.22089,-0.48026 9.32624,-0.2"
    id="path3100"
    inkscape:connector-curvature="0"
    sodipodi:nodetypes="cccccccccccccccccccccccccccccsccccccccccccccccsccccccccccsccccscccsccccccccccccccccccccc" /><path
    style="fill:none;stroke:#00ff00;stroke-width:0.80000001px;stroke-linecap:butt;stroke-linejoin:miter;stroke-opacity:1"
    d="m 117.04936,393.02256 1.56212,-0.54334 1.42628,-2.44506 1.76588,-4.00718 1.96963,-5.02596 1.76587,-4.00717 1.0867,-5.09387 1.22252,-4.75428 1.22253,-6.92766 0.33959,-3.53175 0.94528,-2.96606 0.14142,11.45584 0.41867,11.14418 1.75471,16.63439 0.47543,12.08945 0.13584,2.92049 -0.0679,7.53892 c 0,0 0.20375,5.70514 0.33959,6.45224 0.13583,0.7471 1.15461,8.82937 1.15461,8.82937 l 0.40751,3.39592 0.13583,3.93926 1.76588,1.90171 0.54334,-3.59967 0.81502,-3.59967 0.7471,-1.83379 1.22253,-0.20376 0.27168,-1.90171 0.67918,-2.58089 1.22253,-0.47543 1.90171,2.9884 1.56212,-2.10546 1.29045,0 1.29044,-2.78465 1.56212,2.85257 1.15461,-0.3396 1.76588,-0.47542 1.35836,-2.92049 1.8338,0.27167 0.88293,-2.10546 1.56212,-0.54335 0.47543,-0.20375 0.81502,-2.64881 c 0,0 0.88294,-2.10547 0.95086,-2.44506 0.0679,-0.33959 1.4942,-2.58089 1.4942,-2.58089 l 0.67918,-2.03756 5.84097,13.58366 0.81502,0.27167 3.93926,-2.51297 5.02595,-3.46384 6.58807,-1.96962 5.5693,-1.15462 4.89012,-0.61126 6.85974,-0.88294 8.96521,-0.47543 16.30039,-0.95085 10.0519,-0.47543 7.33517,-0.13584 38.98509,-0.74709 15.91981,-0.27168"
    id="path3102"
    inkscape:connector-curvature="0"
    sodipodi:nodetypes="cccccccccccccccccsccccccccccccccccccccccccscccccccccccccccc" /><path
    style="fill:none;stroke:#ff0000;stroke-width:0.80000001px;stroke-linecap:butt;stroke-linejoin:miter;stroke-opacity:1"
    d="m 116.98144,402.4632 1.90171,-0.47543 2.03755,-1.15461 1.29045,-1.56212 c 0,0 1.35836,-1.83379 1.35836,-2.10546 0,-0.27168 1.0867,-1.42629 1.0867,-1.42629 l 1.01877,0.20376 0.95086,2.03754 1.22252,-0.88293 1.0867,-2.51298 0.47542,-5.16179 0.61127,-7.47101 0.54334,-3.93926 1.74913,3.29359 0.28842,11.24092 0.81502,7.87852 0.47543,31.9895 1.08669,-3.66758 0.47543,-5.77306 1.4942,0.33959 1.29045,-2.51297 1.69795,0.7471 3.05633,-2.85257 1.63003,0.67919 1.8338,-1.0867 1.22253,-0.47542 3.32799,-2.71673 2.92049,-1.56213 4.41468,-1.35836 5.97681,-0.67918 6.04473,-0.61127 5.36554,-0.33959 8.69354,-0.61126 13.99116,-0.20375 42.99226,-0.27168 15.34953,-0.47543 12.83654,-0.27167 30.65809,-0.1"
    id="path3104"
    inkscape:connector-curvature="0"
    sodipodi:nodetypes="ccccsccccccccccccccccccccccccccccccccc" /><path
    style="fill:none;stroke:#000000;stroke-width:0.80000001px;stroke-linecap:butt;stroke-linejoin:miter;stroke-opacity:1"
    d="m 145.50711,410.45907 0,-5.63722"
    id="path3106"
    inkscape:connector-curvature="0" /><path
    style="fill:none;stroke:#000000;stroke-width:0.80000001px;stroke-linecap:butt;stroke-linejoin:miter;stroke-opacity:1"
    d="m 174.68479,410.45907 0,-5.63722"
    id="path3110"
    inkscape:connector-curvature="0" /><path
    style="fill:none;stroke:#000000;stroke-width:0.80000001px;stroke-linecap:butt;stroke-linejoin:miter;stroke-opacity:1"
    d="m 203.86248,410.45907 0,-5.63722"
    id="path3112"
    inkscape:connector-curvature="0" /><path
    style="fill:none;stroke:#000000;stroke-width:0.80000001px;stroke-linecap:butt;stroke-linejoin:miter;stroke-opacity:1"
    d="m 233.04016,410.45907 0,-5.63722"
    id="path3114"
    inkscape:connector-curvature="0" /><path
    style="fill:none;stroke:#000000;stroke-width:0.80000001px;stroke-linecap:butt;stroke-linejoin:miter;stroke-opacity:1"
    d="m 262.21784,410.45907 0,-5.63722"
    id="path3116"
    inkscape:connector-curvature="0" /><path
    style="fill:none;stroke:#000000;stroke-width:0.80000001px;stroke-linecap:butt;stroke-linejoin:miter;stroke-opacity:1"
    d="m 291.39554,410.45907 0,-5.63722"
    id="path3118"
    inkscape:connector-curvature="0" /><path
    style="fill:none;stroke:#000000;stroke-width:0.80000001px;stroke-linecap:butt;stroke-linejoin:miter;stroke-opacity:1"
    d="m 122.65261,426.73003 -5.63721,0"
    id="path3122"
    inkscape:connector-curvature="0" /><path
    style="fill:none;stroke:#000000;stroke-width:0.80000001px;stroke-linecap:butt;stroke-linejoin:miter;stroke-opacity:1"
    d="m 122.65261,445.74714 -5.63721,0"
    id="path3124"
    inkscape:connector-curvature="0" /><path
    style="fill:none;stroke:#000000;stroke-width:0.80000001px;stroke-linecap:butt;stroke-linejoin:miter;stroke-opacity:1"
    d="m 122.65261,464.76425 -5.63721,0"
    id="path3126"
    inkscape:connector-curvature="0" /><path
    style="fill:none;stroke:#000000;stroke-width:0.80000001px;stroke-linecap:butt;stroke-linejoin:miter;stroke-opacity:1"
    d="m 122.65261,388.69579 -5.63721,0"
    id="path3128"
    inkscape:connector-curvature="0" /><path
    style="fill:none;stroke:#000000;stroke-width:0.80000001px;stroke-linecap:butt;stroke-linejoin:miter;stroke-opacity:1"
    d="m 122.65261,369.67868 -5.63721,0"
    id="path3130"
    inkscape:connector-curvature="0" /><path
    style="fill:none;stroke:#000000;stroke-width:0.80000001px;stroke-linecap:butt;stroke-linejoin:miter;stroke-opacity:1"
    d="m 122.65261,350.66157 -5.63721,0"
    id="path3132"
    inkscape:connector-curvature="0" /><path
    inkscape:connector-curvature="0"
    id="path3134"
    d="m 122.26841,407.71291 -5.63721,0"
    style="fill:none;stroke:#000000;stroke-width:0.80000001px;stroke-linecap:butt;stroke-linejoin:miter;stroke-opacity:1" /><text
    xml:space="preserve"
    style="font-size:9.60000038px;font-style:normal;font-variant:normal;font-weight:normal;font-stretch:normal;line-height:125%;letter-spacing:0px;word-spacing:0px;fill:#000000;fill-opacity:1;stroke:none;font-family:Times New Roman;-inkscape-font-specification:'Times New Roman,'"
    x="138.6002"
    y="-395.0777"
    id="text3136"
    sodipodi:linespacing="125%"
    transform="scale(1,-1)"><tspan
     sodipodi:role="line"
     id="tspan3138"
     x="138.6002"
     y="-395.0777">1.1</tspan></text>
<text
    transform="scale(1,-1)"
    sodipodi:linespacing="125%"
    id="text3140"
    y="-395.0777"
    x="167.46858"
    style="font-size:9.60000038px;font-style:normal;font-variant:normal;font-weight:normal;font-stretch:normal;line-height:125%;letter-spacing:0px;word-spacing:0px;fill:#000000;fill-opacity:1;stroke:none;font-family:Times New Roman;-inkscape-font-specification:'Times New Roman,'"
    xml:space="preserve"><tspan
     y="-395.0777"
     x="167.46858"
     id="tspan3142"
     sodipodi:role="line">1.2</tspan></text>
<text
    xml:space="preserve"
    style="font-size:9.60000038px;font-style:normal;font-variant:normal;font-weight:normal;font-stretch:normal;line-height:125%;letter-spacing:0px;word-spacing:0px;fill:#000000;fill-opacity:1;stroke:none;font-family:Times New Roman;-inkscape-font-specification:'Times New Roman,'"
    x="196.92288"
    y="-395.0777"
    id="text3144"
    sodipodi:linespacing="125%"
    transform="scale(1,-1)"><tspan
     sodipodi:role="line"
     id="tspan3146"
     x="196.92288"
     y="-395.0777">1.3</tspan></text>
<text
    xml:space="preserve"
    style="font-size:9.60000038px;font-style:normal;font-variant:normal;font-weight:normal;font-stretch:normal;line-height:125%;letter-spacing:0px;word-spacing:0px;fill:#000000;fill-opacity:1;stroke:none;font-family:Times New Roman;-inkscape-font-specification:'Times New Roman,'"
    x="225.94594"
    y="-395.0777"
    id="text3148"
    sodipodi:linespacing="125%"
    transform="scale(1,-1)"><tspan
     sodipodi:role="line"
     id="tspan3150"
     x="225.94594"
     y="-395.0777">1.4</tspan></text>
<text
    xml:space="preserve"
    style="font-size:9.60000038px;font-style:normal;font-variant:normal;font-weight:normal;font-stretch:normal;line-height:125%;letter-spacing:0px;word-spacing:0px;fill:#000000;fill-opacity:1;stroke:none;font-family:Times New Roman;-inkscape-font-specification:'Times New Roman,'"
    x="255.35106"
    y="-395.0777"
    id="text3152"
    sodipodi:linespacing="125%"
    transform="scale(1,-1)"><tspan
     sodipodi:role="line"
     id="tspan3154"
     x="255.35106"
     y="-395.0777">1.5</tspan></text>
<text
    xml:space="preserve"
    style="font-size:9.60000038px;font-style:normal;font-variant:normal;font-weight:normal;font-stretch:normal;line-height:125%;letter-spacing:0px;word-spacing:0px;fill:#000000;fill-opacity:1;stroke:none;font-family:Times New Roman;-inkscape-font-specification:'Times New Roman,'"
    x="284.47491"
    y="-395.0777"
    id="text3156"
    sodipodi:linespacing="125%"
    transform="scale(1,-1)"><tspan
     sodipodi:role="line"
     id="tspan3158"
     x="284.47491"
     y="-395.0777">1.6</tspan></text>
<rect
    style="fill:none;stroke:#000000;stroke-width:0.80000001px;stroke-linecap:butt;stroke-linejoin:miter;stroke-opacity:1"
    id="rect3001"
    width="183.52068"
    height="152.91098"
    x="116.95483"
    y="-484.01941"
    transform="scale(1,-1)"
    ry="0" /><text
    transform="scale(1,-1)"
    sodipodi:linespacing="125%"
    id="text3164"
    y="-480.82416"
    x="97.412521"
    style="font-size:9.60000038px;font-style:normal;font-variant:normal;font-weight:normal;font-stretch:normal;line-height:125%;letter-spacing:0px;word-spacing:0px;fill:#000000;fill-opacity:1;stroke:none;font-family:Times New Roman;-inkscape-font-specification:'Times New Roman,'"
    xml:space="preserve"><tspan
     y="-480.82416"
     x="97.412521"
     id="tspan3166"
     sodipodi:role="line">2.0</tspan></text>
<text
    transform="scale(1,-1)"
    sodipodi:linespacing="125%"
    id="text3168"
    y="-461.72415"
    x="97.703148"
    style="font-size:9.60000038px;font-style:normal;font-variant:normal;font-weight:normal;font-stretch:normal;line-height:125%;letter-spacing:0px;word-spacing:0px;fill:#000000;fill-opacity:1;stroke:none;font-family:Times New Roman;-inkscape-font-specification:'Times New Roman,'"
    xml:space="preserve"><tspan
     y="-461.72415"
     x="97.703148"
     id="tspan3170"
     sodipodi:role="line">1.5</tspan></text>
<text
    transform="scale(1,-1)"
    sodipodi:linespacing="125%"
    id="text3172"
    y="-442.62415"
    x="97.412521"
    style="font-size:9.60000038px;font-style:normal;font-variant:normal;font-weight:normal;font-stretch:normal;line-height:125%;letter-spacing:0px;word-spacing:0px;fill:#000000;fill-opacity:1;stroke:none;font-family:Times New Roman;-inkscape-font-specification:'Times New Roman,'"
    xml:space="preserve"><tspan
     y="-442.62415"
     x="97.412521"
     id="tspan3174"
     sodipodi:role="line">1.0</tspan></text>
<text
    transform="scale(1,-1)"
    sodipodi:linespacing="125%"
    id="text3176"
    y="-423.52417"
    x="97.703148"
    style="font-size:9.60000038px;font-style:normal;font-variant:normal;font-weight:normal;font-stretch:normal;line-height:125%;letter-spacing:0px;word-spacing:0px;fill:#000000;fill-opacity:1;stroke:none;font-family:Times New Roman;-inkscape-font-specification:'Times New Roman,'"
    xml:space="preserve"><tspan
     y="-423.52417"
     x="97.703148"
     id="tspan3178"
     sodipodi:role="line">0.5</tspan></text>
<text
    transform="scale(1,-1)"
    sodipodi:linespacing="125%"
    id="text3180"
    y="-404.42416"
    x="97.412521"
    style="font-size:9.60000038px;font-style:normal;font-variant:normal;font-weight:normal;font-stretch:normal;line-height:125%;letter-spacing:0px;word-spacing:0px;fill:#000000;fill-opacity:1;stroke:none;font-family:Times New Roman;-inkscape-font-specification:'Times New Roman,'"
    xml:space="preserve"><tspan
     y="-404.42416"
     x="97.412521"
     id="tspan3182"
     sodipodi:role="line">0.0</tspan></text>
<text
    transform="scale(1,-1)"
    sodipodi:linespacing="125%"
    id="text3184"
    y="-385.32416"
    x="94.496895"
    style="font-size:9.60000038px;font-style:normal;font-variant:normal;font-weight:normal;font-stretch:normal;line-height:125%;letter-spacing:0px;word-spacing:0px;fill:#000000;fill-opacity:1;stroke:none;font-family:Times New Roman;-inkscape-font-specification:'Times New Roman,'"
    xml:space="preserve"><tspan
     y="-385.32416"
     x="94.496895"
     id="tspan3186"
     sodipodi:role="line">-0.5</tspan></text>
<text
    transform="scale(1,-1)"
    sodipodi:linespacing="125%"
    id="text3188"
    y="-366.22418"
    x="94.206268"
    style="font-size:9.60000038px;font-style:normal;font-variant:normal;font-weight:normal;font-stretch:normal;line-height:125%;letter-spacing:0px;word-spacing:0px;fill:#000000;fill-opacity:1;stroke:none;font-family:Times New Roman;-inkscape-font-specification:'Times New Roman,'"
    xml:space="preserve"><tspan
     y="-366.22418"
     x="94.206268"
     id="tspan3190"
     sodipodi:role="line">-1.0</tspan></text>
<text
    transform="scale(1,-1)"
    sodipodi:linespacing="125%"
    id="text3192"
    y="-347.12418"
    x="94.496895"
    style="font-size:9.60000038px;font-style:normal;font-variant:normal;font-weight:normal;font-stretch:normal;line-height:125%;letter-spacing:0px;word-spacing:0px;fill:#000000;fill-opacity:1;stroke:none;font-family:Times New Roman;-inkscape-font-specification:'Times New Roman,'"
    xml:space="preserve"><tspan
     y="-347.12418"
     x="94.496895"
     id="tspan3194"
     sodipodi:role="line">-1.5</tspan></text>
<text
    transform="scale(1,-1)"
    sodipodi:linespacing="125%"
    id="text3196"
    y="-328.02417"
    x="94.206268"
    style="font-size:9.60000038px;font-style:normal;font-variant:normal;font-weight:normal;font-stretch:normal;line-height:125%;letter-spacing:0px;word-spacing:0px;fill:#000000;fill-opacity:1;stroke:none;font-family:Times New Roman;-inkscape-font-specification:'Times New Roman,'"
    xml:space="preserve"><tspan
     y="-328.02417"
     x="94.206268"
     id="tspan3198"
     sodipodi:role="line">-2.0</tspan></text>
<text
    xml:space="preserve"
    style="font-size:9.60000038px;font-style:normal;font-variant:normal;font-weight:normal;font-stretch:normal;line-height:125%;letter-spacing:0px;word-spacing:0px;fill:#000000;fill-opacity:1;stroke:none;font-family:Times New Roman;-inkscape-font-specification:'Times New Roman,'"
    x="170.27487"
    y="-380.87769"
    id="text3200"
    sodipodi:linespacing="125%"
    transform="scale(1,-1)"><tspan
     sodipodi:role="line"
     id="tspan3202"
     x="170.27487"
     y="-380.87769">Wavelength ($\mu$)</tspan></text>
<text
    xml:space="preserve"
    style="font-size:9.60000038px;font-style:normal;font-variant:normal;font-weight:normal;font-stretch:normal;line-height:125%;letter-spacing:0px;word-spacing:0px;fill:#000000;fill-opacity:1;stroke:none;font-family:Times New Roman;-inkscape-font-specification:'Times New Roman,'"
    x="389.0488"
    y="90.263161"
    id="text3204"
    sodipodi:linespacing="125%"
    transform="matrix(0,1,1,0,0,0)"><tspan
     sodipodi:role="line"
     id="tspan3206"
     x="389.0488"
     y="90.263161">$\Delta n\times10^5$</tspan></text>
<text
    xml:space="preserve"
    style="font-size:9.60000038px;font-style:normal;font-variant:normal;font-weight:normal;font-stretch:normal;line-height:125%;letter-spacing:0px;word-spacing:0px;fill:#000000;fill-opacity:1;stroke:none;font-family:Times New Roman;-inkscape-font-specification:'Times New Roman,'"
    x="262.71909"
    y="-445.43161"
    id="text3208"
    sodipodi:linespacing="125%"
    transform="scale(1,-1)"><tspan
     sodipodi:role="line"
     id="tspan3210"
     x="262.71909"
     y="-445.43161">100</tspan></text>
<text
    xml:space="preserve"
    style="font-size:9.60000038px;font-style:normal;font-variant:normal;font-weight:normal;font-stretch:normal;line-height:125%;letter-spacing:0px;word-spacing:0px;fill:#000000;fill-opacity:1;stroke:none;font-family:Times New Roman;-inkscape-font-specification:'Times New Roman,'"
    x="267.80972"
    y="-435.2941"
    id="text3212"
    sodipodi:linespacing="125%"
    transform="scale(1,-1)"><tspan
     sodipodi:role="line"
     id="tspan3214"
     x="267.80972"
     y="-435.2941">85</tspan></text>
<text
    xml:space="preserve"
    style="font-size:9.60000038px;font-style:normal;font-variant:normal;font-weight:normal;font-stretch:normal;line-height:125%;letter-spacing:0px;word-spacing:0px;fill:#000000;fill-opacity:1;stroke:none;font-family:Times New Roman;-inkscape-font-specification:'Times New Roman,'"
    x="267.80972"
    y="-425.2316"
    id="text3216"
    sodipodi:linespacing="125%"
    transform="scale(1,-1)"><tspan
     sodipodi:role="line"
     id="tspan3218"
     x="267.80972"
     y="-425.2316">75</tspan></text>
<path
    sodipodi:nodetypes="cc"
    style="fill:none;stroke:#000000;stroke-width:1.00109673px;stroke-linecap:butt;stroke-linejoin:miter;stroke-opacity:1"
    d="m 257.76733,448.6191 -16.35698,0"
    id="path3222"
    inkscape:connector-curvature="0" /><path
    sodipodi:nodetypes="cc"
    style="fill:none;stroke:#00ff00;stroke-width:1.00109673px;stroke-linecap:butt;stroke-linejoin:miter;stroke-opacity:1"
    d="m 257.76733,438.4816 -16.35698,0"
    id="path3224"
    inkscape:connector-curvature="0" /><path
    inkscape:connector-curvature="0"
    id="path3220"
    d="m 257.76733,428.3441 -16.35698,0"
    style="fill:none;stroke:#ff0000;stroke-width:1.00109673px;stroke-linecap:butt;stroke-linejoin:miter;stroke-opacity:1"
    sodipodi:nodetypes="cc" /><text
    xml:space="preserve"
    style="font-size:9.60000038px;font-style:normal;font-variant:normal;font-weight:normal;font-stretch:normal;line-height:125%;letter-spacing:0px;word-spacing:0px;fill:#000000;fill-opacity:1;stroke:none;font-family:Times New Roman;-inkscape-font-specification:'Times New Roman,'"
    x="226.4256"
    y="-469.11569"
    id="text3226"
    sodipodi:linespacing="125%"
    transform="scale(1,-1)"><tspan
     sodipodi:role="line"
     x="226.4256"
     y="-469.11569"
     id="tspan3230">Electric field</tspan></text>
<text
    xml:space="preserve"
    style="font-size:9.60000038px;font-style:normal;font-variant:normal;font-weight:normal;font-stretch:normal;line-height:125%;letter-spacing:0px;word-spacing:0px;fill:#000000;fill-opacity:1;stroke:none;font-family:Times New Roman;-inkscape-font-specification:'Times New Roman,'"
    x="242.15256"
    y="-457.68484"
    id="text3236"
    sodipodi:linespacing="125%"
    transform="scale(1,-1)"><tspan
     sodipodi:role="line"
     id="tspan3238"
     x="242.15256"
     y="-457.68484">(kV/cm)</tspan></text>
<rect
    ry="0"
    transform="scale(1,-1)"
    y="-479.84271"
    x="222.9281"
    height="59.1008"
    width="72.852234"
    id="rect3240"
    style="fill:none;stroke:#000000;stroke-width:0.80000001px;stroke-linecap:butt;stroke-linejoin:miter;stroke-opacity:1" /><image
    y="-633.82703"
    x="338.83069"
    id="image4046"
    xlink:href="file:///Users/bernardo/Desktop/Screen%20shot%202010-12-21%20at%2010.53.31%20AM.png"
    height="388.79999"
    width="336"
    transform="matrix(0.99996744,-0.00806955,-0.00806955,-0.99996744,0,0)" /><rect
    style="fill:none;stroke:#000000;stroke-width:0.80000001px;stroke-linecap:butt;stroke-linejoin:miter;stroke-opacity:1"
    id="rect4049"
    width="238.71924"
    height="330.36029"
    x="422.10278"
    y="-612.78815"
    transform="scale(1,-1)" /><path
    style="fill:none;stroke:#ff00ff;stroke-width:1px;stroke-linecap:butt;stroke-linejoin:miter;stroke-opacity:1"
    d="m 425.94345,234.07679 c 0,0 11.99193,-3.32911 17.4125,-6.27557 3.25132,-1.76732 6.01832,-4.32187 8.83884,-6.71752 2.35091,-1.99678 4.84304,-3.91442 6.71751,-6.36396 2.11491,-2.76374 3.39247,-6.08016 4.94975,-9.19239 2.38307,-4.76257 4.59269,-9.61243 6.71751,-14.49569 1.3709,-3.15059 2.72746,-6.31234 3.88909,-9.54594 0.6679,-1.85922 0.89639,-3.88387 1.76777,-5.65685 0.63452,-1.29106 1.17239,-2.9248 2.47487,-3.53554 1.28487,-0.60249 3.02035,-0.36748 4.24264,0.35356 1.82992,1.07949 2.71259,3.34456 3.53554,5.3033 0.88634,2.10962 0.83741,4.50315 1.41421,6.71751 2.39597,9.19818 4.80096,18.46159 8.48528,27.22361 0.67447,1.60402 1.06453,3.57702 2.47487,4.5962 1.64893,1.1916 3.99105,1.30779 6.01041,1.06066 2.30421,-0.28199 4.4504,-1.5142 6.36396,-2.82843 4.80848,-3.30246 8.1888,-8.31127 12.37437,-12.37437 12.0837,-11.7301 24.79704,-22.80467 36.76955,-34.64823 6.28095,-6.21331 12.93566,-12.13755 18.38478,-19.09188 5.58605,-7.12908 10.18938,-15.01333 14.49569,-22.98098 2.83351,-5.24262 5.38718,-10.66321 7.42462,-16.26345 3.17695,-8.73237 5.66856,-17.745177 7.42462,-26.870059 2.82348,-14.671408 3.44533,-29.68304 4.94975,-44.547727 2.60965,-25.785079 4.35768,-51.653825 7.07107,-77.428193 2.70887,-25.73143 -1.52467,-53.524926 9.19239,-77.074641 1.38242,-3.03773 3.38106,-7.34126 6.71751,-7.42462 2.83245,-0.0708 4.84224,3.4291 6.01041,6.01041 12.80574,28.296773 4.00113,61.99007 6.01041,92.98454 2.46773,38.066379 4.48802,76.164664 7.42462,114.197746 1.12037,14.510354 2.19998,29.031874 3.88908,43.487064 1.24379,10.64426 2.18633,21.3776 4.5962,31.81981 2.17068,9.40578 4.80678,18.80658 8.83883,27.57716 3.00563,6.53789 7.18329,12.49263 11.31371,18.38478 2.93705,4.18978 6.16984,8.17601 9.54594,12.02081 3.57445,4.07069 6.45224,9.277 11.31371,11.66727 5.85418,2.87836 19.44544,2.2097 19.44544,2.2097"
    id="path4051"
    inkscape:connector-curvature="0"
    transform="matrix(0.8,0,0,-0.8,81.560168,492.10455)"
    sodipodi:nodetypes="caaaaaaaaaaaaaaaaaaaaaaaaaaaaaaaaaac" /><path
    style="fill:none;stroke:#ff0000;stroke-width:1px;stroke-linecap:butt;stroke-linejoin:miter;stroke-opacity:1"
    d="m 426.13128,234.34842 c 0,0 12.85852,-2.89284 18.86872,-5.5 4.79874,-2.08164 9.66384,-4.44402 13.5,-8 4.47603,-4.14911 7.55093,-9.6565 10.5,-15 3.01379,-5.46076 4.82653,-11.50286 7.25,-17.25 0.9141,-2.16775 0.63843,-5.46271 2.75,-6.5 1.4695,-0.72188 3.60252,0.0822 4.75,1.25 5.41125,5.50723 3.77976,14.97326 5.5,22.5 0.89219,3.90368 0.33736,8.37988 2.5,11.75 2.18732,3.40858 5.80336,6.34069 9.75,7.25 4.37985,1.00912 9.19512,-0.5611 13.25,-2.5 18.66571,-8.92529 32.04793,-26.21553 47.25,-40.25 8.48605,-7.83428 17.29913,-15.47025 24.5,-24.5 6.93387,-8.69494 13.06147,-18.16545 17.75,-28.25 4.4998,-9.67861 7.43533,-20.0805 9.75,-30.500001 3.26145,-14.6814 4.08516,-29.803131 5.75,-44.75 1.47327,-13.227035 2.35633,-26.514341 3.75,-39.75 1.88884,-17.9382139 4.1661,-40.557198 6.25,-53.75 0.51518,-3.261498 3.45885,-7.516665 6.75,-7.25 3.29429,0.26692 5.39268,4.946654 5.5,8.25 0.61543,18.942479 2.09284,37.83770576 3.25,56.75 1.95842,32.007888 4.51776,63.979076 6.25,96.000001 0.52266,9.66152 0.1016,19.39275 1.25,29 1.53241,12.81976 3.6397,25.67959 7.5,38 2.61084,8.33268 6.28916,16.35024 10.5,24 3.73378,6.78309 7.7935,13.51905 13,19.25 2.90576,3.19846 6.1631,6.26208 10,8.25 3.37456,1.74837 7.24782,2.39537 11,3 6.17917,0.99572 18.75,1 18.75,1"
    id="path4053"
    inkscape:connector-curvature="0"
    transform="matrix(0.8,0,0,-0.8,81.560168,492.10455)"
    sodipodi:nodetypes="caaaaaaaaaaaaaaaasasaaaaaaaac" /><path
    style="fill:none;stroke:#00ff00;stroke-width:1px;stroke-linecap:butt;stroke-linejoin:miter;stroke-opacity:1"
    d="m 425.88084,234.09842 c 0,0 84.28104,0.18908 126.11916,0.25 2.21526,0.003 8.41784,-1.68267 12.36872,-3.5455 7.36694,-3.47349 13.69586,-8.90567 19.88128,-14.2045 4.09346,-3.50672 7.88802,-7.39272 11.3085,-11.5585 3.25379,-3.96278 6.22659,-8.1954 8.6915,-12.6915 4.39756,-8.02135 7.67103,-16.63603 10.75,-25.25 4.00311,-11.1994 7.38464,-22.64779 10,-34.25 2.07875,-9.22171 3.48438,-18.60162 4.5,-28 1.75177,-16.210591 2.13129,-32.544596 2.73483,-48.838389 0.42158,-11.381267 0.23326,-21.520233 0.61872,-34.161612 0.0615,-2.016349 1.61664,-4.029223 3.39645,-4.131282 1.61951,-0.09287 3.46123,1.610015 3.5,3.381282 0.29297,13.385777 1.02891,26.89305 1.57322,40.338388 0.6196,15.304806 1.38047,30.604017 1.92678,45.911613 0.73112,20.48571 1.30227,40.97716 1.80806,61.46967 0.34569,14.00603 0.3861,28.01953 0.83839,42.02252 0.14558,4.5072 0.64052,10.51179 0.60355,13.51517 -0.0465,3.77944 3.46485,7.40219 6.92678,7.85876 2.30992,0.30464 4.82611,-1.5182 5.82322,-3.86612 2.65076,-6.24181 0.85739,-14.5228 2.51517,-20.41161 0.47765,-1.69673 1.50139,-4.23451 3.26256,-4.16161 3.22607,0.13354 3.94273,5.81273 5.32582,8.09099 3.98036,6.55652 5.08233,13.609 10.14645,18.48223 2.68536,2.58413 6.39282,4.06343 10,5 10.8997,2.83001 33.75,1.5 33.75,1.5"
    id="path4055"
    inkscape:connector-curvature="0"
    transform="matrix(0.8,0,0,-0.8,81.560168,492.10455)"
    sodipodi:nodetypes="cssaaaaaaasasaaaasassasaac" /></g></svg>