<?xml version="1.0" encoding="UTF-8" standalone="no"?>
<!-- Created with Inkscape (http://www.inkscape.org/) -->

<svg
   xmlns:dc="http://purl.org/dc/elements/1.1/"
   xmlns:cc="http://creativecommons.org/ns#"
   xmlns:rdf="http://www.w3.org/1999/02/22-rdf-syntax-ns#"
   xmlns:svg="http://www.w3.org/2000/svg"
   xmlns="http://www.w3.org/2000/svg"
   xmlns:xlink="http://www.w3.org/1999/xlink"
   xmlns:sodipodi="http://sodipodi.sourceforge.net/DTD/sodipodi-0.dtd"
   xmlns:inkscape="http://www.inkscape.org/namespaces/inkscape"
   width="566.92914"
   height="141.73228"
   id="svg2"
   version="1.1"
   inkscape:version="0.48.0 r9654"
   sodipodi:docname="slit_width.pdf">
  <defs
     id="defs4">
    <marker
       inkscape:stockid="Arrow1Lend"
       orient="auto"
       refY="0"
       refX="0"
       id="Arrow1Lend"
       style="overflow:visible">
      <path
         id="path7402"
         d="M 0,0 5,-5 -12.5,0 5,5 0,0 z"
         style="fill-rule:evenodd;stroke:#000000;stroke-width:1pt;marker-start:none"
         transform="matrix(-0.8,0,0,-0.8,-10,0)"
         inkscape:connector-curvature="0" />
    </marker>
    <clipPath
       id="clipPath4475"
       clipPathUnits="userSpaceOnUse">
      <path
         id="path4477"
         d="m 72,43.2 446.4,0 0,345.6 -446.4,0 0,-345.6 z"
         inkscape:connector-curvature="0" />
    </clipPath>
    <clipPath
       id="clipPath5454"
       clipPathUnits="userSpaceOnUse">
      <path
         id="path5456"
         d="m 72,43.2 446.4,0 0,345.6 -446.4,0 0,-345.6 z"
         inkscape:connector-curvature="0" />
    </clipPath>
    <clipPath
       id="clipPath6464"
       clipPathUnits="userSpaceOnUse">
      <path
         id="path6466"
         d="m 72,43.2 446.4,0 0,345.6 -446.4,0 0,-345.6 z"
         inkscape:connector-curvature="0" />
    </clipPath>
    <clipPath
       id="clipPath6776"
       clipPathUnits="userSpaceOnUse">
      <path
         id="path6778"
         d="m 72,43.2 446.4,0 0,345.6 -446.4,0 0,-345.6 z"
         inkscape:connector-curvature="0" />
    </clipPath>
    <clipPath
       id="clipPath7088"
       clipPathUnits="userSpaceOnUse">
      <path
         id="path7090"
         d="m 72,43.2 446.4,0 0,345.6 -446.4,0 0,-345.6 z"
         inkscape:connector-curvature="0" />
    </clipPath>
  </defs>
  <sodipodi:namedview
     id="base"
     pagecolor="#ffffff"
     bordercolor="#666666"
     borderopacity="1.0"
     inkscape:pageopacity="0.0"
     inkscape:pageshadow="2"
     inkscape:zoom="7.2407734"
     inkscape:cx="387.59108"
     inkscape:cy="19.058109"
     inkscape:document-units="px"
     inkscape:current-layer="layer1"
     showgrid="false"
     units="cm"
     showguides="true"
     inkscape:guide-bbox="true"
     inkscape:window-width="1180"
     inkscape:window-height="627"
     inkscape:window-x="379"
     inkscape:window-y="0"
     inkscape:window-maximized="0" />
  <metadata
     id="metadata7">
    <rdf:RDF>
      <cc:Work
         rdf:about="">
        <dc:format>image/svg+xml</dc:format>
        <dc:type
           rdf:resource="http://purl.org/dc/dcmitype/StillImage" />
        <dc:title></dc:title>
      </cc:Work>
    </rdf:RDF>
  </metadata>
  <g
     inkscape:label="Layer 1"
     inkscape:groupmode="layer"
     id="layer1"
     transform="translate(0,-910.62759)">
    <image
       y="951.81915"
       x="17.421282"
       id="image6402"
       xlink:href="file:///Users/bernardo/Dropbox/thesis/graphs/slit_width-4.png"
       height="76.266991"
       width="150" />
    <image
       y="951.8468"
       x="396.71817"
       id="image6272"
       xlink:href="file:///Users/bernardo/Dropbox/thesis/graphs/slit_width-1.png"
       height="76.266991"
       width="150" />
    <image
       y="952.12433"
       x="208.28204"
       id="image6337"
       xlink:href="file:///Users/bernardo/Dropbox/thesis/graphs/slit_width-2.png"
       height="76.003677"
       width="150" />
    <path
       style="fill:#660000;fill-opacity:1;stroke:none"
       d="m 273.57363,1039.6125 0,-13.0372 9.57031,0 9.57031,0 0,13.0372 0,13.0371 -9.57031,0 -9.57031,0 0,-13.0371 z"
       id="path6419"
       inkscape:connector-curvature="0" />
    <path
       inkscape:connector-curvature="0"
       id="path6423"
       d="m 82.850973,1039.5191 0,-12.8419 9.57031,0 9.570307,0 0,12.8419 0,12.8418 -9.570307,0 -9.57031,0 0,-12.8418 z"
       style="fill:#660000;fill-opacity:1;stroke:none" />
    <path
       inkscape:connector-curvature="0"
       id="path6421"
       d="m 462.34316,1039.5191 0,-12.8419 9.57031,0 9.57031,0 0,12.8419 0,12.8418 -9.57031,0 -9.57031,0 0,-12.8418 z"
       style="fill:#660000;fill-opacity:1;stroke:none" />
    <path
       style="fill:none;stroke:none"
       d="m 193.85999,154.89937 0,-51.46484 0.67207,0 c 0.36963,0 0.72638,0.0879 0.79277,0.19531 0.0664,0.10742 0.54979,0.19531 1.07422,0.19531 0.52443,0 1.00381,0.0814 1.06528,0.18085 0.0615,0.0995 0.90354,0.2428 1.87125,0.3185 0.96771,0.0757 1.80669,0.21404 1.8644,0.30743 0.0577,0.0934 0.45131,0.16978 0.87466,0.16978 0.42335,0 0.76973,0.0879 0.76973,0.19532 0,0.10742 0.47607,0.19531 1.05794,0.19531 0.58187,0 1.08724,0.0835 1.12304,0.18559 0.0358,0.10207 0.8781,0.24652 1.87175,0.32099 0.99365,0.0745 1.80664,0.21068 1.80664,0.30269 0,0.092 0.47607,0.16729 1.05794,0.16729 0.58187,0 1.08724,0.0835 1.12305,0.18559 0.0358,0.10207 0.87809,0.24652 1.87174,0.32099 0.99366,0.0745 1.80665,0.21069 1.80665,0.3027 0,0.092 0.48339,0.16728 1.07421,0.16728 0.59082,0 1.07422,0.0753 1.07422,0.16729 0,0.092 0.81299,0.22852 1.80664,0.30336 0.99366,0.0748 1.89014,0.21929 1.99219,0.32099 0.10205,0.10171 0.60224,0.18493 1.11152,0.18493 0.50929,0 0.97506,0.0794 1.03506,0.17651 0.06,0.0971 1.03199,0.23941 2.15997,0.3163 1.12798,0.0769 2.05087,0.21718 2.05087,0.31177 0,0.0946 0.4834,0.17198 1.07422,0.17198 0.59082,0 1.07422,0.0879 1.07422,0.19531 0,0.10742 0.4834,0.19531 1.07422,0.19531 0.59082,0 1.07422,0.0783 1.07422,0.17397 0,0.0957 0.96679,0.23712 2.14844,0.31432 1.18164,0.0772 2.14843,0.21863 2.14843,0.31431 0,0.0957 0.47608,0.17397 1.05795,0.17397 0.58186,0 1.08723,0.0819 1.12304,0.18202 0.0358,0.10011 1.14177,0.2444 2.45768,0.32064 1.31592,0.0762 2.39258,0.21405 2.39258,0.30626 0,0.0922 0.4834,0.16764 1.07422,0.16764 0.59082,0 1.07422,0.0708 1.07422,0.15731 0,0.13623 1.2087,0.29488 5.76172,0.7563 0.53711,0.0544 1.06006,0.17875 1.16211,0.27627 0.10205,0.0975 0.62939,0.17896 1.17187,0.18098 0.54248,0.002 2.17286,0.17939 3.62305,0.39415 1.4502,0.21476 3.55957,0.47998 4.6875,0.58937 1.12793,0.1094 2.53418,0.28213 3.125,0.38386 0.59082,0.10172 2.30469,0.29019 3.80859,0.41883 1.50391,0.12864 2.77832,0.29331 2.83204,0.36593 0.0537,0.0726 1.19628,0.19437 2.53906,0.27054 1.34277,0.0762 3.05664,0.20677 3.80859,0.29019 0.75195,0.0834 -14.34326,0.16551 -33.54492,0.18241 l -34.91211,0.0307 0,0.58594 0,0.58594 36.52344,0 36.52344,0 0,-0.58594 0,-0.58594 1.85546,0 1.85547,0 0,0.58594 0,0.58594 36.81641,0 36.81641,0 0,-0.58594 0,-0.58594 -35.40039,-0.0307 c -19.47022,-0.0169 -34.78516,-0.0975 -34.03321,-0.17923 0.75195,-0.0817 2.48779,-0.21295 3.85742,-0.29173 1.36963,-0.0788 2.49024,-0.20495 2.49024,-0.28038 0,-0.0754 1.02791,-0.19862 2.28425,-0.27373 1.25634,-0.0751 2.68457,-0.21223 3.17383,-0.30472 0.48927,-0.0925 1.63664,-0.25885 2.54973,-0.36972 0.91309,-0.11086 3.37402,-0.42698 5.46875,-0.7025 2.09473,-0.27551 4.27002,-0.50004 4.83399,-0.49894 0.56396,0.001 1.02539,-0.0781 1.02539,-0.17597 0,-0.0979 0.50537,-0.22399 1.12304,-0.28026 3.49236,-0.3181 5.71289,-0.6095 5.71289,-0.74969 0,-0.0876 0.47821,-0.15927 1.06269,-0.15927 0.58449,0 1.10997,-0.0765 1.16774,-0.16997 0.0578,-0.0935 1.1616,-0.23303 2.45294,-0.3101 1.29133,-0.0771 2.34788,-0.22032 2.34788,-0.31832 0,-0.098 0.4834,-0.17817 1.07422,-0.17817 0.59082,0 1.07422,-0.0783 1.07422,-0.17397 0,-0.0957 0.9668,-0.23712 2.14844,-0.31431 1.18164,-0.0772 2.14844,-0.21864 2.14844,-0.31432 0,-0.0957 0.48339,-0.17397 1.07421,-0.17397 0.59082,0 1.07422,-0.0879 1.07422,-0.19531 0,-0.10742 0.4834,-0.19531 1.07422,-0.19531 0.59082,0 1.07422,-0.0783 1.07422,-0.17397 0,-0.0957 0.9668,-0.23712 2.14844,-0.31431 1.18164,-0.0772 2.14844,-0.21864 2.14844,-0.31432 0,-0.0957 0.47607,-0.17396 1.05794,-0.17396 0.58187,0 1.08724,-0.0835 1.12305,-0.18559 0.0358,-0.10207 0.87809,-0.24652 1.87174,-0.32099 0.99365,-0.0745 1.80664,-0.21069 1.80664,-0.3027 0,-0.092 0.4834,-0.16729 1.07422,-0.16729 0.59082,0 1.07422,-0.0753 1.07422,-0.16728 0,-0.092 0.81299,-0.22823 1.80664,-0.3027 0.99365,-0.0745 1.83594,-0.21892 1.87174,-0.32099 0.0358,-0.10207 0.536,-0.18559 1.11152,-0.18559 0.57553,0 1.09364,-0.0764 1.15135,-0.16979 0.0577,-0.0934 0.89787,-0.23181 1.867,-0.30763 0.96913,-0.0758 1.76206,-0.21913 1.76206,-0.31849 0,-0.0994 0.47821,-0.18065 1.06269,-0.18065 0.58448,0 1.11701,-0.0879 1.1834,-0.19531 0.0664,-0.10743 0.46709,-0.19532 0.89044,-0.19532 0.42335,0 0.76972,-0.0774 0.76972,-0.17208 0,-0.0947 0.83496,-0.23469 1.85547,-0.3112 1.02051,-0.0765 1.85547,-0.2188 1.85547,-0.31619 0,-0.0974 0.4834,-0.17709 1.07422,-0.17709 0.59082,0 1.07422,-0.0787 1.07422,-0.17498 0,-0.0962 0.70362,-0.23727 1.56359,-0.3134 0.85998,-0.0761 1.61224,-0.21711 1.67169,-0.31329 0.0594,-0.0962 0.53716,-0.17489 1.06159,-0.17489 0.52443,0 1.00418,-0.082 1.06611,-0.18219 0.0619,-0.1002 0.81418,-0.24339 1.67168,-0.31819 0.8575,-0.0748 1.55909,-0.21254 1.55909,-0.30609 0,-0.0935 0.48339,-0.17009 1.07421,-0.17009 0.59083,0 1.07422,-0.0787 1.07422,-0.17499 0,-0.0962 0.70313,-0.23722 1.5625,-0.31329 0.85938,-0.0761 1.5625,-0.21706 1.5625,-0.3133 0,-0.0962 0.46582,-0.17499 1.03516,-0.17499 0.56934,0 1.11865,-0.077 1.2207,-0.17105 0.10205,-0.0941 0.64698,-0.22894 1.21094,-0.29969 l 1.02539,-0.12865 0.002,26.12978 c 0,14.37137 0.0574,26.72303 0.1259,27.44813 0.10315,1.09213 0.18473,1.31836 0.47537,1.31836 0.19297,0 0.40518,0.0879 0.47157,0.19531 0.0664,0.10742 0.3792,0.19531 0.69511,0.19531 0.31594,0 0.57442,0.0879 0.57442,0.19532 0,0.10742 0.17058,0.19531 0.3791,0.19531 0.2085,0 0.43342,0.0879 0.4998,0.19531 0.0664,0.10742 0.42315,0.19531 0.79278,0.19531 0.36965,0 0.67207,0.0879 0.67207,0.19532 0,0.10742 0.30761,0.19531 0.68359,0.19531 0.37598,0 0.68359,0.0879 0.68359,0.19531 0,0.10742 0.30762,0.19531 0.6836,0.19531 0.37598,0 0.68359,0.0879 0.68359,0.19532 0,0.10742 0.26367,0.19531 0.58594,0.19531 0.32227,0 0.58594,0.0879 0.58594,0.19531 0,0.10742 0.21972,0.19531 0.48828,0.19531 0.26855,0 0.48828,0.0777 0.48828,0.17256 0,0.0949 0.57037,0.23364 1.26748,0.3083 0.69711,0.0747 1.31752,0.21673 1.37871,0.31572 0.0612,0.099 0.36453,0.17999 0.67412,0.17999 0.30959,0 0.61721,0.0879 0.6836,0.19531 0.0664,0.10742 0.374,0.19531 0.68359,0.19531 0.30959,0 0.61721,0.0879 0.68359,0.19531 0.0664,0.10743 0.3792,0.19532 0.69512,0.19532 0.31594,0 0.57441,0.0879 0.57441,0.19531 0,0.10742 0.30762,0.19531 0.6836,0.19531 0.37598,0 0.68359,0.0879 0.68359,0.19531 0,0.10743 0.30762,0.19532 0.6836,0.19532 0.37597,0 0.68359,0.0879 0.68359,0.19531 0,0.10742 0.30762,0.19531 0.68359,0.19531 0.37598,0 0.6836,0.0879 0.6836,0.19531 0,0.10743 0.30761,0.19532 0.68359,0.19532 0.37598,0 0.6836,0.0879 0.6836,0.19531 0,0.10742 0.30761,0.19531 0.68359,0.19531 0.37598,0 0.68359,0.0879 0.68359,0.19531 0,0.10743 0.30762,0.19532 0.6836,0.19532 0.37597,0 0.68359,0.0879 0.68359,0.19531 0,0.10742 0.30762,0.19531 0.68359,0.19531 0.37598,0 0.6836,0.0879 0.6836,0.19531 0,0.10743 0.17578,0.19532 0.39062,0.19532 0.38828,0 0.39063,0.13021 0.39063,21.77734 l 0,21.77734 -111.32813,0 -111.32812,0 0,-51.46484 -5.7e-4,0 z"
       id="path6413"
       inkscape:connector-curvature="0"
       transform="translate(0,910.6286)" />
    <path
       style="fill:none;stroke:none"
       d="m 193.85999,154.89937 0,-51.46484 0.67207,0 c 0.36963,0 0.72638,0.0879 0.79277,0.19531 0.0664,0.10742 0.54979,0.19531 1.07422,0.19531 0.52443,0 1.00381,0.0814 1.06528,0.18085 0.0615,0.0995 0.90354,0.2428 1.87125,0.3185 0.96771,0.0757 1.80669,0.21404 1.8644,0.30743 0.0577,0.0934 0.45131,0.16978 0.87466,0.16978 0.42335,0 0.76973,0.0879 0.76973,0.19532 0,0.10742 0.47607,0.19531 1.05794,0.19531 0.58187,0 1.08724,0.0835 1.12304,0.18559 0.0358,0.10207 0.8781,0.24652 1.87175,0.32099 0.99365,0.0745 1.80664,0.21068 1.80664,0.30269 0,0.092 0.47607,0.16729 1.05794,0.16729 0.58187,0 1.08724,0.0835 1.12305,0.18559 0.0358,0.10207 0.87809,0.24652 1.87174,0.32099 0.99366,0.0745 1.80665,0.21069 1.80665,0.3027 0,0.092 0.48339,0.16728 1.07421,0.16728 0.59082,0 1.07422,0.0753 1.07422,0.16729 0,0.092 0.81299,0.22852 1.80664,0.30336 0.99366,0.0748 1.89014,0.21929 1.99219,0.32099 0.10205,0.10171 0.60224,0.18493 1.11152,0.18493 0.50929,0 0.97506,0.0794 1.03506,0.17651 0.06,0.0971 1.03199,0.23941 2.15997,0.3163 1.12798,0.0769 2.05087,0.21718 2.05087,0.31177 0,0.0946 0.4834,0.17198 1.07422,0.17198 0.59082,0 1.07422,0.0879 1.07422,0.19531 0,0.10742 0.4834,0.19531 1.07422,0.19531 0.59082,0 1.07422,0.0783 1.07422,0.17397 0,0.0957 0.96679,0.23712 2.14844,0.31432 1.18164,0.0772 2.14843,0.21863 2.14843,0.31431 0,0.0957 0.47608,0.17397 1.05795,0.17397 0.58186,0 1.08723,0.0819 1.12304,0.18202 0.0358,0.10011 1.14177,0.2444 2.45768,0.32064 1.31592,0.0762 2.39258,0.21405 2.39258,0.30626 0,0.0922 0.4834,0.16764 1.07422,0.16764 0.59082,0 1.07422,0.0708 1.07422,0.15731 0,0.13623 1.2087,0.29488 5.76172,0.7563 0.53711,0.0544 1.06006,0.17875 1.16211,0.27627 0.10205,0.0975 0.62939,0.17896 1.17187,0.18098 0.54248,0.002 2.17286,0.17939 3.62305,0.39415 1.4502,0.21476 3.55957,0.47998 4.6875,0.58937 1.12793,0.1094 2.53418,0.28213 3.125,0.38386 0.59082,0.10172 2.30469,0.29019 3.80859,0.41883 1.50391,0.12864 2.77832,0.29331 2.83204,0.36593 0.0537,0.0726 1.19628,0.19437 2.53906,0.27054 1.34277,0.0762 3.05664,0.20677 3.80859,0.29019 0.75195,0.0834 -14.34326,0.16551 -33.54492,0.18241 l -34.91211,0.0307 0,0.58594 0,0.58594 36.52344,0 36.52344,0 0,-0.58594 0,-0.58594 1.85546,0 1.85547,0 0,0.58594 0,0.58594 36.81641,0 36.81641,0 0,-0.58594 0,-0.58594 -35.40039,-0.0307 c -19.47022,-0.0169 -34.78516,-0.0975 -34.03321,-0.17923 0.75195,-0.0817 2.48779,-0.21295 3.85742,-0.29173 1.36963,-0.0788 2.49024,-0.20495 2.49024,-0.28038 0,-0.0754 1.02791,-0.19862 2.28425,-0.27373 1.25634,-0.0751 2.68457,-0.21223 3.17383,-0.30472 0.48927,-0.0925 1.63664,-0.25885 2.54973,-0.36972 0.91309,-0.11086 3.37402,-0.42698 5.46875,-0.7025 2.09473,-0.27551 4.27002,-0.50004 4.83399,-0.49894 0.56396,0.001 1.02539,-0.0781 1.02539,-0.17597 0,-0.0979 0.50537,-0.22399 1.12304,-0.28026 3.49236,-0.3181 5.71289,-0.6095 5.71289,-0.74969 0,-0.0876 0.47821,-0.15927 1.06269,-0.15927 0.58449,0 1.10997,-0.0765 1.16774,-0.16997 0.0578,-0.0935 1.1616,-0.23303 2.45294,-0.3101 1.29133,-0.0771 2.34788,-0.22032 2.34788,-0.31832 0,-0.098 0.4834,-0.17817 1.07422,-0.17817 0.59082,0 1.07422,-0.0783 1.07422,-0.17397 0,-0.0957 0.9668,-0.23712 2.14844,-0.31431 1.18164,-0.0772 2.14844,-0.21864 2.14844,-0.31432 0,-0.0957 0.48339,-0.17397 1.07421,-0.17397 0.59082,0 1.07422,-0.0879 1.07422,-0.19531 0,-0.10742 0.4834,-0.19531 1.07422,-0.19531 0.59082,0 1.07422,-0.0783 1.07422,-0.17397 0,-0.0957 0.9668,-0.23712 2.14844,-0.31431 1.18164,-0.0772 2.14844,-0.21864 2.14844,-0.31432 0,-0.0957 0.47607,-0.17396 1.05794,-0.17396 0.58187,0 1.08724,-0.0835 1.12305,-0.18559 0.0358,-0.10207 0.87809,-0.24652 1.87174,-0.32099 0.99365,-0.0745 1.80664,-0.21069 1.80664,-0.3027 0,-0.092 0.4834,-0.16729 1.07422,-0.16729 0.59082,0 1.07422,-0.0753 1.07422,-0.16728 0,-0.092 0.81299,-0.22823 1.80664,-0.3027 0.99365,-0.0745 1.83594,-0.21892 1.87174,-0.32099 0.0358,-0.10207 0.536,-0.18559 1.11152,-0.18559 0.57553,0 1.09364,-0.0764 1.15135,-0.16979 0.0577,-0.0934 0.89787,-0.23181 1.867,-0.30763 0.96913,-0.0758 1.76206,-0.21913 1.76206,-0.31849 0,-0.0994 0.47821,-0.18065 1.06269,-0.18065 0.58448,0 1.11701,-0.0879 1.1834,-0.19531 0.0664,-0.10743 0.46709,-0.19532 0.89044,-0.19532 0.42335,0 0.76972,-0.0774 0.76972,-0.17208 0,-0.0947 0.83496,-0.23469 1.85547,-0.3112 1.02051,-0.0765 1.85547,-0.2188 1.85547,-0.31619 0,-0.0974 0.4834,-0.17709 1.07422,-0.17709 0.59082,0 1.07422,-0.0787 1.07422,-0.17498 0,-0.0962 0.70362,-0.23727 1.56359,-0.3134 0.85998,-0.0761 1.61224,-0.21711 1.67169,-0.31329 0.0594,-0.0962 0.53716,-0.17489 1.06159,-0.17489 0.52443,0 1.00418,-0.082 1.06611,-0.18219 0.0619,-0.1002 0.81418,-0.24339 1.67168,-0.31819 0.8575,-0.0748 1.55909,-0.21254 1.55909,-0.30609 0,-0.0935 0.48339,-0.17009 1.07421,-0.17009 0.59083,0 1.07422,-0.0787 1.07422,-0.17499 0,-0.0962 0.70313,-0.23722 1.5625,-0.31329 0.85938,-0.0761 1.5625,-0.21706 1.5625,-0.3133 0,-0.0962 0.46582,-0.17499 1.03516,-0.17499 0.56934,0 1.11865,-0.077 1.2207,-0.17105 0.10205,-0.0941 0.64698,-0.22894 1.21094,-0.29969 l 1.02539,-0.12865 0.002,26.12978 c 0,14.37137 0.0574,26.72303 0.1259,27.44813 0.10315,1.09213 0.18473,1.31836 0.47537,1.31836 0.19297,0 0.40518,0.0879 0.47157,0.19531 0.0664,0.10742 0.3792,0.19531 0.69511,0.19531 0.31594,0 0.57442,0.0879 0.57442,0.19532 0,0.10742 0.17058,0.19531 0.3791,0.19531 0.2085,0 0.43342,0.0879 0.4998,0.19531 0.0664,0.10742 0.42315,0.19531 0.79278,0.19531 0.36965,0 0.67207,0.0879 0.67207,0.19532 0,0.10742 0.30761,0.19531 0.68359,0.19531 0.37598,0 0.68359,0.0879 0.68359,0.19531 0,0.10742 0.30762,0.19531 0.6836,0.19531 0.37598,0 0.68359,0.0879 0.68359,0.19532 0,0.10742 0.26367,0.19531 0.58594,0.19531 0.32227,0 0.58594,0.0879 0.58594,0.19531 0,0.10742 0.21972,0.19531 0.48828,0.19531 0.26855,0 0.48828,0.0777 0.48828,0.17256 0,0.0949 0.57037,0.23364 1.26748,0.3083 0.69711,0.0747 1.31752,0.21673 1.37871,0.31572 0.0612,0.099 0.36453,0.17999 0.67412,0.17999 0.30959,0 0.61721,0.0879 0.6836,0.19531 0.0664,0.10742 0.374,0.19531 0.68359,0.19531 0.30959,0 0.61721,0.0879 0.68359,0.19531 0.0664,0.10743 0.3792,0.19532 0.69512,0.19532 0.31594,0 0.57441,0.0879 0.57441,0.19531 0,0.10742 0.30762,0.19531 0.6836,0.19531 0.37598,0 0.68359,0.0879 0.68359,0.19531 0,0.10743 0.30762,0.19532 0.6836,0.19532 0.37597,0 0.68359,0.0879 0.68359,0.19531 0,0.10742 0.30762,0.19531 0.68359,0.19531 0.37598,0 0.6836,0.0879 0.6836,0.19531 0,0.10743 0.30761,0.19532 0.68359,0.19532 0.37598,0 0.6836,0.0879 0.6836,0.19531 0,0.10742 0.30761,0.19531 0.68359,0.19531 0.37598,0 0.68359,0.0879 0.68359,0.19531 0,0.10743 0.30762,0.19532 0.6836,0.19532 0.37597,0 0.68359,0.0879 0.68359,0.19531 0,0.10742 0.30762,0.19531 0.68359,0.19531 0.37598,0 0.6836,0.0879 0.6836,0.19531 0,0.10743 0.17578,0.19532 0.39062,0.19532 0.38828,0 0.39063,0.13021 0.39063,21.77734 l 0,21.77734 -111.32813,0 -111.32812,0 0,-51.46484 -5.7e-4,0 z"
       id="path6415"
       inkscape:connector-curvature="0"
       transform="translate(0,910.6286)" />
    <path
       style="fill:none;stroke:#000000;stroke-width:1px;stroke-linecap:butt;stroke-linejoin:miter;stroke-opacity:1"
       d="m 16.020388,952.07167 536.806932,0"
       id="path6425"
       inkscape:connector-curvature="0"
       sodipodi:nodetypes="cc" />
    <g
       id="g6460"
       transform="matrix(0.33870664,0,0,-0.06356123,372.05298,955.27448)">
      <g
         id="g6462"
         clip-path="url(#clipPath6464)">
        <path
           inkscape:connector-curvature="0"
           d="m 72.18689,75.459141 4.464,1.126907 4.464,1.33056 4.464,1.549909 4.464,1.785046 4.464,2.035931 4.464,2.30237 4.464,2.58401 4.464,2.880315 4.464,3.190559 4.464,3.513807 4.464,3.848905 4.464,4.19449 4.464,4.54892 4.464,4.91038 4.464,5.27675 4.464,5.64571 4.464,6.0147 4.464,6.38092 4.464,6.74137 4.464,7.09287 5.58,9.34124 5.58,9.8391 5.58,10.29626 6.696,12.88825 6.696,13.37121 8.928,18.36696 24.552,50.9144 6.696,13.18337 5.58,10.49679 4.464,7.99893 4.464,7.58557 4.464,7.11925 4.464,6.60217 3.348,4.58332 3.348,4.24638 3.348,3.89162 3.348,3.52035 3.348,3.13401 3.348,2.73413 2.232,1.59467 2.232,1.40854 2.232,1.21965 2.232,1.02839 2.232,0.83512 2.232,0.64019 2.232,0.44401 2.232,0.24696 2.232,0.0494 2.232,-0.14822 2.232,-0.34557 2.232,-0.54224 2.232,-0.73783 2.232,-0.93198 2.232,-1.1243 2.232,-1.31441 2.232,-1.50197 3.348,-2.59812 3.348,-3.00214 3.348,-3.39317 3.348,-3.76963 3.348,-4.13005 3.348,-4.47306 3.348,-4.79744 4.464,-6.8669 4.464,-7.3589 4.464,-7.79898 5.58,-10.28547 5.58,-10.78117 6.696,-13.43821 8.928,-18.46089 20.088,-41.77632 7.812,-15.63843 6.696,-12.88825 5.58,-10.29626 5.58,-9.8391 5.58,-9.34124 4.464,-7.09287 4.464,-6.74137 4.464,-6.38092 4.464,-6.0147 4.464,-5.64571 4.464,-5.27675 4.464,-4.91038 4.464,-4.54892 4.464,-4.19449 4.464,-3.848905 4.464,-3.513807 4.464,-3.190559 4.464,-2.880315 4.464,-2.58401 4.464,-2.30237 4.464,-2.035931 4.464,-1.785046 4.464,-1.549909 4.464,-1.33056 4.464,-1.126907 0,0"
           style="fill:none;stroke:#0000ff;stroke-width:6.81541014;stroke-linecap:square;stroke-linejoin:round;stroke-miterlimit:10;stroke-opacity:1;stroke-dasharray:none"
           id="path6468" />
      </g>
    </g>
    <g
       id="g6772"
       transform="matrix(0.33648583,0,0,-0.10659113,183.91571,958.15332)">
      <g
         id="g6774"
         clip-path="url(#clipPath6776)">
        <path
           inkscape:connector-curvature="0"
           d="m 72,75.092375 6.696,1.340617 8.928,2.032007 15.624,3.622417 5.58,1.079232 5.58,0.842609 4.464,0.452717 4.464,0.218181 4.464,-0.0447 4.464,-0.327151 4.464,-0.61778 4.464,-0.902627 4.464,-1.165307 4.464,-1.387318 6.696,-2.358361 8.928,-3.174872 4.464,-1.326425 3.348,-0.75991 3.348,-0.481054 2.232,-0.129412 2.232,0.04989 2.232,0.2521 2.232,0.47735 2.232,0.725565 2.232,0.996451 2.232,1.289475 2.232,1.603868 2.232,1.938609 2.232,2.29242 2.232,2.663774 2.232,3.050884 2.232,3.45171 2.232,3.863972 2.232,4.28515 2.232,4.712504 2.232,5.14309 2.232,5.57377 2.232,6.00126 3.348,9.78793 3.348,10.69657 3.348,11.5493 3.348,12.3275 4.464,17.48408 4.464,18.43181 6.696,28.71449 8.928,38.28982 4.464,18.21703 3.348,12.9081 3.348,12.06604 3.348,11.05621 2.232,6.73177 2.232,6.16982 2.232,5.56797 2.232,4.92977 2.232,4.25915 2.232,3.56033 2.232,2.83782 1.116,1.14185 1.116,0.95449 1.116,0.76552 1.116,0.57528 1.116,0.38405 1.116,0.19219 1.116,0 1.116,-0.19219 1.116,-0.38405 1.116,-0.57528 1.116,-0.76552 1.116,-0.95449 1.116,-1.14185 1.116,-1.3273 2.232,-3.20175 2.232,-3.91299 2.232,-4.59825 2.232,-5.25317 2.232,-5.87367 2.232,-6.456 2.232,-6.99676 3.348,-11.41085 3.348,-12.36581 3.348,-13.1501 4.464,-18.44701 6.696,-28.7631 8.928,-38.23171 4.464,-18.22293 4.464,-17.20308 3.348,-12.07753 3.348,-11.27241 3.348,-10.39899 3.348,-9.47583 2.232,-5.78813 2.232,-5.35862 2.232,-4.92758 2.232,-4.498239 2.232,-4.073613 2.232,-3.656563 2.232,-3.24972 2.232,-2.855481 2.232,-2.47601 2.232,-2.11322 2.232,-1.768768 2.232,-1.444059 2.232,-1.140238 2.232,-0.858202 2.232,-0.5986 2.232,-0.361844 2.232,-0.148119 2.232,0.04261 2.232,0.210568 3.348,0.582054 3.348,0.837058 4.464,1.394796 6.696,2.39479 7.812,2.767053 4.464,1.387318 4.464,1.165307 4.464,0.902627 4.464,0.61778 4.464,0.327151 4.464,0.0447 4.464,-0.218181 4.464,-0.452717 4.464,-0.652659 5.58,-1.038181 7.812,-1.727821 20.088,-4.626086 4.464,-0.872135 0,0"
           style="fill:none;stroke:#0000ff;stroke-width:5.28026915;stroke-linecap:square;stroke-linejoin:round;stroke-miterlimit:10;stroke-opacity:1;stroke-dasharray:none"
           id="path6780" />
      </g>
    </g>
    <g
       id="g7084"
       transform="matrix(0.33672297,0,0,-0.13391535,-6.851799,960.1208)">
      <g
         id="g7086"
         clip-path="url(#clipPath7088)">
        <path
           inkscape:connector-curvature="0"
           d="m 72,73.919919 6.696,0.232885 5.58,-0.04261 5.58,-0.271584 6.696,-0.564689 12.276,-1.094716 4.464,-0.170248 4.464,0.05707 4.464,0.316411 4.464,0.56826 5.58,0.980098 10.044,1.869603 4.464,0.536749 3.348,0.172244 3.348,-0.06162 3.348,-0.30405 3.348,-0.52797 4.464,-0.966171 8.928,-2.048705 3.348,-0.466894 2.232,-0.128741 2.232,0.04979 2.232,0.249081 2.232,0.460895 2.232,0.675476 2.232,0.881929 2.232,1.068657 3.348,1.881158 8.928,5.41028 2.232,1.09126 2.232,0.850311 2.232,0.549054 2.232,0.19877 2.232,-0.184961 2.232,-0.582504 2.232,-0.970646 2.232,-1.323285 2.232,-1.612341 3.348,-2.750166 3.348,-2.754265 2.232,-1.566767 1.116,-0.632488 1.116,-0.498409 1.116,-0.338361 1.116,-0.151924 1.116,0.06108 1.116,0.30056 1.116,0.566185 1.116,0.857331 1.116,1.173099 1.116,1.512312 1.116,1.873503 1.116,2.254931 1.116,2.654579 1.116,3.070168 1.116,3.499166 1.116,3.938801 1.116,4.386091 2.232,10.128569 2.232,11.92686 2.232,13.66211 2.232,15.27436 2.232,16.70366 3.348,27.19412 5.58,48.34279 4.464,37.92519 2.232,17.56526 2.232,16.08158 2.232,14.21145 2.232,11.99257 1.116,5.06847 1.116,4.40601 1.116,3.71558 1.116,3.00146 1.116,2.26813 1.116,1.52024 1.116,0.76257 1.116,0 1.116,-0.76257 1.116,-1.52024 1.116,-2.26813 1.116,-3.00146 1.116,-3.71558 1.116,-4.40601 1.116,-5.06847 1.116,-5.69894 2.232,-13.14276 2.232,-15.19276 2.232,-16.87359 3.348,-27.58049 10.044,-86.00968 2.232,-17.3315 2.232,-16.01557 2.232,-14.48738 2.232,-12.80608 2.232,-11.03192 2.232,-9.22394 1.116,-3.938801 1.116,-3.499166 1.116,-3.070168 1.116,-2.654579 1.116,-2.254931 1.116,-1.873503 1.116,-1.512312 1.116,-1.173099 1.116,-0.857331 1.116,-0.566185 1.116,-0.30056 1.116,-0.06108 1.116,0.151924 1.116,0.338361 1.116,0.498409 2.232,1.37373 2.232,1.711908 6.696,5.455247 2.232,1.477565 2.232,1.153124 2.232,0.779323 2.232,0.38338 2.232,-0.0099 2.232,-0.379165 2.232,-0.706618 2.232,-0.978859 3.348,-1.836611 10.044,-6.026485 2.232,-1.068657 2.232,-0.881929 2.232,-0.675476 2.232,-0.460895 2.232,-0.249081 2.232,-0.04979 2.232,0.128741 3.348,0.466894 4.464,0.959542 8.928,2.055334 3.348,0.52797 3.348,0.30405 3.348,0.06162 3.348,-0.172244 3.348,-0.374782 4.464,-0.729919 13.392,-2.445332 4.464,-0.508433 4.464,-0.250593 4.464,0.0041 4.464,0.218414 6.696,0.58126 11.16,1.006747 5.58,0.271584 5.58,0.04261 5.58,-0.175623 1.116,-0.05726 0,0"
           style="fill:none;stroke:#0000ff;stroke-width:4.70921421;stroke-linecap:square;stroke-linejoin:round;stroke-miterlimit:10;stroke-opacity:1;stroke-dasharray:none"
           id="path7092" />
      </g>
    </g>
    <path
       style="fill:#666666;fill-opacity:1;stroke:none"
       d="m 395.89844,1025.4039 69.80035,0 5.78559,1.6191 -5.78559,1.6191 -69.80035,0 z"
       id="rect7363"
       inkscape:connector-curvature="0"
       sodipodi:nodetypes="cccccc" />
    <path
       sodipodi:nodetypes="cccccc"
       inkscape:connector-curvature="0"
       id="path7366"
       d="m 548.04688,1025.4039 -69.80035,0 -5.78559,1.6191 5.78559,1.6191 69.80035,0 z"
       style="fill:#666666;fill-opacity:1;stroke:none" />
    <path
       sodipodi:nodetypes="cccccc"
       inkscape:connector-curvature="0"
       id="path7368"
       d="m 206.54218,1024.9896 69.80035,0 5.78559,1.6191 -5.78559,1.6191 -69.80035,0 z"
       style="fill:#666666;fill-opacity:1;stroke:none" />
    <path
       style="fill:#666666;fill-opacity:1;stroke:none"
       d="m 360.16444,1024.9896 -69.80035,0 -5.78559,1.6191 5.78559,1.6191 69.80035,0 z"
       id="path7370"
       inkscape:connector-curvature="0"
       sodipodi:nodetypes="cccccc" />
    <path
       style="fill:#666666;fill-opacity:1;stroke:none"
       d="m 14.699936,1025.1278 69.80035,0 5.785591,1.6191 -5.785591,1.6191 -69.80035,0 z"
       id="path7372"
       inkscape:connector-curvature="0"
       sodipodi:nodetypes="cccccc" />
    <path
       sodipodi:nodetypes="cccccc"
       inkscape:connector-curvature="0"
       id="path7374"
       d="m 170.5397,1025.1278 -69.80035,0 -5.785593,1.6191 5.785593,1.6191 69.80035,0 z"
       style="fill:#666666;fill-opacity:1;stroke:none" />
    <path
       inkscape:connector-curvature="0"
       id="path7376"
       d="m 282.82677,1033.5358 0,-16.7424 0.45527,0 0.45527,0 0,16.7424 0,16.7423 -0.45527,0 -0.45527,0 0,-16.7423 z"
       style="fill:#660000;fill-opacity:1;stroke:none" />
    <path
       style="fill:#660000;fill-opacity:1;stroke:none"
       d="m 91.548862,1024.4208 0,-16.7424 1.007693,0 1.007693,0 0,16.7424 0,16.7423 -1.007693,0 -1.007693,0 0,-16.7423 z"
       id="path7378"
       inkscape:connector-curvature="0" />
    <text
       xml:space="preserve"
       style="font-size:12px;font-style:normal;font-variant:normal;font-weight:normal;font-stretch:normal;line-height:125%;letter-spacing:0px;word-spacing:0px;fill:#000000;fill-opacity:1;stroke:none;font-family:Times New Roman;-inkscape-font-specification:'Times New Roman,'"
       x="157.57079"
       y="1045.3029"
       id="text7380"
       sodipodi:linespacing="125%"><tspan
         sodipodi:role="line"
         id="tspan7382"
         x="157.57079"
         y="1045.3029">light beam</tspan></text>
    <text
       sodipodi:linespacing="125%"
       id="text7384"
       y="1046.4077"
       x="364.84375"
       style="font-size:12px;font-style:normal;font-variant:normal;font-weight:normal;font-stretch:normal;line-height:125%;letter-spacing:0px;word-spacing:0px;fill:#000000;fill-opacity:1;stroke:none;font-family:Times New Roman;-inkscape-font-specification:'Times New Roman,'"
       xml:space="preserve"><tspan
         y="1046.4077"
         x="364.84375"
         id="tspan7386"
         sodipodi:role="line">slits</tspan></text>
    <g
       id="g7840">
      <path
         transform="translate(0,910.6286)"
         inkscape:connector-curvature="0"
         id="path7388"
         d="m 394.35795,133.00043 64.62643,-11.97127"
         style="fill:none;stroke:#000000;stroke-width:0.60000002;stroke-linecap:butt;stroke-linejoin:miter;stroke-miterlimit:4;stroke-opacity:1;stroke-dasharray:none;marker-end:url(#Arrow1Lend)"
         sodipodi:nodetypes="cc" />
      <path
         transform="translate(0,910.6286)"
         inkscape:connector-curvature="0"
         id="path7390"
         d="m 362.10938,132.35728 -64.0625,-11.71875"
         style="fill:none;stroke:#000000;stroke-width:0.60000002;stroke-linecap:butt;stroke-linejoin:miter;stroke-miterlimit:4;stroke-opacity:1;stroke-dasharray:none;marker-end:url(#Arrow1Lend)" />
      <path
         transform="translate(0,910.6286)"
         inkscape:connector-curvature="0"
         id="path7392"
         d="m 228.01199,131.48125 42.42306,0.13881"
         style="fill:none;stroke:#000000;stroke-width:0.60000002;stroke-linecap:butt;stroke-linejoin:miter;stroke-miterlimit:4;stroke-opacity:1;stroke-dasharray:none;marker-end:url(#Arrow1Lend)"
         sodipodi:nodetypes="cc" />
      <path
         transform="translate(0,910.6286)"
         inkscape:connector-curvature="0"
         id="path7394"
         d="m 155.55064,129.36632 -47.02391,-0.0507"
         style="fill:none;stroke:#000000;stroke-width:0.60000002;stroke-linecap:butt;stroke-linejoin:miter;stroke-miterlimit:4;stroke-opacity:1;stroke-dasharray:none;marker-end:url(#Arrow1Lend)"
         sodipodi:nodetypes="cc" />
    </g>
  </g>
</svg>
