<?xml version="1.0" encoding="UTF-8" standalone="no"?>
<!-- Created with Inkscape (http://www.inkscape.org/) -->

<svg
   xmlns:dc="http://purl.org/dc/elements/1.1/"
   xmlns:cc="http://creativecommons.org/ns#"
   xmlns:rdf="http://www.w3.org/1999/02/22-rdf-syntax-ns#"
   xmlns:svg="http://www.w3.org/2000/svg"
   xmlns="http://www.w3.org/2000/svg"
   xmlns:sodipodi="http://sodipodi.sourceforge.net/DTD/sodipodi-0.dtd"
   xmlns:inkscape="http://www.inkscape.org/namespaces/inkscape"
   id="svg2"
   version="1.1"
   inkscape:version="0.48.0 r9654"
   width="558.73871"
   height="143.02789"
   xml:space="preserve"
   sodipodi:docname="spectralOCT.pdf"><metadata
     id="metadata8"><rdf:RDF><cc:Work
         rdf:about=""><dc:format>image/svg+xml</dc:format><dc:type
           rdf:resource="http://purl.org/dc/dcmitype/StillImage" /><dc:title></dc:title></cc:Work></rdf:RDF></metadata><defs
     id="defs6"><marker
       inkscape:stockid="Arrow1Lend"
       orient="auto"
       refY="0"
       refX="0"
       id="Arrow1Lend"
       style="overflow:visible"><path
         id="path4015"
         d="M 0,0 5,-5 -12.5,0 5,5 0,0 z"
         style="fill-rule:evenodd;stroke:#000000;stroke-width:1pt;marker-start:none"
         transform="matrix(-0.8,0,0,-0.8,-10,0)"
         inkscape:connector-curvature="0" /></marker><clipPath
       clipPathUnits="userSpaceOnUse"
       id="clipPath30"><path
         d="m 3901.78,2659.83 0,237.83 935.04,0 0,-237.83 -935.04,0 z"
         clip-rule="evenodd"
         id="path32"
         inkscape:connector-curvature="0" /></clipPath><clipPath
       clipPathUnits="userSpaceOnUse"
       id="clipPath40"><path
         d="m 3786.12,2008.1 0,237.83 935.04,0 0,-237.83 -935.04,0 z"
         clip-rule="evenodd"
         id="path42"
         inkscape:connector-curvature="0" /></clipPath><clipPath
       clipPathUnits="userSpaceOnUse"
       id="clipPath50"><path
         d="m 3994.55,2563.02 0,172.83 935.04,0 0,-172.83 -935.04,0 z"
         clip-rule="evenodd"
         id="path52"
         inkscape:connector-curvature="0" /></clipPath><clipPath
       clipPathUnits="userSpaceOnUse"
       id="clipPath60"><path
         d="m 4129.8,2479.59 0,120.72 935.04,0 0,-120.72 -935.04,0 z"
         clip-rule="evenodd"
         id="path62"
         inkscape:connector-curvature="0" /></clipPath></defs><sodipodi:namedview
     pagecolor="#ffffff"
     bordercolor="#666666"
     borderopacity="1"
     objecttolerance="10"
     gridtolerance="10"
     guidetolerance="10"
     inkscape:pageopacity="0"
     inkscape:pageshadow="2"
     inkscape:window-width="1280"
     inkscape:window-height="752"
     id="namedview4"
     showgrid="false"
     units="cm"
     inkscape:zoom="1.4856385"
     inkscape:cx="295.96112"
     inkscape:cy="78.609189"
     inkscape:window-x="64"
     inkscape:window-y="68"
     inkscape:window-maximized="0"
     inkscape:current-layer="g10"
     fit-margin-top="0"
     fit-margin-left="0"
     fit-margin-right="0"
     fit-margin-bottom="0" /><g
     id="g10"
     inkscape:groupmode="layer"
     inkscape:label="ink_ext_XXXXXX"
     transform="matrix(1.25,0,0,-1.25,-26.991454,184.15222)"><path
   inkscape:connector-curvature="0"
   id="path14"
   style="fill:#918f90;fill-opacity:1;fill-rule:evenodd;stroke:none"
   d="m 413.18946,89.98346 10.0363,0 0,41.5793 -10.0363,0 0,-41.5793 z" /><path
   inkscape:connector-curvature="0"
   id="path16"
   style="fill:none;stroke:#918f90;stroke-width:0.21600001;stroke-linecap:butt;stroke-linejoin:miter;stroke-miterlimit:2.61310005;stroke-opacity:1;stroke-dasharray:none"
   d="m 413.18946,89.98346 10.0363,0 0,41.5793 -10.0363,0 0,-41.5793 z" /><path
   inkscape:connector-curvature="0"
   id="path18"
   style="fill:#656263;fill-opacity:1;fill-rule:evenodd;stroke:none"
   d="m 423.34046,89.98146 14.0203,0 0,41.5793 -14.0203,0 0,-41.5793 z" /><path
   inkscape:connector-curvature="0"
   id="path20"
   style="fill:none;stroke:#656263;stroke-width:0.21600001;stroke-linecap:butt;stroke-linejoin:miter;stroke-miterlimit:2.61310005;stroke-opacity:1;stroke-dasharray:none"
   d="m 423.34046,89.98146 14.0203,0 0,41.5793 -14.0203,0 0,-41.5793 z" /><path
   inkscape:connector-curvature="0"
   id="path22"
   style="fill:#4f4c4c;fill-opacity:1;fill-rule:evenodd;stroke:none"
   d="m 437.26246,89.98146 7.81562,0 0,41.5793 -7.81562,0 0,-41.5793 z" /><path
   inkscape:connector-curvature="0"
   id="path24"
   style="fill:none;stroke:#4f4c4c;stroke-width:0.21600001;stroke-linecap:butt;stroke-linejoin:miter;stroke-miterlimit:2.61310005;stroke-opacity:1;stroke-dasharray:none"
   d="m 437.26246,89.98146 7.81562,0 0,41.5793 -7.81562,0 0,-41.5793 z" /><path
   inkscape:connector-curvature="0"
   id="path34"
   style="fill:none;stroke:#ed1d29;stroke-width:0.80000001;stroke-linecap:butt;stroke-linejoin:miter;stroke-miterlimit:2.61310005;stroke-opacity:1;stroke-dasharray:none"
   d="m 340.34846,121.00146 0.196,-0.357 0.158,-0.306 0.197,-0.153 0.197,-0.013 0.157,0.089 0.197,0.052 0.158,-0.115 0.196,-0.344 0.197,-0.561 0.158,-0.676 0.197,-0.611 0.196,-0.409 0.158,-0.076 0.197,0.293 0.197,0.599 0.157,0.765 0.197,0.752 0.197,0.612 0.158,0.319 0.196,-0.013 0.197,-0.306 0.158,-0.472 0.197,-0.471 0.157,-0.268 0.197,0.102 0.197,0.561 0.157,0.969 0.197,1.198 0.197,1.159 0.157,0.791 0.198,0.178 0.196,-0.599 0.158,-1.338 0.196,-1.874 0.198,-2.078 0.157,-1.873 0.197,-1.338 0.157,-0.523 0.197,0.357 0.197,1.147 0.158,1.695 0.197,1.937 0.196,1.836 0.158,1.402 0.197,0.765 0.197,0.051 0.157,-0.625 0.197,-1.109 0.197,-1.338 0.157,-1.262 0.197,-0.956 0.197,-0.484 0.157,0 0.198,0.395 0.157,0.599 0.197,0.637 0.197,0.523 0.157,0.357 0.197,0.191 0.197,0.127 0.157,0.115 0.197,0.153 0.197,0.14 0.158,0.013 0.196,-0.217 0.197,-0.548 0.158,-0.854 0.197,-1.019 0.196,-0.931 0.158,-0.573 0.197,0.038 0.158,0.79 0.196,1.453 0.197,1.899 0.157,1.938 0.198,1.568 0.196,0.815 0.158,-0.14 0.196,-1.096 0.198,-1.861 0.157,-2.218 0.197,-2.129 0.197,-1.631 0.157,-0.854 0.197,0.013 0.197,0.765 0.157,1.249 0.197,1.376 0.158,1.198 0.197,0.778 0.196,0.331 0.158,-0.05 0.197,-0.23 0.197,-0.191 0.157,0.025 0.197,0.255 0.197,0.382 0.158,0.294 0.196,-0.039 0.197,-0.573 0.158,-1.134 0.197,-1.568 0.157,-1.683 0.197,-1.402 0.197,-0.765 0.157,0.115 0.198,1.071 0.196,1.823 0.158,2.243 0.196,2.23 0.198,1.797 0.157,1.033 0.197,0.115 0.196,-0.791 0.158,-1.516 0.197,-1.95 0.197,-2.014 0.157,-1.708 0.197,-1.109 0.158,-0.293 0.197,0.573 0.196,1.313 0.158,1.784 0.197,1.874 0.197,1.555 0.157,0.892 0.197,0.051 0.197,-0.739 0.157,-1.325 0.197,-1.568 0.197,-1.428 0.158,-1.019 0.196,-0.459 0.197,0.076 0.158,0.472 0.197,0.637 0.157,0.637 0.197,0.497 0.197,0.332 0.157,0.165 0.197,0.09 0.197,0.051 0.158,0.051 0.196,0.051 0.197,0.05 0.158,0.039 0.197,0.013 0.197,-0.013 0.157,-0.051 0.197,-0.102 0.157,-0.166 0.197,-0.216 0.197,-0.243 0.158,-0.216 0.196,-0.128 0.197,-0.013 0.158,0.128 0.197,0.229 0.196,0.268 0.158,0.28 0.197,0.243 0.197,0.216 0.157,0.243 0.197,0.305 0.197,0.357 0.157,0.344 0.197,0.23 0.158,-0.064 0.197,-0.459 0.196,-0.879 0.158,-1.211 0.197,-1.313 0.197,-1.147 0.157,-0.727 0.197,-0.127 0.197,0.497 0.158,1.033 0.196,1.338 0.197,1.351 0.158,1.134 0.197,0.714 0.197,0.191 0.157,-0.293 0.197,-0.701 0.158,-0.969 0.196,-1.045 0.197,-0.93 0.157,-0.663 0.198,-0.268 0.196,0.204 0.158,0.637 0.196,0.956 0.198,1.071 0.157,0.969 0.197,0.688 0.197,0.23 0.157,-0.242 0.197,-0.689 0.197,-0.981 0.158,-1.109 0.196,-1.033 0.158,-0.777 0.197,-0.357 0.197,0.14 0.157,0.701 0.197,1.198 0.197,1.594 0.158,1.758 0.196,1.645 0.197,1.236 0.157,0.574 0.198,-0.255 0.196,-1.109 0.158,-1.81 0.197,-2.256 0.157,-2.384 0.197,-2.179 0.197,-1.721 0.157,-1.096 0.197,-0.37 0.197,0.357 0.158,1.033 0.196,1.606 0.197,2.039 0.158,2.256 0.197,2.205 0.196,1.874 0.158,1.274 0.197,0.497 0.197,-0.331 0.157,-1.045 0.197,-1.517 0.158,-1.67 0.197,-1.491 0.196,-1.083 0.158,-0.599 0.197,-0.153 0.197,0.165 0.157,0.281 0.197,0.229 0.197,0.077 0.157,-0.102 0.197,-0.23 0.197,-0.255 0.158,-0.165 0.196,0.038 0.198,0.344 0.157,0.701 0.197,1.071 0.157,1.389 0.197,1.555 0.197,1.504 0.157,1.16 0.197,0.51 0.197,-0.383 0.158,-1.427 0.196,-2.384 0.197,-3.084 0.158,-3.301 0.197,-2.945 0.197,-2.001 0.157,-0.599 0.197,0.969 0.157,2.421 0.198,3.442 0.196,3.798 0.158,3.403 0.196,2.371 0.198,0.931 0.157,-0.561 0.197,-1.772 0.196,-2.422 0.158,-2.434 0.197,-1.848 0.197,-0.943 0.157,0.025 0.197,0.765 0.197,1.083 0.158,0.93 0.196,0.459 0.158,-0.153 0.197,-0.637 0.197,-0.815 0.157,-0.6 0.197,-0.114 0.197,0.522 0.157,1.007 0.197,1.173 0.197,0.943 0.158,0.331 0.196,-0.484 0.197,-1.236 0.158,-1.67 0.197,-1.619 0.197,-1.07 0.157,-0.166 0.197,0.867 0.157,1.72 0.197,2.116 0.197,1.95 0.158,1.262 0.196,0.204 0.197,-0.918 0.158,-1.848 0.197,-2.345 0.197,-2.307 0.157,-1.784 0.197,-0.918 0.197,0.127 0.157,1.109 0.197,1.874 0.158,2.32 0.197,2.383 0.196,2.091 0.158,1.503 0.197,0.676 0.197,-0.229 0.157,-1.109 0.197,-1.81 0.197,-2.205 0.158,-2.218 0.196,-1.848 0.197,-1.198 0.157,-0.421 0.198,0.344 0.196,0.931 0.158,1.236 0.196,1.287 0.158,1.122 0.197,0.867 0.197,0.599 0.157,0.421 0.197,0.293 0.197,0.203 0.158,0.102 0.196,-0.076 0.197,-0.331 0.158,-0.612 0.197,-0.867 0.197,-0.994 0.157,-0.956 0.197,-0.752 0.197,-0.421 0.157,-0.051 0.197,0.23 0.158,0.395 0.197,0.395 0.197,0.293 0.157,0.14 0.197,0.039 0.197,0.063 0.157,0.191 0.197,0.37 0.197,0.535 0.157,0.574 0.197,0.459 0.197,0.191 0.158,-0.14 0.196,-0.421 0.197,-0.535 0.158,-0.433 0.197,-0.166 0.157,0.178 0.197,0.459 0.197,0.548 0.158,0.37 0.196,-0.013 0.197,-0.459 0.157,-0.816 0.198,-0.917 0.196,-0.727 0.158,-0.242 0.197,0.331 0.197,0.842 0.157,1.071 0.197,0.955 0.157,0.51 0.197,-0.153 0.197,-0.777 0.158,-1.211 0.196,-1.275 0.197,-0.994 0.158,-0.421 0.197,0.268 0.197,0.854 0.157,1.211 0.197,1.274 0.197,1.046 0.157,0.624 0.197,0.179 0.197,-0.217 0.158,-0.459 0.196,-0.522 0.158,-0.498 0.197,-0.369 0.197,-0.255 0.157,-0.191 0.197,-0.179 0.197,-0.204" /><path
   inkscape:connector-curvature="0"
   id="path44"
   style="fill:none;stroke:#ed1d29;stroke-width:0.80000001;stroke-linecap:butt;stroke-linejoin:miter;stroke-miterlimit:2.61310005;stroke-opacity:1;stroke-dasharray:none"
   d="m 328.78246,55.82746 0.197,-0.357 0.157,-0.305 0.197,-0.153 0.197,-0.013 0.157,0.089 0.197,0.051 0.158,-0.115 0.196,-0.344 0.197,-0.561 0.158,-0.675 0.197,-0.612 0.196,-0.408 0.158,-0.076 0.197,0.293 0.197,0.599 0.157,0.765 0.197,0.752 0.197,0.611 0.158,0.319 0.196,-0.013 0.197,-0.306 0.158,-0.471 0.197,-0.471 0.157,-0.268 0.197,0.101 0.197,0.561 0.158,0.969 0.196,1.198 0.197,1.16 0.157,0.79 0.198,0.179 0.196,-0.599 0.158,-1.338 0.197,-1.874 0.197,-2.078 0.157,-1.873 0.197,-1.339 0.157,-0.522 0.197,0.356 0.197,1.148 0.158,1.695 0.196,1.937 0.197,1.836 0.158,1.402 0.197,0.764 0.197,0.052 0.157,-0.625 0.197,-1.109 0.197,-1.338 0.158,-1.262 0.196,-0.956 0.197,-0.484 0.157,0 0.198,0.395 0.157,0.599 0.197,0.637 0.197,0.523 0.157,0.357 0.197,0.191 0.197,0.127 0.157,0.115 0.197,0.153 0.197,0.14 0.158,0.013 0.196,-0.217 0.197,-0.548 0.158,-0.854 0.197,-1.02 0.196,-0.93 0.158,-0.574 0.197,0.038 0.158,0.791 0.196,1.453 0.197,1.899 0.158,1.937 0.197,1.568 0.196,0.816 0.158,-0.141 0.197,-1.096 0.197,-1.861 0.157,-2.217 0.197,-2.129 0.197,-1.631 0.157,-0.854 0.197,0.013 0.197,0.764 0.158,1.249 0.196,1.377 0.158,1.198 0.197,0.778 0.197,0.331 0.157,-0.051 0.197,-0.23 0.197,-0.191 0.157,0.026 0.197,0.255 0.197,0.382 0.158,0.293 0.196,-0.038 0.197,-0.573 0.158,-1.135 0.197,-1.568 0.157,-1.682 0.197,-1.402 0.197,-0.765 0.157,0.115 0.197,1.071 0.197,1.822 0.158,2.243 0.196,2.231 0.198,1.797 0.157,1.032 0.197,0.115 0.197,-0.79 0.157,-1.516 0.197,-1.951 0.197,-2.014 0.157,-1.708 0.197,-1.109 0.158,-0.293 0.196,0.574 0.198,1.313 0.157,1.784 0.197,1.874 0.197,1.555 0.157,0.892 0.197,0.051 0.197,-0.739 0.157,-1.326 0.197,-1.567 0.197,-1.428 0.158,-1.02 0.196,-0.459 0.197,0.077 0.158,0.471 0.197,0.638 0.157,0.637 0.197,0.497 0.197,0.331 0.157,0.166 0.197,0.09 0.197,0.05 0.158,0.051 0.196,0.051 0.197,0.051 0.158,0.039 0.197,0.012 0.197,-0.012 0.157,-0.051 0.197,-0.102 0.158,-0.166 0.196,-0.217 0.197,-0.242 0.158,-0.216 0.197,-0.128 0.196,-0.013 0.158,0.128 0.197,0.229 0.197,0.268 0.157,0.28 0.197,0.242 0.197,0.217 0.158,0.242 0.196,0.306 0.197,0.357 0.157,0.344 0.198,0.23 0.157,-0.064 0.197,-0.459 0.196,-0.879 0.158,-1.211 0.197,-1.313 0.197,-1.148 0.157,-0.726 0.197,-0.127 0.197,0.497 0.158,1.032 0.196,1.339 0.197,1.351 0.158,1.134 0.197,0.714 0.197,0.191 0.157,-0.293 0.197,-0.701 0.158,-0.969 0.196,-1.045 0.197,-0.931 0.158,-0.662 0.197,-0.268 0.197,0.204 0.157,0.637 0.197,0.956 0.197,1.071 0.157,0.968 0.197,0.689 0.197,0.229 0.157,-0.242 0.197,-0.689 0.197,-0.981 0.158,-1.109 0.196,-1.032 0.158,-0.778 0.197,-0.357 0.197,0.141 0.157,0.701 0.197,1.198 0.197,1.593 0.158,1.759 0.196,1.644 0.197,1.237 0.158,0.573 0.197,-0.255 0.196,-1.109 0.158,-1.809 0.197,-2.257 0.157,-2.383 0.197,-2.179 0.197,-1.721 0.157,-1.096 0.197,-0.37 0.197,0.357 0.158,1.032 0.197,1.606 0.196,2.04 0.158,2.256 0.197,2.205 0.197,1.873 0.157,1.275 0.197,0.497 0.197,-0.331 0.157,-1.045 0.197,-1.517 0.158,-1.67 0.197,-1.491 0.196,-1.084 0.158,-0.599 0.197,-0.153 0.197,0.166 0.157,0.28 0.197,0.23 0.197,0.076 0.157,-0.102 0.197,-0.229 0.197,-0.255 0.158,-0.166 0.196,0.038 0.198,0.345 0.157,0.701 0.197,1.07 0.157,1.39 0.197,1.555 0.197,1.504 0.157,1.159 0.197,0.511 0.197,-0.383 0.158,-1.428 0.196,-2.383 0.197,-3.084 0.158,-3.302 0.197,-2.944 0.197,-2.001 0.157,-0.599 0.197,0.968 0.158,2.422 0.196,3.441 0.197,3.799 0.158,3.403 0.197,2.371 0.197,0.931 0.157,-0.561 0.197,-1.772 0.197,-2.422 0.157,-2.434 0.197,-1.849 0.197,-0.943 0.157,0.026 0.197,0.764 0.197,1.084 0.157,0.93 0.198,0.459 0.157,-0.153 0.197,-0.637 0.197,-0.816 0.157,-0.599 0.197,-0.115 0.197,0.523 0.158,1.007 0.196,1.172 0.197,0.944 0.158,0.331 0.197,-0.484 0.196,-1.237 0.158,-1.669 0.197,-1.619 0.197,-1.071 0.157,-0.165 0.197,0.866 0.157,1.721 0.198,2.116 0.196,1.95 0.158,1.262 0.196,0.204 0.198,-0.918 0.157,-1.848 0.197,-2.345 0.197,-2.307 0.157,-1.784 0.197,-0.918 0.197,0.127 0.157,1.109 0.197,1.874 0.158,2.319 0.197,2.384 0.196,2.09 0.158,1.504 0.197,0.676 0.197,-0.23 0.157,-1.109 0.197,-1.809 0.197,-2.205 0.158,-2.218 0.196,-1.848 0.197,-1.199 0.158,-0.421 0.197,0.345 0.196,0.93 0.158,1.236 0.197,1.288 0.157,1.122 0.197,0.866 0.197,0.599 0.157,0.421 0.197,0.293 0.197,0.204 0.158,0.102 0.197,-0.076 0.196,-0.332 0.158,-0.612 0.197,-0.866 0.197,-0.995 0.157,-0.955 0.197,-0.753 0.197,-0.42 0.157,-0.051 0.197,0.229 0.158,0.395 0.197,0.396 0.197,0.293 0.157,0.14 0.197,0.038 0.197,0.064 0.157,0.191 0.197,0.37 0.197,0.535 0.157,0.574 0.197,0.459 0.197,0.191 0.158,-0.14 0.196,-0.421 0.198,-0.535 0.157,-0.434 0.197,-0.166 0.157,0.179 0.197,0.459 0.197,0.548 0.158,0.37 0.196,-0.013 0.197,-0.459 0.158,-0.816 0.197,-0.918 0.196,-0.726 0.158,-0.242 0.197,0.331 0.197,0.841 0.157,1.071 0.197,0.956 0.158,0.51 0.196,-0.153 0.197,-0.777 0.158,-1.211 0.197,-1.275 0.196,-0.994 0.158,-0.421 0.197,0.268 0.197,0.854 0.157,1.211 0.197,1.274 0.197,1.046 0.157,0.624 0.197,0.178 0.197,-0.216 0.158,-0.459 0.196,-0.523 0.158,-0.497 0.197,-0.37 0.197,-0.254 0.157,-0.192 0.197,-0.178 0.197,-0.204" /><path
   inkscape:connector-curvature="0"
   id="path54"
   style="fill:none;stroke:#ed1d29;stroke-width:0.80000001;stroke-linecap:butt;stroke-linejoin:miter;stroke-miterlimit:2.61310005;stroke-opacity:1;stroke-dasharray:none"
   d="m 349.62546,107.38746 0.197,-0.251 0.157,-0.214 0.198,-0.107 0.196,-0.009 0.158,0.062 0.196,0.036 0.158,-0.081 0.197,-0.241 0.197,-0.393 0.157,-0.474 0.197,-0.43 0.197,-0.286 0.158,-0.053 0.196,0.205 0.197,0.421 0.158,0.536 0.197,0.528 0.197,0.429 0.157,0.223 0.197,-0.009 0.197,-0.214 0.157,-0.331 0.197,-0.331 0.158,-0.188 0.196,0.072 0.197,0.394 0.158,0.679 0.197,0.84 0.197,0.814 0.157,0.555 0.197,0.125 0.197,-0.42 0.157,-0.939 0.197,-1.315 0.197,-1.457 0.157,-1.315 0.197,-0.939 0.158,-0.367 0.197,0.251 0.197,0.805 0.157,1.189 0.197,1.359 0.197,1.288 0.158,0.983 0.196,0.537 0.197,0.036 0.157,-0.438 0.198,-0.778 0.196,-0.94 0.158,-0.885 0.197,-0.67 0.197,-0.34 0.157,0 0.197,0.277 0.157,0.42 0.197,0.448 0.197,0.366 0.158,0.25 0.196,0.134 0.197,0.09 0.158,0.081 0.197,0.107 0.196,0.098 0.158,0.009 0.197,-0.152 0.197,-0.384 0.157,-0.599 0.197,-0.716 0.197,-0.653 0.158,-0.402 0.196,0.027 0.158,0.554 0.197,1.02 0.197,1.332 0.157,1.359 0.197,1.1 0.197,0.572 0.157,-0.098 0.197,-0.769 0.197,-1.306 0.158,-1.555 0.196,-1.494 0.198,-1.144 0.157,-0.6 0.197,0.009 0.196,0.537 0.158,0.876 0.197,0.966 0.157,0.841 0.197,0.545 0.197,0.233 0.158,-0.036 0.196,-0.161 0.197,-0.134 0.158,0.018 0.197,0.179 0.197,0.268 0.157,0.206 0.197,-0.027 0.197,-0.403 0.157,-0.795 0.197,-1.1 0.157,-1.181 0.198,-0.984 0.196,-0.536 0.158,0.081 0.197,0.751 0.197,1.278 0.157,1.574 0.197,1.565 0.197,1.261 0.157,0.724 0.197,0.081 0.197,-0.555 0.157,-1.064 0.197,-1.368 0.197,-1.413 0.158,-1.198 0.197,-0.778 0.157,-0.206 0.197,0.403 0.197,0.92 0.157,1.253 0.197,1.314 0.197,1.091 0.158,0.626 0.197,0.036 0.196,-0.519 0.158,-0.93 0.197,-1.1 0.197,-1.001 0.157,-0.716 0.197,-0.322 0.197,0.054 0.157,0.331 0.197,0.447 0.158,0.447 0.196,0.349 0.198,0.233 0.157,0.116 0.197,0.062 0.196,0.036 0.158,0.036 0.197,0.036 0.197,0.035 0.157,0.027 0.197,0.009 0.197,-0.009 0.158,-0.036 0.196,-0.071 0.158,-0.116 0.197,-0.152 0.197,-0.17 0.157,-0.153 0.197,-0.089 0.197,-0.009 0.157,0.09 0.197,0.161 0.197,0.187 0.157,0.197 0.198,0.17 0.196,0.152 0.158,0.17 0.196,0.214 0.198,0.251 0.157,0.241 0.197,0.161 0.157,-0.044 0.197,-0.322 0.197,-0.617 0.158,-0.85 0.196,-0.921 0.197,-0.805 0.158,-0.509 0.197,-0.09 0.197,0.349 0.157,0.724 0.197,0.939 0.197,0.948 0.158,0.796 0.196,0.501 0.197,0.134 0.157,-0.206 0.198,-0.491 0.157,-0.68 0.197,-0.734 0.197,-0.652 0.157,-0.465 0.197,-0.188 0.197,0.143 0.157,0.447 0.197,0.671 0.197,0.751 0.157,0.68 0.197,0.482 0.197,0.161 0.158,-0.17 0.197,-0.483 0.196,-0.688 0.158,-0.778 0.197,-0.724 0.158,-0.546 0.196,-0.25 0.197,0.098 0.158,0.492 0.197,0.84 0.196,1.118 0.158,1.234 0.197,1.154 0.197,0.867 0.157,0.403 0.197,-0.179 0.197,-0.778 0.157,-1.27 0.197,-1.583 0.158,-1.672 0.197,-1.529 0.196,-1.207 0.158,-0.769 0.197,-0.259 0.197,0.25 0.157,0.724 0.197,1.127 0.197,1.431 0.157,1.583 0.197,1.546 0.197,1.315 0.158,0.894 0.196,0.349 0.197,-0.233 0.158,-0.733 0.197,-1.064 0.157,-1.171 0.197,-1.047 0.197,-0.76 0.157,-0.42 0.197,-0.107 0.197,0.116 0.158,0.197 0.196,0.161 0.198,0.053 0.157,-0.071 0.197,-0.161 0.196,-0.179 0.158,-0.116 0.197,0.027 0.197,0.241 0.157,0.492 0.197,0.751 0.158,0.975 0.196,1.091 0.197,1.055 0.158,0.813 0.197,0.358 0.197,-0.268 0.157,-1.002 0.197,-1.672 0.197,-2.164 0.157,-2.316 0.197,-2.065 0.197,-1.404 0.158,-0.42 0.196,0.679 0.158,1.699 0.197,2.414 0.197,2.665 0.157,2.387 0.197,1.664 0.197,0.652 0.157,-0.393 0.197,-1.243 0.197,-1.699 0.157,-1.708 0.197,-1.296 0.197,-0.662 0.158,0.018 0.197,0.537 0.196,0.759 0.158,0.653 0.197,0.322 0.158,-0.107 0.196,-0.447 0.197,-0.573 0.158,-0.42 0.197,-0.08 0.196,0.366 0.158,0.707 0.197,0.822 0.197,0.662 0.157,0.233 0.197,-0.34 0.197,-0.868 0.158,-1.171 0.196,-1.136 0.197,-0.751 0.157,-0.116 0.198,0.608 0.157,1.207 0.197,1.485 0.196,1.368 0.158,0.885 0.197,0.143 0.197,-0.643 0.157,-1.297 0.197,-1.646 0.197,-1.618 0.158,-1.252 0.196,-0.644 0.197,0.089 0.158,0.778 0.197,1.315 0.157,1.627 0.197,1.673 0.197,1.466 0.157,1.055 0.198,0.474 0.196,-0.161 0.158,-0.778 0.197,-1.27 0.197,-1.547 0.157,-1.555 0.197,-1.297 0.197,-0.841 0.157,-0.295 0.197,0.242 0.197,0.653 0.157,0.867 0.197,0.903 0.158,0.787 0.196,0.608 0.197,0.421 0.158,0.294 0.197,0.206 0.197,0.143 0.157,0.072 0.197,-0.054 0.197,-0.233 0.158,-0.428 0.196,-0.609 0.197,-0.697 0.157,-0.671 0.198,-0.527 0.196,-0.296 0.158,-0.035 0.197,0.161 0.157,0.277 0.197,0.277 0.197,0.206 0.157,0.098 0.197,0.027 0.197,0.044 0.157,0.135 0.197,0.259 0.197,0.376 0.158,0.402 0.197,0.322 0.197,0.134 0.157,-0.098 0.197,-0.295 0.197,-0.376 0.157,-0.304 0.197,-0.116 0.158,0.125 0.197,0.322 0.196,0.384 0.158,0.26 0.197,-0.009 0.197,-0.322 0.157,-0.572 0.197,-0.645 0.197,-0.509 0.157,-0.17 0.197,0.233 0.197,0.59 0.158,0.751 0.196,0.671 0.158,0.358 0.197,-0.108 0.197,-0.546 0.157,-0.849 0.197,-0.894 0.197,-0.698 0.157,-0.295 0.197,0.188 0.197,0.599 0.158,0.85 0.196,0.894 0.197,0.733 0.158,0.438 0.197,0.125 0.197,-0.152 0.157,-0.321 0.197,-0.367 0.158,-0.349 0.196,-0.259 0.197,-0.179 0.158,-0.134 0.197,-0.125 0.197,-0.143" /><path
   inkscape:connector-curvature="0"
   id="path64"
   style="fill:none;stroke:#ed1d29;stroke-width:0.80000001;stroke-linecap:butt;stroke-linejoin:miter;stroke-miterlimit:2.61310005;stroke-opacity:1;stroke-dasharray:none"
   d="m 363.15046,95.89146 0.196,-0.165 0.158,-0.142 0.197,-0.07 0.197,-0.006 0.157,0.041 0.197,0.024 0.157,-0.053 0.197,-0.159 0.197,-0.26 0.158,-0.312 0.197,-0.283 0.196,-0.189 0.158,-0.035 0.197,0.135 0.197,0.278 0.157,0.353 0.197,0.348 0.197,0.283 0.157,0.147 0.197,-0.006 0.197,-0.141 0.158,-0.218 0.196,-0.218 0.158,-0.124 0.197,0.047 0.197,0.259 0.157,0.449 0.197,0.553 0.197,0.536 0.157,0.366 0.197,0.082 0.197,-0.277 0.158,-0.618 0.196,-0.867 0.197,-0.96 0.158,-0.867 0.197,-0.618 0.157,-0.242 0.197,0.165 0.197,0.531 0.158,0.783 0.196,0.896 0.197,0.848 0.158,0.649 0.197,0.354 0.197,0.023 0.157,-0.289 0.197,-0.513 0.197,-0.618 0.157,-0.584 0.197,-0.442 0.197,-0.223 0.157,0 0.197,0.182 0.158,0.277 0.196,0.295 0.198,0.241 0.157,0.165 0.197,0.089 0.196,0.059 0.158,0.052 0.197,0.072 0.197,0.064 0.157,0.006 0.197,-0.1 0.197,-0.254 0.158,-0.394 0.197,-0.472 0.196,-0.43 0.158,-0.265 0.197,0.018 0.157,0.365 0.197,0.672 0.197,0.878 0.157,0.896 0.198,0.725 0.196,0.377 0.158,-0.065 0.196,-0.507 0.198,-0.86 0.157,-1.026 0.197,-0.984 0.197,-0.754 0.157,-0.395 0.197,0.006 0.197,0.353 0.157,0.578 0.197,0.636 0.158,0.554 0.197,0.36 0.196,0.153 0.158,-0.024 0.197,-0.106 0.197,-0.088 0.157,0.011 0.197,0.118 0.197,0.177 0.158,0.136 0.196,-0.018 0.197,-0.265 0.158,-0.524 0.197,-0.725 0.157,-0.778 0.197,-0.648 0.197,-0.354 0.157,0.053 0.197,0.495 0.197,0.843 0.158,1.037 0.196,1.031 0.197,0.831 0.158,0.477 0.197,0.054 0.196,-0.366 0.158,-0.701 0.197,-0.901 0.197,-0.932 0.157,-0.79 0.197,-0.512 0.158,-0.136 0.196,0.266 0.197,0.606 0.158,0.825 0.197,0.867 0.197,0.719 0.157,0.412 0.197,0.024 0.197,-0.342 0.157,-0.613 0.197,-0.725 0.197,-0.66 0.157,-0.471 0.197,-0.213 0.197,0.036 0.158,0.218 0.196,0.295 0.158,0.294 0.197,0.23 0.197,0.153 0.157,0.077 0.197,0.041 0.197,0.024 0.157,0.023 0.197,0.024 0.197,0.024 0.158,0.017 0.197,0.006 0.196,-0.006 0.158,-0.024 0.197,-0.047 0.157,-0.076 0.197,-0.1 0.197,-0.112 0.158,-0.101 0.196,-0.059 0.197,-0.005 0.157,0.059 0.198,0.106 0.196,0.124 0.158,0.129 0.197,0.112 0.197,0.1 0.157,0.113 0.197,0.141 0.197,0.165 0.157,0.159 0.197,0.106 0.158,-0.03 0.197,-0.212 0.196,-0.406 0.158,-0.56 0.197,-0.607 0.197,-0.531 0.157,-0.336 0.197,-0.059 0.197,0.23 0.158,0.478 0.196,0.619 0.197,0.624 0.158,0.525 0.197,0.33 0.196,0.088 0.158,-0.136 0.197,-0.324 0.158,-0.448 0.196,-0.483 0.197,-0.43 0.157,-0.306 0.198,-0.124 0.196,0.094 0.158,0.295 0.196,0.442 0.198,0.495 0.157,0.448 0.197,0.318 0.196,0.106 0.158,-0.112 0.197,-0.318 0.197,-0.454 0.157,-0.513 0.197,-0.477 0.158,-0.36 0.197,-0.164 0.197,0.064 0.157,0.324 0.197,0.554 0.197,0.737 0.157,0.813 0.197,0.761 0.197,0.571 0.157,0.265 0.197,-0.118 0.197,-0.512 0.158,-0.837 0.197,-1.043 0.157,-1.102 0.197,-1.008 0.197,-0.796 0.157,-0.506 0.197,-0.171 0.197,0.165 0.157,0.477 0.197,0.743 0.197,0.943 0.158,1.043 0.197,1.019 0.196,0.867 0.158,0.589 0.197,0.23 0.197,-0.154 0.157,-0.482 0.197,-0.702 0.157,-0.772 0.198,-0.689 0.196,-0.502 0.158,-0.276 0.196,-0.071 0.198,0.076 0.157,0.13 0.197,0.106 0.197,0.035 0.157,-0.047 0.197,-0.106 0.197,-0.118 0.157,-0.076 0.197,0.017 0.197,0.16 0.158,0.324 0.196,0.495 0.158,0.642 0.197,0.719 0.197,0.696 0.157,0.536 0.197,0.236 0.197,-0.177 0.158,-0.66 0.196,-1.102 0.197,-1.426 0.158,-1.527 0.197,-1.361 0.196,-0.925 0.158,-0.278 0.197,0.448 0.157,1.12 0.197,1.591 0.197,1.757 0.158,1.573 0.196,1.096 0.198,0.431 0.157,-0.26 0.197,-0.819 0.196,-1.12 0.158,-1.126 0.197,-0.854 0.197,-0.436 0.157,0.012 0.197,0.353 0.197,0.501 0.157,0.431 0.197,0.212 0.158,-0.071 0.197,-0.295 0.197,-0.377 0.157,-0.277 0.197,-0.053 0.197,0.242 0.157,0.465 0.197,0.542 0.197,0.436 0.158,0.154 0.196,-0.224 0.197,-0.572 0.158,-0.772 0.197,-0.748 0.197,-0.495 0.157,-0.077 0.197,0.401 0.157,0.795 0.197,0.978 0.197,0.902 0.157,0.584 0.197,0.094 0.197,-0.424 0.158,-0.855 0.197,-1.084 0.197,-1.067 0.157,-0.825 0.197,-0.424 0.197,0.059 0.157,0.513 0.197,0.866 0.158,1.072 0.196,1.102 0.197,0.967 0.158,0.695 0.197,0.313 0.197,-0.106 0.157,-0.513 0.197,-0.837 0.197,-1.019 0.157,-1.026 0.197,-0.855 0.197,-0.553 0.157,-0.195 0.197,0.159 0.197,0.431 0.158,0.571 0.196,0.595 0.158,0.519 0.197,0.4 0.197,0.277 0.157,0.195 0.197,0.136 0.197,0.094 0.158,0.047 0.196,-0.035 0.197,-0.154 0.158,-0.283 0.197,-0.4 0.196,-0.46 0.158,-0.442 0.197,-0.348 0.197,-0.194 0.157,-0.024 0.197,0.106 0.157,0.183 0.198,0.183 0.196,0.135 0.158,0.065 0.196,0.018 0.198,0.029 0.157,0.089 0.197,0.171 0.196,0.247 0.158,0.265 0.197,0.213 0.197,0.088 0.157,-0.065 0.197,-0.195 0.197,-0.247 0.158,-0.2 0.197,-0.077 0.157,0.083 0.197,0.212 0.197,0.253 0.157,0.171 0.197,-0.005 0.197,-0.213 0.157,-0.377 0.198,-0.424 0.196,-0.336 0.158,-0.112 0.197,0.153 0.197,0.389 0.157,0.495 0.197,0.442 0.157,0.236 0.197,-0.071 0.197,-0.359 0.157,-0.56 0.197,-0.59 0.197,-0.459 0.158,-0.195 0.197,0.124 0.196,0.395 0.158,0.56 0.197,0.589 0.197,0.483 0.157,0.289 0.197,0.082 0.197,-0.1 0.158,-0.212 0.196,-0.242 0.158,-0.229 0.197,-0.171 0.197,-0.118 0.157,-0.089 0.197,-0.082 0.197,-0.094" /><path
   inkscape:connector-curvature="0"
   id="path66"
   style="fill:none;stroke:#231f20;stroke-width:0.80000001;stroke-linecap:butt;stroke-linejoin:miter;stroke-miterlimit:2.61310005;stroke-opacity:1;stroke-dasharray:none"
   d="m 172.27846,60.48146 94.873,0 0,35.0699 -94.873,0 0,-35.0699 z" /><path
   inkscape:connector-curvature="0"
   id="path68"
   style="fill:none;stroke:#231f20;stroke-width:0.80000001;stroke-linecap:butt;stroke-linejoin:miter;stroke-miterlimit:2.61310005;stroke-opacity:1;stroke-dasharray:none"
   d="m 21.993163,85.17646 103.965697,0 0,39.6445 -103.965697,0 z"
   sodipodi:nodetypes="ccccc" /><path
   inkscape:connector-curvature="0"
   id="path76"
   style="fill:none;stroke:#231f20;stroke-width:0.80000001;stroke-linecap:butt;stroke-linejoin:miter;stroke-miterlimit:2.61310005;stroke-opacity:1;stroke-dasharray:none"
   d="m 267.96646,84.39146 c 38.952,-0.383 14.328,22.536 47.304,22.488" /><path
   inkscape:connector-curvature="0"
   id="path78"
   style="fill:none;stroke:#231f20;stroke-width:0.80000001;stroke-linecap:butt;stroke-linejoin:miter;stroke-miterlimit:2.61310005;stroke-opacity:1;stroke-dasharray:none"
   d="m 315.19846,54.85546 c -38.952,-0.309 -14.328,18.174 -47.304,18.136" /><path
   inkscape:connector-curvature="0"
   id="path86"
   style="fill:none;stroke:#231f20;stroke-width:0.80000001;stroke-linecap:butt;stroke-linejoin:miter;stroke-miterlimit:2.61310005;stroke-opacity:1;stroke-dasharray:none"
   d="m 125.47846,105.64246 c 33.264,0.414 8.28,-21.527 46.368,-21.39" /><path
   inkscape:connector-curvature="0"
   id="path88"
   style="fill:none;stroke:#231f20;stroke-width:0.80000001;stroke-linecap:butt;stroke-linejoin:miter;stroke-miterlimit:2.61310005;stroke-opacity:1;stroke-dasharray:none"
   d="m 172.71046,71.86746 c -33.264,0.391 -8.28,-20.293 -46.368,-20.162" /><path
   inkscape:connector-curvature="0"
   id="path100"
   style="fill:none;stroke:#231f20;stroke-width:0.80000001;stroke-linecap:butt;stroke-linejoin:miter;stroke-miterlimit:2.61310005;stroke-opacity:1;stroke-dasharray:none"
   d="m 324.25046,123.84046 c 1.301,0 2.362,-7.783 2.362,-17.325 0,-9.542 -1.061,-17.324 -2.362,-17.324 -1.301,0 -2.363,7.782 -2.363,17.324 0,9.542 1.062,17.325 2.363,17.325 z" /><path
   inkscape:connector-curvature="0"
   id="path102"
   style="fill:none;stroke:#231f20;stroke-width:0.80000001;stroke-linecap:butt;stroke-linejoin:miter;stroke-miterlimit:2.61310005;stroke-opacity:1;stroke-dasharray:none"
   d="m 325.16846,72.00946 c 1.3,0 2.362,-7.782 2.362,-17.325 0,-9.541 -1.062,-17.324 -2.362,-17.324 -1.301,0 -2.363,7.783 -2.363,17.324 0,9.543 1.062,17.325 2.363,17.325 z" /><path
   inkscape:connector-curvature="0"
   id="path104"
   style="fill:none;stroke:#ed1c24;stroke-width:0.80000001;stroke-linecap:butt;stroke-linejoin:miter;stroke-miterlimit:2.61310005;stroke-opacity:1;stroke-dasharray:none"
   d="m 322.38746,119.07546 -7.622,-12.423 7.622,-12.987" /><path
   inkscape:connector-curvature="0"
   id="path106"
   style="fill:none;stroke:#ed1c24;stroke-width:0.80000001;stroke-linecap:butt;stroke-linejoin:miter;stroke-miterlimit:2.61310005;stroke-opacity:1;stroke-dasharray:none"
   d="m 323.30546,67.24446 -7.623,-12.422 7.623,-12.988" /><path
   inkscape:connector-curvature="0"
   id="path108"
   style="fill:none;stroke:#231f20;stroke-width:0.80000001;stroke-linecap:butt;stroke-linejoin:miter;stroke-miterlimit:2.61310005;stroke-opacity:1;stroke-dasharray:none"
   d="m 403.33146,71.28746 0,-32.468" /><path
   inkscape:connector-curvature="0"
   id="path110"
   style="fill:none;stroke:#231f20;stroke-width:0.80000001;stroke-linecap:butt;stroke-linejoin:miter;stroke-miterlimit:2.61310005;stroke-opacity:1;stroke-dasharray:none"
   d="m 403.37946,38.94646 3.671,3.67" /><path
   inkscape:connector-curvature="0"
   id="path112"
   style="fill:none;stroke:#231f20;stroke-width:0.80000001;stroke-linecap:butt;stroke-linejoin:miter;stroke-miterlimit:2.61310005;stroke-opacity:1;stroke-dasharray:none"
   d="m 403.41846,58.18746 3.67,3.671" /><path
   inkscape:connector-curvature="0"
   id="path114"
   style="fill:none;stroke:#231f20;stroke-width:0.80000001;stroke-linecap:butt;stroke-linejoin:miter;stroke-miterlimit:2.61310005;stroke-opacity:1;stroke-dasharray:none"
   d="m 403.33546,48.50346 3.671,3.67" /><path
   inkscape:connector-curvature="0"
   id="path116"
   style="fill:none;stroke:#231f20;stroke-width:0.80000001;stroke-linecap:butt;stroke-linejoin:miter;stroke-miterlimit:2.61310005;stroke-opacity:1;stroke-dasharray:none"
   d="m 403.37446,67.74546 3.67,3.67" /><path
   inkscape:connector-curvature="0"
   id="path118"
   style="fill:none;stroke:#231f20;stroke-width:0.80000001;stroke-linecap:butt;stroke-linejoin:miter;stroke-miterlimit:2.61310005;stroke-opacity:1;stroke-dasharray:none"
   d="m 403.33546,43.70246 3.671,3.67" /><path
   inkscape:connector-curvature="0"
   id="path120"
   style="fill:none;stroke:#231f20;stroke-width:0.80000001;stroke-linecap:butt;stroke-linejoin:miter;stroke-miterlimit:2.61310005;stroke-opacity:1;stroke-dasharray:none"
   d="m 403.37446,62.94446 3.67,3.67" /><path
   inkscape:connector-curvature="0"
   id="path122"
   style="fill:none;stroke:#231f20;stroke-width:0.80000001;stroke-linecap:butt;stroke-linejoin:miter;stroke-miterlimit:2.61310005;stroke-opacity:1;stroke-dasharray:none"
   d="m 403.29146,53.25946 3.67,3.671" /><path
   inkscape:connector-curvature="0"
   id="path124"
   style="fill:none;stroke:#231f20;stroke-width:0.80000001;stroke-linecap:butt;stroke-linejoin:miter;stroke-miterlimit:2.61310005;stroke-opacity:1;stroke-dasharray:none;marker-end:url(#Arrow1Lend)"
   d="m 452.67508,131.44835 0,-44.11149"
   sodipodi:nodetypes="cc" /><path
   inkscape:connector-curvature="0"
   id="path142"
   style="fill:none;stroke:#231f20;stroke-width:0.80000001;stroke-linecap:butt;stroke-linejoin:miter;stroke-miterlimit:2.61310005;stroke-opacity:1;stroke-dasharray:none"
   d="m 35.648961,33.29946 90.758599,0 0,35.5422 -90.758599,0 0,-35.5422 z" /><text
   xml:space="preserve"
   style="font-size:9.60000038px;font-style:normal;font-variant:normal;font-weight:normal;font-stretch:normal;line-height:125%;letter-spacing:0px;word-spacing:0px;fill:#000000;fill-opacity:1;stroke:none;font-family:Times New Roman;-inkscape-font-specification:'Times New Roman,'"
   x="194.80077"
   y="-80.81604"
   id="text3970"
   sodipodi:linespacing="125%"
   transform="scale(1,-1)"><tspan
     sodipodi:role="line"
     x="194.80077"
     y="-80.81604"
     id="tspan3974">Fiber optic</tspan></text>


<text
   xml:space="preserve"
   style="font-size:12px;font-style:normal;font-variant:normal;font-weight:normal;font-stretch:normal;line-height:125%;letter-spacing:0px;word-spacing:0px;fill:#000000;fill-opacity:1;stroke:none;font-family:Times New Roman;-inkscape-font-specification:'Times New Roman,'"
   x="60.447117"
   y="152.62727"
   id="text3976"
   sodipodi:linespacing="125%"
   transform="matrix(0.8,0,0,-0.8,0,170.07931)"><tspan
     sodipodi:role="line"
     id="tspan3978"
     x="60.447117"
     y="152.62727">Spectrometer</tspan></text>


<text
   xml:space="preserve"
   style="font-size:9.60000038px;font-style:normal;font-variant:normal;font-weight:normal;font-stretch:normal;line-height:125%;letter-spacing:0px;word-spacing:0px;fill:#000000;fill-opacity:1;stroke:none;font-family:Times New Roman;-inkscape-font-specification:'Times New Roman,'"
   x="413.05807"
   y="-139.112"
   id="text4001"
   sodipodi:linespacing="125%"
   transform="scale(1,-1)"><tspan
     sodipodi:role="line"
     id="tspan4003"
     x="413.05807"
     y="-139.112">sample</tspan></text>


<text
   xml:space="preserve"
   style="font-size:9.60000038px;font-style:normal;font-variant:normal;font-weight:normal;font-stretch:normal;line-height:125%;letter-spacing:0px;word-spacing:0px;fill:#000000;fill-opacity:1;stroke:none;font-family:Times New Roman;-inkscape-font-specification:'Times New Roman,'"
   x="-147.41553"
   y="-461.91852"
   id="text4005"
   sodipodi:linespacing="125%"
   transform="matrix(0,-1,-1,0,0,0)"><tspan
     sodipodi:role="line"
     id="tspan4007"
     x="-147.41553"
     y="-461.91852">transversal scan</tspan></text>


<text
   xml:space="preserve"
   style="font-size:9.60000038px;font-style:normal;font-variant:normal;font-weight:normal;font-stretch:normal;line-height:125%;letter-spacing:0px;word-spacing:0px;fill:#000000;fill-opacity:1;stroke:none;font-family:Times New Roman;-inkscape-font-specification:'Times New Roman,'"
   x="411.99231"
   y="-54.069805"
   id="text4453"
   sodipodi:linespacing="125%"
   transform="scale(1,-1)"><tspan
     sodipodi:role="line"
     id="tspan4455"
     x="411.99231"
     y="-54.069805">reference</tspan></text>


<text
   xml:space="preserve"
   style="font-size:9.60000038px;font-style:normal;font-variant:normal;font-weight:normal;font-stretch:normal;line-height:125%;letter-spacing:0px;word-spacing:0px;fill:#000000;fill-opacity:1;stroke:none;font-family:Times New Roman;-inkscape-font-specification:'Times New Roman,'"
   x="43.603683"
   y="-109.9505"
   id="text4457"
   sodipodi:linespacing="125%"
   transform="scale(1,-1)"><tspan
     sodipodi:role="line"
     id="tspan4459"
     x="43.603683"
     y="-109.9505">Low coherence</tspan></text>


<text
   xml:space="preserve"
   style="font-size:9.60000038px;font-style:normal;font-variant:normal;font-weight:normal;font-stretch:normal;line-height:125%;letter-spacing:0px;word-spacing:0px;fill:#000000;fill-opacity:1;stroke:none;font-family:Times New Roman;-inkscape-font-specification:'Times New Roman,'"
   x="45.88829"
   y="-98.52742"
   id="text4461"
   sodipodi:linespacing="125%"
   transform="scale(1,-1)"><tspan
     sodipodi:role="line"
     id="tspan4463"
     x="45.88829"
     y="-98.52742">light source</tspan></text>


<text
   xml:space="preserve"
   style="font-size:9.60000038px;font-style:normal;font-variant:normal;font-weight:normal;font-stretch:normal;line-height:125%;letter-spacing:0px;word-spacing:0px;fill:#000000;fill-opacity:1;stroke:none;font-family:Times New Roman;-inkscape-font-specification:'Times New Roman,'"
   x="416.7905"
   y="-43.618183"
   id="text3055"
   sodipodi:linespacing="125%"
   transform="scale(1,-1)"><tspan
     sodipodi:role="line"
     id="tspan3057"
     x="416.7905"
     y="-43.618183">mirror</tspan></text>

<text
   xml:space="preserve"
   style="font-size:9.60000038px;font-style:normal;font-variant:normal;font-weight:normal;font-stretch:normal;line-height:125%;letter-spacing:0px;word-spacing:0px;fill:#000000;fill-opacity:1;stroke:none;font-family:Times New Roman;-inkscape-font-specification:'Times New Roman,'"
   x="198.16397"
   y="-67.311699"
   id="text3063"
   sodipodi:linespacing="125%"
   transform="scale(1,-1)"><tspan
     sodipodi:role="line"
     id="tspan3065"
     x="198.16397"
     y="-67.311699">coupler</tspan></text>

</g></svg>