<?xml version="1.0" encoding="UTF-8" standalone="no"?>
<!-- Created with Inkscape (http://www.inkscape.org/) -->

<svg
   xmlns:dc="http://purl.org/dc/elements/1.1/"
   xmlns:cc="http://creativecommons.org/ns#"
   xmlns:rdf="http://www.w3.org/1999/02/22-rdf-syntax-ns#"
   xmlns:svg="http://www.w3.org/2000/svg"
   xmlns="http://www.w3.org/2000/svg"
   xmlns:xlink="http://www.w3.org/1999/xlink"
   xmlns:sodipodi="http://sodipodi.sourceforge.net/DTD/sodipodi-0.dtd"
   xmlns:inkscape="http://www.inkscape.org/namespaces/inkscape"
   width="602.36218"
   height="212.59842"
   id="svg3330"
   version="1.1"
   inkscape:version="0.48.0 r9654"
   sodipodi:docname="New document 15">
  <defs
     id="defs3332" />
  <sodipodi:namedview
     id="base"
     pagecolor="#ffffff"
     bordercolor="#666666"
     borderopacity="1.0"
     inkscape:pageopacity="0.0"
     inkscape:pageshadow="2"
     inkscape:zoom="0.93866004"
     inkscape:cx="87.786128"
     inkscape:cy="57.548645"
     inkscape:document-units="px"
     inkscape:current-layer="layer1"
     showgrid="false"
     units="cm"
     inkscape:window-width="961"
     inkscape:window-height="524"
     inkscape:window-x="55"
     inkscape:window-y="20"
     inkscape:window-maximized="0"
     showguides="true"
     inkscape:guide-bbox="true" />
  <metadata
     id="metadata3335">
    <rdf:RDF>
      <cc:Work
         rdf:about="">
        <dc:format>image/svg+xml</dc:format>
        <dc:type
           rdf:resource="http://purl.org/dc/dcmitype/StillImage" />
        <dc:title></dc:title>
      </cc:Work>
    </rdf:RDF>
  </metadata>
  <g
     inkscape:label="Layer 1"
     inkscape:groupmode="layer"
     id="layer1"
     transform="translate(0,-839.76245)">
    <path
       sodipodi:type="arc"
       style="color:#000000;fill:#ffffff;fill-opacity:1;fill-rule:nonzero;stroke:#000000;stroke-width:2.62757468;stroke-linecap:butt;stroke-linejoin:miter;stroke-miterlimit:4;stroke-opacity:1;stroke-dasharray:none;stroke-dashoffset:0;marker:none;visibility:visible;display:inline;overflow:visible;enable-background:accumulate"
       id="path3338"
       sodipodi:cx="93.944183"
       sodipodi:cy="119.66438"
       sodipodi:rx="33.335033"
       sodipodi:ry="33.335033"
       d="m 127.27922,119.66438 a 33.335033,33.335033 0 1 1 -66.67007,0 33.335033,33.335033 0 1 1 66.67007,0 z"
       transform="matrix(0.7611582,0,0,0.7611582,24.710642,909.75956)" />
    <path
       style="fill:none;stroke:#000000;stroke-width:2;stroke-linecap:butt;stroke-linejoin:miter;stroke-miterlimit:4;stroke-opacity:1;stroke-dasharray:none"
       d="m 97.425253,903.65059 c 0,0 2.492132,-2.09833 2.217604,-3.43258 -2.252978,-10.94983 -11.151493,-9.49926 -17.857142,-9.28571 -7.36665,0.23459 -18.928572,-0.53284 -18.928572,11.42857 0,17.61905 0,42.62428 0,51.78571 0,9.16143 -1.739607,8.92857 7.857143,8.92857 4.978829,0 47.386164,0 55.000004,0 3.60023,0 5,2.36846 5,4.64286 0,1.64975 -0.94915,4.64286 -4.64286,4.64286 -19.88095,0 -59.642858,0 -59.642858,0"
       id="path3340"
       inkscape:connector-curvature="0"
       sodipodi:nodetypes="cccszssssc" />
    <path
       style="fill:none;stroke:#000000;stroke-width:2;stroke-linecap:butt;stroke-linejoin:miter;stroke-miterlimit:4;stroke-opacity:1;stroke-dasharray:none"
       d="m 77.96882,865.21801 c 0,0 -0.01099,8.75001 0,12.67857 0.0081,2.88602 3.731215,8.18059 6.495466,9.68751 5.501229,2.99897 12.155018,-1.25812 16.964284,2.45535 3.88993,3.00361 4.86311,6.34032 4.46429,9.99999 -0.32384,2.97167 -3.92858,5.53572 -3.92858,5.53572"
       id="path3348"
       inkscape:connector-curvature="0"
       sodipodi:nodetypes="cssssc" />
    <path
       inkscape:connector-curvature="0"
       id="path3350"
       d="m 67.14286,865.21801 c 0,0 0,9.26926 0,12.67857 0,3.6567 3.565111,8.74368 6.262689,9.68751 13.614115,4.76332 21.217237,-0.24368 25.880166,4.06249 3.359875,3.10281 4.137015,5.48776 3.854605,8.62373 -0.16629,1.8465 -3.140324,4.59056 -3.140324,4.59056"
       style="fill:none;stroke:#000000;stroke-width:2;stroke-linecap:butt;stroke-linejoin:miter;stroke-miterlimit:4;stroke-opacity:1;stroke-dasharray:none"
       sodipodi:nodetypes="csssac" />
    <path
       style="fill:none;stroke:#000000;stroke-width:2;stroke-linecap:butt;stroke-linejoin:miter;stroke-miterlimit:4;stroke-opacity:1;stroke-dasharray:none"
       d="m 88.794777,865.21801 c 0,0 -0.324188,8.7634 0,12.67857 0.217278,2.62403 1.785557,6.85256 8.169509,9.68751 2.51707,0.65942 6.369604,0.23874 8.303574,3.25893 1.93396,3.02019 4.00697,5.40908 2.67858,10.98214 -0.53967,2.26409 -4.19644,5.17857 -4.19644,5.17857"
       id="path3352"
       inkscape:connector-curvature="0"
       sodipodi:nodetypes="csczss" />
    <path
       inkscape:connector-curvature="0"
       id="path3354"
       d="m 99.620735,865.21801 c 0,0 -0.303459,8.94664 0,12.67857 0.539125,6.63006 4.312215,4.65842 8.017335,9.68751 2.86986,3.89535 5.67662,8.83773 4.68336,12.54464 -0.99327,3.7069 -6.60714,8.125 -6.60714,8.125"
       style="fill:none;stroke:#000000;stroke-width:2;stroke-linecap:butt;stroke-linejoin:miter;stroke-miterlimit:4;stroke-opacity:1;stroke-dasharray:none"
       sodipodi:nodetypes="csszc" />
    <path
       style="fill:none;stroke:#000000;stroke-width:2;stroke-linecap:butt;stroke-linejoin:miter;stroke-miterlimit:4;stroke-opacity:1;stroke-dasharray:none"
       d="m 110.53598,865.21801 c 0,0 -0.17857,6.78241 -0.17857,12.67857 0,5.86703 3.05773,5.70113 3.74973,9.68751 0.692,3.98637 2.17827,7.48107 0.80357,14.06249 -2.30196,3.98712 -7.58928,7.76786 -7.58928,7.76786"
       id="path3356"
       inkscape:connector-curvature="0"
       sodipodi:nodetypes="cszcc" />
    <path
       sodipodi:type="arc"
       style="color:#000000;fill:none;stroke:#000000;stroke-width:1;stroke-linecap:butt;stroke-linejoin:miter;stroke-miterlimit:4;stroke-opacity:1;stroke-dasharray:none;stroke-dashoffset:0;marker:none;visibility:visible;display:inline;overflow:visible;enable-background:accumulate"
       id="path3360"
       sodipodi:cx="95.35714"
       sodipodi:cy="75.098419"
       sodipodi:rx="32.5"
       sodipodi:ry="32.5"
       d="m 95.35714,107.59842 a 32.5,32.5 0 0 1 -32.5,-32.500002"
       transform="matrix(1.6987493,0,0,1.6987493,-40.990346,777.0859)"
       sodipodi:start="1.5707963"
       sodipodi:end="3.1415927"
       sodipodi:open="true" />
    <use
       x="0"
       y="0"
       xlink:href="#path3338"
       id="use4224"
       transform="translate(78.721428,0)"
       width="602.36218"
       height="212.59842" />
    <use
       x="0"
       y="0"
       xlink:href="#path3340"
       id="use4226"
       transform="translate(78.721428,0)"
       width="602.36218"
       height="212.59842" />
    <use
       x="0"
       y="0"
       xlink:href="#path3348"
       id="use4228"
       transform="translate(78.721428,0)"
       width="602.36218"
       height="212.59842" />
    <use
       x="0"
       y="0"
       xlink:href="#path3350"
       id="use4230"
       transform="translate(78.721428,0)"
       width="602.36218"
       height="212.59842" />
    <use
       x="0"
       y="0"
       xlink:href="#path3352"
       id="use4232"
       transform="translate(78.721428,0)"
       width="602.36218"
       height="212.59842" />
    <use
       x="0"
       y="0"
       xlink:href="#path3354"
       id="use4234"
       transform="translate(78.721428,0)"
       width="602.36218"
       height="212.59842" />
    <use
       x="0"
       y="0"
       xlink:href="#path3356"
       id="use4236"
       transform="translate(78.721428,0)"
       width="602.36218"
       height="212.59842" />
    <use
       x="0"
       y="0"
       xlink:href="#path3360"
       id="use4238"
       transform="translate(78.721428,0)"
       width="602.36218"
       height="212.59842" />
    <use
       x="0"
       y="0"
       xlink:href="#path3338"
       id="use4240"
       transform="translate(204.14839,0)"
       width="602.36218"
       height="212.59842" />
    <use
       x="0"
       y="0"
       xlink:href="#path3340"
       id="use4242"
       transform="translate(204.14839,0)"
       width="602.36218"
       height="212.59842" />
    <use
       x="0"
       y="0"
       xlink:href="#path3348"
       id="use4244"
       transform="translate(204.14839,0)"
       width="602.36218"
       height="212.59842" />
    <use
       x="0"
       y="0"
       xlink:href="#path3350"
       id="use4246"
       transform="translate(204.14839,0)"
       width="602.36218"
       height="212.59842" />
    <use
       x="0"
       y="0"
       xlink:href="#path3352"
       id="use4248"
       transform="translate(204.14839,0)"
       width="602.36218"
       height="212.59842" />
    <use
       x="0"
       y="0"
       xlink:href="#path3354"
       id="use4250"
       transform="translate(204.14839,0)"
       width="602.36218"
       height="212.59842" />
    <use
       x="0"
       y="0"
       xlink:href="#path3356"
       id="use4252"
       transform="translate(204.14839,0)"
       width="602.36218"
       height="212.59842" />
    <use
       x="0"
       y="0"
       xlink:href="#path3360"
       id="use4254"
       transform="translate(204.14839,0)"
       width="602.36218"
       height="212.59842" />
    <path
       style="fill:none;stroke:#000000;stroke-width:2;stroke-linecap:butt;stroke-linejoin:miter;stroke-opacity:1;stroke-miterlimit:4;stroke-dasharray:none"
       d="m 28.764408,189.16075 187.501322,0"
       id="path4256"
       inkscape:connector-curvature="0"
       transform="translate(0,839.76245)" />
    <path
       style="fill:none;stroke:#000000;stroke-width:2;stroke-linecap:butt;stroke-linejoin:miter;stroke-miterlimit:4;stroke-opacity:1;stroke-dasharray:2, 2;stroke-dashoffset:0"
       d="m 217.86375,1028.9232 29.82976,0"
       id="path4260"
       inkscape:connector-curvature="0" />
    <path
       style="fill:none;stroke:#000000;stroke-width:2;stroke-linecap:butt;stroke-linejoin:miter;stroke-miterlimit:4;stroke-opacity:1;stroke-dasharray:none"
       d="m 249.72727,1028.9232 78.30311,0"
       id="path4264"
       inkscape:connector-curvature="0" />
  </g>
</svg>
