<?xml version="1.0" encoding="UTF-8" standalone="no"?>
<!-- Created with Inkscape (http://www.inkscape.org/) -->

<svg
   xmlns:dc="http://purl.org/dc/elements/1.1/"
   xmlns:cc="http://creativecommons.org/ns#"
   xmlns:rdf="http://www.w3.org/1999/02/22-rdf-syntax-ns#"
   xmlns:svg="http://www.w3.org/2000/svg"
   xmlns="http://www.w3.org/2000/svg"
   xmlns:sodipodi="http://sodipodi.sourceforge.net/DTD/sodipodi-0.dtd"
   xmlns:inkscape="http://www.inkscape.org/namespaces/inkscape"
   width="266.84979"
   height="215.71687"
   id="svg12091"
   version="1.1"
   inkscape:version="0.48.0 r9654"
   sodipodi:docname="New document 17">
  <defs
     id="defs12093" />
  <sodipodi:namedview
     id="base"
     pagecolor="#ffffff"
     bordercolor="#666666"
     borderopacity="1.0"
     inkscape:pageopacity="0.0"
     inkscape:pageshadow="2"
     inkscape:zoom="0.7"
     inkscape:cx="121.58088"
     inkscape:cy="164.38721"
     inkscape:document-units="px"
     inkscape:current-layer="layer1"
     showgrid="false"
     fit-margin-top="0"
     fit-margin-left="0"
     fit-margin-right="0"
     fit-margin-bottom="0"
     inkscape:window-width="483"
     inkscape:window-height="454"
     inkscape:window-x="448"
     inkscape:window-y="82"
     inkscape:window-maximized="0" />
  <metadata
     id="metadata12096">
    <rdf:RDF>
      <cc:Work
         rdf:about="">
        <dc:format>image/svg+xml</dc:format>
        <dc:type
           rdf:resource="http://purl.org/dc/dcmitype/StillImage" />
        <dc:title></dc:title>
      </cc:Work>
    </rdf:RDF>
  </metadata>
  <g
     inkscape:label="Layer 1"
     inkscape:groupmode="layer"
     id="layer1"
     transform="translate(-146.5751,-438.78945)">
    <path
       inkscape:connector-curvature="0"
       d="m 189.12384,625.38133 0.38262,0 0,-186.21375 -0.38262,0 0,186.21375 z"
       style="fill:#0000ff;fill-opacity:1;fill-rule:nonzero;stroke:none"
       id="path7287" />
    <path
       inkscape:connector-curvature="0"
       d="m 216.02134,625.38133 0.382,0 0,-186.21375 -0.382,0 0,186.21375 z"
       style="fill:#0000ff;fill-opacity:1;fill-rule:nonzero;stroke:none"
       id="path7289" />
    <path
       inkscape:connector-curvature="0"
       d="m 242.80884,625.38133 0.38275,0 0,-186.21375 -0.38275,0 0,186.21375 z"
       style="fill:#0000ff;fill-opacity:1;fill-rule:nonzero;stroke:none"
       id="path7291" />
    <path
       inkscape:connector-curvature="0"
       d="m 269.59635,625.38133 0.3821,0 0,-186.21375 -0.3821,0 0,186.21375 z"
       style="fill:#0000ff;fill-opacity:1;fill-rule:nonzero;stroke:none"
       id="path7293" />
    <path
       inkscape:connector-curvature="0"
       d="m 296.3851,625.38133 0.38265,0 0,-186.21375 -0.38265,0 0,186.21375 z"
       style="fill:#0000ff;fill-opacity:1;fill-rule:nonzero;stroke:none"
       id="path7295" />
    <path
       inkscape:connector-curvature="0"
       d="m 323.17385,625.38133 0.38217,0 0,-186.21375 -0.38217,0 0,186.21375 z"
       style="fill:#0000ff;fill-opacity:1;fill-rule:nonzero;stroke:none"
       id="path7297" />
    <path
       inkscape:connector-curvature="0"
       d="m 349.9626,625.38133 0.38199,0 0,-186.21375 -0.38199,0 0,186.21375 z"
       style="fill:#0000ff;fill-opacity:1;fill-rule:nonzero;stroke:none"
       id="path7299" />
    <path
       inkscape:connector-curvature="0"
       d="m 376.74885,625.38133 0.382,0 0,-186.21375 -0.382,0 0,186.21375 z"
       style="fill:#0000ff;fill-opacity:1;fill-rule:nonzero;stroke:none"
       id="path7301" />
    <path
       inkscape:connector-curvature="0"
       d="m 403.6451,625.38133 0.38327,0 0,-186.21375 -0.38327,0 0,186.21375 z"
       style="fill:#0000ff;fill-opacity:1;fill-rule:nonzero;stroke:none"
       id="path7303" />
    <path
       inkscape:connector-curvature="0"
       d="m 184.70134,639.31508 c -0.8725,0 0,0 -0.8725,0 0,-5.565 0,0 0,-5.565 -0.21125,0.19875 -0.48625,0.4 -0.8275,0.6025 -0.3425,0.2 -0.64875,0.35 -0.92,0.45 0,-0.84375 0,0 0,-0.84375 0.48875,-0.23 0.91625,-0.50875 1.28125,-0.835 0.36625,-0.32875 0.625,-0.64375 0.77625,-0.9525 0.5625,0 0,0 0.5625,0 0,7.14375 0,0 0,7.14375"
       style="fill:#000000;fill-opacity:1;fill-rule:nonzero;stroke:none"
       id="path7305" />
    <path
       inkscape:connector-curvature="0"
       d="m 190.21134,639.31508 c -0.87375,0 0,0 -0.87375,0 0,-5.565 0,0 0,-5.565 -0.21125,0.19875 -0.48625,0.4 -0.82875,0.6025 -0.34,0.2 -0.64625,0.35 -0.91875,0.45 0,-0.84375 0,0 0,-0.84375 0.48875,-0.23 0.91625,-0.50875 1.28125,-0.835 0.36625,-0.32875 0.625,-0.64375 0.77625,-0.9525 0.56375,0 0,0 0.56375,0 0,7.14375 0,0 0,7.14375"
       style="fill:#000000;fill-opacity:1;fill-rule:nonzero;stroke:none"
       id="path7307" />
    <path
       inkscape:connector-curvature="0"
       d="m 192.43009,635.80758 c 0,-0.84125 0.085,-1.51875 0.25875,-2.03125 0.17375,-0.51375 0.43125,-0.9075 0.77125,-1.1875 0.34125,-0.2775 0.77125,-0.4175 1.28875,-0.4175 0.3825,0 0.71625,0.0788 1.005,0.23125 0.2875,0.15375 0.525,0.37625 0.7125,0.665 0.18875,0.29 0.335,0.6425 0.44125,1.0575 0.10625,0.41625 0.16,0.97625 0.16,1.6825 0,0.83375 -0.085,1.50875 -0.2575,2.02 -0.17,0.51375 -0.4275,0.90875 -0.7675,1.18875 -0.3425,0.28125 -0.77375,0.42 -1.29375,0.42 -0.68625,0 -1.225,-0.245 -1.61625,-0.73875 -0.46875,-0.59125 -0.7025,-1.555 -0.7025,-2.89 z m 0.89625,0 c 0,1.1675 0.1375,1.94375 0.41125,2.33 0.27375,0.3875 0.61125,0.58125 1.01125,0.58125 0.40125,0 0.73875,-0.195 1.01125,-0.58375 0.27375,-0.3875 0.41125,-1.16375 0.41125,-2.3275 0,-1.17125 -0.1375,-1.94875 -0.41125,-2.335 -0.2725,-0.38375 -0.61375,-0.57625 -1.02,-0.57625 -0.4025,0 -0.7225,0.16875 -0.96125,0.50875 -0.30125,0.4325 -0.4525,1.235 -0.4525,2.4025"
       style="fill:#000000;fill-opacity:1;fill-rule:nonzero;stroke:none"
       id="path7309" />
    <path
       inkscape:connector-curvature="0"
       d="m 211.59759,639.31508 c -0.8725,0 0,0 -0.8725,0 0,-5.565 0,0 0,-5.565 -0.21,0.19875 -0.48625,0.4 -0.82875,0.6025 -0.34,0.2 -0.6475,0.35 -0.91875,0.45 0,-0.84375 0,0 0,-0.84375 0.4875,-0.23 0.915,-0.50875 1.28125,-0.835 0.365,-0.32875 0.625,-0.64375 0.77625,-0.9525 0.5625,0 0,0 0.5625,0 0,7.14375 0,0 0,7.14375"
       style="fill:#000000;fill-opacity:1;fill-rule:nonzero;stroke:none"
       id="path7311" />
    <path
       inkscape:connector-curvature="0"
       d="m 218.40759,638.47508 c 0,0.84 0,0 0,0.84 -4.7025,0 0,0 -4.7025,0 -0.007,-0.21125 0.0275,-0.4125 0.10125,-0.60625 0.12,-0.32125 0.3125,-0.63625 0.575,-0.9475 0.26375,-0.30875 0.645,-0.66875 1.14375,-1.07625 0.7725,-0.63375 1.295,-1.135 1.5675,-1.50625 0.27125,-0.37125 0.40625,-0.72 0.40625,-1.05 0,-0.3475 -0.12375,-0.64 -0.37,-0.87625 -0.2475,-0.23875 -0.57125,-0.35625 -0.9675,-0.35625 -0.42125,0 -0.7575,0.125 -1.01,0.37875 -0.25375,0.25125 -0.38,0.6 -0.38375,1.04625 -0.8975,-0.0913 0,0 -0.8975,-0.0913 0.0613,-0.66875 0.2925,-1.18 0.69375,-1.5325 0.40125,-0.35 0.94,-0.52625 1.61625,-0.52625 0.6825,0 1.2225,0.19125 1.62125,0.56875 0.3975,0.37875 0.59625,0.84625 0.59625,1.40625 0,0.285 -0.0588,0.56625 -0.175,0.84 -0.11625,0.275 -0.31,0.56625 -0.58,0.87 -0.27,0.3025 -0.72,0.72 -1.34625,1.25125 -0.52375,0.44 -0.86,0.7375 -1.01,0.895 -0.14875,0.15625 -0.27125,0.31375 -0.3675,0.4725 3.48875,0 0,0 3.48875,0"
       style="fill:#000000;fill-opacity:1;fill-rule:nonzero;stroke:none"
       id="path7313" />
    <path
       inkscape:connector-curvature="0"
       d="m 219.32509,635.80758 c 0,-0.84125 0.0875,-1.51875 0.26,-2.03125 0.17375,-0.51375 0.43,-0.9075 0.7725,-1.1875 0.34,-0.2775 0.77,-0.4175 1.2875,-0.4175 0.38125,0 0.71625,0.0788 1.005,0.23125 0.2875,0.15375 0.525,0.37625 0.7125,0.665 0.1875,0.29 0.33375,0.6425 0.44125,1.0575 0.10625,0.41625 0.16125,0.97625 0.16125,1.6825 0,0.83375 -0.0875,1.50875 -0.2575,2.02 -0.17125,0.51375 -0.4275,0.90875 -0.77,1.18875 -0.34125,0.28125 -0.7725,0.42 -1.2925,0.42 -0.68625,0 -1.22375,-0.245 -1.61625,-0.73875 -0.46875,-0.59125 -0.70375,-1.555 -0.70375,-2.89 z m 0.8975,0 c 0,1.1675 0.1375,1.94375 0.41125,2.33 0.2725,0.3875 0.61,0.58125 1.01125,0.58125 0.4,0 0.7375,-0.195 1.01125,-0.58375 0.27375,-0.3875 0.41,-1.16375 0.41,-2.3275 0,-1.17125 -0.13625,-1.94875 -0.41,-2.335 -0.27375,-0.38375 -0.6125,-0.57625 -1.02125,-0.57625 -0.40125,0 -0.72125,0.16875 -0.96125,0.50875 -0.3,0.4325 -0.45125,1.235 -0.45125,2.4025"
       style="fill:#000000;fill-opacity:1;fill-rule:nonzero;stroke:none"
       id="path7315" />
    <path
       inkscape:connector-curvature="0"
       d="m 238.38634,639.31508 c -0.87375,0 0,0 -0.87375,0 0,-5.565 0,0 0,-5.565 -0.21125,0.19875 -0.48625,0.4 -0.8275,0.6025 -0.34125,0.2 -0.64875,0.35 -0.91875,0.45 0,-0.84375 0,0 0,-0.84375 0.4875,-0.23 0.91375,-0.50875 1.28,-0.835 0.365,-0.32875 0.625,-0.64375 0.77625,-0.9525 0.56375,0 0,0 0.56375,0 0,7.14375 0,0 0,7.14375"
       style="fill:#000000;fill-opacity:1;fill-rule:nonzero;stroke:none"
       id="path7317" />
    <path
       inkscape:connector-curvature="0"
       d="m 240.60884,637.43633 c 0.87375,-0.115 0,0 0.87375,-0.115 0.1,0.495 0.27125,0.85125 0.5125,1.07 0.24,0.2175 0.53375,0.3275 0.88125,0.3275 0.41,0 0.75625,-0.14375 1.04,-0.4275 0.2825,-0.285 0.42375,-0.6375 0.42375,-1.05875 0,-0.4 -0.13,-0.7325 -0.3925,-0.99125 -0.26125,-0.26125 -0.595,-0.39 -1,-0.39 -0.16375,0 -0.37,0.0312 -0.615,0.0963 0.0975,-0.76625 0,0 0.0975,-0.76625 0.0575,0.006 0.10375,0.009 0.14,0.009 0.37125,0 0.70625,-0.0975 1.00375,-0.29125 0.2975,-0.1925 0.4475,-0.4925 0.4475,-0.8975 0,-0.32 -0.10875,-0.58375 -0.325,-0.795 -0.2175,-0.21 -0.4975,-0.315 -0.84125,-0.315 -0.33875,0 -0.6225,0.1075 -0.8475,0.31875 -0.2275,0.21375 -0.3725,0.535 -0.4375,0.96125 -0.87375,-0.15625 0,0 -0.87375,-0.15625 0.1075,-0.58375 0.35,-1.0375 0.7275,-1.36 0.37875,-0.32125 0.85,-0.48375 1.4125,-0.48375 0.38875,0 0.74625,0.085 1.0725,0.25125 0.3275,0.16625 0.57625,0.39375 0.75,0.6825 0.17375,0.28625 0.26,0.5925 0.26,0.9175 0,0.30625 -0.0838,0.58625 -0.2475,0.83875 -0.165,0.25125 -0.41,0.45125 -0.73375,0.60125 0.42125,0.0962 0.7475,0.29875 0.98125,0.605 0.2325,0.305 0.34875,0.68625 0.34875,1.1475 0,0.62125 -0.22625,1.1475 -0.67875,1.5775 -0.45375,0.4325 -1.02625,0.64875 -1.71875,0.64875 -0.62375,0 -1.14125,-0.1875 -1.555,-0.55875 -0.4125,-0.37125 -0.64875,-0.85375 -0.70625,-1.44625"
       style="fill:#000000;fill-opacity:1;fill-rule:nonzero;stroke:none"
       id="path7319" />
    <path
       inkscape:connector-curvature="0"
       d="m 246.11384,635.80758 c 0,-0.84125 0.0863,-1.51875 0.26,-2.03125 0.17125,-0.51375 0.42876,-0.9075 0.77001,-1.1875 0.3425,-0.2775 0.77125,-0.4175 1.29,-0.4175 0.38125,0 0.715,0.0788 1.00375,0.23125 0.2875,0.15375 0.52625,0.37625 0.7125,0.665 0.1875,0.29 0.335,0.6425 0.4425,1.0575 0.10625,0.41625 0.15875,0.97625 0.15875,1.6825 0,0.83375 -0.085,1.50875 -0.25625,2.02 -0.17125,0.51375 -0.42875,0.90875 -0.76875,1.18875 -0.34125,0.28125 -0.77375,0.42 -1.2925,0.42 -0.68625,0 -1.22625,-0.245 -1.6175,-0.73875 -0.46876,-0.59125 -0.70251,-1.555 -0.70251,-2.89 z m 0.89751,0 c 0,1.1675 0.13625,1.94375 0.41,2.33 0.2725,0.3875 0.61125,0.58125 1.0125,0.58125 0.4,0 0.7375,-0.195 1.01,-0.58375 0.275,-0.3875 0.41,-1.16375 0.41,-2.3275 0,-1.17125 -0.135,-1.94875 -0.41,-2.335 -0.2725,-0.38375 -0.61375,-0.57625 -1.02125,-0.57625 -0.40125,0 -0.72,0.16875 -0.96,0.50875 -0.3,0.4325 -0.45125,1.235 -0.45125,2.4025"
       style="fill:#000000;fill-opacity:1;fill-rule:nonzero;stroke:none"
       id="path7321" />
    <path
       inkscape:connector-curvature="0"
       d="m 265.1726,639.31508 c -0.8725,0 0,0 -0.8725,0 0,-5.565 0,0 0,-5.565 -0.21,0.19875 -0.485,0.4 -0.82625,0.6025 -0.3425,0.2 -0.6475,0.35 -0.92125,0.45 0,-0.84375 0,0 0,-0.84375 0.48875,-0.23 0.91625,-0.50875 1.2825,-0.835 0.365,-0.32875 0.62375,-0.64375 0.77625,-0.9525 0.56125,0 0,0 0.56125,0 0,7.14375 0,0 0,7.14375"
       style="fill:#000000;fill-opacity:1;fill-rule:nonzero;stroke:none"
       id="path7323" />
    <path
       inkscape:connector-curvature="0"
       d="m 270.1926,639.31508 c 0,-1.70375 0,0 0,-1.70375 -3.08625,0 0,0 -3.08625,0 0,-0.8 0,0 0,-0.8 3.24625,-4.61 0,0 3.24625,-4.61 0.7125,0 0,0 0.7125,0 0,4.61 0,0 0,4.61 0.96125,0 0,0 0.96125,0 0,0.8 0,0 0,0.8 -0.96125,0 0,0 -0.96125,0 0,1.70375 0,0 0,1.70375 -0.8725,0 0,0 -0.8725,0 z m 0,-2.50375 c 0,-3.20625 0,0 0,-3.20625 -2.2275,3.20625 0,0 -2.2275,3.20625 2.2275,0 0,0 2.2275,0"
       style="fill:#000000;fill-opacity:1;fill-rule:nonzero;stroke:none"
       id="path7325" />
    <path
       inkscape:connector-curvature="0"
       d="m 272.90135,635.80758 c 0,-0.84125 0.0863,-1.51875 0.26,-2.03125 0.1725,-0.51375 0.43,-0.9075 0.77125,-1.1875 0.34125,-0.2775 0.77,-0.4175 1.2875,-0.4175 0.3825,0 0.7175,0.0788 1.005,0.23125 0.28875,0.15375 0.52625,0.37625 0.7125,0.665 0.18875,0.29 0.33625,0.6425 0.4425,1.0575 0.10625,0.41625 0.16,0.97625 0.16,1.6825 0,0.83375 -0.085,1.50875 -0.2575,2.02 -0.17125,0.51375 -0.4275,0.90875 -0.7675,1.18875 -0.3425,0.28125 -0.77375,0.42 -1.295,0.42 -0.685,0 -1.22375,-0.245 -1.615,-0.73875 -0.46875,-0.59125 -0.70375,-1.555 -0.70375,-2.89 z m 0.8975,0 c 0,1.1675 0.1375,1.94375 0.41,2.33 0.27375,0.3875 0.61125,0.58125 1.01125,0.58125 0.4025,0 0.74,-0.195 1.01375,-0.58375 0.27125,-0.3875 0.40875,-1.16375 0.40875,-2.3275 0,-1.17125 -0.1375,-1.94875 -0.40875,-2.335 -0.27375,-0.38375 -0.615,-0.57625 -1.0225,-0.57625 -0.40125,0 -0.7225,0.16875 -0.96,0.50875 -0.3025,0.4325 -0.4525,1.235 -0.4525,2.4025"
       style="fill:#000000;fill-opacity:1;fill-rule:nonzero;stroke:none"
       id="path7327" />
    <path
       inkscape:connector-curvature="0"
       d="m 291.96135,639.31508 c -0.8725,0 0,0 -0.8725,0 0,-5.565 0,0 0,-5.565 -0.21,0.19875 -0.48625,0.4 -0.82875,0.6025 -0.34,0.2 -0.6475,0.35 -0.91875,0.45 0,-0.84375 0,0 0,-0.84375 0.48875,-0.23 0.91625,-0.50875 1.28125,-0.835 0.365,-0.32875 0.625,-0.64375 0.77625,-0.9525 0.5625,0 0,0 0.5625,0 0,7.14375 0,0 0,7.14375"
       style="fill:#000000;fill-opacity:1;fill-rule:nonzero;stroke:none"
       id="path7329" />
    <path
       inkscape:connector-curvature="0"
       d="m 294.1801,637.45258 c 0.9175,-0.0775 0,0 0.9175,-0.0775 0.0675,0.44625 0.225,0.78125 0.4725,1.00625 0.2475,0.225 0.54625,0.3375 0.895,0.3375 0.42125,0 0.7775,-0.15875 1.06875,-0.475 0.29125,-0.31875 0.43625,-0.73875 0.43625,-1.2625 0,-0.4975 -0.14,-0.89125 -0.42,-1.1775 -0.28,-0.29 -0.645,-0.43375 -1.09875,-0.43375 -0.28125,0 -0.535,0.065 -0.76125,0.19125 -0.22625,0.12875 -0.405,0.295 -0.535,0.4975 -0.82,-0.10625 0,0 -0.82,-0.10625 0.69,-3.6525 0,0 0.69,-3.6525 3.5375,0 0,0 3.5375,0 0,0.83375 0,0 0,0.83375 -2.83875,0 0,0 -2.83875,0 -0.38375,1.91125 0,0 -0.38375,1.91125 0.4275,-0.2975 0.875,-0.44625 1.345,-0.44625 0.62,0 1.14375,0.215 1.5725,0.645 0.42625,0.43 0.64,0.985 0.64,1.66 0,0.64375 -0.18875,1.2 -0.5625,1.67 -0.4575,0.57375 -1.07875,0.8625 -1.87,0.8625 -0.64625,0 -1.175,-0.1825 -1.5825,-0.54375 -0.41,-0.3625 -0.64375,-0.84125 -0.7025,-1.44"
       style="fill:#000000;fill-opacity:1;fill-rule:nonzero;stroke:none"
       id="path7331" />
    <path
       inkscape:connector-curvature="0"
       d="m 299.6901,635.80758 c 0,-0.84125 0.085,-1.51875 0.25875,-2.03125 0.17375,-0.51375 0.43,-0.9075 0.7725,-1.1875 0.34,-0.2775 0.77,-0.4175 1.2875,-0.4175 0.38125,0 0.71625,0.0788 1.005,0.23125 0.2875,0.15375 0.525,0.37625 0.71375,0.665 0.18625,0.29 0.33375,0.6425 0.44,1.0575 0.1075,0.41625 0.16125,0.97625 0.16125,1.6825 0,0.83375 -0.0863,1.50875 -0.2575,2.02 -0.17125,0.51375 -0.4275,0.90875 -0.77,1.18875 -0.34125,0.28125 -0.77125,0.42 -1.2925,0.42 -0.68625,0 -1.22375,-0.245 -1.615,-0.73875 -0.46875,-0.59125 -0.70375,-1.555 -0.70375,-2.89 z m 0.89625,0 c 0,1.1675 0.1375,1.94375 0.41125,2.33 0.27375,0.3875 0.61,0.58125 1.01125,0.58125 0.4,0 0.7375,-0.195 1.01125,-0.58375 0.27375,-0.3875 0.41125,-1.16375 0.41125,-2.3275 0,-1.17125 -0.1375,-1.94875 -0.41125,-2.335 -0.27375,-0.38375 -0.6125,-0.57625 -1.02125,-0.57625 -0.40125,0 -0.72125,0.16875 -0.96125,0.50875 -0.3,0.4325 -0.45125,1.235 -0.45125,2.4025"
       style="fill:#000000;fill-opacity:1;fill-rule:nonzero;stroke:none"
       id="path7333" />
    <path
       inkscape:connector-curvature="0"
       d="m 318.7501,639.31508 c -0.87375,0 0,0 -0.87375,0 0,-5.565 0,0 0,-5.565 -0.21125,0.19875 -0.48625,0.4 -0.8275,0.6025 -0.34125,0.2 -0.6475,0.35 -0.91875,0.45 0,-0.84375 0,0 0,-0.84375 0.4875,-0.23 0.91375,-0.50875 1.28,-0.835 0.365,-0.32875 0.62375,-0.64375 0.77625,-0.9525 0.56375,0 0,0 0.56375,0 0,7.14375 0,0 0,7.14375"
       style="fill:#000000;fill-opacity:1;fill-rule:nonzero;stroke:none"
       id="path7335" />
    <path
       inkscape:connector-curvature="0"
       d="m 325.5001,633.94383 c -0.86875,0.0675 0,0 -0.86875,0.0675 -0.0763,-0.3425 -0.18625,-0.59125 -0.32875,-0.7475 -0.2375,-0.25 -0.5275,-0.3725 -0.87375,-0.3725 -0.2775,0 -0.52125,0.0775 -0.7325,0.2325 -0.275,0.2 -0.4925,0.49375 -0.65,0.8775 -0.15875,0.38625 -0.2425,0.93375 -0.2475,1.64625 0.21,-0.32125 0.46625,-0.55875 0.77,-0.71375 0.305,-0.155 0.62375,-0.2325 0.95625,-0.2325 0.58375,0 1.07875,0.21375 1.4875,0.6425 0.41,0.4275 0.615,0.9825 0.615,1.66125 0,0.4475 -0.0962,0.8625 -0.29,1.24625 -0.19125,0.38125 -0.45625,0.675 -0.79375,0.88 -0.33625,0.2025 -0.71625,0.305 -1.145,0.305 -0.72625,0 -1.32125,-0.26875 -1.78,-0.80375 -0.45875,-0.53375 -0.68875,-1.41625 -0.68875,-2.645 0,-1.37625 0.25375,-2.375 0.7625,-2.99875 0.4425,-0.545 1.03875,-0.8175 1.78875,-0.8175 0.56,0 1.01875,0.15875 1.3775,0.47125 0.35625,0.315 0.57125,0.7475 0.64125,1.30125 z m -3.56625,3.0675 c 0,0.3 0.0637,0.5875 0.1925,0.8625 0.12625,0.27625 0.30625,0.485 0.535,0.62875 0.23,0.14375 0.4725,0.21625 0.72375,0.21625 0.3675,0 0.68625,-0.14875 0.95,-0.4475 0.26625,-0.2975 0.3975,-0.70125 0.3975,-1.2125 0,-0.49125 -0.12875,-0.88 -0.39,-1.16125 -0.26375,-0.28375 -0.59375,-0.425 -0.99125,-0.425 -0.39625,0 -0.73,0.14125 -1.005,0.425 -0.27375,0.28125 -0.4125,0.65375 -0.4125,1.11375"
       style="fill:#000000;fill-opacity:1;fill-rule:nonzero;stroke:none"
       id="path7337" />
    <path
       inkscape:connector-curvature="0"
       d="m 326.4776,635.80758 c 0,-0.84125 0.0862,-1.51875 0.26,-2.03125 0.17125,-0.51375 0.43,-0.9075 0.77125,-1.1875 0.34125,-0.2775 0.77,-0.4175 1.28875,-0.4175 0.38125,0 0.71375,0.0788 1.0025,0.23125 0.28875,0.15375 0.5275,0.37625 0.71375,0.665 0.1875,0.29 0.33625,0.6425 0.4425,1.0575 0.1075,0.41625 0.15875,0.97625 0.15875,1.6825 0,0.83375 -0.085,1.50875 -0.25625,2.02 -0.17125,0.51375 -0.4275,0.90875 -0.76875,1.18875 -0.34,0.28125 -0.77375,0.42 -1.2925,0.42 -0.6875,0 -1.225,-0.245 -1.6175,-0.73875 -0.46875,-0.59125 -0.7025,-1.555 -0.7025,-2.89 z m 0.8975,0 c 0,1.1675 0.13625,1.94375 0.41,2.33 0.2725,0.3875 0.61125,0.58125 1.0125,0.58125 0.4,0 0.7375,-0.195 1.01125,-0.58375 0.27125,-0.3875 0.40875,-1.16375 0.40875,-2.3275 0,-1.17125 -0.1375,-1.94875 -0.40875,-2.335 -0.27375,-0.38375 -0.615,-0.57625 -1.0225,-0.57625 -0.40125,0 -0.72,0.16875 -0.95875,0.50875 -0.30125,0.4325 -0.4525,1.235 -0.4525,2.4025"
       style="fill:#000000;fill-opacity:1;fill-rule:nonzero;stroke:none"
       id="path7339" />
    <path
       inkscape:connector-curvature="0"
       d="m 345.5376,639.31508 c -0.87375,0 0,0 -0.87375,0 0,-5.565 0,0 0,-5.565 -0.21125,0.19875 -0.485,0.4 -0.8275,0.6025 -0.34125,0.2 -0.64625,0.35 -0.91875,0.45 0,-0.84375 0,0 0,-0.84375 0.48875,-0.23 0.915,-0.50875 1.28,-0.835 0.365,-0.32875 0.625,-0.64375 0.77625,-0.9525 0.56375,0 0,0 0.56375,0 0,7.14375 0,0 0,7.14375"
       style="fill:#000000;fill-opacity:1;fill-rule:nonzero;stroke:none"
       id="path7341" />
    <path
       inkscape:connector-curvature="0"
       d="m 347.8151,633.13383 c 0,-0.84 0,0 0,-0.84 4.605,0 0,0 4.605,0 0,0.67875 0,0 0,0.67875 -0.455,0.48375 -0.9025,1.1225 -1.34625,1.92125 -0.44625,0.8 -0.79,1.6225 -1.0325,2.46625 -0.175,0.595 -0.285,1.24625 -0.33375,1.955 -0.89625,0 0,0 -0.89625,0 0.009,-0.55875 0.1175,-1.23625 0.32875,-2.02875 0.21,-0.7925 0.51125,-1.55625 0.9025,-2.29375 0.395,-0.735 0.8125,-1.355 1.255,-1.85875 -3.4825,0 0,0 -3.4825,0"
       style="fill:#000000;fill-opacity:1;fill-rule:nonzero;stroke:none"
       id="path7343" />
    <path
       inkscape:connector-curvature="0"
       d="m 353.26635,635.80758 c 0,-0.84125 0.085,-1.51875 0.25875,-2.03125 0.1725,-0.51375 0.43,-0.9075 0.77125,-1.1875 0.34125,-0.2775 0.77,-0.4175 1.28875,-0.4175 0.38125,0 0.71625,0.0788 1.00375,0.23125 0.2875,0.15375 0.525,0.37625 0.715,0.665 0.18625,0.29 0.3325,0.6425 0.44,1.0575 0.10625,0.41625 0.16125,0.97625 0.16125,1.6825 0,0.83375 -0.085,1.50875 -0.25875,2.02 -0.17125,0.51375 -0.4275,0.90875 -0.7675,1.18875 -0.34375,0.28125 -0.7725,0.42 -1.29375,0.42 -0.68625,0 -1.225,-0.245 -1.615,-0.73875 -0.47,-0.59125 -0.70375,-1.555 -0.70375,-2.89 z m 0.89625,0 c 0,1.1675 0.13625,1.94375 0.41,2.33 0.27375,0.3875 0.61125,0.58125 1.0125,0.58125 0.40125,0 0.7375,-0.195 1.0125,-0.58375 0.27125,-0.3875 0.40875,-1.16375 0.40875,-2.3275 0,-1.17125 -0.1375,-1.94875 -0.40875,-2.335 -0.275,-0.38375 -0.615,-0.57625 -1.02125,-0.57625 -0.40375,0 -0.7225,0.16875 -0.9625,0.50875 -0.30125,0.4325 -0.45125,1.235 -0.45125,2.4025"
       style="fill:#000000;fill-opacity:1;fill-rule:nonzero;stroke:none"
       id="path7345" />
    <path
       inkscape:connector-curvature="0"
       d="m 372.3251,639.31508 c -0.87125,0 0,0 -0.87125,0 0,-5.565 0,0 0,-5.565 -0.21125,0.19875 -0.4875,0.4 -0.82875,0.6025 -0.34125,0.2 -0.64875,0.35 -0.92,0.45 0,-0.84375 0,0 0,-0.84375 0.48875,-0.23 0.915,-0.50875 1.2825,-0.835 0.36375,-0.32875 0.62375,-0.64375 0.775,-0.9525 0.5625,0 0,0 0.5625,0 0,7.14375 0,0 0,7.14375"
       style="fill:#000000;fill-opacity:1;fill-rule:nonzero;stroke:none"
       id="path7347" />
    <path
       inkscape:connector-curvature="0"
       d="m 375.88885,635.45633 c -0.3625,-0.13125 -0.6325,-0.32125 -0.80625,-0.56625 -0.17375,-0.24625 -0.2625,-0.53875 -0.2625,-0.88375 0,-0.5175 0.1875,-0.9525 0.55875,-1.305 0.37125,-0.3525 0.86625,-0.53 1.48375,-0.53 0.6225,0 1.12,0.1825 1.50125,0.5425 0.3775,0.36 0.5675,0.8 0.5675,1.3175 0,0.33 -0.0863,0.6175 -0.26,0.86125 -0.17375,0.24375 -0.43625,0.4325 -0.79,0.56375 0.43875,0.14375 0.77125,0.3725 0.99875,0.69 0.22875,0.3175 0.3425,0.69625 0.3425,1.135 0,0.61 -0.215,1.12 -0.64625,1.53375 -0.43125,0.415 -0.99625,0.62125 -1.6975,0.62125 -0.7025,0 -1.26875,-0.2075 -1.7,-0.6225 -0.42875,-0.41625 -0.64375,-0.93375 -0.64375,-1.555 0,-0.46375 0.11625,-0.85 0.3525,-1.1625 0.2325,-0.31375 0.56625,-0.525 1.00125,-0.64 z m -0.175,-1.4775 c 0,0.335 0.1075,0.61 0.325,0.82375 0.2175,0.21375 0.49875,0.32125 0.84375,0.32125 0.33625,0 0.61375,-0.10625 0.82875,-0.31875 0.215,-0.21125 0.32375,-0.4725 0.32375,-0.77875 0,-0.32 -0.1125,-0.59 -0.335,-0.80875 -0.22125,-0.2175 -0.4975,-0.32625 -0.82625,-0.32625 -0.3325,0 -0.61,0.1075 -0.83,0.31875 -0.22,0.21375 -0.33,0.46875 -0.33,0.76875 z m -0.2825,3.285 c 0,0.2475 0.06,0.4875 0.1775,0.72125 0.11875,0.23375 0.29375,0.41375 0.52625,0.54125 0.23375,0.1275 0.48375,0.1925 0.755,0.1925 0.41625,0 0.76,-0.135 1.0325,-0.40375 0.27,-0.26875 0.4075,-0.61 0.4075,-1.02375 0,-0.42125 -0.14,-0.7675 -0.42,-1.04375 -0.28125,-0.275 -0.63,-0.41125 -1.05125,-0.41125 -0.41,0 -0.75125,0.135 -1.02,0.4075 -0.27125,0.2725 -0.4075,0.61125 -0.4075,1.02"
       style="fill:#000000;fill-opacity:1;fill-rule:nonzero;stroke:none"
       id="path7349" />
    <path
       inkscape:connector-curvature="0"
       d="m 380.05385,635.80758 c 0,-0.84125 0.085,-1.51875 0.25875,-2.03125 0.1725,-0.51375 0.43125,-0.9075 0.7725,-1.1875 0.34,-0.2775 0.77,-0.4175 1.28875,-0.4175 0.38,0 0.715,0.0788 1.00375,0.23125 0.2875,0.15375 0.525,0.37625 0.7125,0.665 0.18875,0.29 0.335,0.6425 0.44125,1.0575 0.1075,0.41625 0.1625,0.97625 0.1625,1.6825 0,0.83375 -0.0888,1.50875 -0.25875,2.02 -0.17125,0.51375 -0.4275,0.90875 -0.77,1.18875 -0.34,0.28125 -0.77125,0.42 -1.29125,0.42 -0.68875,0 -1.225,-0.245 -1.61625,-0.73875 -0.47,-0.59125 -0.70375,-1.555 -0.70375,-2.89 z m 0.89625,0 c 0,1.1675 0.13875,1.94375 0.41125,2.33 0.27375,0.3875 0.61,0.58125 1.0125,0.58125 0.39875,0 0.7375,-0.195 1.01125,-0.58375 0.27125,-0.3875 0.41,-1.16375 0.41,-2.3275 0,-1.17125 -0.13875,-1.94875 -0.41,-2.335 -0.27375,-0.38375 -0.615,-0.57625 -1.0225,-0.57625 -0.4,0 -0.72125,0.16875 -0.96,0.50875 -0.30125,0.4325 -0.4525,1.235 -0.4525,2.4025"
       style="fill:#000000;fill-opacity:1;fill-rule:nonzero;stroke:none"
       id="path7351" />
    <path
       inkscape:connector-curvature="0"
       d="m 399.2226,639.31508 c -0.875,0 0,0 -0.875,0 0,-5.565 0,0 0,-5.565 -0.21125,0.19875 -0.485,0.4 -0.82625,0.6025 -0.34125,0.2 -0.6475,0.35 -0.91875,0.45 0,-0.84375 0,0 0,-0.84375 0.48875,-0.23 0.91375,-0.50875 1.27875,-0.835 0.36625,-0.32875 0.62375,-0.64375 0.775,-0.9525 0.56625,0 0,0 0.56625,0 0,7.14375 0,0 0,7.14375"
       style="fill:#000000;fill-opacity:1;fill-rule:nonzero;stroke:none"
       id="path7353" />
    <path
       inkscape:connector-curvature="0"
       d="m 401.57135,637.67008 c 0.84,-0.0775 0,0 0.84,-0.0775 0.0713,0.395 0.20625,0.68 0.4075,0.86 0.2,0.17625 0.4575,0.26625 0.77125,0.26625 0.26875,0 0.50375,-0.0625 0.705,-0.185 0.2025,-0.1225 0.36875,-0.28625 0.5,-0.4925 0.12875,-0.205 0.23625,-0.4825 0.32375,-0.83125 0.0862,-0.35125 0.13,-0.705 0.13,-1.0675 0,-0.04 0,-0.0975 -0.004,-0.175 -0.17625,0.2775 -0.41375,0.50375 -0.71625,0.6775 -0.30125,0.17125 -0.63125,0.25875 -0.9825,0.25875 -0.58875,0 -1.0875,-0.2125 -1.495,-0.64125 -0.4075,-0.42625 -0.61125,-0.99 -0.61125,-1.68875 0,-0.72125 0.2125,-1.30125 0.63875,-1.74125 0.42375,-0.44 0.9575,-0.66125 1.59875,-0.66125 0.46125,0 0.88625,0.12625 1.26875,0.375 0.3825,0.2475 0.675,0.605 0.87375,1.065 0.1975,0.46125 0.2975,1.1275 0.2975,2.00125 0,0.90875 -0.1,1.6325 -0.295,2.1725 -0.1975,0.53625 -0.49125,0.9475 -0.88125,1.22875 -0.38875,0.2825 -0.8475,0.4225 -1.37125,0.4225 -0.555,0 -1.01125,-0.15375 -1.3625,-0.46375 -0.35375,-0.3075 -0.56375,-0.7425 -0.63625,-1.3025 z m 3.57625,-3.14 c 0,-0.5 -0.13375,-0.9 -0.4,-1.1925 -0.2675,-0.29375 -0.5875,-0.44125 -0.96375,-0.44125 -0.38875,0 -0.725,0.1575 -1.01375,0.475 -0.2875,0.31625 -0.4325,0.7275 -0.4325,1.2325 0,0.45375 0.1375,0.82125 0.41125,1.10375 0.2725,0.28375 0.61,0.425 1.01,0.425 0.405,0 0.73875,-0.14125 0.9975,-0.425 0.26125,-0.2825 0.39125,-0.67625 0.39125,-1.1775"
       style="fill:#000000;fill-opacity:1;fill-rule:nonzero;stroke:none"
       id="path7355" />
    <path
       inkscape:connector-curvature="0"
       d="m 406.9501,635.80758 c 0,-0.84125 0.0863,-1.51875 0.25875,-2.03125 0.1725,-0.51375 0.43125,-0.9075 0.77125,-1.1875 0.3425,-0.2775 0.77125,-0.4175 1.29,-0.4175 0.38,0 0.71375,0.0788 1.00125,0.23125 0.28875,0.15375 0.5275,0.37625 0.715,0.665 0.18625,0.29 0.335,0.6425 0.44125,1.0575 0.1075,0.41625 0.16,0.97625 0.16,1.6825 0,0.83375 -0.085,1.50875 -0.25625,2.02 -0.1725,0.51375 -0.42875,0.90875 -0.76875,1.18875 -0.34125,0.28125 -0.7725,0.42 -1.2925,0.42 -0.6875,0 -1.22625,-0.245 -1.61625,-0.73875 -0.47125,-0.59125 -0.70375,-1.555 -0.70375,-2.89 z m 0.89625,0 c 0,1.1675 0.13625,1.94375 0.41125,2.33 0.2725,0.3875 0.61,0.58125 1.0125,0.58125 0.4,0 0.73625,-0.195 1.01,-0.58375 0.27375,-0.3875 0.40875,-1.16375 0.40875,-2.3275 0,-1.17125 -0.135,-1.94875 -0.40875,-2.335 -0.27375,-0.38375 -0.615,-0.57625 -1.02125,-0.57625 -0.40125,0 -0.72,0.16875 -0.96,0.50875 -0.30125,0.4325 -0.4525,1.235 -0.4525,2.4025"
       style="fill:#000000;fill-opacity:1;fill-rule:nonzero;stroke:none"
       id="path7357" />
    <path
       inkscape:connector-curvature="0"
       d="m 161.33135,616.54883 c 0,-0.8775 0,0 0,-0.8775 2.68375,0 0,0 2.68375,0 0,0.8775 0,0 0,0.8775 -2.68375,0 0,0 -2.68375,0"
       style="fill:#000000;fill-opacity:1;fill-rule:nonzero;stroke:none"
       id="path7359" />
    <path
       inkscape:connector-curvature="0"
       d="m 168.0676,618.68383 c -0.87375,0 0,0 -0.87375,0 0,-5.565 0,0 0,-5.565 -0.21,0.2 -0.48625,0.40125 -0.8275,0.60375 -0.34125,0.19875 -0.64875,0.35 -0.91875,0.45 0,-0.84625 0,0 0,-0.84625 0.4875,-0.22875 0.915,-0.50625 1.28125,-0.835 0.365,-0.325 0.62375,-0.64125 0.77625,-0.94875 0.5625,0 0,0 0.5625,0 0,7.14125 0,0 0,7.14125"
       style="fill:#000000;fill-opacity:1;fill-rule:nonzero;stroke:none"
       id="path7361" />
    <path
       inkscape:connector-curvature="0"
       d="m 170.2851,615.17758 c 0,-0.84125 0.0863,-1.52 0.26125,-2.03125 0.1725,-0.5125 0.43,-0.90875 0.77,-1.18625 0.34125,-0.27875 0.77125,-0.4175 1.28875,-0.4175 0.38125,0 0.71625,0.0763 1.005,0.23 0.2875,0.15375 0.525,0.37625 0.71375,0.66375 0.1875,0.29 0.335,0.64375 0.44125,1.05875 0.10625,0.41625 0.16,0.97625 0.16,1.6825 0,0.8325 -0.085,1.5075 -0.2575,2.02 -0.17125,0.5125 -0.4275,0.90875 -0.76875,1.18875 -0.3425,0.28 -0.7725,0.42 -1.29375,0.42 -0.685,0 -1.22375,-0.24625 -1.615,-0.73875 -0.47,-0.59 -0.705,-1.555 -0.705,-2.89 z m 0.89875,0 c 0,1.16625 0.1375,1.9425 0.41,2.33 0.27375,0.38875 0.61125,0.58 1.01125,0.58 0.4025,0 0.7375,-0.1925 1.0125,-0.5825 0.2725,-0.3875 0.41,-1.165 0.41,-2.3275 0,-1.17125 -0.1375,-1.95 -0.41,-2.33375 -0.275,-0.385 -0.615,-0.57875 -1.02125,-0.57875 -0.4025,0 -0.7225,0.17 -0.96125,0.51 -0.30125,0.43375 -0.45125,1.23375 -0.45125,2.4025"
       style="fill:#000000;fill-opacity:1;fill-rule:nonzero;stroke:none"
       id="path7363" />
    <path
       inkscape:connector-curvature="0"
       d="m 166.84135,585.65883 c 0,-0.87875 0,0 0,-0.87875 2.6825,0 0,0 2.6825,0 0,0.87875 0,0 0,0.87875 -2.6825,0 0,0 -2.6825,0"
       style="fill:#000000;fill-opacity:1;fill-rule:nonzero;stroke:none"
       id="path7365" />
    <path
       inkscape:connector-curvature="0"
       d="m 170.2851,585.92883 c 0.91875,-0.0775 0,0 0.91875,-0.0775 0.0675,0.44625 0.225,0.7825 0.4725,1.0075 0.2475,0.22375 0.545,0.3375 0.895,0.3375 0.42125,0 0.77625,-0.16 1.0675,-0.4775 0.29125,-0.315 0.43625,-0.73625 0.43625,-1.26 0,-0.49875 -0.13875,-0.89 -0.42,-1.18 -0.28,-0.28625 -0.645,-0.43125 -1.0975,-0.43125 -0.2825,0 -0.53625,0.065 -0.7625,0.19125 -0.22625,0.12875 -0.405,0.295 -0.535,0.4975 -0.81875,-0.105 0,0 -0.81875,-0.105 0.68875,-3.655 0,0 0.68875,-3.655 3.5375,0 0,0 3.5375,0 0,0.835 0,0 0,0.835 -2.83875,0 0,0 -2.83875,0 -0.38375,1.91125 0,0 -0.38375,1.91125 0.4275,-0.29875 0.87625,-0.44625 1.345,-0.44625 0.62125,0 1.145,0.21375 1.5725,0.64625 0.42625,0.43 0.64,0.98375 0.64,1.65875 0,0.645 -0.1875,1.20125 -0.5625,1.67 -0.45625,0.575 -1.07875,0.8625 -1.86875,0.8625 -0.64625,0 -1.175,-0.18125 -1.58375,-0.54375 -0.40875,-0.36125 -0.64375,-0.8425 -0.7025,-1.44125"
       style="fill:#000000;fill-opacity:1;fill-rule:nonzero;stroke:none"
       id="path7367" />
    <path
       inkscape:connector-curvature="0"
       d="m 170.2851,553.39383 c 0,-0.84125 0.0863,-1.52 0.26125,-2.03125 0.1725,-0.51375 0.43,-0.90875 0.77,-1.18625 0.34125,-0.27875 0.77125,-0.4175 1.28875,-0.4175 0.38125,0 0.71625,0.0775 1.005,0.23125 0.2875,0.15375 0.525,0.375 0.71375,0.66375 0.1875,0.28875 0.335,0.64375 0.44125,1.05875 0.10625,0.41625 0.16,0.975 0.16,1.68125 0,0.8325 -0.085,1.5075 -0.2575,2.02 -0.17125,0.51375 -0.4275,0.90875 -0.76875,1.19 -0.3425,0.2775 -0.7725,0.41875 -1.29375,0.41875 -0.685,0 -1.22375,-0.24625 -1.615,-0.7375 -0.47,-0.5925 -0.705,-1.55625 -0.705,-2.89125 z m 0.89875,0 c 0,1.1675 0.1375,1.94375 0.41,2.33125 0.27375,0.38625 0.61125,0.57875 1.01125,0.57875 0.4025,0 0.7375,-0.19375 1.0125,-0.58125 0.2725,-0.38875 0.41,-1.165 0.41,-2.32875 0,-1.17125 -0.1375,-1.95 -0.41,-2.335 -0.275,-0.38375 -0.615,-0.5775 -1.02125,-0.5775 -0.4025,0 -0.7225,0.17 -0.96125,0.50875 -0.30125,0.435 -0.45125,1.23625 -0.45125,2.40375"
       style="fill:#000000;fill-opacity:1;fill-rule:nonzero;stroke:none"
       id="path7369" />
    <path
       inkscape:connector-curvature="0"
       d="m 170.2851,524.03758 c 0.91875,-0.0762 0,0 0.91875,-0.0762 0.0675,0.445 0.225,0.78125 0.4725,1.005 0.2475,0.22625 0.545,0.33875 0.895,0.33875 0.42125,0 0.77625,-0.15875 1.0675,-0.47625 0.29125,-0.31625 0.43625,-0.7375 0.43625,-1.26125 0,-0.4975 -0.13875,-0.89125 -0.42,-1.17875 -0.28,-0.28875 -0.645,-0.4325 -1.0975,-0.4325 -0.2825,0 -0.53625,0.0638 -0.7625,0.19125 -0.22625,0.12875 -0.405,0.29375 -0.535,0.49875 -0.81875,-0.1075 0,0 -0.81875,-0.1075 0.68875,-3.65375 0,0 0.68875,-3.65375 3.5375,0 0,0 3.5375,0 0,0.835 0,0 0,0.835 -2.83875,0 0,0 -2.83875,0 -0.38375,1.91125 0,0 -0.38375,1.91125 0.4275,-0.29625 0.87625,-0.44625 1.345,-0.44625 0.62125,0 1.145,0.215 1.5725,0.645 0.42625,0.43 0.64,0.98375 0.64,1.66125 0,0.64125 -0.1875,1.19875 -0.5625,1.66875 -0.45625,0.57375 -1.07875,0.8625 -1.86875,0.8625 -0.64625,0 -1.175,-0.18125 -1.58375,-0.54375 -0.40875,-0.3625 -0.64375,-0.8425 -0.7025,-1.44125"
       style="fill:#000000;fill-opacity:1;fill-rule:nonzero;stroke:none"
       id="path7371" />
    <path
       inkscape:connector-curvature="0"
       d="m 168.0676,495.01008 c -0.87375,0 0,0 -0.87375,0 0,-5.56625 0,0 0,-5.56625 -0.21,0.20125 -0.48625,0.4025 -0.8275,0.6025 -0.34125,0.2 -0.64875,0.35125 -0.91875,0.45125 0,-0.845 0,0 0,-0.845 0.4875,-0.22875 0.915,-0.5075 1.28125,-0.83375 0.365,-0.3275 0.62375,-0.645 0.77625,-0.95125 0.5625,0 0,0 0.5625,0 0,7.1425 0,0 0,7.1425"
       style="fill:#000000;fill-opacity:1;fill-rule:nonzero;stroke:none"
       id="path7373" />
    <path
       inkscape:connector-curvature="0"
       d="m 170.2851,491.50133 c 0,-0.84125 0.0863,-1.5175 0.26125,-2.03 0.1725,-0.5125 0.43,-0.91 0.77,-1.18625 0.34125,-0.27875 0.77125,-0.4175 1.28875,-0.4175 0.38125,0 0.71625,0.0762 1.005,0.23 0.2875,0.15375 0.525,0.37625 0.71375,0.665 0.1875,0.28875 0.335,0.64125 0.44125,1.05625 0.10625,0.4175 0.16,0.9775 0.16,1.6825 0,0.835 -0.085,1.5075 -0.2575,2.02 -0.17125,0.51375 -0.4275,0.91125 -0.76875,1.19 -0.3425,0.28125 -0.7725,0.42 -1.29375,0.42 -0.685,0 -1.22375,-0.2475 -1.615,-0.73875 -0.47,-0.59125 -0.705,-1.555 -0.705,-2.89125 z m 0.89875,0 c 0,1.1675 0.1375,1.94625 0.41,2.33125 0.27375,0.3875 0.61125,0.58 1.01125,0.58 0.4025,0 0.7375,-0.19375 1.0125,-0.5825 0.2725,-0.38625 0.41,-1.16375 0.41,-2.32875 0,-1.17125 -0.1375,-1.94875 -0.41,-2.33375 -0.275,-0.385 -0.615,-0.5775 -1.02125,-0.5775 -0.4025,0 -0.7225,0.17125 -0.96125,0.51 -0.30125,0.43375 -0.45125,1.23375 -0.45125,2.40125"
       style="fill:#000000;fill-opacity:1;fill-rule:nonzero;stroke:none"
       id="path7375" />
    <path
       inkscape:connector-curvature="0"
       d="m 168.0676,464.11883 c -0.87375,0 0,0 -0.87375,0 0,-5.56625 0,0 0,-5.56625 -0.21,0.20125 -0.48625,0.40125 -0.8275,0.60125 -0.34125,0.2 -0.64875,0.35125 -0.91875,0.45125 0,-0.84375 0,0 0,-0.84375 0.4875,-0.23 0.915,-0.5075 1.28125,-0.835 0.365,-0.32625 0.62375,-0.64375 0.77625,-0.95 0.5625,0 0,0 0.5625,0 0,7.1425 0,0 0,7.1425"
       style="fill:#000000;fill-opacity:1;fill-rule:nonzero;stroke:none"
       id="path7377" />
    <path
       inkscape:connector-curvature="0"
       d="m 170.2851,462.25508 c 0.91875,-0.0775 0,0 0.91875,-0.0775 0.0675,0.445 0.225,0.78 0.4725,1.00625 0.2475,0.22375 0.545,0.33625 0.895,0.33625 0.42125,0 0.77625,-0.1575 1.0675,-0.475 0.29125,-0.3175 0.43625,-0.73625 0.43625,-1.26125 0,-0.4975 -0.13875,-0.89125 -0.42,-1.17875 -0.28,-0.2875 -0.645,-0.4325 -1.0975,-0.4325 -0.2825,0 -0.53625,0.0638 -0.7625,0.1925 -0.22625,0.1275 -0.405,0.2925 -0.535,0.4975 -0.81875,-0.1075 0,0 -0.81875,-0.1075 0.68875,-3.6525 0,0 0.68875,-3.6525 3.5375,0 0,0 3.5375,0 0,0.83375 0,0 0,0.83375 -2.83875,0 0,0 -2.83875,0 -0.38375,1.9125 0,0 -0.38375,1.9125 0.4275,-0.29625 0.87625,-0.44875 1.345,-0.44875 0.62125,0 1.145,0.21625 1.5725,0.64625 0.42625,0.43 0.64,0.98375 0.64,1.66 0,0.64375 -0.1875,1.2 -0.5625,1.66875 -0.45625,0.575 -1.07875,0.86375 -1.86875,0.86375 -0.64625,0 -1.175,-0.18125 -1.58375,-0.54375 -0.40875,-0.3625 -0.64375,-0.8425 -0.7025,-1.44"
       style="fill:#000000;fill-opacity:1;fill-rule:nonzero;stroke:none"
       id="path7379" />
    <path
       id="path7395"
       style="fill:none;stroke:#000000;stroke-width:0.75625002;stroke-linecap:round;stroke-linejoin:round;stroke-miterlimit:10;stroke-opacity:1;stroke-dasharray:none"
       d="m 189.31634,629.05383 0,-3.6725 m 13.39375,1.83625 0,-1.83625 m 13.5025,3.6725 0,-3.6725 m 13.39375,1.83625 0,-1.83625 m 13.395,3.6725 0,-3.6725 m 13.39251,1.83625 0,-1.83625 m 13.39375,3.6725 0,-3.6725 m 13.395,1.83625 0,-1.83625 m 13.39375,3.6725 0,-3.6725 m 13.39375,1.83625 0,-1.83625 m 13.39375,3.6725 0,-3.6725 m 13.395,1.83625 0,-1.83625 m 13.39375,3.6725 0,-3.6725 m 13.3925,1.83625 0,-1.83625 m 13.395,3.6725 0,-3.6725 m 13.50125,1.83625 0,-1.83625 m 13.395,3.6725 0,-3.6725 m -222.29751,0 231.47876,0 m -235.15001,-9.39625 3.67125,0 m -1.83625,-15.44625 1.83625,0 m -3.67125,-15.44625 3.67125,0 m -1.83625,-15.4475 1.83625,0 m -3.67125,-15.44375 3.67125,0 m -1.83625,-15.4475 1.83625,0 m -3.67125,-15.55375 3.67125,0 m -1.83625,-15.445 1.83625,0 m -3.67125,-15.44625 3.67125,0 m -1.83625,-15.445 1.83625,0 m -3.67125,-15.44625 3.67125,0 m -1.83625,-15.445 1.83625,0 m 0,179.40875 0,-186.21375"
       inkscape:connector-curvature="0" />
    <path
       inkscape:connector-curvature="0"
       d="m 382.5626,627.64383 0.4025,-7.4375 c -0.001,0.009 -0.002,0.0187 -0.004,0.0275 l 5.07625,-26.14 c -0.009,0.0512 -0.0412,0.0975 -0.085,0.125 -0.045,0.0287 -0.0987,0.0375 -0.15,0.0237 l 4.9675,1.29625 c 0.1,0.025 0.2025,-0.0312 0.23125,-0.13125 l 5.0775,-17.065 c -0.02,0.0662 -0.0738,0.115 -0.14125,0.1325 -0.0662,0.0138 -0.1375,-0.007 -0.1825,-0.0575 l 5.07625,5.50875 c 0.0637,0.0675 0.165,0.08 0.24375,0.0312 l 4.9675,-3.1325 c -0.0725,0.0475 -0.16875,0.0375 -0.23125,-0.02 l 5.0775,4.64375 c -0.0213,-0.02 -0.0387,-0.0437 -0.0487,-0.0712 l 0.23,0.59 0.17625,-0.07 0.17875,-0.07 -0.23,-0.58875 c -0.01,-0.0275 -0.0263,-0.0512 -0.0487,-0.0713 l -5.07625,-4.645 c -0.0637,-0.0575 -0.1575,-0.0662 -0.23125,-0.02 l -4.9675,3.1325 c 0.0775,-0.05 0.18,-0.0375 0.2425,0.0312 l -5.07875,-5.5075 c -0.0463,-0.0512 -0.115,-0.0738 -0.1825,-0.0575 -0.0675,0.015 -0.12125,0.0662 -0.14,0.13125 l -5.0775,17.06625 c 0.03,-0.1 0.1325,-0.155 0.2325,-0.13 l -4.96875,-1.29625 c -0.0525,-0.0137 -0.10625,-0.005 -0.15125,0.0237 -0.0437,0.0275 -0.0763,0.0725 -0.085,0.125 l -5.0775,26.13875 c -10e-4,0.01 -10e-4,0.0187 -0.003,0.0275 l -0.40375,7.4375 0.38375,0.0187"
       style="fill:#ff0000;fill-opacity:1;fill-rule:nonzero;stroke:none"
       id="path7405" />
    <path
       inkscape:connector-curvature="0"
       d="m 350.0676,630.42883 2.76125,-60.77375 c -0.002,0.0437 -0.02,0.0862 -0.05,0.12 l 4.96875,-5.50875 c -0.0475,0.0525 -0.12125,0.075 -0.19,0.0575 -0.0688,-0.0175 -0.12125,-0.0725 -0.13875,-0.1425 l 5.07625,22.03375 c 0.0188,0.08 0.085,0.14 0.1675,0.1475 0.08,0.009 0.15875,-0.0362 0.1925,-0.11 l 4.97,-10.80125 c -0.0362,0.0762 -0.11625,0.12 -0.20125,0.10875 -0.0838,-0.0113 -0.15,-0.0775 -0.16125,-0.16 l 5.07625,33.7 c -0.001,-0.006 -0.002,-0.0137 -0.002,-0.0187 l 0.9425,19.05625 0.3825,-0.02 -0.9425,-19.05625 c 0,-0.006 -0.001,-0.0125 -0.002,-0.0188 l -5.07625,-33.7 c -0.0125,-0.0838 -0.0775,-0.14875 -0.16375,-0.16 -0.0825,-0.0125 -0.16375,0.0312 -0.19875,0.10875 l -4.96875,10.8 c 0.0337,-0.0725 0.11125,-0.1175 0.1925,-0.11 0.0813,0.009 0.14875,0.0675 0.1675,0.14875 l -5.07625,-22.03375 c -0.0163,-0.07 -0.0688,-0.125 -0.1375,-0.1425 -0.07,-0.0187 -0.1425,0.003 -0.19125,0.055 l -4.96875,5.50875 c -0.0288,0.0325 -0.0462,0.075 -0.0487,0.11875 l -2.76125,60.77375 0.19125,0.01 0.19125,0.009"
       style="fill:#ff0000;fill-opacity:1;fill-rule:nonzero;stroke:none"
       id="path7407" />
    <path
       inkscape:connector-curvature="0"
       d="m 181.61259,587.96008 5.0775,-15.2275 c -0.0225,0.0688 -0.0825,0.11875 -0.15375,0.1275 -0.0725,0.0113 -0.14375,-0.0187 -0.185,-0.0787 l 4.96875,7.12875 c -0.004,-0.008 -0.009,-0.015 -0.0125,-0.0213 l 5.075,9.72125 c 0.0337,0.0638 0.0987,0.1025 0.17,0.1025 0.07,0 0.13625,-0.0388 0.16875,-0.1025 l 4.97,-9.39625 c -0.009,0.0163 -0.02,0.0325 -0.0325,0.0438 l 5.0775,-5.185 c -0.0613,0.0625 -0.155,0.0762 -0.23,0.0325 l 5.0775,2.80875 c 0.0788,0.045 0.18,0.0263 0.23875,-0.0438 l 4.96875,-5.94 c -0.0425,0.0488 -0.1075,0.075 -0.1725,0.0662 -0.0637,-0.009 -0.12,-0.0487 -0.1475,-0.10875 l 5.0775,10.8025 c 0.025,0.055 0.075,0.095 0.13375,0.10625 0.06,0.0112 0.12125,-0.005 0.16625,-0.045 l 5.0775,-4.53625 c -0.02,0.0163 -0.0425,0.03 -0.0687,0.0388 l 4.96875,-1.62125 c -0.1,0.0325 -0.2075,-0.0225 -0.24125,-0.12125 l 5.07625,15.23 c -0.004,-0.0137 4.96625,20.18375 4.96625,20.18375 0.02,0.0838 0.095,0.14375 0.18125,0.145 0.0875,0.001 0.16375,-0.0538 0.1875,-0.13875 l 5.07626,-17.82125 c 0.002,-0.009 0.004,-0.0187 0.005,-0.0287 l 5.0775,-39.53125 c -0.007,0.065 -0.0475,0.12125 -0.1075,0.1475 l 4.97,-2.3775 c -0.0463,0.0213 -0.1,0.025 -0.1475,0.009 -0.0487,-0.0187 -0.0863,-0.0537 -0.10875,-0.1 l 5.07625,11.0175 c -0.006,-0.0137 -0.0112,-0.0275 -0.0137,-0.0412 l 4.96875,23.9775 c 0.0187,0.0937 0.10125,0.15625 0.195,0.1525 0.0937,-0.002 0.17125,-0.0738 0.1825,-0.16625 l 5.0775,-41.2625 c -0.001,0.009 -0.004,0.0187 -0.006,0.0275 l 5.0775,-18.9025 c -0.015,0.0525 -0.05,0.0975 -0.0988,0.12125 l 4.9675,-2.485 c 0.055,-0.0263 0.0925,-0.0775 0.1025,-0.13875 l 5.0775,-29.81125 c -0.001,0.007 -0.004,0.015 -0.005,0.0237 l 4.96875,-16.41875 c 0,0 5.07625,-17.06625 5.07625,-17.06625 -0.004,0.01 -0.007,0.0225 -0.0137,0.0338 l 5.0775,-9.72125 c -0.025,0.0462 -0.0675,0.0813 -0.11875,0.095 -0.0513,0.015 -0.10625,0.008 -0.15125,-0.0213 l 4.97,3.02625 c -0.0413,-0.025 -0.0712,-0.0638 -0.0838,-0.11 l 5.07625,17.28125 c -0.004,-0.0137 4.965,23.53375 4.965,23.53375 0.001,0.006 5.07875,20.0975 5.07875,20.0975 -0.002,-0.0113 -0.005,-0.0213 -0.005,-0.0325 l 5.07625,60.81125 c 0.007,0.0975 0.085,0.17125 0.17875,0.17625 0.0962,0.006 0.18,-0.06 0.19875,-0.15375 l 4.96875,-24.95125 c -0.0125,0.0662 -0.06,0.12125 -0.12375,0.1425 -0.0638,0.0238 -0.135,0.01 -0.185,-0.0325 l 5.07625,4.2125 c -0.0275,-0.0213 -0.045,-0.05 -0.0575,-0.08 l 4.96875,13.28625 c -0.006,-0.0187 -0.0113,-0.04 -0.0125,-0.0587 l 2.60125,57.71 0.3825,-0.0163 -2.60125,-57.71125 c -10e-4,-0.02 -0.005,-0.04 -0.0125,-0.0588 l -4.9675,-13.28625 c -0.0125,-0.03 -0.0312,-0.0588 -0.0575,-0.0788 l -5.07625,-4.2125 c -0.0512,-0.0425 -0.1225,-0.0562 -0.18625,-0.0337 -0.0625,0.0225 -0.11125,0.0775 -0.12375,0.14375 l -4.97,24.95 c 0.02,-0.0925 0.10375,-0.15875 0.19875,-0.15375 0.0962,0.006 0.1725,0.0813 0.18,0.17625 l -5.07625,-60.8125 c 0,-0.0113 -0.002,-0.0213 -0.004,-0.0325 l -5.0775,-20.08875 c 0.001,0.007 -4.9675,-23.54 -4.9675,-23.54 -0.004,-0.0125 -5.08,-17.295 -5.08,-17.295 -0.0125,-0.0462 -0.0438,-0.085 -0.0838,-0.10875 l -4.96875,-3.02625 c -0.0462,-0.0275 -0.10125,-0.0362 -0.15125,-0.0213 -0.0512,0.015 -0.0937,0.05 -0.11875,0.095 l -5.07625,9.7225 c -0.006,0.01 -0.01,0.0225 -0.0137,0.0337 l -5.07625,17.06625 -4.96875,16.41875 c -0.002,0.008 -0.005,0.015 -0.006,0.0213 l -5.07625,29.8125 c 0.01,-0.0612 0.0487,-0.1125 0.1025,-0.13875 l -4.96875,2.48375 c -0.0488,0.025 -0.0838,0.07 -0.0987,0.1225 l -5.07625,18.90125 c -0.002,0.009 -0.005,0.0175 -0.005,0.0263 l -5.0775,41.2625 c 0.0112,-0.095 0.0887,-0.16375 0.1825,-0.16875 0.0937,-0.004 0.175,0.0613 0.195,0.1525 l -4.97,-23.97875 c -0.002,-0.0137 -0.008,-0.0287 -0.0138,-0.0412 l -5.075,-11.01875 c -0.0213,-0.045 -0.0613,-0.0825 -0.10875,-0.0987 -0.0475,-0.0188 -0.10125,-0.015 -0.1475,0.006 l -4.96875,2.3775 c -0.0588,0.0275 -0.0988,0.0838 -0.1075,0.14875 l -5.0775,39.5325 c 0.001,-0.01 0.004,-0.02 0.006,-0.03 l -5.07626,17.8225 c 0.0238,-0.0825 0.1,-0.13875 0.18625,-0.1375 0.0875,10e-4 0.1625,0.0613 0.1825,0.14375 l -4.96875,-20.1975 c -0.005,-0.015 -5.08,-15.24375 -5.08,-15.24375 -0.0337,-0.1 -0.14125,-0.15375 -0.24125,-0.12125 l -4.9675,1.62 c -0.0263,0.007 -0.0488,0.0213 -0.0687,0.0387 l -5.0775,4.5375 c 0.045,-0.04 0.10625,-0.0575 0.16625,-0.045 0.0588,0.0125 0.10875,0.0512 0.135,0.10625 l -5.0775,-10.8025 c -0.0275,-0.0587 -0.0837,-0.1 -0.14875,-0.10875 -0.065,-0.006 -0.13,0.0175 -0.17125,0.0675 l -4.9675,5.94 c 0.0588,-0.07 0.15875,-0.0888 0.23875,-0.0438 l -5.07625,-2.8075 c -0.0762,-0.0412 -0.17,-0.03 -0.23,0.0325 l -5.0775,5.185 c -0.0125,0.0138 -0.0237,0.0288 -0.0325,0.0463 l -4.96875,9.395 c 0.0337,-0.0638 0.0988,-0.10125 0.17,-0.10125 0.07,0 0.13625,0.0388 0.16875,0.10125 l -5.07625,-9.72 c -0.004,-0.006 -0.007,-0.0137 -0.0113,-0.0213 l -4.97,-7.12875 c -0.0412,-0.06 -0.1125,-0.09 -0.18375,-0.0788 -0.0712,0.01 -0.13125,0.0612 -0.15375,0.12875 l -5.0775,15.22875 0.18125,0.0612 0.18125,0.0588"
       style="fill:#ff0000;fill-opacity:1;fill-rule:nonzero;stroke:none"
       id="path7409" />
    <path
       inkscape:connector-curvature="0"
       d="m 312.6701,469.51758 18.795,0"
       style="fill:none;stroke:#000000;stroke-width:0.54000002;stroke-linecap:round;stroke-linejoin:round;stroke-miterlimit:10;stroke-opacity:1;stroke-dasharray:none"
       id="path7419" />
    <path
       inkscape:connector-curvature="0"
       d="m 312.6701,469.51758 4.64625,-1.07875 0,2.15875 -4.64625,-1.08 z"
       style="fill:#000000;fill-opacity:1;fill-rule:evenodd;stroke:#000000;stroke-width:0.54000002;stroke-linecap:round;stroke-linejoin:round;stroke-miterlimit:10;stroke-opacity:1;stroke-dasharray:none"
       id="path7421" />
    <path
       inkscape:connector-curvature="0"
       d="m 274.4326,469.51758 18.79625,0"
       style="fill:none;stroke:#000000;stroke-width:0.54000002;stroke-linecap:round;stroke-linejoin:round;stroke-miterlimit:10;stroke-opacity:1;stroke-dasharray:none"
       id="path7423" />
    <path
       inkscape:connector-curvature="0"
       d="m 293.22885,469.51758 -4.64625,1.08 0,-2.15875 4.64625,1.07875 z"
       style="fill:#000000;fill-opacity:1;fill-rule:evenodd;stroke:#000000;stroke-width:0.54000002;stroke-linecap:round;stroke-linejoin:round;stroke-miterlimit:10;stroke-opacity:1;stroke-dasharray:none"
       id="path7425" />
    <path
       inkscape:connector-curvature="0"
       d="m 153.8101,552.57008 c -7.1125,0 0,0 -7.1125,0 0,-2.6825 0,0 0,-2.6825 0,-0.4725 0.0225,-0.8325 0.0675,-1.08375 0.0575,-0.34875 0.16875,-0.64125 0.3325,-0.8775 0.16375,-0.235 0.39125,-0.425 0.68625,-0.57 0.295,-0.14375 0.6175,-0.21625 0.97125,-0.21625 0.60375,0 1.11625,0.1925 1.535,0.57625 0.41875,0.38625 0.62875,1.08125 0.62875,2.0875 0,1.82375 0,0 0,1.82375 2.89125,0 0,0 2.89125,0 0,0.9425 0,0 0,0.9425 z m -3.73125,-0.9425 c 0,-1.83625 0,0 0,-1.83625 0,-0.61 -0.1125,-1.04125 -0.34,-1.2975 -0.225,-0.255 -0.54375,-0.3825 -0.955,-0.3825 -0.2975,0 -0.5525,0.0738 -0.765,0.225 -0.21125,0.15125 -0.35125,0.34875 -0.42,0.59375 -0.0412,0.16 -0.0625,0.45125 -0.0625,0.87875 0,1.81875 0,0 0,1.81875 2.5425,0 0,0 2.5425,0"
       style="fill:#000000;fill-opacity:1;fill-rule:nonzero;stroke:none"
       id="path7427" />
    <path
       inkscape:connector-curvature="0"
       d="m 151.23385,546.41883 c -0.955,0 -1.66125,-0.26625 -2.12,-0.79625 -0.38125,-0.44375 -0.5725,-0.98375 -0.5725,-1.62 0,-0.71 0.23125,-1.28875 0.69625,-1.7375 0.46375,-0.44875 1.105,-0.675 1.92375,-0.675 0.6625,0 1.185,0.1 1.565,0.2975 0.38,0.19875 0.675,0.49 0.885,0.87 0.21,0.37875 0.315,0.795 0.315,1.245 0,0.72125 -0.23125,1.30375 -0.6925,1.7475 -0.4625,0.44625 -1.13,0.66875 -2,0.66875 z m 0,-0.8975 c 0.65875,0 1.155,-0.145 1.4825,-0.4325 0.32875,-0.28875 0.4925,-0.65125 0.4925,-1.08625 0,-0.435 -0.16375,-0.795 -0.495,-1.08375 -0.33,-0.2875 -0.8325,-0.43125 -1.50875,-0.43125 -0.6375,0 -1.12,0.145 -1.44875,0.43375 -0.32875,0.29 -0.4925,0.65 -0.4925,1.08125 0,0.435 0.16375,0.7975 0.49,1.08625 0.3275,0.2875 0.82,0.4325 1.48,0.4325"
       style="fill:#000000;fill-opacity:1;fill-rule:nonzero;stroke:none"
       id="path7429" />
    <path
       inkscape:connector-curvature="0"
       d="m 153.8101,539.63383 c -5.1525,1.57625 0,0 -5.1525,1.57625 0,-0.9025 0,0 0,-0.9025 2.97375,-0.82 0,0 2.97375,-0.82 1.1075,-0.3075 0,0 1.1075,-0.3075 -0.055,-0.0113 -0.41,-0.1 -1.06375,-0.265 -3.0175,-0.82125 0,0 -3.0175,-0.82125 0,-0.8975 0,0 0,-0.8975 2.98875,-0.77 0,0 2.98875,-0.77 0.985,-0.2575 0,0 0.985,-0.2575 -0.995,-0.295 0,0 -0.995,-0.295 -2.97875,-0.88375 0,0 -2.97875,-0.88375 0,-0.85 0,0 0,-0.85 5.1525,1.61125 0,0 5.1525,1.61125 0,0.90875 0,0 0,0.90875 -3.085,0.81875 0,0 -3.085,0.81875 -0.87875,0.1975 0,0 -0.87875,0.1975 3.96375,1.045 0,0 3.96375,1.045 0,0.9125 0,0 0,0.9125"
       style="fill:#000000;fill-opacity:1;fill-rule:nonzero;stroke:none"
       id="path7431" />
    <path
       inkscape:connector-curvature="0"
       d="m 152.15135,529.92883 c 0.11125,-0.90375 0,0 0.11125,-0.90375 0.5275,0.14375 0.9375,0.405 1.2275,0.79125 0.29125,0.38625 0.43625,0.87625 0.43625,1.47625 0,0.75125 -0.23125,1.35125 -0.695,1.79 -0.465,0.44375 -1.11625,0.66375 -1.95375,0.66375 -0.8675,0 -1.54,-0.2225 -2.01875,-0.67 -0.4775,-0.445 -0.7175,-1.02625 -0.7175,-1.73625 0,-0.69 0.23375,-1.2525 0.7025,-1.68875 0.46875,-0.435 1.13,-0.655 1.98,-0.655 0.0525,0 0.13,0.001 0.23375,0.005 0,3.8425 0,0 0,3.8425 0.565,-0.0325 1,-0.19125 1.3,-0.48 0.3,-0.2875 0.45125,-0.64625 0.45125,-1.0775 0,-0.32 -0.085,-0.59375 -0.2525,-0.82 -0.1675,-0.22625 -0.43625,-0.40625 -0.805,-0.5375 z m -1.41125,2.8675 c 0,-2.8775 0,0 0,-2.8775 -0.435,0.0375 -0.76,0.1475 -0.97625,0.33 -0.33625,0.27875 -0.505,0.6375 -0.505,1.08125 0,0.40125 0.135,0.73875 0.4025,1.01125 0.27,0.2725 0.6275,0.42375 1.07875,0.455"
       style="fill:#000000;fill-opacity:1;fill-rule:nonzero;stroke:none"
       id="path7433" />
    <path
       inkscape:connector-curvature="0"
       d="m 153.8101,527.95633 c -5.1525,0 0,0 -5.1525,0 0,-0.78625 0,0 0,-0.78625 0.78125,0 0,0 0.78125,0 -0.365,-0.2 -0.60625,-0.385 -0.72375,-0.555 -0.115,-0.16875 -0.17375,-0.35625 -0.17375,-0.5625 0,-0.2925 0.0925,-0.59125 0.28125,-0.895 0.81,0.30125 0,0 0.81,0.30125 -0.12625,0.2125 -0.19,0.42625 -0.19,0.63875 0,0.19125 0.0575,0.36125 0.1725,0.515 0.115,0.1525 0.275,0.26125 0.47875,0.32375 0.31,0.0987 0.65,0.1475 1.01875,0.1475 2.6975,0 0,0 2.6975,0 0,0.8725 0,0 0,0.8725"
       style="fill:#000000;fill-opacity:1;fill-rule:nonzero;stroke:none"
       id="path7435" />
    <path
       inkscape:connector-curvature="0"
       d="m 155.90135,520.33633 c -0.6075,0.48375 -1.31875,0.89 -2.135,1.2225 -0.81375,0.3325 -1.65875,0.5 -2.5325,0.5 -0.77,0 -1.5075,-0.125 -2.2125,-0.37375 -0.81875,-0.29125 -1.63375,-0.74125 -2.44625,-1.34875 0,-0.625 0,0 0,-0.625 0.67375,0.39125 1.15375,0.65 1.44125,0.77625 0.4475,0.19625 0.9125,0.3525 1.3975,0.465 0.605,0.14 1.21375,0.20875 1.825,0.20875 1.55625,0 3.11,-0.48125 4.6625,-1.45 0,0.625 0,0 0,0.625"
       style="fill:#000000;fill-opacity:1;fill-rule:nonzero;stroke:none"
       id="path7437" />
    <path
       inkscape:connector-curvature="0"
       d="m 153.8101,515.42258 c -0.65,0 0,0 -0.65,0 0.51125,0.325 0.76625,0.8075 0.76625,1.44125 0,0.41 -0.1125,0.78875 -0.33875,1.1325 -0.2275,0.34375 -0.5425,0.61 -0.94875,0.80125 -0.40625,0.19 -0.8725,0.28375 -1.4,0.28375 -0.51375,0 -0.98125,-0.085 -1.4,-0.25875 -0.41875,-0.17 -0.74,-0.42875 -0.96375,-0.77 -0.2225,-0.3425 -0.33375,-0.72625 -0.33375,-1.15125 0,-0.31 0.065,-0.58625 0.19625,-0.82875 0.13,-0.2425 0.3025,-0.44 0.5125,-0.59125 -2.5525,0 0,0 -2.5525,0 0,-0.86875 0,0 0,-0.86875 7.1125,0 0,0 7.1125,0 0,0.81 0,0 0,0.81 z m -2.57125,2.76125 c 0.66,0 1.15375,-0.14125 1.48125,-0.4175 0.32625,-0.2775 0.48875,-0.60625 0.48875,-0.9875 0,-0.38 -0.15625,-0.70375 -0.4675,-0.97 -0.31375,-0.26875 -0.78875,-0.40125 -1.42875,-0.40125 -0.705,0 -1.22375,0.13625 -1.555,0.4075 -0.32875,0.2725 -0.49375,0.60625 -0.49375,1.005 0,0.3875 0.1575,0.71125 0.475,0.9725 0.3175,0.26125 0.8175,0.39125 1.5,0.39125"
       style="fill:#000000;fill-opacity:1;fill-rule:nonzero;stroke:none"
       id="path7439" />
    <path
       inkscape:connector-curvature="0"
       d="m 153.8101,513.18383 c -7.1125,0 0,0 -7.1125,0 0,-2.6675 0,0 0,-2.6675 0,-0.545 0.0712,-0.98 0.215,-1.3075 0.145,-0.32875 0.36625,-0.5875 0.665,-0.7725 0.3,-0.18625 0.6125,-0.28 0.93875,-0.28 0.305,0 0.59125,0.0837 0.86,0.24875 0.2675,0.16375 0.48375,0.41375 0.65,0.7475 0.125,-0.43 0.34,-0.76125 0.64375,-0.9925 0.305,-0.23125 0.665,-0.34625 1.07875,-0.34625 0.3325,0 0.6425,0.0688 0.92875,0.21 0.28625,0.14125 0.5075,0.315 0.6625,0.5225 0.15625,0.20625 0.2725,0.46625 0.35125,0.7775 0.08,0.31375 0.11875,0.695 0.11875,1.14875 0,2.71125 0,0 0,2.71125 z m -4.12375,-0.94125 c 0,-1.53875 0,0 0,-1.53875 0,-0.4175 -0.0287,-0.715 -0.0838,-0.8975 -0.07,-0.2375 -0.18875,-0.42 -0.3525,-0.54125 -0.165,-0.12 -0.3725,-0.18125 -0.62125,-0.18125 -0.23625,0 -0.44375,0.0563 -0.625,0.17 -0.17875,0.1125 -0.3025,0.275 -0.3675,0.485 -0.0663,0.21125 -0.1,0.57 -0.1,1.0825 0,1.42125 0,0 0,1.42125 2.15,0 0,0 2.15,0 z m 3.285,0 c 0,-1.77 0,0 0,-1.77 0,-0.30625 -0.0112,-0.5175 -0.0337,-0.64125 -0.0388,-0.21625 -0.10375,-0.3975 -0.19375,-0.54375 -0.0912,-0.14625 -0.22375,-0.265 -0.395,-0.35875 -0.175,-0.0937 -0.37375,-0.14 -0.6,-0.14 -0.26625,0 -0.49625,0.0675 -0.6925,0.2025 -0.19625,0.135 -0.33375,0.325 -0.41125,0.565 -0.08,0.24125 -0.12,0.58875 -0.12,1.04125 0,1.645 0,0 0,1.645 2.44625,0 0,0 2.44625,0"
       style="fill:#000000;fill-opacity:1;fill-rule:nonzero;stroke:none"
       id="path7441" />
    <path
       inkscape:connector-curvature="0"
       d="m 155.90135,506.09508 c 0,0.6275 0,0 0,0.6275 -1.5525,-0.96875 -3.10625,-1.45125 -4.6625,-1.45125 -0.60875,0 -1.21125,0.0688 -1.81,0.20625 -0.485,0.11125 -0.95125,0.265 -1.3975,0.4625 -0.29125,0.12625 -0.77625,0.38625 -1.45625,0.7825 0,-0.6275 0,0 0,-0.6275 0.8125,-0.6075 1.6275,-1.0575 2.44625,-1.3475 0.705,-0.25125 1.4425,-0.37375 2.2125,-0.37375 0.87375,0 1.71875,0.16625 2.5325,0.5 0.81625,0.3375 1.5275,0.74375 2.135,1.22125"
       style="fill:#000000;fill-opacity:1;fill-rule:nonzero;stroke:none"
       id="path7443" />
    <path
       inkscape:connector-curvature="0"
       d="m 239.80759,648.95133 c 0,-1.18125 0.3175,-2.10625 0.9525,-2.77375 0.6325,-0.6675 1.45125,-1.00125 2.455,-1.00125 0.65625,0 1.2475,0.1575 1.775,0.47 0.5275,0.31375 0.93,0.75125 1.20625,1.3125 0.27625,0.5625 0.41376,1.1975 0.41376,1.90875 0,0.7225 -0.14376,1.3675 -0.43626,1.9375 -0.29125,0.56875 -0.7025,0.99875 -1.23625,1.2925 -0.53375,0.2925 -1.11,0.43875 -1.7275,0.43875 -0.67,0 -1.2675,-0.1625 -1.79625,-0.485 -0.5275,-0.32375 -0.92625,-0.765 -1.1975,-1.325 -0.2725,-0.55875 -0.40875,-1.15125 -0.40875,-1.775 z m 0.97125,0.0137 c 0,0.85875 0.23,1.5325 0.6925,2.02625 0.45875,0.49375 1.0375,0.74 1.73375,0.74 0.7075,0 1.29125,-0.24875 1.74875,-0.7475 0.4575,-0.4975 0.6875,-1.205 0.6875,-2.12 0,-0.58 -0.0987,-1.085 -0.29375,-1.51625 -0.19625,-0.4325 -0.4825,-0.76625 -0.86,-1.00625 -0.3775,-0.23625 -0.8,-0.35625 -1.26875,-0.35625 -0.66625,0 -1.24,0.23125 -1.72,0.6875 -0.48125,0.45625 -0.72,1.22375 -0.72,2.2925"
       style="fill:#000000;fill-opacity:1;fill-rule:nonzero;stroke:none"
       id="path7445" />
    <path
       inkscape:connector-curvature="0"
       d="m 247.6526,654.39008 c 0,-7.1275 0,0 0,-7.1275 0.795,0 0,0 0.795,0 0,0.66875 0,0 0,0.66875 0.1875,-0.26125 0.39875,-0.4575 0.63625,-0.58875 0.23625,-0.13125 0.52125,-0.19625 0.8575,-0.19625 0.44125,0 0.83,0.11375 1.16625,0.33875 0.33625,0.22625 0.58875,0.545 0.76125,0.95875 0.17125,0.4125 0.25625,0.86375 0.25625,1.355 0,0.5275 -0.0937,1.00375 -0.28375,1.42625 -0.18875,0.42125 -0.46375,0.74375 -0.82375,0.96875 -0.36125,0.22625 -0.74125,0.3375 -1.13875,0.3375 -0.29,0 -0.5525,-0.0613 -0.7825,-0.18375 -0.2325,-0.1225 -0.4225,-0.27875 -0.57,-0.465 0,2.5075 0,0 0,2.5075 -0.87375,0 0,0 -0.87375,0 z m 0.79125,-4.52125 c 0,0.6625 0.13375,1.1525 0.40125,1.46875 0.26875,0.31625 0.59375,0.475 0.97625,0.475 0.38875,0 0.72,-0.16375 0.9975,-0.49 0.27625,-0.32875 0.415,-0.8375 0.415,-1.5275 0,-0.65625 -0.13625,-1.14875 -0.405,-1.475 -0.27,-0.325 -0.59375,-0.49 -0.96875,-0.49 -0.3725,0 -0.70125,0.17375 -0.9875,0.52125 -0.28625,0.3475 -0.42875,0.8525 -0.42875,1.5175"
       style="fill:#000000;fill-opacity:1;fill-rule:nonzero;stroke:none"
       id="path7447" />
    <path
       inkscape:connector-curvature="0"
       d="m 255.06885,651.63383 c 0.12625,0.7725 0,0 0.12625,0.7725 -0.24625,0.0512 -0.46625,0.0762 -0.66125,0.0762 -0.31625,0 -0.5625,-0.05 -0.7375,-0.15 -0.175,-0.1 -0.2975,-0.23125 -0.36875,-0.395 -0.0712,-0.16375 -0.10625,-0.50625 -0.10625,-1.03 0,-2.965 0,0 0,-2.965 -0.64125,0 0,0 -0.64125,0 0,-0.68 0,0 0,-0.68 0.64125,0 0,0 0.64125,0 0,-1.2775 0,0 0,-1.2775 0.86875,-0.5225 0,0 0.86875,-0.5225 0,1.8 0,0 0,1.8 0.87875,0 0,0 0.87875,0 0,0.68 0,0 0,0.68 -0.87875,0 0,0 -0.87875,0 0,3.0125 0,0 0,3.0125 0,0.24875 0.0163,0.41 0.045,0.48 0.0312,0.0712 0.0812,0.1275 0.1525,0.17 0.0675,0.0412 0.1675,0.0625 0.2975,0.0625 0.0962,0 0.225,-0.0112 0.38375,-0.0337"
       style="fill:#000000;fill-opacity:1;fill-rule:nonzero;stroke:none"
       id="path7449" />
    <path
       inkscape:connector-curvature="0"
       d="m 255.86635,646.30633 c 0,-1.005 0,0 0,-1.005 0.87375,0 0,0 0.87375,0 0,1.005 0,0 0,1.005 -0.87375,0 0,0 -0.87375,0 z m 0,6.10875 c 0,-5.1525 0,0 0,-5.1525 0.87375,0 0,0 0.87375,0 0,5.1525 0,0 0,5.1525 -0.87375,0 0,0 -0.87375,0"
       style="fill:#000000;fill-opacity:1;fill-rule:nonzero;stroke:none"
       id="path7451" />
    <path
       inkscape:connector-curvature="0"
       d="m 261.38385,650.52758 c 0.86,0.1125 0,0 0.86,0.1125 -0.0937,0.59125 -0.33375,1.055 -0.72125,1.38875 -0.3875,0.33625 -0.86125,0.5025 -1.425,0.5025 -0.705,0 -1.27125,-0.22875 -1.7,-0.69 -0.42875,-0.46125 -0.6425,-1.1225 -0.6425,-1.98375 0,-0.555 0.0925,-1.0425 0.27625,-1.46 0.185,-0.4175 0.465,-0.73 0.84125,-0.94 0.3775,-0.2075 0.78875,-0.31125 1.23,-0.31125 0.56,0 1.01875,0.14125 1.37375,0.425 0.355,0.28125 0.58375,0.68375 0.68375,1.205 -0.84875,0.13125 0,0 -0.84875,0.13125 -0.08,-0.34625 -0.22375,-0.60625 -0.42875,-0.7825 -0.20625,-0.17375 -0.455,-0.26125 -0.745,-0.26125 -0.44,0 -0.7975,0.1575 -1.07375,0.4725 -0.27375,0.31625 -0.41125,0.81375 -0.41125,1.4975 0,0.6925 0.1325,1.19375 0.3975,1.50875 0.265,0.31375 0.61125,0.47 1.03875,0.47 0.3425,0 0.62875,-0.10375 0.85875,-0.315 0.23,-0.21 0.375,-0.53375 0.43625,-0.97"
       style="fill:#000000;fill-opacity:1;fill-rule:nonzero;stroke:none"
       id="path7453" />
    <path
       inkscape:connector-curvature="0"
       d="m 266.3526,651.77883 c -0.32375,0.27625 -0.63375,0.46875 -0.9325,0.58375 -0.3,0.11125 -0.62125,0.16875 -0.965,0.16875 -0.565,0 -1.00125,-0.1375 -1.305,-0.415 -0.3025,-0.275 -0.45625,-0.63 -0.45625,-1.06 0,-0.25125 0.0587,-0.4825 0.17375,-0.69125 0.11375,-0.20875 0.265,-0.37625 0.45125,-0.50125 0.185,-0.1275 0.39375,-0.22125 0.6275,-0.2875 0.17125,-0.045 0.43,-0.0875 0.7775,-0.13 0.70375,-0.085 1.22375,-0.185 1.55625,-0.30125 0.004,-0.11875 0.005,-0.19625 0.005,-0.22875 0,-0.355 -0.0825,-0.6075 -0.2475,-0.7525 -0.22375,-0.1975 -0.555,-0.295 -0.995,-0.295 -0.41,0 -0.7125,0.0725 -0.90875,0.21625 -0.19625,0.14375 -0.34125,0.3975 -0.435,0.76375 -0.85375,-0.1175 0,0 -0.85375,-0.1175 0.0775,-0.36375 0.205,-0.66 0.3825,-0.885 0.17875,-0.22375 0.43625,-0.3975 0.7725,-0.52 0.33625,-0.12 0.725,-0.18 1.16875,-0.18 0.44125,0 0.7975,0.0513 1.07375,0.155 0.27375,0.1025 0.47625,0.2325 0.605,0.38875 0.13,0.15875 0.22,0.3575 0.2725,0.59625 0.0288,0.14875 0.0438,0.4175 0.0438,0.805 0,1.165 0,0 0,1.165 0,0.81125 0.0187,1.325 0.0562,1.54125 0.0363,0.2125 0.11,0.42 0.22,0.6175 -0.9125,0 0,0 -0.9125,0 -0.09,-0.18125 -0.14875,-0.3925 -0.175,-0.63625 z m -0.0725,-1.95 c -0.3175,0.13 -0.7925,0.24 -1.42625,0.33125 -0.35875,0.0512 -0.61375,0.10875 -0.76125,0.175 -0.14875,0.0625 -0.26375,0.1575 -0.345,0.2825 -0.0812,0.125 -0.12125,0.2625 -0.12125,0.41375 0,0.23375 0.0875,0.4275 0.265,0.5825 0.17625,0.155 0.43375,0.23375 0.77375,0.23375 0.33625,0 0.635,-0.0738 0.8975,-0.22125 0.2625,-0.1475 0.455,-0.3475 0.57625,-0.605 0.0937,-0.19625 0.14125,-0.4875 0.14125,-0.8725 0,-0.32 0,0 0,-0.32"
       style="fill:#000000;fill-opacity:1;fill-rule:nonzero;stroke:none"
       id="path7455" />
    <path
       inkscape:connector-curvature="0"
       d="m 268.47885,652.41508 c 0,-7.11375 0,0 0,-7.11375 0.875,0 0,0 0.875,0 0,7.11375 0,0 0,7.11375 -0.875,0 0,0 -0.875,0"
       style="fill:#000000;fill-opacity:1;fill-rule:nonzero;stroke:none"
       id="path7457" />
    <path
       inkscape:connector-curvature="0"
       d="m 273.3601,654.39008 c 0,-7.1275 0,0 0,-7.1275 0.79625,0 0,0 0.79625,0 0,0.66875 0,0 0,0.66875 0.18625,-0.26125 0.39875,-0.4575 0.635,-0.58875 0.2375,-0.13125 0.5225,-0.19625 0.85875,-0.19625 0.44,0 0.8275,0.11375 1.165,0.33875 0.33625,0.22625 0.59,0.545 0.76125,0.95875 0.1725,0.4125 0.2575,0.86375 0.2575,1.355 0,0.5275 -0.0937,1.00375 -0.28375,1.42625 -0.19,0.42125 -0.46375,0.74375 -0.825,0.96875 -0.36,0.22625 -0.74,0.3375 -1.13875,0.3375 -0.29,0 -0.55125,-0.0613 -0.78375,-0.18375 -0.23,-0.1225 -0.42,-0.27875 -0.56875,-0.465 0,2.5075 0,0 0,2.5075 -0.87375,0 0,0 -0.87375,0 z m 0.79125,-4.52125 c 0,0.6625 0.13375,1.1525 0.4025,1.46875 0.26875,0.31625 0.59375,0.475 0.975,0.475 0.3875,0 0.72125,-0.16375 0.9975,-0.49 0.27625,-0.32875 0.41375,-0.8375 0.41375,-1.5275 0,-0.65625 -0.13375,-1.14875 -0.40375,-1.475 -0.27125,-0.325 -0.5925,-0.49 -0.9675,-0.49 -0.3725,0 -0.7025,0.17375 -0.98875,0.52125 -0.285,0.3475 -0.42875,0.8525 -0.42875,1.5175"
       style="fill:#000000;fill-opacity:1;fill-rule:nonzero;stroke:none"
       id="path7459" />
    <path
       inkscape:connector-curvature="0"
       d="m 282.23135,651.77883 c -0.32375,0.27625 -0.635,0.46875 -0.93375,0.58375 -0.3,0.11125 -0.62125,0.16875 -0.9625,0.16875 -0.5675,0 -1.00125,-0.1375 -1.30625,-0.415 -0.30375,-0.275 -0.455,-0.63 -0.455,-1.06 0,-0.25125 0.0562,-0.4825 0.17125,-0.69125 0.115,-0.20875 0.265,-0.37625 0.45125,-0.50125 0.185,-0.1275 0.39625,-0.22125 0.62875,-0.2875 0.17125,-0.045 0.43,-0.0875 0.77625,-0.13 0.705,-0.085 1.225,-0.185 1.5575,-0.30125 0.002,-0.11875 0.005,-0.19625 0.005,-0.22875 0,-0.355 -0.0838,-0.6075 -0.2475,-0.7525 -0.22375,-0.1975 -0.55375,-0.295 -0.995,-0.295 -0.41125,0 -0.71375,0.0725 -0.91,0.21625 -0.195,0.14375 -0.34,0.3975 -0.43375,0.76375 -0.85375,-0.1175 0,0 -0.85375,-0.1175 0.0775,-0.36375 0.205,-0.66 0.3825,-0.885 0.17875,-0.22375 0.435,-0.3975 0.77125,-0.52 0.3375,-0.12 0.7275,-0.18 1.17,-0.18 0.44,0 0.79625,0.0513 1.0725,0.155 0.275,0.1025 0.47625,0.2325 0.60625,0.38875 0.13,0.15875 0.22,0.3575 0.2725,0.59625 0.0288,0.14875 0.0425,0.4175 0.0425,0.805 0,1.165 0,0 0,1.165 0,0.81125 0.0187,1.325 0.0562,1.54125 0.0363,0.2125 0.11,0.42 0.22,0.6175 -0.91125,0 0,0 -0.91125,0 -0.0913,-0.18125 -0.14875,-0.3925 -0.175,-0.63625 z m -0.0725,-1.95 c -0.31625,0.13 -0.7925,0.24 -1.42625,0.33125 -0.35875,0.0512 -0.61375,0.10875 -0.7625,0.175 -0.14875,0.0625 -0.26375,0.1575 -0.34375,0.2825 -0.0812,0.125 -0.1225,0.2625 -0.1225,0.41375 0,0.23375 0.0888,0.4275 0.265,0.5825 0.17625,0.155 0.43375,0.23375 0.77375,0.23375 0.33625,0 0.63625,-0.0738 0.89875,-0.22125 0.26125,-0.1475 0.45375,-0.3475 0.57625,-0.605 0.095,-0.19625 0.14125,-0.4875 0.14125,-0.8725 0,-0.32 0,0 0,-0.32"
       style="fill:#000000;fill-opacity:1;fill-rule:nonzero;stroke:none"
       id="path7461" />
    <path
       inkscape:connector-curvature="0"
       d="m 286.2851,651.63383 c 0.12625,0.7725 0,0 0.12625,0.7725 -0.24625,0.0512 -0.46625,0.0762 -0.66125,0.0762 -0.315,0 -0.5625,-0.05 -0.73625,-0.15 -0.175,-0.1 -0.2975,-0.23125 -0.36875,-0.395 -0.0712,-0.16375 -0.1075,-0.50625 -0.1075,-1.03 0,-2.965 0,0 0,-2.965 -0.64,0 0,0 -0.64,0 0,-0.68 0,0 0,-0.68 0.64,0 0,0 0.64,0 0,-1.2775 0,0 0,-1.2775 0.86875,-0.5225 0,0 0.86875,-0.5225 0,1.8 0,0 0,1.8 0.87875,0 0,0 0.87875,0 0,0.68 0,0 0,0.68 -0.87875,0 0,0 -0.87875,0 0,3.0125 0,0 0,3.0125 0,0.24875 0.015,0.41 0.045,0.48 0.0312,0.0712 0.0825,0.1275 0.1525,0.17 0.0687,0.0412 0.1675,0.0625 0.2975,0.0625 0.0962,0 0.225,-0.0112 0.38375,-0.0337"
       style="fill:#000000;fill-opacity:1;fill-rule:nonzero;stroke:none"
       id="path7463" />
    <path
       inkscape:connector-curvature="0"
       d="m 287.0776,652.41508 c 0,-7.11375 0,0 0,-7.11375 0.87375,0 0,0 0.87375,0 0,2.5525 0,0 0,2.5525 0.4075,-0.4725 0.9225,-0.7075 1.54375,-0.7075 0.38,0 0.7125,0.0738 0.99375,0.22375 0.28125,0.1525 0.4825,0.36 0.605,0.625 0.12,0.265 0.18125,0.65 0.18125,1.15375 0,3.26625 0,0 0,3.26625 -0.87375,0 0,0 -0.87375,0 0,-3.26625 0,0 0,-3.26625 0,-0.43625 -0.0937,-0.75375 -0.28375,-0.9525 -0.18875,-0.19875 -0.45625,-0.29875 -0.8025,-0.29875 -0.26,0 -0.5025,0.0662 -0.73125,0.2025 -0.22625,0.13375 -0.39,0.315 -0.48625,0.545 -0.0975,0.23 -0.14625,0.5475 -0.14625,0.95125 0,2.81875 0,0 0,2.81875 -0.87375,0 0,0 -0.87375,0"
       style="fill:#000000;fill-opacity:1;fill-rule:nonzero;stroke:none"
       id="path7465" />
    <path
       inkscape:connector-curvature="0"
       d="m 298.6301,652.41508 c 0,-0.65125 0,0 0,-0.65125 -0.325,0.51125 -0.80625,0.7675 -1.44,0.7675 -0.41125,0 -0.79,-0.1125 -1.13375,-0.33875 -0.34375,-0.22875 -0.61125,-0.54375 -0.8,-0.94875 -0.19,-0.40625 -0.285,-0.87375 -0.285,-1.40125 0,-0.51375 0.0863,-0.98 0.25875,-1.39875 0.17,-0.41875 0.4275,-0.74125 0.77,-0.96375 0.34375,-0.2225 0.72625,-0.33375 1.15125,-0.33375 0.31,0 0.58625,0.065 0.82875,0.19625 0.24375,0.13125 0.44,0.30125 0.5925,0.51125 0,-2.5525 0,0 0,-2.5525 0.8675,0 0,0 0.8675,0 0,7.11375 0,0 0,7.11375 -0.81,0 0,0 -0.81,0 z m -2.76,-2.5725 c 0,0.66 0.14,1.15375 0.4175,1.4825 0.2775,0.325 0.60625,0.4875 0.98375,0.4875 0.3825,0 0.70625,-0.155 0.97375,-0.4675 0.26625,-0.31125 0.4,-0.79 0.4,-1.4275 0,-0.70625 -0.13625,-1.22375 -0.4075,-1.5525 -0.2725,-0.33125 -0.60625,-0.49625 -1.00375,-0.49625 -0.38875,0 -0.7125,0.15875 -0.97375,0.47625 -0.26,0.31625 -0.39,0.81625 -0.39,1.4975"
       style="fill:#000000;fill-opacity:1;fill-rule:nonzero;stroke:none"
       id="path7467" />
    <path
       inkscape:connector-curvature="0"
       d="m 300.8001,646.30633 c 0,-1.005 0,0 0,-1.005 0.87375,0 0,0 0.87375,0 0,1.005 0,0 0,1.005 -0.87375,0 0,0 -0.87375,0 z m 0,6.10875 c 0,-5.1525 0,0 0,-5.1525 0.87375,0 0,0 0.87375,0 0,5.1525 0,0 0,5.1525 -0.87375,0 0,0 -0.87375,0"
       style="fill:#000000;fill-opacity:1;fill-rule:nonzero;stroke:none"
       id="path7469" />
    <path
       inkscape:connector-curvature="0"
       d="m 303.1651,652.41508 c 0,-4.4725 0,0 0,-4.4725 -0.77125,0 0,0 -0.77125,0 0,-0.68 0,0 0,-0.68 0.77125,0 0,0 0.77125,0 0,-0.55 0,0 0,-0.55 0,-0.34375 0.03,-0.6025 0.0925,-0.77 0.085,-0.2275 0.2325,-0.41 0.4425,-0.55 0.21375,-0.1425 0.51125,-0.21125 0.89125,-0.21125 0.24625,0 0.5175,0.0275 0.81625,0.0875 -0.13125,0.76 0,0 -0.13125,0.76 -0.18125,-0.0325 -0.3525,-0.0475 -0.515,-0.0475 -0.265,0 -0.4525,0.0562 -0.5625,0.16875 -0.11,0.115 -0.165,0.32625 -0.165,0.6375 0,0.475 0,0 0,0.475 1.005,0 0,0 1.005,0 0,0.68 0,0 0,0.68 -1.005,0 0,0 -1.005,0 0,4.4725 0,0 0,4.4725 -0.86875,0 0,0 -0.86875,0"
       style="fill:#000000;fill-opacity:1;fill-rule:nonzero;stroke:none"
       id="path7471" />
    <path
       inkscape:connector-curvature="0"
       d="m 305.97385,652.41508 c 0,-4.4725 0,0 0,-4.4725 -0.7725,0 0,0 -0.7725,0 0,-0.68 0,0 0,-0.68 0.7725,0 0,0 0.7725,0 0,-0.55 0,0 0,-0.55 0,-0.34375 0.0312,-0.6025 0.0925,-0.77 0.0838,-0.2275 0.23125,-0.41 0.44375,-0.55 0.21125,-0.1425 0.5075,-0.21125 0.89,-0.21125 0.24625,0 0.5175,0.0275 0.815,0.0875 -0.13125,0.76 0,0 -0.13125,0.76 -0.18125,-0.0325 -0.35125,-0.0475 -0.51375,-0.0475 -0.26625,0 -0.4525,0.0562 -0.5625,0.16875 -0.11,0.115 -0.165,0.32625 -0.165,0.6375 0,0.475 0,0 0,0.475 1.00375,0 0,0 1.00375,0 0,0.68 0,0 0,0.68 -1.00375,0 0,0 -1.00375,0 0,4.4725 0,0 0,4.4725 -0.86875,0 0,0 -0.86875,0"
       style="fill:#000000;fill-opacity:1;fill-rule:nonzero;stroke:none"
       id="path7473" />
    <path
       inkscape:connector-curvature="0"
       d="m 312.10135,650.75633 c 0.9025,0.11 0,0 0.9025,0.11 -0.14125,0.5275 -0.40625,0.9375 -0.79125,1.2275 -0.385,0.29125 -0.87625,0.4375 -1.475,0.4375 -0.75375,0 -1.35125,-0.23125 -1.7925,-0.695 -0.44125,-0.465 -0.66375,-1.11625 -0.66375,-1.95375 0,-0.8675 0.225,-1.54 0.67125,-2.01875 0.445,-0.47875 1.025,-0.7175 1.73625,-0.7175 0.68875,0 1.25125,0.23375 1.68875,0.70375 0.43625,0.4675 0.655,1.12875 0.655,1.97875 0,0.0513 -10e-4,0.13 -0.005,0.2325 -3.8425,0 0,0 -3.8425,0 0.0312,0.5675 0.1925,1 0.48,1.30125 0.28875,0.30125 0.6475,0.45 1.0775,0.45 0.32,0 0.59375,-0.0825 0.82,-0.25125 0.22625,-0.17 0.40625,-0.4375 0.53875,-0.805 z m -2.8675,-1.4125 c 2.87625,0 0,0 2.87625,0 -0.0387,-0.43375 -0.14875,-0.75875 -0.33,-0.975 -0.2775,-0.3375 -0.63875,-0.505 -1.08125,-0.505 -0.40125,0 -0.73875,0.135 -1.01125,0.40125 -0.27375,0.26875 -0.425,0.62875 -0.45375,1.07875"
       style="fill:#000000;fill-opacity:1;fill-rule:nonzero;stroke:none"
       id="path7475" />
    <path
       inkscape:connector-curvature="0"
       d="m 314.07135,652.41508 c 0,-5.1525 0,0 0,-5.1525 0.7875,0 0,0 0.7875,0 0,0.78125 0,0 0,0.78125 0.2,-0.36625 0.385,-0.6075 0.55625,-0.72375 0.16875,-0.115 0.35625,-0.17375 0.56,-0.17375 0.29375,0 0.59375,0.0937 0.8975,0.28125 -0.30125,0.81 0,0 -0.30125,0.81 -0.21375,-0.1275 -0.42625,-0.18875 -0.64,-0.18875 -0.19,0 -0.3625,0.0562 -0.515,0.1725 -0.1525,0.115 -0.26,0.2725 -0.325,0.4775 -0.0962,0.30875 -0.145,0.65 -0.145,1.01875 0,2.6975 0,0 0,2.6975 -0.875,0 0,0 -0.875,0"
       style="fill:#000000;fill-opacity:1;fill-rule:nonzero;stroke:none"
       id="path7477" />
    <path
       inkscape:connector-curvature="0"
       d="m 320.8501,650.75633 c 0.9025,0.11 0,0 0.9025,0.11 -0.14125,0.5275 -0.405,0.9375 -0.79125,1.2275 -0.385,0.29125 -0.875,0.4375 -1.475,0.4375 -0.75375,0 -1.35,-0.23125 -1.7925,-0.695 -0.44125,-0.465 -0.6625,-1.11625 -0.6625,-1.95375 0,-0.8675 0.22375,-1.54 0.67,-2.01875 0.44625,-0.47875 1.025,-0.7175 1.73625,-0.7175 0.69,0 1.2525,0.23375 1.69,0.70375 0.43625,0.4675 0.655,1.12875 0.655,1.97875 0,0.0513 -0.002,0.13 -0.005,0.2325 -3.84375,0 0,0 -3.84375,0 0.0337,0.5675 0.1925,1 0.48125,1.30125 0.2875,0.30125 0.64625,0.45 1.07625,0.45 0.32,0 0.595,-0.0825 0.82125,-0.25125 0.22625,-0.17 0.405,-0.4375 0.5375,-0.805 z m -2.8675,-1.4125 c 2.8775,0 0,0 2.8775,0 -0.0387,-0.43375 -0.14875,-0.75875 -0.33,-0.975 -0.27875,-0.3375 -0.64,-0.505 -1.08125,-0.505 -0.40125,0 -0.74,0.135 -1.0125,0.40125 -0.27375,0.26875 -0.42375,0.62875 -0.45375,1.07875"
       style="fill:#000000;fill-opacity:1;fill-rule:nonzero;stroke:none"
       id="path7479" />
    <path
       inkscape:connector-curvature="0"
       d="m 326.19385,650.52758 c 0.86,0.1125 0,0 0.86,0.1125 -0.095,0.59125 -0.335,1.055 -0.72125,1.38875 -0.38625,0.33625 -0.86125,0.5025 -1.42375,0.5025 -0.705,0 -1.27375,-0.22875 -1.7025,-0.69 -0.4275,-0.46125 -0.6425,-1.1225 -0.6425,-1.98375 0,-0.555 0.0925,-1.0425 0.2775,-1.46 0.18375,-0.4175 0.465,-0.73 0.84125,-0.94 0.37875,-0.2075 0.7875,-0.31125 1.23125,-0.31125 0.56,0 1.01625,0.14125 1.3725,0.425 0.355,0.28125 0.58375,0.68375 0.68375,1.205 -0.85,0.13125 0,0 -0.85,0.13125 -0.08,-0.34625 -0.2225,-0.60625 -0.4275,-0.7825 -0.205,-0.17375 -0.455,-0.26125 -0.745,-0.26125 -0.44,0 -0.7975,0.1575 -1.07375,0.4725 -0.275,0.31625 -0.41,0.81375 -0.41,1.4975 0,0.6925 0.13125,1.19375 0.39625,1.50875 0.26375,0.31375 0.61125,0.47 1.03875,0.47 0.34125,0 0.63,-0.10375 0.8575,-0.315 0.23125,-0.21 0.37625,-0.53375 0.4375,-0.97"
       style="fill:#000000;fill-opacity:1;fill-rule:nonzero;stroke:none"
       id="path7481" />
    <path
       id="path7497"
       style="fill:#000000;fill-opacity:1;fill-rule:nonzero;stroke:none"
       d="m 331.32635,650.75633 c 0.90375,0.11 0,0 0.90375,0.11 -0.1425,0.5275 -0.405,0.9375 -0.79125,1.2275 -0.38375,0.29125 -0.87625,0.4375 -1.475,0.4375 -0.7525,0 -1.35,-0.23125 -1.7925,-0.695 -0.44125,-0.465 -0.66125,-1.11625 -0.66125,-1.95375 0,-0.8675 0.2225,-1.54 0.66875,-2.01875 0.445,-0.47875 1.025,-0.7175 1.7375,-0.7175 0.68875,0 1.25125,0.23375 1.6875,0.70375 0.4375,0.4675 0.65625,1.12875 0.65625,1.97875 0,0.0513 -0.002,0.13 -0.005,0.2325 -3.84375,0 0,0 -3.84375,0 0.0325,0.5675 0.1925,1 0.48125,1.30125 0.2875,0.30125 0.64625,0.45 1.07625,0.45 0.32,0 0.59375,-0.0825 0.82125,-0.25125 0.225,-0.17 0.405,-0.4375 0.53625,-0.805 z m -2.86625,-1.4125 c 2.8775,0 0,0 2.8775,0 -0.0388,-0.43375 -0.14875,-0.75875 -0.32875,-0.975 -0.28,-0.3375 -0.64,-0.505 -1.08375,-0.505 -0.40125,0 -0.7375,0.135 -1.01,0.40125 -0.27375,0.26875 -0.4275,0.62875 -0.455,1.07875"
       inkscape:connector-curvature="0" />
    <path
       id="path7499"
       style="fill:#000000;fill-opacity:1;fill-rule:nonzero;stroke:none"
       d="m 337.6776,654.50633 c -0.48125,-0.60875 -0.8875,-1.32 -1.2225,-2.13625 -0.33375,-0.81375 -0.49875,-1.65875 -0.49875,-2.53125 0,-0.76875 0.1225,-1.5075 0.3725,-2.2125 0.29125,-0.81875 0.74125,-1.63375 1.34875,-2.445 0.62625,0 0,0 0.62625,0 -0.39,0.6725 -0.64875,1.1525 -0.77625,1.44 -0.1975,0.44625 -0.3525,0.9125 -0.46625,1.3975 -0.1375,0.60375 -0.20875,1.21375 -0.20875,1.82375 0,1.55625 0.48375,3.11 1.45125,4.66375 -0.62625,0 0,0 -0.62625,0"
       inkscape:connector-curvature="0" />
    <path
       inkscape:connector-curvature="0"
       d="m 342.8026,648.35758 c 0,2.67 0,0 0,2.67 0,0.355 0.0188,0.60375 0.0487,0.745 0.0275,0.1 0.0688,0.17375 0.12125,0.2175 0.0525,0.045 0.10875,0.0663 0.1675,0.0663 0.0738,0 0.1425,-0.0375 0.20625,-0.11 0.0625,-0.075 0.11,-0.22125 0.14,-0.43875 0.18,0 0,0 0.18,0 -0.0512,0.39625 -0.1475,0.66875 -0.2925,0.8175 -0.14375,0.15125 -0.3275,0.2275 -0.54875,0.2275 -0.2175,0 -0.3925,-0.0662 -0.5225,-0.19875 -0.13,-0.13375 -0.2075,-0.36375 -0.23625,-0.69125 -0.29875,0.3325 -0.585,0.565 -0.85625,0.6975 -0.27,0.13125 -0.50375,0.19625 -0.7025,0.19625 -0.1325,0 -0.2625,-0.0263 -0.3875,-0.0788 -0.12875,-0.05 -0.2525,-0.125 -0.3725,-0.2275 -0.006,0.43 0.03,0.8025 0.11,1.12125 0.0562,0.2275 0.0838,0.38875 0.0838,0.48 0,0.15875 -0.04,0.28625 -0.1225,0.38125 -0.0813,0.0937 -0.17125,0.14125 -0.27625,0.14125 -0.105,0 -0.19375,-0.0412 -0.26125,-0.125 -0.0925,-0.11125 -0.1375,-0.2525 -0.1375,-0.42 0,-0.0838 0.0188,-0.18625 0.0525,-0.30875 0.0838,-0.27875 0.135,-0.5225 0.155,-0.72875 0.0375,-0.355 0.055,-0.655 0.055,-0.9025 0,-3.53125 0,0 0,-3.53125 0.7425,0 0,0 0.7425,0 0,2.555 0,0 0,2.555 0,0.3025 0.0275,0.52 0.0763,0.6525 0.0512,0.13375 0.14,0.23625 0.27,0.315 0.13125,0.075 0.26,0.115 0.39,0.115 0.15375,0 0.335,-0.0462 0.54375,-0.13875 0.21125,-0.0912 0.42375,-0.23875 0.6375,-0.4425 0,-3.05625 0,0 0,-3.05625 0.73625,0 0,0 0.73625,0"
       style="fill:#000000;fill-opacity:1;fill-rule:nonzero;stroke:none"
       id="path7509" />
    <path
       id="path7525"
       style="fill:#000000;fill-opacity:1;fill-rule:nonzero;stroke:none"
       d="m 344.4351,652.41508 c 0,-5.1525 0,0 0,-5.1525 0.78125,0 0,0 0.78125,0 0,0.7225 0,0 0,0.7225 0.16125,-0.2525 0.37625,-0.45375 0.645,-0.61 0.26875,-0.15375 0.57375,-0.22875 0.9175,-0.22875 0.38,0 0.6925,0.0788 0.93875,0.2375 0.24375,0.1575 0.41625,0.38 0.51625,0.665 0.4075,-0.6025 0.93875,-0.9025 1.59125,-0.9025 0.51125,0 0.905,0.14125 1.18,0.425 0.27375,0.28125 0.4125,0.71875 0.4125,1.3075 0,3.53625 0,0 0,3.53625 -0.87,0 0,0 -0.87,0 0,-3.245 0,0 0,-3.245 0,-0.35 -0.0275,-0.60125 -0.085,-0.75625 -0.055,-0.15375 -0.15875,-0.27625 -0.3075,-0.37 -0.1475,-0.0937 -0.3225,-0.14125 -0.52375,-0.14125 -0.3625,0 -0.6625,0.12 -0.9025,0.36 -0.23875,0.24375 -0.35875,0.6275 -0.35875,1.15875 0,2.99375 0,0 0,2.99375 -0.87375,0 0,0 -0.87375,0 0,-3.3475 0,0 0,-3.3475 0,-0.39 -0.0725,-0.68 -0.2125,-0.87375 -0.1425,-0.19375 -0.37625,-0.29125 -0.7,-0.29125 -0.245,0 -0.47375,0.0638 -0.68,0.195 -0.21,0.12875 -0.36125,0.3175 -0.455,0.5675 -0.095,0.24875 -0.14125,0.6075 -0.14125,1.0775 0,2.6725 0,0 0,2.6725 -0.8725,0 0,0 -0.8725,0"
       inkscape:connector-curvature="0" />
    <path
       id="path7527"
       style="fill:#000000;fill-opacity:1;fill-rule:nonzero;stroke:none"
       d="m 353.21635,654.50633 c -0.625,0 0,0 -0.625,0 0.965,-1.55375 1.45,-3.1075 1.45,-4.66375 0,-0.60625 -0.0687,-1.21125 -0.20875,-1.80875 -0.11,-0.48625 -0.26375,-0.95125 -0.46125,-1.3975 -0.12625,-0.29 -0.38625,-0.77625 -0.78,-1.455 0.625,0 0,0 0.625,0 0.6075,0.81125 1.0575,1.62625 1.34875,2.445 0.2475,0.705 0.37375,1.44375 0.37375,2.2125 0,0.8725 -0.1675,1.7175 -0.50125,2.53125 -0.33625,0.81625 -0.7425,1.5275 -1.22125,2.13625"
       inkscape:connector-curvature="0" />
    <path
       inkscape:connector-curvature="0"
       d="m 337.6001,468.82508 c -0.79375,0.0638 0,0 -0.79375,0.0638 -0.0688,-0.31375 -0.17,-0.54 -0.3,-0.6825 -0.21625,-0.2275 -0.4825,-0.34 -0.7975,-0.34 -0.25375,0 -0.4775,0.0688 -0.66875,0.21125 -0.25125,0.18375 -0.44875,0.45 -0.59375,0.8025 -0.1475,0.35125 -0.22,0.8525 -0.22625,1.5025 0.19125,-0.29375 0.4275,-0.51 0.70375,-0.65125 0.2775,-0.14125 0.57,-0.21375 0.8725,-0.21375 0.5325,0 0.985,0.19625 1.35875,0.5875 0.3725,0.39 0.56,0.8975 0.56,1.5175 0,0.4075 -0.0888,0.78625 -0.2625,1.135 -0.17625,0.35125 -0.4175,0.61875 -0.725,0.80375 -0.3075,0.18625 -0.6575,0.28 -1.045,0.28 -0.665,0 -1.2075,-0.24375 -1.62625,-0.7325 -0.42,-0.48875 -0.63,-1.295 -0.63,-2.41625 0,-1.25625 0.2325,-2.16875 0.6975,-2.7375 0.4025,-0.4975 0.94875,-0.74625 1.63375,-0.74625 0.51125,0 0.92875,0.14375 1.255,0.43 0.32625,0.2875 0.52125,0.6825 0.5875,1.18625 z m -3.25625,2.80125 c 0,0.27375 0.0575,0.5375 0.175,0.78875 0.1175,0.25125 0.28,0.44125 0.49,0.5725 0.21,0.1325 0.42875,0.19875 0.66,0.19875 0.33625,0 0.62625,-0.135 0.8675,-0.4075 0.2425,-0.2725 0.36375,-0.64125 0.36375,-1.10875 0,-0.44875 -0.11875,-0.8025 -0.36,-1.06125 -0.23875,-0.2575 -0.53875,-0.38625 -0.90125,-0.38625 -0.36125,0 -0.66875,0.12875 -0.92,0.38625 -0.25,0.25875 -0.375,0.59875 -0.375,1.0175"
       style="fill:#000000;fill-opacity:1;fill-rule:nonzero;stroke:none"
       id="path7537" />
    <path
       inkscape:connector-curvature="0"
       d="m 342.07135,469.96383 c 0,2.48 0,0 0,2.48 0,0.33 0.015,0.55875 0.0437,0.69 0.0263,0.0937 0.0625,0.1625 0.1125,0.20375 0.0487,0.0387 0.10125,0.06 0.15625,0.06 0.0675,0 0.1325,-0.035 0.19,-0.10125 0.06,-0.07 0.10375,-0.20625 0.13,-0.40875 0.17,0 0,0 0.17,0 -0.0488,0.3675 -0.13875,0.62 -0.27125,0.76125 -0.135,0.14 -0.305,0.21 -0.51125,0.21 -0.20125,0 -0.365,-0.0625 -0.48625,-0.18625 -0.12125,-0.1225 -0.1925,-0.335 -0.2175,-0.64 -0.27875,0.30875 -0.54375,0.525 -0.795,0.6475 -0.2525,0.12125 -0.46875,0.18375 -0.6525,0.18375 -0.12375,0 -0.24375,-0.0263 -0.3625,-0.0738 -0.1175,-0.0475 -0.23375,-0.11875 -0.345,-0.21125 -0.005,0.3975 0.0288,0.745 0.1025,1.04 0.0512,0.2125 0.0787,0.36 0.0787,0.445 0,0.14875 -0.0387,0.265 -0.11375,0.35375 -0.075,0.0875 -0.16125,0.13125 -0.2575,0.13125 -0.0975,0 -0.17875,-0.0375 -0.2425,-0.115 -0.0838,-0.105 -0.12875,-0.235 -0.12875,-0.39125 0,-0.0775 0.0188,-0.1725 0.05,-0.28625 0.0763,-0.26 0.125,-0.4825 0.145,-0.6775 0.0325,-0.3275 0.0487,-0.6075 0.0487,-0.83625 0,-3.27875 0,0 0,-3.27875 0.69,0 0,0 0.69,0 0,2.3725 0,0 0,2.3725 0,0.28 0.025,0.4825 0.0712,0.605 0.0463,0.12375 0.13,0.22125 0.25125,0.29125 0.12,0.0725 0.24125,0.1075 0.36125,0.1075 0.14375,0 0.31125,-0.0425 0.50625,-0.1275 0.195,-0.085 0.3925,-0.22375 0.5925,-0.41125 0,-2.8375 0,0 0,-2.8375 0.68375,0 0,0 0.68375,0"
       style="fill:#000000;fill-opacity:1;fill-rule:nonzero;stroke:none"
       id="path7539" />
    <path
       inkscape:connector-curvature="0"
       d="m 343.2976,473.73133 c 0,-4.70375 0,0 0,-4.70375 0.71375,0 0,0 0.71375,0 0,0.65875 0,0 0,0.65875 0.14625,-0.23125 0.3425,-0.415 0.59,-0.555 0.24375,-0.1425 0.5225,-0.21125 0.83625,-0.21125 0.3475,0 0.63375,0.0712 0.8575,0.21625 0.22125,0.14625 0.38,0.3475 0.4725,0.6075 0.37125,-0.55 0.85625,-0.82375 1.45125,-0.82375 0.46625,0 0.82625,0.12875 1.07625,0.3875 0.25375,0.2575 0.37625,0.6575 0.37625,1.19375 0,3.23 0,0 0,3.23 -0.79375,0 0,0 -0.79375,0 0,-2.96375 0,0 0,-2.96375 0,-0.31875 -0.0238,-0.5475 -0.0763,-0.69 -0.0512,-0.14 -0.14375,-0.2525 -0.28125,-0.3375 -0.13625,-0.0875 -0.29375,-0.13 -0.4775,-0.13 -0.33,0 -0.605,0.11 -0.825,0.33125 -0.2175,0.22 -0.3275,0.57125 -0.3275,1.0575 0,2.7325 0,0 0,2.7325 -0.7975,0 0,0 -0.7975,0 0,-3.0575 0,0 0,-3.0575 0,-0.355 -0.065,-0.61875 -0.19375,-0.79625 -0.13125,-0.1775 -0.34375,-0.2675 -0.63875,-0.2675 -0.225,0 -0.43125,0.06 -0.6225,0.17875 -0.19,0.1175 -0.33,0.28875 -0.415,0.51875 -0.0863,0.2275 -0.1275,0.55375 -0.1275,0.9825 0,2.44125 0,0 0,2.44125 -0.7975,0 0,0 -0.7975,0"
       style="fill:#000000;fill-opacity:1;fill-rule:nonzero;stroke:none"
       id="path7541" />
    <path
       inkscape:connector-curvature="0"
       d="m 154.8576,444.19508 c -0.075,-0.4 -0.22375,-0.6975 -0.46125,-0.905 -0.2525,-0.19375 -0.56375,-0.2975 -0.935,-0.2975 -0.505,0 -0.905,0.17875 -1.2175,0.52 -0.2975,0.34125 -0.44625,0.93625 -0.44625,1.7525 0,0.92125 0.14875,1.57375 0.46125,1.945 0.31125,0.37125 0.7125,0.565 1.2325,0.565 0.38625,0 0.6975,-0.11875 0.95,-0.34125 0.2525,-0.22375 0.41625,-0.595 0.52,-1.1275 l 2.005,0.33875 c -0.20875,0.92125 -0.60875,1.61875 -1.2025,2.08 -0.58,0.475 -1.3675,0.7125 -2.36125,0.7125 -1.12875,0 -2.035,-0.355 -2.70375,-1.06875 -0.6675,-0.7125 -0.995,-1.6925 -0.995,-2.95625 0,-1.26125 0.3275,-2.25625 0.995,-2.96875 0.66875,-0.69875 1.58875,-1.05625 2.7325,-1.05625 0.93625,0 1.69375,0.195 2.2425,0.59625 0.55,0.40125 0.95125,1.02375 1.1875,1.85625 l -2.00375,0.355"
       style="fill:#000000;fill-opacity:1;fill-rule:nonzero;stroke:none"
       id="path8417" />
  </g>
</svg>
